<svg width="347" height="347" viewBox="0 0 347 347" fill="none" xmlns="http://www.w3.org/2000/svg">
<path d="M1 53.5806L3.16945 53.2951L5.2818 52.8954L6.36652 52.7242L7.39415 52.4958L8.47889 52.2103L9.5636 51.982L10.5912 51.6966L11.5618 51.354L12.5894 51.0114L13.56 50.6118L14.5876 50.1551L15.501 49.6984L16.4716 49.1845L17.385 48.6136L18.2985 47.9856L19.1548 47.3576L20.0112 46.6725L20.8676 45.9304L21.6097 45.1882L22.409 44.389L23.1512 43.5897L23.8934 42.7333L24.6355 41.8769L25.3206 41.0206L25.9486 40.05L26.5766 39.1366L27.1475 38.166L27.7184 37.1955L28.2893 36.225L28.7461 35.2544L29.2028 34.2268L29.6595 33.1992L30.0592 32.1715L30.4017 31.1439L30.7442 30.1163L31.0297 29.0315L31.2581 28.0039L31.5435 26.9763L31.7148 25.8915L31.8861 24.8068L32.0002 23.7792L32.1144 22.6945L32.2286 21.6668L32.2857 20.5821V19.4974V18.4127V17.3279V16.2432L32.1715 14.0738L32.0002 11.9043L31.7719 9.73491L31.4864 7.56544L31.201 5.3389L30.5159 1" stroke="#999999" stroke-opacity="0.62" stroke-width="0.799269" stroke-miterlimit="10"/>
<path d="M1 35.3686L1.79927 35.2544L2.59853 35.0831L3.34072 34.9119L4.0258 34.7977L4.59672 34.6265L5.16762 34.5122L5.62435 34.341L6.02399 34.2268L6.36652 34.1126L6.65199 33.9985L7.1087 33.7701L7.39415 33.5988L7.62252 33.4275L7.90797 33.2562L8.19342 33.085L8.47889 32.7995L8.76434 32.5712L9.10689 32.2286L9.39234 31.9432L9.73487 31.6006L10.0774 31.201L10.3629 30.8584L10.7054 30.4588L11.2763 29.6024L11.8472 28.689L12.3611 27.7184L12.8178 26.7479L12.989 26.2912L13.2174 25.7774L13.5029 24.8639L13.617 24.4072L13.7312 23.8934L13.8454 23.3796L13.9596 22.8657L14.0167 22.3519L14.1309 21.781L14.188 21.153L14.245 20.525V19.897V19.269V18.5839V17.8989V17.1567V16.4145L14.188 15.6152L14.1309 14.873L14.0738 14.0167L14.0167 13.2174L13.9025 12.304L13.7883 11.4476L13.6741 10.5342L13.56 9.62071L13.4458 8.70728L13.3316 7.7367L13.2745 7.22291L13.1603 6.70907L13.1032 6.36654L13.0461 6.08111L12.989 5.73854L12.8749 5.39601L12.8178 4.93927L12.7036 4.53964L12.5894 4.0829L12.4752 3.56911L12.304 2.99821L12.1898 2.37021L12.0185 1.6851L11.7901 1" stroke="#999999" stroke-opacity="0.62" stroke-width="0.799269" stroke-miterlimit="10"/>
<path d="M1 78.9288L4.42543 77.9583L7.90797 76.9306L9.5636 76.4168L11.2763 75.903L12.932 75.3321L14.6447 74.7612L16.2432 74.1902L17.8418 73.5623L19.4403 72.8772L20.9817 72.1921L22.5232 71.507L24.0646 70.7078L25.4919 69.9084L26.9192 69.1092L28.2893 68.1958L29.6024 67.2823L30.9155 66.2546L31.5435 65.7409L32.1144 65.227L32.7424 64.6561L33.3133 64.1423L33.8842 63.5714L34.4551 62.9434L35.026 62.3154L35.5399 61.7445L36.5675 60.4314L37.538 59.1183L38.5086 57.7481L39.3649 56.3209L40.2213 54.8936L41.0206 53.4092L41.8198 51.8678L42.562 50.3264L43.19 48.7278L43.8751 47.1293L44.5031 45.4736L45.1311 43.818L45.702 42.1053L46.2729 40.4497L46.7867 38.7369L47.3005 37.0242L47.8144 35.3115L48.7278 31.829L49.5842 28.4606L49.9838 26.7479L50.4405 25.0352L50.8973 23.3796L51.4111 21.781L51.982 20.1825L52.2103 19.3832L52.5529 18.5839L52.8383 17.8418L53.238 17.0996L53.5805 16.3574L53.9801 15.6152L54.3798 14.9301L54.7794 14.188L55.2361 13.5029L55.6929 12.8178L56.2067 12.1898L56.7205 11.5047L57.2343 10.8767L57.8052 10.2487L58.947 8.9927L60.1459 7.7938L61.4019 6.59491L62.6579 5.45311L63.971 4.31127L65.3412 3.22658L68.0815 1" stroke="#999999" stroke-opacity="0.62" stroke-width="0.799269" stroke-miterlimit="10"/>
<path d="M1 94.4004L4.82509 93.0873L8.70723 91.7171L12.5323 90.2899L14.4163 89.5477L16.3003 88.8055L18.1843 88.0062L20.0683 87.207L21.9523 86.3506L23.7792 85.4371L25.6061 84.5237L27.433 83.5532L29.2028 82.5255L30.9726 81.4979L32.7424 80.4132L34.4551 79.2714L36.1679 78.1295L37.8806 76.9306L39.4791 75.6746L41.1347 74.4186L42.7333 73.1627L44.3318 71.7924L45.8733 70.4223L47.3576 69.0521L48.842 67.6249L50.2693 66.1405L51.6965 64.6561L53.0667 63.1718L54.4369 61.6303L55.6929 60.0318L56.9489 58.4333L58.2049 56.8347L59.3467 55.2361L60.5456 53.5235L61.6303 51.8678L62.7721 50.1551L63.7997 48.4424L64.8274 46.7296L65.855 44.9027L66.8255 43.1329L67.739 41.3631L68.7095 39.5362L69.5659 37.7093L70.4223 35.8824L71.3357 33.9984L72.135 32.1144L72.9913 30.2304L73.7335 28.3464L74.5328 26.4054L75.275 24.5214L76.8164 20.6392L78.2437 16.757L79.6709 12.8178L80.984 8.87854L83.7244 1" stroke="#999999" stroke-opacity="0.62" stroke-width="0.799269" stroke-miterlimit="10"/>
<path d="M1 118.264L4.99635 116.38L8.9927 114.439L12.932 112.441L14.9301 111.47L16.8712 110.443L18.8123 109.415L20.7534 108.33L22.6374 107.246L24.5214 106.161L26.3483 104.962L28.2323 103.82L30.0021 102.621L31.7719 101.365L33.5417 100.109L35.2544 98.7393L36.9671 97.4262L38.5657 95.9989L40.1642 94.5717L41.7627 93.0302L43.2471 91.4888L44.7315 89.8902L46.2158 88.2346L47.586 86.5219L49.0133 84.7521L50.3263 82.9822L51.6394 81.2124L52.9525 79.3855L54.2656 77.5586L55.5216 75.6746L60.5456 68.2529L61.8016 66.3689L63.0576 64.542L64.3136 62.7721L65.6266 61.0023L66.9397 59.2325L68.3099 57.5198L69.623 55.8641L70.9932 54.2085L72.4204 52.6671L73.9048 51.1827L74.647 50.4405L75.3891 49.6984L76.1884 49.0133L76.9306 48.3282L77.7299 47.6431L78.5292 47.0151L79.3284 46.3871L80.1848 45.7591L80.984 45.1882L81.8975 44.6173L82.7538 44.0464L83.6102 43.5326L84.5237 43.0187L85.4371 42.5049L86.3506 41.9911L87.264 41.5344L88.2345 41.0777L89.2051 40.678L91.1462 39.7646L93.1444 38.9653L95.1996 38.2231L97.312 37.4239L99.4814 36.7388L101.708 36.0537L103.992 35.3686L106.275 34.6835L108.616 33.9984L111.014 33.3704L113.412 32.7424L115.866 32.1144L118.321 31.5435L120.776 31.0297L123.231 30.573L124.43 30.4017L125.629 30.2304L126.885 30.0592L128.084 29.8879L129.226 29.7737L130.425 29.7166L131.623 29.6595L132.765 29.6024H133.907H135.106L136.191 29.6595L137.275 29.7737L138.36 29.8879L139.445 30.0021L140.473 30.1733L141.5 30.4017L142.528 30.6301L143.498 30.9726L144.469 31.3152L145.382 31.7148L146.353 32.1144L147.209 32.5712L148.066 33.085L148.865 33.6559L149.664 34.2839L150.463 34.9119L151.148 35.654L151.834 36.3962L152.519 37.1955L153.147 38.0519L153.775 38.9653L154.346 39.9358L154.916 40.8493L155.487 41.8198L156.629 43.7609L157.771 45.702L158.399 46.6725L159.027 47.586L159.712 48.4994L160.397 49.3558L161.139 50.1551L161.882 50.8973L162.281 51.2969L162.681 51.6394L163.138 51.982L163.594 52.2674L164.051 52.5529L164.508 52.8383L165.022 53.0667L165.478 53.3522L166.049 53.5235L166.563 53.7518L167.134 53.9231L167.648 54.0943L168.219 54.2085L168.847 54.3227L169.418 54.3798L169.988 54.494L170.559 54.5511H171.13H171.701H172.272L172.9 54.494L173.414 54.4369L173.985 54.3798L174.556 54.2656L175.069 54.1515L175.64 54.0372L176.154 53.866L176.611 53.6376L177.125 53.4092L177.581 53.1809L178.038 52.9526L178.438 52.6671L178.895 52.3246L179.237 52.0391L179.58 51.6966L179.979 51.2969L180.265 50.8973L180.607 50.5547L180.893 50.098L181.121 49.6413L181.407 49.2416L181.635 48.7849L181.863 48.2711L182.092 47.7573L182.263 47.2435L182.434 46.7296L182.605 46.1587L182.777 45.6449L183.005 44.5031L183.176 43.3613L183.348 42.1624L183.405 40.9635L183.462 39.7075V38.4515L183.405 37.1955L183.348 35.9395L183.233 34.6264L183.119 33.4275L182.948 32.1715L182.72 30.9726L182.491 29.7737L182.32 28.5748L182.092 27.433L181.863 26.2912L181.692 25.1494L181.521 24.0646L181.349 23.037L181.235 21.9523L181.178 20.9247L181.121 19.9541L181.178 18.9836L181.235 18.4698L181.349 18.013L181.407 17.6134L181.521 17.0996L181.692 16.6999L181.806 16.2432L181.977 15.7865L182.149 15.3869L182.32 14.9301L182.548 14.5305L183.062 13.7312L183.633 12.932L184.261 12.1327L184.946 11.3905L185.631 10.6483L186.431 9.90618L187.287 9.22107L188.143 8.53597L189.114 7.85091L190.027 7.1658L191.055 6.5378L192.025 5.9098L193.11 5.2818L194.195 4.65384L196.364 3.39784L198.648 2.14184L200.932 1" stroke="#999999" stroke-opacity="0.62" stroke-width="0.799269" stroke-miterlimit="10"/>
<path d="M99.7108 1L97.2559 2.76984L96.057 3.62621L94.9152 4.53964L93.7163 5.45311L92.5745 6.30943L91.4897 7.22291L90.4621 8.13633L89.4916 9.04981L88.521 9.96323L87.6647 10.8767L86.8083 11.7902L86.4658 12.304L86.0661 12.7607L85.7236 13.2174L85.4381 13.6741L85.1527 14.1309L84.8672 14.5876L84.5818 15.0443L84.3534 15.5581L84.125 16.0149L83.9538 16.5287L83.7825 16.9854L83.6683 17.4992L83.6112 17.9559L83.497 18.4127L83.4399 18.9265V19.4403L83.497 19.897V20.4108L83.6112 20.9247L83.7254 21.4385L83.8396 21.8952L84.0109 22.4661L84.2392 22.9228L84.5247 23.4366L84.8101 23.9505L85.1527 24.4643L85.4381 24.9781L85.8378 25.4348L86.2374 25.8915L86.637 26.2912L87.0367 26.6337L87.4934 26.9763L87.9501 27.2617L88.4639 27.5472L88.9207 27.7184L89.3774 27.8326L89.8912 27.9468H90.405H90.9188H91.3756L91.9465 27.8326L92.4603 27.7755L92.9741 27.6043L93.4879 27.433L94.0588 27.2046L94.5726 27.0334L95.1435 26.7479L95.7144 26.4625L96.7992 25.8915L97.941 25.2635L100.225 24.0076L101.366 23.3225L102.565 22.7516L103.707 22.2377L104.849 21.7239L105.991 21.3243L107.19 20.9817L108.331 20.6392L109.473 20.4108L110.615 20.2396L111.757 20.0683L112.899 19.9541L114.041 19.8399H115.182L116.324 19.7828L117.466 19.8399L118.608 19.897L120.891 20.0112L123.118 20.2396L127.628 20.7534L129.855 20.9817L132.081 21.153L136.534 21.4385L138.761 21.6668L139.846 21.781L140.987 21.8952L142.072 22.0665L143.157 22.2948L144.299 22.5232L145.44 22.8086L146.582 23.0941L147.667 23.4366L148.809 23.8363L149.951 24.293L151.092 24.8068L152.234 25.3777L153.376 26.0057L154.518 26.6908L156.801 28.061L157.943 28.689L158.514 29.0315L159.028 29.317L159.542 29.6024L160.113 29.8308L160.627 30.0592L161.14 30.2875L161.597 30.4017L162.111 30.5159L162.568 30.6301L163.024 30.6872H163.424L163.881 30.6301L164.28 30.5159L164.68 30.4017L165.08 30.1733L165.422 29.8879L165.765 29.6024L166.107 29.2599L166.393 28.9174L166.735 28.4606L167.021 28.061L167.306 27.5472L167.592 27.0334L167.877 26.5195L168.163 25.9486L168.391 25.3777L168.905 24.1788L169.419 22.9228L170.389 20.4108L170.903 19.1548L171.417 17.9559L171.93 16.757L172.501 15.6152L173.015 14.5305L173.643 13.5029L174.214 12.4181L174.842 11.4476L175.47 10.4771L176.098 9.5636L176.726 8.65017L177.354 7.7367L178.667 5.9669L179.98 4.25417L181.35 2.59858L182.664 1" stroke="#999999" stroke-opacity="0.62" stroke-width="0.799269" stroke-miterlimit="10"/>
<path d="M1 133.393L5.79562 132.422L8.19342 131.851L10.5912 131.338L12.932 130.767L15.2727 130.139L17.6134 129.511L19.897 128.826L22.1806 128.026L23.3225 127.684L24.4072 127.227L25.549 126.77L26.6337 126.371L27.7184 125.857L28.8032 125.343L29.8308 124.829L30.9155 124.315L31.9432 123.744L32.9708 123.173L33.9984 122.545L34.969 121.917L35.9395 121.289L36.9671 120.604L37.8806 119.862L38.8511 119.177L39.7646 118.435L40.7351 117.693L41.6486 116.894L42.562 116.094L43.4184 115.295L44.3318 114.439L45.1882 113.639L45.9875 112.726L46.8438 111.87L47.7002 110.956L48.4994 110.043L49.2987 109.129L50.8402 107.245L52.3816 105.304L53.866 103.306L55.2932 101.308L56.6634 99.2525L57.9765 97.1402L59.2325 95.0278L60.4885 92.8584L61.6303 90.6889L62.7721 88.5195L63.9139 86.35L66.1405 81.954L67.2823 79.8417L68.367 77.6722L69.5088 75.5599L70.7648 73.5046L71.9637 71.4494L72.5917 70.4217L73.2768 69.4512L73.9048 68.4806L74.5899 67.5672L75.3321 66.5967L76.0172 65.6261L76.7593 64.7698L77.5586 63.8563L78.3008 62.9999L79.1571 62.1436L79.9564 61.2872L80.8128 60.488L81.7262 59.6887L82.6397 58.9465L83.5531 58.1472L84.4666 57.405L85.4371 56.7199L86.4648 56.0349L87.4353 55.3498L88.4629 54.7218L89.4906 54.0938L90.5753 53.4087L91.66 52.8949L92.7447 52.324L93.8294 51.7531L94.9713 51.2392L96.056 50.7254L97.2549 50.2687L98.3967 49.8691L99.5385 49.4123L100.737 49.0127L101.936 48.6702L103.135 48.3276L104.334 47.9851L105.59 47.6996L106.789 47.4142L108.045 47.1858L109.301 46.9574L110.557 46.7291L111.756 46.5578L113.069 46.4436L114.325 46.3294L115.581 46.2153L116.837 46.1582L118.15 46.1011H119.406L120.662 46.1582H121.975L123.231 46.2723L124.487 46.3865L125.743 46.5007L127.056 46.672L128.312 46.8433L129.568 47.0716L130.824 47.3L132.08 47.5283L133.279 47.8709L134.478 48.1563L135.734 48.4989L136.933 48.8985L138.132 49.2982L139.274 49.6978L140.415 50.1545L141.614 50.6683L142.699 51.1821L143.841 51.696L144.926 52.2669L146.01 52.8949L147.095 53.5229L148.123 54.1509L149.15 54.8359L150.121 55.5781L151.091 56.2632L152.005 57.0625L152.918 57.8047L153.832 58.6611L154.688 59.5174L155.544 60.3737L156.344 61.2872L157.143 62.2006L157.885 63.1141L158.57 64.1418L159.255 65.1123L159.94 66.197L160.568 67.2247L161.139 68.3093L161.71 69.3941L162.224 70.4788L162.681 71.6206L163.195 72.7624L163.594 73.9614L163.994 75.1032L164.394 76.3021L164.736 77.5009L165.022 78.6998L165.307 79.9559L165.535 81.1548L165.764 82.4108L165.935 83.6668L166.049 84.8657L166.163 86.1217L166.22 87.3777L166.278 88.5766V89.8326V91.0886L166.22 92.3445L166.163 93.5435L166.049 94.7424L165.878 95.9984L165.707 97.1402L165.478 98.3391L165.25 99.538L164.964 100.68L164.679 101.822L164.336 102.963L163.994 104.105L163.594 105.247L163.195 106.332L162.681 107.474L162.224 108.501L161.767 109.586L161.254 110.671L160.74 111.755L160.112 112.783L159.541 113.868L158.97 114.895L158.342 115.923L157.714 116.951L156.344 119.006L154.974 120.947L153.489 122.945L152.005 124.943L150.463 126.827L148.865 128.768L147.266 130.652L145.611 132.594L143.955 134.477L140.644 138.245L137.333 141.956L133.964 145.667L130.653 149.321L127.285 152.975L123.973 156.572L120.605 160.111L117.294 163.594L113.982 166.962L110.671 170.388L107.417 173.642L105.761 175.297L104.106 176.896L102.507 178.494L100.852 180.036L99.3102 181.577L97.6545 183.119L94.4574 186.145L91.2604 189.17L89.6618 190.712L88.0062 192.253L86.3506 193.852L84.6949 195.45L82.9822 197.163L81.2695 198.876L79.5568 200.646L78.6433 201.559L77.7299 202.472L76.8735 203.443L75.9601 204.414L75.0466 205.384L74.0761 206.412L73.1626 207.496L72.1921 208.524L71.2215 209.609L70.3081 210.694L69.2805 211.835L68.367 212.92L67.4536 214.062L67.0539 214.633L66.6543 215.147L66.3117 215.718L65.9692 216.231L65.6267 216.745L65.3412 217.259L65.1128 217.716L64.8845 218.23L64.7132 218.686L64.599 219.143L64.4848 219.543L64.4278 219.942V220.342L64.5419 220.684L64.6561 221.027L64.8274 221.312L64.9987 221.598L65.2841 221.883L65.5696 222.169L65.9121 222.34L66.3117 222.568L66.7685 222.74L67.2252 222.911L67.6819 223.082L68.2528 223.196L68.8237 223.311L69.3946 223.425L70.0226 223.482L70.6506 223.596H71.3357L72.0208 223.653L72.763 223.71H73.5052H74.2474L75.7317 223.653L77.3302 223.596L78.9288 223.425L80.5844 223.311L82.24 223.082L83.8386 222.911L85.38 222.625L86.9786 222.397L88.4629 222.112L89.9473 221.826L91.3746 221.541L92.7447 221.255L94.172 220.913L95.4851 220.57L96.7982 220.228L98.1112 219.885L99.3672 219.543L100.566 219.2L101.822 218.8L103.021 218.458L104.163 218.115L105.362 217.716L107.588 216.974L109.758 216.288L111.927 215.603L114.04 214.975L116.095 214.404L118.15 213.891L119.121 213.605L120.148 213.434L121.176 213.206L122.204 213.034L123.231 212.863L124.259 212.749L125.286 212.692L126.371 212.578L127.399 212.52H128.426H129.511L130.596 212.578L131.681 212.635L132.765 212.749L133.85 212.863L134.992 212.977L136.134 213.148L137.275 213.32L139.559 213.719L141.843 214.233L144.241 214.69L146.638 215.204L148.979 215.718L151.434 216.231L153.889 216.802L156.344 217.259L158.799 217.716L161.311 218.115L162.51 218.23L163.766 218.401L165.022 218.515L166.278 218.629L167.534 218.743L168.79 218.8L170.045 218.857H171.301L172.557 218.8L173.814 218.743L175.07 218.629L176.326 218.515L177.581 218.344L178.837 218.172L180.093 218.001L181.292 217.716L182.491 217.487L183.747 217.202L184.946 216.859L186.088 216.46L187.287 216.117L188.486 215.66L189.571 215.204L190.712 214.747L191.797 214.233L192.939 213.662L193.967 213.091L195.051 212.463L196.079 211.835L197.107 211.15L198.077 210.465L199.048 209.723L199.961 208.981L200.874 208.182L201.731 207.325L202.587 206.469L203.386 205.555L204.186 204.699L204.985 203.728L205.727 202.758L206.469 201.787L207.154 200.76L208.525 198.762L211.208 194.651L212.521 192.596L213.891 190.655L214.576 189.684L215.318 188.714L216.004 187.857L216.746 186.944L217.488 186.087L218.287 185.231L219.144 184.489L219.943 183.747L220.856 183.005L221.713 182.319L222.569 181.634L223.539 180.949L225.366 179.636L227.25 178.323L229.191 176.953L230.162 176.268L231.133 175.583L232.103 174.841L233.074 174.041L233.987 173.242L234.958 172.386L235.871 171.529L236.842 170.559L237.755 169.588L238.611 168.561L239.525 167.476L240.381 166.277L241.181 165.078L241.98 163.822L242.722 162.566L243.064 161.938L243.35 161.31L243.692 160.682L243.921 160.054L244.206 159.426L244.435 158.798L244.663 158.17L244.834 157.599L245.006 156.971L245.12 156.4L245.177 155.886L245.234 155.316V154.802V154.288V153.774L245.12 153.375L244.948 152.918L244.777 152.518L244.549 152.119L244.32 151.776L243.978 151.433L243.635 151.148L243.236 150.863L242.836 150.634L242.379 150.463L241.866 150.235L241.352 150.063L240.838 149.949L240.267 149.835L239.696 149.721L239.068 149.664L238.44 149.607L237.755 149.549H237.07H236.385H235.7L234.273 149.607L232.788 149.778L231.361 149.949L229.877 150.177L228.449 150.463L227.079 150.748L225.766 151.091L224.453 151.433L223.197 151.776L221.998 152.119L220.856 152.518L219.657 152.861L218.516 153.26L216.289 153.945L215.204 154.288L214.062 154.573L212.978 154.859L211.893 155.087L210.808 155.316L209.666 155.487L208.525 155.601L207.383 155.715H206.127L204.928 155.658H204.3L203.672 155.544H203.044L202.359 155.373L201.046 155.144L200.361 155.03L199.733 154.859L199.105 154.688L198.477 154.459L197.849 154.231L197.221 154.003L196.65 153.717L196.079 153.432L195.565 153.146L195.051 152.804L194.595 152.518L194.138 152.176L193.738 151.776L193.396 151.319L193.11 150.92L192.825 150.52L192.596 150.063L192.425 149.549L192.311 149.036L192.254 148.522V148.008V147.437L192.311 146.866L192.425 146.352L192.539 145.781L192.711 145.211L192.882 144.583L193.11 144.012L193.396 143.384L193.681 142.813L194.024 142.242L194.366 141.614L194.766 141.043L195.165 140.472L195.565 139.901L196.022 139.33L196.479 138.759L196.992 138.245L197.449 137.732L197.963 137.218L198.477 136.704L199.048 136.19L199.561 135.733L200.132 135.277L200.703 134.877L201.274 134.535L201.845 134.135L202.416 133.792L202.987 133.45L203.558 133.164L204.129 132.936L204.757 132.651L205.328 132.422L205.956 132.251L206.526 132.08L207.097 131.908L207.725 131.794L208.296 131.623L209.495 131.452L210.694 131.28L211.95 131.223H213.149H214.348L215.547 131.338L216.803 131.452L218.002 131.566L220.457 131.908L222.911 132.308L225.252 132.708L226.451 132.879L227.65 133.05L228.849 133.164L229.991 133.279L231.133 133.336L232.274 133.393L233.473 133.45L234.615 133.507H236.899L239.125 133.45L241.409 133.279L243.692 133.107L245.976 132.879L248.26 132.594L250.6 132.308L252.941 131.966L255.339 131.623L257.794 131.223L260.306 130.881L262.875 130.538L265.444 130.139L266.814 129.91L268.184 129.739L269.555 129.625L270.982 129.396L273.779 129.111L275.207 128.997L276.577 128.883L278.004 128.768L279.317 128.711L280.63 128.654H281.943H283.142H283.713L284.284 128.711H284.855L285.369 128.768L285.882 128.826L286.396 128.883L286.853 128.997L287.31 129.111L287.766 129.168L288.166 129.282L288.509 129.396L288.851 129.568L289.194 129.682L289.479 129.853L289.765 130.024L289.993 130.253L290.221 130.424L290.393 130.652L290.564 130.881L290.678 131.109L290.849 131.338L290.907 131.623L290.964 131.851L291.021 132.137V132.422V132.765V133.05L290.964 133.393L290.907 133.735L290.792 134.021L290.678 134.42L290.507 134.763L290.393 135.105L290.221 135.505L289.993 135.905L289.822 136.304L289.593 136.704L289.308 137.104L289.08 137.503L288.794 137.96L288.166 138.816L287.481 139.73L286.739 140.643L285.94 141.614L285.083 142.584L284.227 143.555L283.256 144.583L282.286 145.61L281.258 146.638L280.173 147.723L279.089 148.807L277.947 149.892L276.805 150.977L275.606 152.119L274.407 153.203L271.895 155.43L269.383 157.713L266.871 159.94L264.302 162.166L261.847 164.336L260.591 165.421L259.392 166.505L258.194 167.533L256.995 168.561L255.853 169.588L254.768 170.559L253.683 171.586L252.599 172.5L251.628 173.413L250.658 174.327L249.744 175.183L248.831 176.097L247.917 176.953L247.118 177.752L246.262 178.551L245.462 179.408L243.864 181.006L240.838 184.146L239.239 185.802L238.44 186.601L237.641 187.401L236.842 188.257L235.985 189.17L235.129 190.027L234.215 190.94L233.302 191.854L232.331 192.767L231.361 193.795L230.333 194.765L229.249 195.793L228.278 196.821L227.307 197.848L226.851 198.362L226.394 198.819L225.994 199.332L225.595 199.789L225.252 200.303L224.967 200.76L224.681 201.216L224.453 201.616L224.282 202.073L224.167 202.472V202.815L224.11 203.215L224.167 203.557L224.282 203.9L224.453 204.185L224.681 204.471L224.967 204.756L225.309 204.984L225.652 205.213L226.109 205.498L226.508 205.67L227.022 205.898L227.536 206.069L228.164 206.24L228.735 206.412L229.363 206.583L229.991 206.697L230.676 206.811L231.361 206.983L232.103 207.097L233.587 207.382L235.129 207.554L238.269 208.01L239.867 208.239L241.409 208.467L242.893 208.752L244.378 209.038L245.748 209.323L247.118 209.666L248.431 210.008L249.687 210.408L250.886 210.751L252.028 211.207L253.17 211.607L254.311 212.064L255.396 212.52L256.481 213.034L257.508 213.548L258.536 214.062L259.507 214.633L260.477 215.147L261.448 215.775L262.361 216.346L263.332 216.974L264.245 217.602L266.072 218.915L267.899 220.285L269.726 221.712L271.61 223.196L273.494 224.738L275.378 226.393L277.205 227.992L278.118 228.905L278.975 229.762L279.831 230.618L280.687 231.532L281.544 232.445L282.343 233.359L283.142 234.329L283.884 235.3L284.626 236.27L285.312 237.241L285.997 238.268L286.625 239.296L287.253 240.324L287.824 241.408L288.337 242.493L288.851 243.578L289.251 244.662L289.651 245.804L290.05 246.946L290.336 248.088L290.564 249.23L290.792 250.429L291.021 251.628L291.078 252.826L291.192 254.025L291.249 255.224V256.48L291.192 257.679L291.135 258.935L291.021 260.134L290.849 261.39L290.678 262.646L290.45 263.845L290.221 265.101L289.879 266.357L289.593 267.613L289.194 268.812L288.794 270.011L288.394 271.21L287.881 272.409L287.424 273.665L286.91 274.806L286.339 276.005L285.711 277.147L285.14 278.289L284.512 279.431L283.827 280.515L283.142 281.657L282.4 282.742L281.715 283.77L280.916 284.797L280.116 285.825L279.317 286.852L278.461 287.766L277.604 288.736L276.748 289.65L275.835 290.563L274.921 291.42L274.008 292.276L273.037 293.075L272.067 293.818L271.096 294.617L270.125 295.359L269.098 296.044L268.07 296.729L267.043 297.414L266.015 298.042L264.987 298.67L263.96 299.241L262.875 299.869L261.847 300.44L260.763 300.954L259.678 301.468L258.593 301.982L256.481 302.895L254.368 303.808L252.256 304.608L250.144 305.35L248.088 306.035L247.061 306.32L245.976 306.606L244.948 306.891L243.864 307.177L242.836 307.405L241.751 307.576L240.724 307.805L239.639 307.976L238.554 308.09L237.47 308.204L236.385 308.319L235.3 308.376L234.158 308.433L233.074 308.49H231.875H230.733L229.591 308.433L228.392 308.376L227.193 308.261L225.994 308.147L224.795 307.976L223.539 307.805L222.283 307.576L220.97 307.405L219.657 307.12L218.344 306.834L216.974 306.492L215.604 306.149L214.234 305.807L212.806 305.407L211.322 304.95L209.895 304.493L208.41 303.98L206.869 303.409L205.27 302.838L203.729 302.267L202.13 301.639L200.475 300.954L197.221 299.641L195.622 298.956L194.024 298.271L192.482 297.643L190.998 297.015L189.513 296.387L188.771 296.101L188.086 295.816L187.401 295.53L186.773 295.245L186.145 295.016L185.517 294.731L184.946 294.56L184.375 294.331L183.804 294.103L183.291 293.932L182.834 293.76L182.32 293.646L181.92 293.475L181.521 293.361L181.178 293.304L180.836 293.247L180.493 293.132H180.265H180.036H179.808L179.694 293.247L179.58 293.304L179.523 293.361L179.465 293.532L179.523 293.703L179.58 293.818L179.637 294.046L179.808 294.331L179.979 294.56L180.265 294.902L180.493 295.188L180.779 295.53L181.121 295.873L181.521 296.272L181.863 296.672L182.32 297.072L182.777 297.471L183.233 297.928L183.747 298.328L184.261 298.784L184.832 299.241L185.346 299.698L186.488 300.611L187.687 301.582L189 302.495L190.256 303.409L191.512 304.265L192.768 305.064L194.024 305.864L195.28 306.606L196.536 307.291L197.792 307.919L198.99 308.547L200.189 309.061L201.388 309.632L202.587 310.088L203.843 310.545L204.985 310.945L206.184 311.401L207.383 311.744L208.525 312.087L209.666 312.372L210.808 312.657L211.95 312.943L213.092 313.171L214.234 313.4L216.517 313.799L218.744 314.199L220.97 314.484L223.197 314.77L227.65 315.284L229.819 315.569L232.046 315.912L234.273 316.254L236.442 316.654L238.669 317.111L240.895 317.624L243.122 318.138L245.348 318.766L247.575 319.394L249.801 320.022L251.971 320.707L254.197 321.449L256.424 322.192L258.707 322.991L260.877 323.847L263.103 324.704L265.387 325.617L267.556 326.53L269.84 327.444L272.067 328.414L274.293 329.442L276.52 330.413L278.803 331.44L280.973 332.468L285.483 334.637L289.993 336.864L294.446 339.091L298.956 341.374L307.92 345.998" stroke="#999999" stroke-opacity="0.62" stroke-width="1.59854" stroke-miterlimit="10"/>
<path d="M1 148.58L5.05343 147.495L9.16397 146.41L13.2745 145.268L15.2727 144.698L17.3279 144.013L19.3261 143.385L21.3243 142.757L23.3225 142.014L25.2635 141.329L27.2617 140.587L29.2028 139.788L31.1439 138.931L33.085 138.018L34.969 137.104L36.8529 136.134L38.7369 135.106L40.5638 134.022L42.3907 132.937L44.1606 131.795L45.9304 130.539L47.7002 129.34L49.3558 128.027L51.0685 126.714L52.7242 125.344L54.3227 123.917L55.8641 122.432L57.3485 120.948L58.8329 119.463L60.3172 117.865L61.6874 116.266L63.0005 114.611L64.3136 112.898L65.5696 111.185L66.8255 109.416L67.9674 107.646L70.3081 104.106L72.7059 100.509L73.8477 98.7967L75.1037 97.0839L76.3597 95.4283L77.6728 93.7726L78.3579 92.9734L79.043 92.1741L79.728 91.3748L80.4702 90.6327L81.2124 89.8905L82.0117 89.2054L82.7538 88.5203L83.6102 87.8353L84.4095 87.1502L85.2658 86.5221L86.1222 85.8941L86.9786 85.3233L87.892 84.7524L88.8055 84.1814L89.7189 83.6676L90.6894 83.1538L91.66 82.64L92.6305 82.2403L93.6011 81.7836L94.5716 81.384L95.5992 80.9843L96.6269 80.5847L97.7116 80.2993L98.7392 79.9567L99.824 79.7283L100.852 79.4429L101.936 79.2145L103.021 79.0433L104.106 78.872L105.248 78.7007L106.332 78.5865L107.417 78.4723H108.559L109.644 78.4153H110.785L111.927 78.4723L113.069 78.5294L114.154 78.6437L115.296 78.8149L116.437 78.9862L117.579 79.2145L118.721 79.3858L119.863 79.6713L121.005 79.9567L122.146 80.3563L123.231 80.6989L124.316 81.0986L125.458 81.5552L126.542 82.012L127.57 82.4687L128.655 82.9825L129.682 83.5535L130.653 84.1244L131.623 84.6952L132.537 85.3233L133.45 85.9513L134.307 86.6363L135.163 87.3214L135.905 88.0065L136.647 88.7487L137.39 89.4908L138.018 90.2331L138.589 91.0323L139.159 91.7745L139.673 92.5737L140.073 93.373L140.415 94.2294L140.758 95.0858L140.986 95.9421L141.215 96.7985L141.329 97.6548L141.386 98.5683V99.4247L141.329 100.338L141.272 101.252L141.1 102.108L140.929 103.078L140.701 103.992L140.415 104.905L140.13 105.876L139.73 106.789L139.331 107.703L138.874 108.673L138.36 109.587L137.846 110.557L137.333 111.528L136.705 112.441L136.077 113.412L135.449 114.382L134.763 115.353L134.021 116.266L133.279 117.237L132.537 118.15L131.738 119.121L130.938 120.034L130.139 120.948L128.426 122.832L126.657 124.659L124.887 126.486L123.003 128.198L121.119 129.911L119.235 131.624L117.351 133.279L115.524 134.878L113.64 136.419L111.813 137.904L110.043 139.331L108.216 140.701L106.504 142.014L104.734 143.327L103.021 144.64L101.308 145.839L99.5956 147.095L97.94 148.294L94.6287 150.635L91.3745 152.976L88.1204 155.316L84.8662 157.657L83.2677 158.856L81.6691 160.112L80.0135 161.368L78.415 162.624L76.8164 163.88L75.1608 165.193L73.5622 166.506L71.9637 167.876L70.3652 169.247L68.7666 170.617L67.1681 172.044L65.5696 173.471L64.0281 174.898L62.4867 176.383L60.9452 177.81L59.4038 179.352L57.8623 180.836L56.378 182.377L54.8936 183.919L53.4092 185.517L51.982 187.059L50.4976 188.657L49.1274 190.313L47.7002 191.912L46.33 193.567L44.9598 195.223L43.6467 196.878L42.3337 198.591L41.0777 200.247L39.7646 202.017L38.5657 203.729L37.3668 205.499L36.1679 207.269L35.026 209.039L33.8842 210.866L32.7995 212.635L31.7719 214.462L30.7442 216.346L29.7737 218.173L28.8032 220.114L27.8897 221.998L27.0334 223.882L26.177 225.823L25.3206 227.822L24.5785 229.763L23.8363 231.761L23.1512 233.759L22.4661 235.871L21.8952 237.87L21.3243 239.925L20.8105 242.037L20.3537 244.092L19.9541 246.205L19.6115 248.317L19.3261 250.487L19.0978 252.599L18.9836 254.768L18.9265 256.881V257.965V258.993V260.078L18.9836 261.163L19.0407 262.247L19.1548 263.332L19.269 264.36L19.3832 265.444L19.5545 266.529L19.6687 267.614L19.897 268.641L20.1254 269.726L20.3537 270.811L20.6392 271.839L20.9247 272.923L21.2101 274.008L21.5526 275.036L21.8952 276.12L22.2948 277.148L22.6945 278.233L23.1512 279.26L23.6079 280.288L24.0646 281.316L24.5785 282.4L25.1494 283.428L25.6632 284.398L26.2912 285.426L26.9192 286.397L27.5472 287.424L28.1752 288.395L28.8603 289.308L29.5453 290.279L30.2875 291.135L31.0297 292.049L31.7719 292.905L32.5141 293.761L33.3133 294.561L34.1126 295.303L34.9119 296.045L35.7682 296.73L36.5675 297.415L37.4809 298.043L38.3373 298.614L39.1937 299.185L40.1071 299.642L41.0777 300.098L41.934 300.498L42.9046 300.841L43.818 301.183L44.7886 301.411L45.7591 301.64L46.7296 301.754L47.7002 301.868H48.6707H49.6413L50.6689 301.811L51.6394 301.697L52.6671 301.526L53.6947 301.354L54.6652 301.126L55.6929 300.841L56.7205 300.555L57.7481 300.27L58.7758 299.927L60.8881 299.242L62.9434 298.443L67.1681 296.901L69.2804 296.159L71.3928 295.417L72.4775 295.131L73.5052 294.789L74.5899 294.561L75.6175 294.275L76.7022 293.99L77.7299 293.818L78.8146 293.59L79.8422 293.419L80.9269 293.305L81.9546 293.19L83.0393 293.133L84.0669 293.076L85.1517 293.019L86.1793 293.076H87.2069L88.2916 293.19L89.3193 293.305L90.404 293.476L91.4316 293.704L92.4593 293.876L93.4869 294.218L94.5145 294.561L95.5422 294.903L96.6269 295.303L97.5974 295.759L98.625 296.273L99.5956 296.787L100.566 297.358L101.594 297.929L102.564 298.557L103.478 299.242L104.448 299.927L105.362 300.612L106.218 301.354L107.132 302.097L107.988 302.896L108.787 303.752L109.586 304.609L110.386 305.408L111.128 306.321L111.87 307.235L112.555 308.148L113.24 309.062L113.868 310.032L114.439 311.003L115.01 311.973L115.581 312.944L116.038 313.971L116.494 314.942L116.894 315.97L117.294 316.94L117.579 317.968L117.865 318.995L118.093 320.023L118.264 321.051L118.436 322.078L118.493 323.106L118.55 324.134V325.161L118.493 326.189L118.378 327.159L118.264 328.187L118.036 329.215L117.808 330.185L117.522 331.213L117.237 332.183L116.894 333.211L116.494 334.182L116.152 335.152L115.695 336.18L115.238 337.15L114.782 338.121L113.811 340.119L112.726 342.06L111.699 344.058L110.614 345.999" stroke="#999999" stroke-opacity="0.62" stroke-width="1.59854" stroke-miterlimit="10"/>
<path d="M1 161.995L7.85089 160.739L11.2192 160.111L14.5876 159.426L16.3003 159.027L17.8988 158.684L19.5545 158.284L21.153 157.885L22.8086 157.428L24.4072 156.971L25.9486 156.515L27.5472 156.001L29.0886 155.43L30.573 154.916L32.0573 154.288L33.4846 153.717L34.9119 153.032L36.3391 152.347L37.7093 151.605L39.0795 150.863L40.3926 150.063L41.6486 149.264L42.9616 148.408L44.2176 147.494L45.4165 146.638L46.6725 145.667L47.8714 144.697L49.0133 143.669L50.2122 142.699L51.354 141.614L52.4958 140.529L53.6376 139.445L54.7794 138.303L55.8641 137.161L57.006 135.962L58.0907 134.82L59.2325 133.621L60.3172 132.365L62.6009 129.853L64.8274 127.284L67.111 124.658L69.4517 122.032L71.7925 119.292L72.9914 117.921L74.2474 116.551L75.5033 115.124L76.7593 113.754L78.0724 112.384L79.3855 110.956L80.6986 109.529L82.0688 108.159L83.496 106.789L84.9233 105.361L86.3506 104.048L87.8349 102.735L88.52 102.107L89.2622 101.536L90.0044 100.965L90.7466 100.394L91.4887 99.8806L92.288 99.3668L93.0302 98.9101L93.7724 98.4534L94.5145 98.0537L95.2567 97.7112L95.9989 97.3687L96.7982 97.0832L97.5403 96.7978L98.2825 96.6265L99.0818 96.4552L99.824 96.341L100.566 96.2839H101.308L102.051 96.341L102.793 96.3981L103.535 96.5694L104.334 96.7978L105.076 97.0832L105.761 97.4258L106.504 97.8254L107.246 98.2821L107.931 98.7388L108.616 99.3097L109.244 99.8806L109.929 100.509L110.5 101.137L111.071 101.822L111.642 102.564L112.156 103.306L112.669 104.048L113.069 104.79L113.526 105.59L113.811 106.332L114.154 107.131L114.382 107.988L114.61 108.787L114.782 109.529L114.839 110.328L114.896 111.128L114.839 111.87L114.782 112.669L114.725 113.468L114.553 114.21L114.382 114.953L114.154 115.695L113.868 116.494L113.583 117.236L113.24 117.978L112.841 118.721L112.441 119.406L111.984 120.148L111.528 120.89L111.014 121.575L110.443 122.317L109.929 123.002L109.358 123.687L108.673 124.373L108.045 125.058L107.417 125.743L106.789 126.428L106.047 127.056L104.62 128.369L103.192 129.625L101.708 130.881L100.167 132.08L98.6251 133.222L97.0836 134.421L95.5422 135.505L94.0007 136.533L92.5164 137.618L91.032 138.588L89.5476 139.559L88.0633 140.529L86.5789 141.443L85.1517 142.356L83.6673 143.212L82.24 144.069L80.8128 144.925L77.9012 146.581L75.1037 148.122L72.3063 149.721L66.7114 152.747L63.9139 154.345L61.1165 155.887L58.3191 157.542L55.5787 159.198L52.7812 160.911L51.354 161.824L49.9838 162.738L48.6136 163.651L47.2434 164.621L45.8733 165.535L44.5031 166.563L43.19 167.59L41.8198 168.618L40.5638 169.645L39.2508 170.787L37.9948 171.872L36.7388 173.014L35.4828 174.156L34.2839 175.297L33.085 176.496L31.9432 177.752L30.8013 179.008L29.7166 180.321L28.6319 181.577L27.6043 182.948L26.5766 184.261L25.6061 185.631L24.6355 187.058L23.665 188.428L22.8086 189.856L21.8952 191.34L21.0388 192.767L20.2396 194.252L19.4974 195.793L18.6981 197.277L18.013 198.819L17.2708 200.36L16.6429 201.902L16.0149 203.443L15.3869 204.985L14.816 206.583L14.245 208.182L13.7883 209.78L13.2745 211.379L12.8178 212.977L12.4181 214.576L12.0185 216.231L11.676 217.83L11.3334 219.429L11.048 221.084L10.7625 222.683L10.5342 224.338L10.3058 225.937L10.0774 227.593L9.90615 229.248L9.5636 232.559L9.33523 235.871L9.10689 239.182L8.9356 242.493L8.82142 245.862L8.70723 249.23L8.53597 255.909L8.3647 262.703L8.19342 266.072L8.07925 269.44L7.85089 272.808L7.50833 276.234L6.88033 282.97L6.59488 286.339L6.30944 289.707L6.19525 291.363L6.08107 293.018V294.674L6.02399 296.33V297.985L6.08107 299.584L6.13817 301.239L6.25235 302.895L6.42362 304.494L6.70907 306.092L6.93744 307.691L7.27997 309.289L7.62252 310.888L8.02215 312.486L8.47889 314.028L8.9356 315.569L9.50652 317.168L10.0203 318.709L10.6483 320.251L11.2763 321.792L11.9043 323.334L12.5894 324.875L13.2745 326.416L14.0167 327.901L14.7589 329.442L15.501 330.984L17.1567 334.01L18.8123 337.035L20.525 340.004L24.0075 345.999" stroke="#999999" stroke-opacity="0.62" stroke-width="0.799269" stroke-miterlimit="10"/>
<path d="M1 173.47L3.91162 171.758L5.33888 170.901L6.76615 170.102L8.19342 169.303L9.5636 168.56L10.8767 167.818L11.5618 167.533L12.1898 167.19L12.8178 166.848L13.4458 166.562L14.0167 166.277L14.5876 166.048L15.1585 165.763L15.6723 165.535L16.2432 165.363L16.757 165.135L17.2138 164.964L17.6705 164.85L18.1272 164.735L18.5268 164.621L18.9265 164.564L19.3261 164.507H19.6687H20.0112L20.2967 164.564L20.5821 164.621L20.8105 164.735L20.9817 164.85L21.2101 165.021L21.3243 165.192L21.4956 165.478L21.5526 165.706L21.6097 165.991V166.334V166.676V167.076V167.476L21.4956 167.875L21.3814 168.389L21.2672 168.846L21.153 169.36L20.9817 169.874L20.8105 170.387L20.6392 170.958L20.4108 171.529L20.1825 172.1L19.9541 172.728L19.6687 173.356L19.1548 174.612L18.5839 175.868L17.9559 177.238L17.3279 178.551L16.0149 181.292L15.3298 182.605L14.7018 183.918L14.0738 185.174L13.4458 186.43L12.8749 187.686L12.2469 188.942L11.676 190.084L11.1621 191.225L10.5912 192.424L10.0774 193.509L9.5636 194.651L9.04979 195.736L8.53597 196.763L8.02215 197.848L7.05162 199.903L6.13817 201.901L5.22472 203.843L4.36835 205.727L3.51198 207.611L2.65564 209.437L1 213.148" stroke="#999999" stroke-opacity="0.62" stroke-width="0.799269" stroke-miterlimit="10"/>
<path d="M40.279 345.999L36.9107 342.06L35.255 340.062L33.7136 338.064L32.9143 337.036L32.1721 336.065L31.43 335.038L30.7449 334.01L30.0598 332.982L29.3747 331.955L28.7467 330.927L28.1758 329.9L27.6049 328.872L27.0911 327.787L26.5773 326.76L26.1205 325.618L25.7209 324.59L25.3213 323.448L25.0358 322.307L24.6933 321.108L24.4078 319.909L24.1224 318.596L23.894 317.283L23.7798 316.597L23.6656 315.855L23.4944 314.371L23.3231 312.887L23.1518 311.402L23.0947 310.66V309.918V309.233V308.548V307.92L23.1518 307.292L23.2089 306.664L23.3231 306.15L23.4373 305.693L23.5515 305.236L23.6656 304.837L23.894 304.551L24.1224 304.323L24.3507 304.095L24.6362 303.98L24.9216 303.923H25.2642L25.6067 303.98L25.9493 304.038L26.3489 304.209L26.8056 304.38L27.2053 304.666L27.7191 304.894L28.1758 305.236L28.6896 305.579L29.2034 305.979L29.7172 306.321L30.2882 306.778L30.8591 307.235L31.3729 307.691L32.5718 308.719L33.8278 309.689L35.0838 310.774L36.3398 311.802L37.6529 312.772L38.9659 313.8L39.5939 314.2L40.279 314.656L40.907 315.056L41.535 315.456L42.2201 315.798L42.8481 316.141L43.4761 316.426L44.1041 316.655L44.7321 316.883L45.3601 317.054L45.9881 317.225L46.6161 317.397L47.2441 317.511L47.815 317.568L48.443 317.625H49.0139H49.6419H50.2128L50.8408 317.568H51.4117L52.0397 317.454L52.6106 317.34L53.8095 317.111L55.0084 316.769L56.2073 316.369L57.4062 315.969L58.6051 315.513L59.804 314.999L61.0029 314.485L62.2589 313.914L63.5149 313.4L64.7709 312.772L66.084 312.259L67.34 311.688L68.7102 311.174L70.0233 310.66L71.3935 310.203L72.7636 309.747L74.1338 309.347L75.504 308.947L76.8742 308.662L78.3014 308.376L79.6145 308.091L80.9847 307.977L82.2978 307.805L83.6109 307.748H84.2389H84.9239L85.5519 307.805L86.1228 307.863L86.7508 307.92L87.3788 308.034L87.9497 308.091L88.5207 308.205L89.0916 308.376L89.6625 308.548L90.2334 308.719L90.7472 308.947L91.261 309.176L91.7748 309.404L92.2886 309.689L92.8025 310.032L93.2592 310.317L93.7159 310.66L94.1726 311.06L94.5723 311.459L94.9719 311.859L95.3715 312.316L95.7712 312.772L96.1137 313.286L96.4563 313.8L96.7417 314.314L97.0843 314.885L97.3126 315.456L97.5981 316.027L97.8835 316.655L98.0548 317.225L98.2832 317.853L98.5115 318.481L98.6828 319.109L98.8541 319.795L98.9682 320.423L99.1395 321.108L99.2537 321.736L99.3108 322.421L99.3679 323.106L99.425 323.791V324.476L99.4821 325.161V325.846L99.425 326.474L99.3679 327.159L99.3108 327.844L99.2537 328.472L99.1395 329.157L99.0253 329.785L98.8541 330.413L98.6828 331.041L98.5115 331.669L98.3402 332.24L98.1119 332.811L97.8835 333.382L97.5981 333.953L97.3126 334.524L96.7417 335.609L96.0566 336.693L95.3715 337.721L94.6294 338.692L93.8301 339.662L93.0308 340.576L92.1174 341.546L91.261 342.46L90.3476 343.316L89.4341 344.229L87.5501 345.999" stroke="#999999" stroke-opacity="0.62" stroke-width="0.799269" stroke-miterlimit="10"/>
<path d="M49.3567 345.999L48.2148 344.172L47.701 343.259L47.1872 342.288L46.6734 341.318L46.2167 340.347L45.817 339.319L45.4745 338.349L45.3603 337.778L45.2461 337.264L45.1319 336.75L45.0177 336.179L44.9607 335.666L44.9036 335.038V334.524V333.953V333.382V332.811L44.9607 332.24L45.0749 331.669L45.1319 331.155L45.2461 330.585L45.3603 330.071L45.5316 329.557L45.7029 328.986L45.8741 328.529L46.1025 328.015L46.3879 327.559L46.6163 327.102L46.9018 326.702L47.1872 326.303L47.4726 325.903L47.8152 325.561L48.1577 325.161L48.5574 324.875L48.8999 324.59L49.2995 324.305L49.6992 324.019L50.1559 323.791L50.6126 323.562L51.0694 323.334L51.5261 323.163L51.9828 322.991L52.4966 322.877L53.0105 322.706L53.5243 322.592L54.0381 322.535L54.609 322.421L55.6937 322.306L56.8355 322.249H58.0344L59.2333 322.306L60.4322 322.421L61.6882 322.535L62.9442 322.763L64.2002 322.991L65.4562 323.277L66.7122 323.619L67.9682 323.905L69.1671 324.305L70.4231 324.704L71.5649 325.161L72.1929 325.389L72.7067 325.618L73.2206 325.903L73.6773 326.189L74.134 326.417L74.5336 326.759L74.8762 327.045L75.1616 327.387L75.4471 327.73L75.6184 328.13L75.7325 328.529L75.7896 328.986L75.8467 329.386L75.7896 329.842L75.7325 330.356L75.6184 330.813L75.5042 331.327L75.2758 331.783L75.1045 332.354L74.8762 332.868L74.3624 333.953L73.8485 335.038L73.3918 336.179L72.9351 337.321L72.7067 337.892L72.4784 338.463L72.3642 339.034L72.1929 339.605L72.1358 340.119L72.0216 340.69V341.26L71.9646 341.774L72.0216 342.859L72.0787 343.944L72.1929 344.971L72.3071 345.999" stroke="#999999" stroke-opacity="0.62" stroke-width="0.799269" stroke-miterlimit="10"/>
<path d="M130.31 345.998L132.023 343.714L133.736 341.431L134.535 340.289L135.391 339.147L136.134 337.948L136.933 336.806L137.618 335.665L138.303 334.523L138.988 333.381L139.559 332.239L140.13 331.097L140.587 329.898L141.043 328.757L141.443 327.615L141.785 326.473L142.014 325.331L142.071 324.76L142.185 324.132L142.242 323.561V322.99L142.299 322.42V321.849L142.242 321.278V320.707L142.128 320.136L142.071 319.508L141.957 318.937L141.843 318.366L141.557 317.224L141.157 316.083L140.701 314.884L140.244 313.742L139.673 312.6L139.045 311.458L138.36 310.316L137.732 309.175L136.99 308.09L136.191 306.948L135.391 305.863L134.535 304.721L133.679 303.637L132.822 302.552L130.995 300.44L129.168 298.384L127.342 296.329L125.515 294.388L123.688 292.447L121.861 290.62L120.89 289.707L119.977 288.85L119.006 287.937L118.093 287.138L117.122 286.338L116.152 285.539L115.124 284.74L114.154 283.998L113.126 283.255L112.098 282.513L111.071 281.828L109.986 281.143L108.901 280.515L107.817 279.887L106.675 279.316L105.533 278.745L104.334 278.231L103.192 277.718L101.936 277.204L100.737 276.747L99.5384 276.347L98.2824 275.891L97.0264 275.548L95.7704 275.206L94.5144 274.92L93.2013 274.635L91.8882 274.406L90.5751 274.235L89.2621 274.064L87.949 273.893L86.6359 273.778L85.2657 273.721H83.9526H82.6395L81.2694 273.778L79.9563 273.893L78.6432 274.064L77.273 274.235L75.9599 274.406L74.6469 274.692L73.3338 274.977L72.0207 275.377L70.7076 275.776L69.3945 276.233L68.0814 276.69L66.8254 277.261L65.5694 277.832L64.2564 278.46L61.8015 279.716L60.6025 280.401L59.3466 280.972L58.7186 281.2L58.1476 281.486L57.5767 281.714L56.9487 281.885L56.3778 282.056L55.8069 282.228L55.236 282.342L54.6651 282.399L54.0371 282.456H53.4662L52.8953 282.399L52.3244 282.285L51.8106 282.171L51.2397 281.999L50.6688 281.714L50.0979 281.486L49.584 281.2L49.0702 280.858L48.5564 280.458L48.0426 280.115L47.4717 279.659L47.015 279.202L46.5582 278.745L46.0444 278.231L45.5877 277.718L45.131 277.147L44.6743 276.576L44.2746 276.005L43.875 275.377L43.4753 274.749L43.1328 274.178L42.7332 273.55L42.4477 272.865L42.1052 272.237L41.8197 271.552L41.5343 270.924L41.2488 270.296L41.0204 269.611L40.7921 268.926L40.5637 268.298L40.3925 267.613L40.2212 266.927L40.0499 266.242L39.9357 265.557L39.7645 264.929L39.7074 264.244L39.5932 263.559L39.5361 262.931L39.479 262.246V261.561V260.876V260.248L39.5361 259.62V258.992L39.6503 258.364L39.7074 257.736L39.8215 257.108L39.9357 256.537L40.107 255.909L40.2783 255.338L40.4495 254.767L40.6208 254.196L40.9063 253.625L41.1346 253.111L41.363 252.598L41.6484 252.084L41.9339 251.57L42.2764 251.113L42.619 250.657L42.9615 250.2L43.3612 249.743L43.7608 249.286L44.1604 248.887L44.5601 248.487L45.0168 248.088L45.4164 247.688L46.387 246.946L47.3575 246.261L48.4422 245.633L49.527 245.005L50.7259 244.434L51.8677 243.92L53.1237 243.406L54.3797 243.006L55.6928 242.607L57.0058 242.207L58.376 241.865L59.8033 241.522L61.1735 241.237L62.6007 241.008L64.0851 240.723L65.5123 240.552L66.9967 240.38L68.424 240.209L69.9083 240.095L71.3927 239.981L72.877 239.924L74.3614 239.809L75.7887 239.752H77.2159L78.6432 239.695H80.0705H81.4977H82.8679L85.5512 239.752L88.1773 239.866L90.8035 239.981L93.3726 240.095L95.8846 240.266L98.3966 240.437L103.306 240.78L105.761 240.951L108.216 241.065L110.728 241.122L113.183 241.18H115.695H118.207H120.719L123.231 241.122L125.8 241.008L128.369 240.837L130.938 240.666L133.507 240.494L136.076 240.323L138.645 240.095L143.784 239.581L148.979 239.01L154.117 238.382L159.312 237.754L164.393 237.069L169.474 236.327L174.556 235.642L179.58 234.9L184.661 234.1L189.685 233.244L194.709 232.33L197.221 231.874L199.79 231.36L202.302 230.846L204.814 230.275L207.383 229.761L209.952 229.133L215.09 227.935L217.659 227.364L220.228 226.85L221.484 226.621L222.797 226.393L224.053 226.222L225.366 226.108L226.622 225.936L227.878 225.822L229.134 225.765L230.39 225.708H231.646L232.902 225.765L234.101 225.822L235.357 225.993L236.556 226.165L237.755 226.393L238.954 226.621L240.153 226.907L241.352 227.249L242.551 227.592L243.749 227.992L244.948 228.448L246.09 228.905L247.289 229.419L248.488 229.933L249.63 230.504L250.772 231.017L251.971 231.645L253.169 232.273L254.311 232.901L256.652 234.214L258.993 235.642L261.333 237.012L263.674 238.496L264.816 239.238L266.015 239.981L267.1 240.723L268.127 241.579L269.155 242.378L269.612 242.835L270.068 243.235L270.525 243.692L270.925 244.148L271.381 244.605L271.724 245.062L272.124 245.518L272.409 246.032L272.752 246.546L273.037 247.06L273.265 247.574L273.494 248.088L273.722 248.658L273.893 249.229L274.065 249.8L274.122 250.371L274.293 250.942L274.35 251.513L274.407 252.141V252.769V253.34V254.025L274.35 254.653L274.293 255.281L274.236 255.909L274.122 256.537L274.008 257.165L273.893 257.85L273.551 259.106L273.151 260.419L272.694 261.732L272.181 263.045L271.553 264.358L270.925 265.671L270.24 266.985L269.497 268.241L268.755 269.497L267.899 270.695L267.042 271.894L266.186 273.036L265.273 274.178L264.359 275.263L263.389 276.29L262.418 277.261L261.448 278.231L260.42 279.145L259.392 280.001L258.365 280.858L257.337 281.6L256.252 282.342L255.168 283.084L254.026 283.712L252.941 284.34L251.799 284.911L250.657 285.425L249.516 285.939L248.374 286.395L247.175 286.795L245.976 287.195L244.777 287.537L243.578 287.88L242.379 288.165L241.123 288.394L239.924 288.565L238.668 288.736L237.412 288.907L236.156 288.964L234.9 289.079H233.644H232.388H231.075L229.819 288.964L228.506 288.907L227.25 288.736L225.937 288.565L224.681 288.394L223.368 288.165L222.112 287.88L220.799 287.651L219.543 287.309L218.23 286.966L216.917 286.567L215.661 286.167L214.405 285.767L213.092 285.311L211.836 284.797L210.58 284.34L209.324 283.769L208.011 283.198L206.812 282.627L205.556 281.999L204.3 281.371L203.101 280.686L201.845 280.001L200.646 279.259L198.248 277.832L195.907 276.347L194.709 275.662L193.51 274.92L192.368 274.292L191.169 273.664L190.027 273.036L188.828 272.465L187.686 271.951L186.545 271.495L185.346 271.095L184.204 270.753L183.633 270.638L183.062 270.524L182.434 270.41L181.863 270.353L181.292 270.296H180.721H180.15H179.58H178.952L178.381 270.353L177.81 270.467L177.239 270.581L176.611 270.753L176.04 270.867L175.469 271.095L174.898 271.266L174.327 271.552L173.756 271.78L173.185 272.066L172.614 272.351L172.044 272.637L171.473 272.979L170.902 273.322L170.388 273.721L169.874 274.121L169.303 274.52L168.789 274.92L168.276 275.377L167.762 275.834L167.248 276.347L166.734 276.804L166.277 277.318L165.364 278.403L164.45 279.544L163.651 280.686L162.852 281.942L162.11 283.198L161.767 283.826L161.425 284.511L160.797 285.882L160.226 287.252L159.769 288.679L159.312 290.106L159.141 290.848L158.97 291.534L158.856 292.276L158.684 293.018L158.627 293.703L158.513 294.445L158.456 295.13L158.399 295.872V296.557V297.243V297.928L158.456 298.613L158.513 299.241L158.627 299.926L158.684 300.554L158.856 301.182L159.027 301.81L159.198 302.381L159.427 302.952L159.598 303.523L159.883 304.093L160.169 304.607L160.454 305.121L160.797 305.635L161.196 306.092L161.539 306.548L161.996 306.948L162.452 307.348L162.909 307.747L163.423 308.09L163.88 308.432L164.45 308.775L164.964 309.06L165.535 309.346L166.734 309.917L169.132 311.001L170.331 311.515L171.53 312.086L172.729 312.771L173.813 313.456L174.898 314.141L175.926 314.884L176.896 315.74L177.867 316.539L178.837 317.453L179.751 318.309L183.519 321.849L184.432 322.705L185.403 323.561L186.373 324.361L187.344 325.16L188.372 325.959L189.399 326.758L190.427 327.501L191.511 328.186L192.539 328.928L193.681 329.613L194.709 330.298L195.85 330.926L198.077 332.182L200.361 333.438L202.644 334.58L204.985 335.722L207.383 336.864L209.723 337.891L214.462 340.003L219.2 342.002L228.62 345.998" stroke="#999999" stroke-opacity="0.62" stroke-width="1.59854" stroke-miterlimit="10"/>
<path d="M251.114 345.999L247.803 344.515L244.492 343.088L242.836 342.403L241.123 341.717L239.525 341.089L237.869 340.461L236.214 339.891L234.558 339.32L232.959 338.863L231.304 338.406L229.648 337.892L227.992 337.379L227.193 337.15L226.337 336.865L225.538 336.522L224.681 336.18L223.882 335.78L223.026 335.38L222.169 334.981L221.313 334.467L220.456 333.896L219.6 333.325L218.744 332.697L217.887 332.012L217.088 331.327L216.289 330.642L215.49 329.9L214.747 329.158L214.062 328.415L213.377 327.73L212.806 327.045L212.578 326.703L212.293 326.36L212.121 326.018L211.893 325.732L211.665 325.447L211.493 325.104L211.322 324.876L211.208 324.59L211.094 324.362L211.037 324.076L210.979 323.848L210.922 323.677V323.506L210.979 323.334V323.163L211.094 322.992L211.151 322.935L211.322 322.82L211.436 322.706L211.607 322.592L211.779 322.535L212.007 322.478H212.178L212.464 322.421H212.692H212.978H213.32L213.606 322.478H213.948L214.291 322.535L214.69 322.592L215.033 322.706L215.889 322.878L216.746 323.049L217.659 323.334L218.63 323.62L219.657 323.905L220.685 324.305L221.77 324.647L222.911 325.047L224.053 325.447L225.195 325.846L226.394 326.303L228.849 327.274L233.702 329.215L236.099 330.185L237.241 330.642L238.383 331.099L239.525 331.612L240.609 332.012L241.694 332.469L242.779 332.926L243.807 333.325L244.834 333.782L245.805 334.182L246.775 334.581L247.746 334.981L248.716 335.38L250.543 336.123L252.313 336.865L254.026 337.607L255.739 338.292L257.337 338.977L258.879 339.605L260.42 340.233L261.904 340.861L263.332 341.489L264.759 342.06L266.186 342.631L267.499 343.259L268.869 343.83L271.496 344.915L274.122 345.999" stroke="#999999" stroke-opacity="0.62" stroke-width="0.799269" stroke-miterlimit="10"/>
<path d="M216.86 1L214.805 2.48437L212.75 4.02584L211.779 4.76801L210.809 5.56727L209.838 6.36654L208.867 7.1658L208.011 7.96507L207.098 8.82144L206.241 9.6207L205.385 10.5342L204.643 11.4476L203.9 12.304L203.215 13.2745L202.587 14.245L201.959 15.2156L201.446 16.2432L200.932 17.3279L200.475 18.3556L200.075 19.4974L199.676 20.5821L199.333 21.7239L199.048 22.9228L198.762 24.0646L198.534 25.2635L198.306 26.4625L198.134 27.6614L197.963 28.9174L197.849 30.1733L197.735 31.3722L197.621 32.6853L197.449 35.1973L197.278 37.7664L197.05 42.9046L196.935 45.4736L196.764 47.9856L196.536 50.5547L196.307 53.0096L196.022 55.4645L195.679 57.9194L195.337 60.3743L194.937 62.7721L194.481 65.1699L194.024 67.5677L193.51 69.9084L192.996 72.3063L192.425 74.647L191.797 76.9877L191.226 79.3284L190.541 81.6691L189.856 83.9528L189.171 86.2935L188.429 88.6342L187.687 90.9749L186.887 93.2585L186.088 95.5992L185.232 97.94L184.375 100.224L183.462 102.507L182.491 104.791L181.521 107.017L180.436 109.301L179.409 111.47L178.21 113.64L177.068 115.809L175.812 117.922L174.499 119.977L173.871 121.005L173.186 122.032L172.444 123.06L171.758 124.03L171.016 125.001L170.274 125.972L169.475 126.942L168.676 127.856L167.876 128.769L167.077 129.682L165.364 131.509L163.652 133.222L161.882 134.935L160.055 136.647L156.401 139.959L152.747 143.27L150.977 144.926L149.208 146.638L147.495 148.294L145.839 150.064L145.04 150.92L144.298 151.834L143.499 152.69L142.756 153.66L142.071 154.574L141.329 155.544L139.959 157.428L138.646 159.312L137.333 161.254L134.821 165.193L133.508 167.191L132.195 169.132L130.767 171.073L130.082 172.044L129.34 173.014L128.598 173.985L127.856 174.955L127.056 175.869L126.257 176.782L125.401 177.696L124.487 178.609L123.574 179.523L122.66 180.379L121.69 181.235L120.719 182.092L119.635 182.948L118.55 183.747L117.465 184.547L116.266 185.346L115.01 186.145L113.754 186.887L112.441 187.572L111.128 188.315L109.758 189L108.388 189.628L107.075 190.313L105.705 190.941L104.449 191.512L103.193 192.14L101.937 192.711L101.366 192.996L100.795 193.224L100.281 193.51L99.7671 193.795L99.2533 194.081L98.7395 194.366L98.3398 194.594L97.8831 194.823L97.4835 195.108L97.1409 195.337L96.7984 195.622L96.5129 195.85L96.2275 196.079L95.9991 196.307L95.8279 196.536L95.6566 196.764L95.5424 196.992L95.4282 197.221V197.449V197.677L95.4853 197.906L95.5424 198.077L95.6566 198.305L95.8279 198.534L95.9991 198.705L96.1704 198.876L96.4559 199.105L96.6842 199.276L97.0268 199.447L97.3693 199.676L97.7118 199.847L98.1115 200.018L98.5682 200.189L98.9678 200.361L99.4246 200.589L99.9384 200.703L100.509 200.874L101.023 201.046L101.594 201.217L102.165 201.388L102.793 201.56L103.421 201.674L104.106 201.845L104.734 202.016L106.104 202.302L107.531 202.587L109.073 202.816L110.614 203.101L112.213 203.329L113.869 203.558L115.524 203.786L117.18 204.014L118.892 204.243L122.318 204.642L125.686 204.985L127.399 205.156L129.055 205.328L130.653 205.442L132.252 205.556L133.793 205.727L135.278 205.841L136.705 205.956L138.132 206.07L139.502 206.127L140.872 206.184L142.185 206.241L143.441 206.298L144.697 206.355H145.953H147.095H148.294H149.436L150.578 206.298L151.72 206.184L152.804 206.127L153.889 206.013L154.974 205.898L156.059 205.727L157.143 205.556L158.171 205.328L159.256 205.099L160.34 204.871L161.425 204.585L162.51 204.243L163.594 203.957L164.679 203.558L165.764 203.215L166.906 202.816L167.99 202.416L170.217 201.502L172.444 200.589L174.727 199.618L177.011 198.591L179.352 197.563L181.692 196.478L184.09 195.394L186.545 194.366L189 193.281L191.455 192.197L192.654 191.626L193.853 191.055L195.051 190.427L196.193 189.799L197.278 189.171L198.42 188.543L199.447 187.801L200.475 187.116L201.446 186.316L202.416 185.517L203.272 184.661L204.129 183.804L204.528 183.348L204.871 182.891L205.271 182.377L205.556 181.92L205.899 181.407L206.184 180.893L206.527 180.379L206.755 179.808L207.041 179.237L207.269 178.666L207.497 178.095L207.669 177.467L207.84 176.839L208.011 176.211L208.125 175.583L208.239 174.898L208.297 174.213L208.354 173.528L208.411 172.843V172.215L208.354 171.53L208.297 170.902L208.182 170.331L208.011 169.703L207.84 169.189L207.554 168.732L207.44 168.504L207.269 168.276L207.155 168.104L206.926 167.876L206.584 167.591L206.127 167.305L205.67 167.077L205.157 166.906L204.643 166.791L204.015 166.677L203.444 166.62L202.816 166.563L202.131 166.506H201.446L200.761 166.563H200.075L198.648 166.677L197.107 166.734L195.622 166.791H194.138H192.597L191.169 166.734L189.685 166.62L188.258 166.449L186.83 166.278L185.403 166.049L184.033 165.764L182.663 165.478L181.407 165.136L180.151 164.736L178.952 164.279L177.753 163.766L176.611 163.252L176.097 162.966L175.584 162.681L175.07 162.395L174.613 162.053L174.099 161.71L173.642 161.425L173.243 161.025L172.843 160.683L172.386 160.283L172.044 159.94L171.644 159.541L171.302 159.141L170.959 158.684L170.674 158.228L170.388 157.828L170.16 157.371L169.932 156.858L169.703 156.401L169.475 155.887L169.361 155.373L169.189 154.859L169.075 154.346L168.961 153.832L168.847 153.261V152.69L168.79 152.119V151.548V150.977V150.349L168.847 149.778V149.207L168.961 148.579L169.189 147.381L169.475 146.067L169.76 144.869L170.217 143.613L170.674 142.357L171.188 141.101L171.758 139.845L172.329 138.646L173.014 137.39L173.757 136.191L174.499 135.049L175.298 133.907L176.154 132.765L177.011 131.738L177.924 130.71L178.895 129.74L179.808 128.826L180.779 127.97L181.806 127.17L182.834 126.428L183.862 125.743L184.889 125.115L185.974 124.487L187.059 123.973L188.144 123.46L189.285 123.06L190.37 122.603L191.569 122.261L192.711 121.918L193.91 121.633L195.109 121.347L196.307 121.062L197.506 120.89L198.762 120.719L199.961 120.548L201.217 120.377L202.473 120.262L205.042 120.034L207.611 119.863L210.181 119.749L212.807 119.634L218.116 119.349L220.799 119.178L223.426 119.006L225.995 118.778L228.564 118.493L229.82 118.321L231.076 118.15L232.332 117.922L233.588 117.693L234.787 117.465L235.985 117.18L237.127 116.894L238.326 116.552L239.468 116.209L240.553 115.809L241.695 115.41L242.722 115.01L243.807 114.496L244.835 113.982L245.805 113.469L246.776 112.898L247.689 112.27L248.603 111.585L249.459 110.957L250.315 110.157L251.115 109.415L251.914 108.616L252.656 107.76L253.341 106.846L254.026 105.933L254.711 104.962L255.339 103.992L255.967 102.964L256.538 101.936L257.109 100.852L257.623 99.7669L258.137 98.6821L258.65 97.4832L259.164 96.3415L259.564 95.1996L260.021 94.0007L260.477 92.7447L260.877 91.5458L261.277 90.2899L261.619 89.0339L262.304 86.5218L262.989 83.9528L263.617 81.3837L264.188 78.8146L264.759 76.3026L265.33 73.7335L265.844 71.2215L266.358 68.7095L266.814 66.2546L267.328 63.7427L267.728 61.3448L268.128 58.89L268.527 56.4351L268.87 54.0372L269.155 51.6394L269.441 49.2416L269.669 46.8438L269.897 44.446L270.069 42.0482L270.183 39.6504L270.24 37.3097V34.9119V32.5141L270.183 30.1163L270.069 27.7184L269.897 25.3206L269.669 22.9228L269.384 20.4679L268.87 15.6152L268.584 13.1603L268.356 10.7625L268.07 8.30764L267.956 5.85274L267.842 3.4549L267.785 2.19894V1" stroke="#999999" stroke-opacity="0.62" stroke-width="0.799269" stroke-miterlimit="10"/>
<path d="M123.916 190.713L125.629 189.286L127.399 187.801L129.226 186.431L130.996 185.061L131.966 184.376L132.88 183.748L134.764 182.492L136.705 181.236L137.618 180.608L138.589 179.98L139.502 179.295L140.416 178.61L141.272 177.925L142.128 177.125L142.928 176.326L143.327 175.926L143.67 175.47L144.07 175.013L144.412 174.499L144.755 174.042L145.04 173.529L145.383 173.015L145.668 172.444L145.954 171.873L146.182 171.245L146.41 170.674L146.696 170.046L146.867 169.361L147.095 168.733L147.438 167.363L147.78 165.936L148.066 164.565L148.351 163.138L148.637 161.825L148.865 160.512L149.036 159.884L149.208 159.256L149.322 158.685L149.493 158.114L149.664 157.6L149.836 157.086L150.007 156.63L150.235 156.173L150.407 155.773L150.635 155.431L150.863 155.145L151.092 154.86L151.377 154.632L151.663 154.46L151.948 154.346L152.291 154.289L152.633 154.232L152.976 154.289L153.432 154.403L153.775 154.517L154.232 154.689L154.688 154.917L155.088 155.202L155.602 155.431L156.059 155.773L156.515 156.116L157.086 156.516L157.543 156.858L158.571 157.714L159.655 158.571L161.825 160.341L162.909 161.197L163.937 161.996L165.022 162.796L165.992 163.538L166.963 164.223L167.933 164.965L168.79 165.65L169.646 166.392L170.046 166.735L170.445 167.134L170.788 167.534L171.13 167.934L171.416 168.333L171.758 168.79L171.987 169.247L172.272 169.704L172.501 170.217L172.729 170.731L172.9 171.245L173.072 171.759L173.243 172.33L173.3 172.901L173.414 173.529L173.471 174.099V174.727V175.355V175.926L173.414 176.554L173.3 177.182L173.243 177.81L173.129 178.381L172.957 178.952L172.729 179.466L172.501 180.037L172.272 180.551L171.987 181.065L171.701 181.521L171.359 181.921L171.016 182.321L170.617 182.663L170.217 183.063L169.76 183.348L169.304 183.634L168.847 183.919L168.333 184.205L167.819 184.433L166.735 184.89L165.65 185.232L164.508 185.632L162.167 186.374L161.025 186.774L159.884 187.173L158.799 187.687L157.714 188.144L156.629 188.715L155.545 189.286L154.517 189.799L153.489 190.427L151.491 191.569L149.55 192.768L147.609 193.91L146.639 194.424L145.668 194.938L144.755 195.451L143.727 195.908L142.814 196.308L141.843 196.65L140.872 196.993L139.845 197.278L138.874 197.507L137.847 197.735L136.762 197.906L135.677 198.02L134.535 198.135L133.336 198.192L132.08 198.249H130.767H129.397H127.97L126.486 198.192L125.801 198.135L125.058 198.078L124.43 198.02L123.802 197.906L123.174 197.735L122.661 197.564L122.204 197.392L121.975 197.335L121.804 197.164L121.576 197.05L121.462 196.936L121.29 196.764L121.233 196.593L121.119 196.479L121.062 196.308L121.005 196.136V195.908V195.737V195.508L121.062 195.337L121.119 195.052L121.233 194.823L121.29 194.595L121.576 194.081L121.861 193.567L122.204 193.054L122.603 192.483L123.003 191.912L123.916 190.713Z" stroke="#999999" stroke-opacity="0.62" stroke-width="0.799269" stroke-miterlimit="10"/>
<path d="M228.45 1L226.052 4.19711L223.711 7.50838L222.57 9.10691L221.428 10.7625L220.343 12.4181L219.315 14.1309L218.288 15.8436L217.317 17.6134L216.347 19.3261L215.49 21.153L214.691 22.9799L213.949 24.8068L213.264 26.6908L212.636 28.6319L212.065 30.5159L211.551 32.5141L211.094 34.4551L210.695 36.4533L210.295 38.3944L210.01 40.3926L209.667 42.3907L209.439 44.3318L209.268 46.33L209.039 48.2711L208.925 50.2122L208.754 52.0962L208.525 55.9784L208.411 57.9194L208.24 59.8034L208.069 61.7445L207.897 63.6856L207.612 65.5696L207.326 67.5678L206.927 69.5088L206.698 70.4794L206.47 71.4499L206.185 72.4776L205.956 73.4481L205.614 74.4757L205.271 75.5034L204.986 76.531L204.586 77.5015L204.186 78.5292L203.73 79.5568L203.273 80.5844L202.759 81.6692L202.245 82.6968L201.732 83.7815L200.533 85.8939L199.334 88.0062L198.135 90.1186L197.564 91.1462L196.993 92.1738L196.422 93.2015L195.908 94.172L195.394 95.1426L194.938 96.1131L194.481 97.0265L194.081 97.94L193.739 98.7964L193.51 99.6527L193.282 100.452L193.225 100.852L193.168 101.251L193.111 101.651V101.993V102.336V102.736V103.021L193.168 103.364L193.225 103.706L193.339 103.992L193.453 104.277L193.625 104.563L193.739 104.848L193.967 105.133L194.196 105.362L194.424 105.59L194.652 105.818L194.938 106.047L195.223 106.275L195.566 106.446L195.908 106.675L196.251 106.846L196.593 106.96L196.993 107.132L197.393 107.303L197.792 107.417L198.649 107.645L199.619 107.874L200.647 108.045L201.617 108.159L202.702 108.273L203.844 108.33H204.986H206.128L207.384 108.273L208.582 108.216L209.838 108.102L211.037 107.988L212.293 107.817L213.549 107.588L214.805 107.417L216.061 107.132L217.26 106.846L218.459 106.561L219.658 106.218L220.857 105.933L221.942 105.533L223.026 105.133L224.111 104.734L225.139 104.277L226.166 103.877L227.137 103.364L228.107 102.85L229.021 102.393L229.991 101.822L230.848 101.308L231.704 100.68L232.561 100.167L233.36 99.5385L234.159 98.9105L234.901 98.2825L235.7 97.5975L236.386 96.9124L237.128 96.2273L237.813 95.5422L238.441 94.8571L239.069 94.1149L239.697 93.3727L240.325 92.5735L240.953 91.8313L241.524 91.032L242.095 90.2328L242.608 89.4335L243.179 88.6342L244.207 86.9786L245.12 85.2659L246.091 83.4961L246.947 81.7263L247.804 79.8993L248.603 78.0724L249.288 76.1885L249.973 74.3045L250.601 72.3633L251.172 70.4223L251.686 68.4241L252.086 66.483L252.542 64.4277L252.828 62.4296L253.113 60.4314L253.284 58.3761L253.399 56.3209L253.456 54.3227V52.2674L253.342 50.2122L253.284 49.1845L253.17 48.1569L253.113 47.1293L252.942 46.1016L252.656 44.0464L252.314 42.0482L251.914 40.05L251.001 35.9966L250.544 33.9984L250.087 32.0002L249.745 30.0592L249.345 28.061L249.231 27.0904L249.117 26.1199L249.003 25.1494L248.946 24.1217L248.888 23.1512L248.831 22.1807V21.2101L248.888 20.2396L248.946 19.269L249.06 18.3556L249.174 17.3279L249.345 16.4145L249.574 15.444L249.859 14.4734L250.087 13.56L250.43 12.5894L251.743 8.76434L252.371 6.82327L252.656 5.85274L252.885 4.88217L253.113 3.91164L253.342 2.94111L253.399 1.97057L253.513 1" stroke="#999999" stroke-opacity="0.62" stroke-width="0.799269" stroke-miterlimit="10"/>
<path d="M237.241 1L235.871 6.48074L235.186 9.22107L234.444 11.9614L233.701 14.7589L232.902 17.4992L231.989 20.2396L231.075 22.9799L230.105 25.7203L229.077 28.4606L228.107 31.1439L227.079 33.8842L226.165 36.5675L225.652 37.8806L225.252 39.2508L224.852 40.5638L224.453 41.934L224.11 43.2471L223.768 44.5602L223.482 45.8733L223.254 47.1864L222.74 49.8125L222.283 52.4958L221.827 55.122L221.598 56.4921L221.256 57.8624L220.913 59.2325L220.571 60.6027L220.171 62.0299L219.657 63.5143L219.143 64.9416L218.801 65.6837L218.515 66.426L218.173 67.1681L217.83 67.9103L217.488 68.7095L217.088 69.4518L216.232 70.9932L215.375 72.5917L214.576 74.1332L214.176 74.9325L213.777 75.6746L213.434 76.4168L213.149 77.159L212.806 77.8441L212.635 78.5863L212.407 79.2714L212.292 79.8993L212.235 80.5273L212.178 80.8699L212.235 81.1553V81.4408L212.292 81.7833L212.349 82.0117L212.407 82.2972L212.521 82.5826L212.692 82.811L212.806 83.0964L212.977 83.3248L213.149 83.5532L213.377 83.7815L213.605 83.9528L213.891 84.1811L214.176 84.3524L214.462 84.5237L214.804 84.695L215.09 84.8662L215.775 85.1517L216.517 85.323L217.316 85.4942L218.059 85.6084L218.801 85.6655L219.2 85.6084H219.6L219.943 85.5513L220.285 85.4942L220.685 85.3801L220.97 85.323L221.313 85.2088L221.655 85.0946L222.283 84.7521L222.854 84.4095L223.425 83.9528L223.939 83.4961L224.396 82.9822L224.909 82.4113L225.366 81.7833L225.766 81.1553L226.223 80.5273L226.622 79.8423L227.022 79.2143L227.764 77.787L228.449 76.3597L229.191 74.9896L229.819 73.6193L230.504 72.2492L231.132 70.879L231.703 69.5088L232.274 68.1958L232.845 66.8256L233.359 65.5125L233.873 64.1423L234.329 62.8292L234.786 61.4591L235.186 60.1459L235.585 58.8329L235.928 57.4627L236.27 56.0925L236.556 54.7795L236.841 53.4092L237.013 52.0962L237.241 50.726L237.412 49.3558L237.526 47.9285L237.584 46.5584L237.641 45.1882V43.7609L237.698 42.3337L237.641 40.9064V38.0519L237.526 35.1973L237.412 32.2857L237.298 29.4312L237.241 26.5195V25.0923L237.298 23.665L237.355 22.2377L237.412 20.8105L237.641 17.9559L237.869 15.1014L238.154 12.304L238.554 9.44944L238.954 6.59491L239.353 3.79747L239.753 1" stroke="#999999" stroke-opacity="0.62" stroke-width="0.799269" stroke-miterlimit="10"/>
<path d="M109.473 263.616L105.876 263.788L102.337 263.902L100.567 263.959H98.7401L95.2576 263.902L93.4878 263.845H91.718L89.9482 263.902L88.2354 263.959L87.322 264.016L86.4656 264.073L85.5522 264.187L84.6387 264.301L83.7253 264.473L82.8118 264.644L81.8984 264.872L80.9849 265.044L80.0715 265.329L79.158 265.615L78.2446 265.957L77.274 266.3L75.39 267.042L73.5631 267.841L71.6791 268.64L70.7657 268.983L69.8522 269.268L68.9388 269.554L68.0824 269.782L67.169 270.011L66.3126 270.182L65.4563 270.239H65.0566H64.657L64.2574 270.182H63.8577L63.4581 270.068L63.0584 270.011L62.7159 269.896L62.3163 269.725L61.9166 269.554L61.5741 269.44L61.2315 269.211L60.889 268.983L60.4894 268.697L60.1468 268.412L59.8614 268.127L59.5188 267.784L59.2334 267.441L58.9479 267.042L58.6624 266.699L58.377 266.3L57.8632 265.443L57.4065 264.587L57.0068 263.673L56.8355 263.217L56.7214 262.76L56.6072 262.303L56.493 261.847L56.3788 261.39L56.3217 260.933L56.2646 260.476V260.02V259.563V259.163L56.3217 258.764L56.3788 258.364L56.493 257.964L56.6072 257.565L56.7214 257.222L56.8926 256.823L57.121 256.537L57.2923 256.138L57.5207 255.852L57.749 255.51L58.0345 255.224L58.3199 254.939L58.6054 254.653L58.8908 254.368L59.5759 253.854L60.3181 253.34L61.1173 252.883L61.9737 252.427L62.8872 252.084L63.8006 251.684L64.7712 251.342L65.7417 250.999L66.8264 250.714L67.854 250.428L68.8817 250.2L69.9664 249.972L72.1359 249.572L74.2482 249.23L76.3606 248.944L78.4158 248.716L80.4711 248.487L82.4122 248.373L84.4104 248.259L86.3514 248.202L88.2354 248.145H90.0623L91.9463 248.202L93.7161 248.259L95.4859 248.373L97.2558 248.544L99.0256 248.659L100.738 248.83L102.451 249.058L104.164 249.287L105.819 249.458L109.188 249.972L112.499 250.543L115.81 251.056L119.121 251.627L122.49 252.141L125.915 252.655L127.628 252.826L129.341 253.055L131.111 253.283L132.823 253.454L134.593 253.568L136.363 253.74L138.133 253.854L139.902 253.968L141.729 254.082L143.499 254.139L145.269 254.196H147.096H148.923H150.75L152.577 254.139L154.346 254.082L156.173 254.025L158 253.911L159.827 253.74L161.597 253.568L163.424 253.34L165.251 253.169L167.021 252.883L168.847 252.598L170.617 252.312L172.33 251.97L174.157 251.57L175.87 251.171L177.639 250.714L179.352 250.257L181.065 249.743L182.835 249.23L186.26 248.145L189.686 247.003L193.054 245.861L196.479 244.719L199.848 243.578L203.216 242.493L204.929 242.036L206.699 241.522L208.354 241.123L210.067 240.666L211.837 240.266L213.549 239.924L215.319 239.581L217.089 239.296L218.802 239.124L220.572 238.953L222.341 238.782L224.168 238.725L225.938 238.782L227.708 238.839L228.621 238.896L229.535 239.01L230.391 239.124L231.305 239.239L232.218 239.353L233.074 239.524L233.988 239.695L234.844 239.924L235.758 240.152L236.614 240.438L237.528 240.666L238.441 241.008L239.297 241.294L240.211 241.694L241.067 242.036L241.924 242.493L242.837 242.892L243.693 243.349L244.55 243.863L245.463 244.377L246.319 244.891L247.176 245.462L247.975 246.032L248.774 246.718L249.574 247.288L250.316 247.974L251.058 248.659L251.743 249.287L252.428 249.972L253.056 250.714L253.627 251.399L254.198 252.141L254.655 252.94L255.169 253.683L255.511 254.425L255.911 255.224L256.139 256.023L256.425 256.766L256.539 257.565L256.653 258.364V259.163V259.963L256.539 260.762L256.31 261.561L256.082 262.303L255.797 263.103L255.397 263.902L254.997 264.644L254.541 265.443L253.97 266.185L253.456 266.871L252.828 267.613L252.143 268.355L251.458 269.04L250.773 269.725L249.973 270.353L249.231 270.981L248.375 271.609L247.518 272.237L246.662 272.751L245.749 273.322L244.835 273.836L243.922 274.349L243.008 274.749L242.038 275.206L241.124 275.605L240.154 275.948L239.183 276.291L238.213 276.519L237.299 276.804L236.329 276.976L235.415 277.147L234.445 277.261L233.588 277.318L232.675 277.375H231.761L230.905 277.318L229.992 277.261L229.135 277.147L228.279 277.033L227.48 276.804L226.623 276.633L225.824 276.348L224.968 276.119L224.168 275.777L223.369 275.491L222.57 275.149L221.771 274.749L220.971 274.407L220.229 273.95L218.688 273.093L217.146 272.18L215.605 271.152L214.063 270.182L212.579 269.097L209.496 266.928L207.955 265.843L206.413 264.758L204.815 263.731L203.216 262.76L201.618 261.789L199.962 260.876L199.106 260.476L198.249 260.077L197.393 259.677L196.594 259.335L195.68 258.992L194.767 258.649L193.853 258.364L192.997 258.136L192.026 257.907L191.113 257.679L190.199 257.508L189.229 257.336L188.315 257.222L187.345 257.108L186.431 257.051L185.461 256.994H184.49H183.52H182.606L181.636 257.051L180.722 257.165L179.752 257.279L178.838 257.393L177.925 257.508L177.011 257.736L176.098 257.907L175.185 258.136L174.328 258.421L173.472 258.707L172.615 258.992L171.816 259.335L170.96 259.677L170.218 260.077L169.418 260.476L168.676 260.933L167.934 261.39L167.249 261.904L166.564 262.36L165.936 262.931L165.308 263.502L164.68 264.073L164.052 264.644L163.538 265.272L162.967 265.9L162.453 266.585L161.939 267.213L161.369 267.898L160.912 268.64L159.941 270.068L159.028 271.552L158.057 273.093L157.201 274.692L156.288 276.291L155.374 277.889L154.404 279.545L153.433 281.143L152.405 282.799L151.264 284.397L150.693 285.197L150.122 285.996L149.494 286.795L148.923 287.537L148.238 288.222L147.61 288.908L146.925 289.536L146.182 290.049L145.84 290.278L145.497 290.563L145.155 290.734L144.755 290.906L144.413 291.077L144.013 291.191L143.67 291.305L143.271 291.42L142.871 291.477H142.472L142.072 291.534L141.672 291.477H141.273L140.873 291.42L140.473 291.305L140.074 291.191L139.674 291.077L139.274 290.963L138.875 290.792L138.475 290.62L137.676 290.164L136.877 289.707L136.077 289.193L135.335 288.565L134.536 287.88L133.794 287.195L133.109 286.396L132.367 285.653L131.739 284.797L131.111 283.941L130.483 283.084L129.912 282.171L129.398 281.257L128.884 280.344L128.427 279.43L127.971 278.46L127.571 277.547L127.171 276.633L126.486 274.806L125.744 272.979L125.401 272.18L125.059 271.324L124.716 270.524L124.317 269.725L123.917 268.983L123.517 268.298L123.061 267.613L122.547 267.042L122.033 266.471L121.462 265.957L121.177 265.729L120.891 265.5L120.549 265.329L120.149 265.101L119.864 264.929L119.464 264.815L118.722 264.53L117.923 264.244L117.066 264.13L116.21 263.959L115.296 263.845L114.383 263.731L113.412 263.673L112.442 263.616H111.471H109.473Z" stroke="#999999" stroke-opacity="0.62" stroke-width="0.799269" stroke-miterlimit="10"/>
<path d="M139.96 275.492L139.446 274.75L138.875 274.008L138.304 273.323L137.961 272.98L137.676 272.638L137.333 272.352L136.991 272.067L136.648 271.838L136.249 271.553L135.849 271.382L135.449 271.153L134.65 270.811L133.851 270.411L133.451 270.24L133.052 270.011L132.652 269.726L132.309 269.441L131.967 269.098L131.681 268.755L131.396 268.299L131.168 267.842L130.939 267.328L130.768 266.757L130.597 266.186L130.483 265.615L130.426 265.045L130.368 264.474V263.903L130.426 263.332V262.818L130.54 262.361L130.711 261.905L130.939 261.562L130.996 261.391L131.111 261.277L131.282 261.105L131.396 260.991L131.567 260.934L131.681 260.82H131.853H132.081H132.252H132.424L132.88 260.877L133.337 261.048L133.794 261.162L134.308 261.277L134.821 261.334L135.335 261.391H135.849H136.363L136.877 261.334L137.391 261.277L137.961 261.162L138.989 260.934L140.074 260.706L141.101 260.363L142.072 260.135L143.043 259.849L143.499 259.735L143.956 259.621L144.413 259.564L144.812 259.45L145.212 259.393H145.612H145.954L146.297 259.45L146.639 259.564L146.925 259.678L147.21 259.849L147.439 260.021L147.667 260.249L147.838 260.592L148.009 260.934L148.124 261.277L148.238 261.676L148.352 262.133L148.409 262.59L148.466 263.046L148.523 263.56V264.074V265.102L148.466 266.129L148.409 267.1L148.238 268.013L148.124 268.87L147.895 269.726L147.724 270.525L147.439 271.382L147.153 272.238L146.753 273.037L146.411 274.008L145.954 274.921L145.669 275.435L145.44 275.892L145.155 276.349L144.869 276.691L144.584 277.091L144.299 277.376L143.956 277.605L143.785 277.719L143.613 277.776L143.442 277.833H143.271H143.157H142.985L142.757 277.776L142.586 277.719L142.243 277.547L141.844 277.262L141.501 276.977L141.101 276.634L140.759 276.291L139.96 275.492Z" stroke="#999999" stroke-opacity="0.62" stroke-width="0.799269" stroke-miterlimit="10"/>
<path d="M147.381 345.998L148.694 343.715L149.322 342.516L149.893 341.317L150.179 340.689L150.464 340.061L150.692 339.376L150.921 338.691L151.149 338.006L151.377 337.263L151.549 336.521L151.72 335.779L151.834 334.98L152.005 334.18L152.063 333.324L152.12 332.468L152.234 331.611L152.291 330.755L152.348 328.928V327.101V325.331V323.562L152.291 321.849V321.05V320.25V319.451V318.709V317.967V317.282L152.348 316.654L152.405 316.026L152.462 315.455L152.519 314.941L152.633 314.484L152.691 314.085L152.862 313.685L152.976 313.399L153.204 313.171L153.376 312.943L153.49 312.886H153.604L153.718 312.829L153.889 312.771L154.118 312.829L154.46 312.886L154.803 313.057L155.145 313.285L155.545 313.514L155.945 313.799L156.344 314.199L156.801 314.598L157.258 314.998L157.772 315.455L158.228 316.026L158.799 316.539L159.313 317.11L159.827 317.738L160.398 318.366L160.912 318.994L162.11 320.365L163.252 321.735L164.451 323.105L165.707 324.532L166.906 325.845L168.162 327.158L169.361 328.414L170.56 329.613L171.702 330.698L172.958 331.783L174.1 332.81L175.298 333.781L176.44 334.694L177.582 335.551L178.781 336.407L179.923 337.206L181.065 337.948L182.264 338.634L183.405 339.319L184.547 340.004L185.689 340.632L186.831 341.26L187.973 341.831L190.256 342.972L192.483 344L194.766 345.028L196.993 345.998" stroke="#999999" stroke-opacity="0.62" stroke-width="0.799269" stroke-miterlimit="10"/>
<path d="M335.608 345.999L334.067 343.944L333.268 342.859L332.411 341.832L331.612 340.861L330.756 339.948L329.842 339.034L328.986 338.178L328.472 337.778L328.015 337.436L327.501 337.036L326.988 336.694L326.474 336.408L325.96 336.066L325.446 335.78L324.875 335.495L324.304 335.209L323.734 334.981L322.535 334.524L321.393 334.182L320.137 333.782L318.881 333.497L317.625 333.211L316.312 333.04L315.056 332.811L312.487 332.412L309.918 332.069L307.406 331.67L304.951 331.27L303.752 331.042L302.496 330.813L301.297 330.528L300.098 330.242L298.899 329.957L297.757 329.614L296.501 329.215L295.359 328.872L294.161 328.415L292.962 327.959L291.706 327.502L290.507 326.988L289.251 326.36L287.995 325.789L286.739 325.104L285.483 324.419L284.284 323.677L283.028 322.935L281.886 322.136L281.315 321.679L280.801 321.279L280.23 320.822L279.717 320.423L279.26 319.966L278.803 319.509L278.346 319.053L277.947 318.596L277.604 318.139L277.262 317.683L276.976 317.169L276.691 316.712L276.462 316.198L276.291 315.684L276.12 315.228L276.006 314.714L275.949 314.2V313.686V313.172L276.063 312.658L276.12 312.088L276.291 311.574L276.405 311.06L276.634 310.546L276.862 310.032L277.09 309.461L277.433 308.948L277.718 308.377L278.061 307.863L278.404 307.292L278.803 306.721L279.203 306.207L280.059 305.122L280.916 303.981L281.886 302.896L283.827 300.669L285.768 298.5L286.739 297.415L287.652 296.331L288.509 295.246L289.365 294.161L290.164 293.133L290.963 292.049L291.649 290.964L292.391 289.936L293.019 288.852L293.704 287.824L295.017 285.712L296.273 283.656L297.472 281.487L298.728 279.375L299.984 277.205L301.354 275.093L302.724 272.866L304.037 270.64L304.665 269.498L305.293 268.356L305.864 267.214L306.435 266.072L306.949 264.931L307.406 263.732L307.862 262.59L308.262 261.391L308.547 260.192L308.833 258.993L309.061 257.794L309.175 256.595L309.232 255.339L309.29 254.083L309.232 252.827L309.118 251.629L308.947 250.373L308.776 249.117L308.547 247.861L308.262 246.605L307.919 245.349L307.577 244.093L307.177 242.837L306.72 241.638L306.264 240.382L305.75 239.126L305.236 237.87L304.665 236.671L304.094 235.472L303.523 234.273L302.895 233.074L302.325 231.875L301.639 230.733L301.011 229.592L300.383 228.45L299.698 227.308L299.013 226.223L298.271 225.081L297.529 224.054L296.787 223.026L296.045 221.941L295.245 220.914L294.446 219.943L293.647 218.973L292.79 218.002L291.934 217.089L291.078 216.175L290.164 215.319L289.194 214.463L288.28 213.606L287.253 212.864L286.282 212.065L285.197 211.323L284.113 210.637L283.028 209.952L281.886 209.324L280.687 208.696L279.545 208.125L278.232 207.612L277.033 207.098L274.464 206.07L271.952 205.1L270.753 204.586L269.554 204.015L268.413 203.387L267.271 202.816L266.757 202.473L266.243 202.131L265.729 201.788L265.273 201.446L264.816 200.989L264.416 200.647L264.017 200.19L263.56 199.733L263.217 199.276L262.875 198.763L262.589 198.306L262.304 197.735L262.018 197.221L261.79 196.593L261.619 196.079L261.448 195.451L261.276 194.823L261.105 194.195L260.991 193.51L260.934 192.882L260.877 192.254L260.82 191.569V190.941V190.256V189.571L260.877 188.943L260.934 188.258L260.991 187.63L261.105 187.002L261.219 186.374L261.39 185.746L261.505 185.118L261.847 183.919L262.247 182.663L262.704 181.521L263.274 180.379L263.845 179.295L264.473 178.21L265.216 177.125L265.958 176.098L266.7 175.07L267.556 174.099L268.413 173.129L269.326 172.215L270.297 171.245L271.267 170.389L272.295 169.532L273.322 168.676L274.407 167.819L275.492 167.02L276.634 166.221L277.718 165.479L278.86 164.737L280.059 163.994L281.258 163.252L282.4 162.567L284.798 161.254L287.195 159.998L289.593 158.799L291.934 157.657L294.332 156.63L296.673 155.602L299.07 154.689L301.411 153.832L303.809 153.033L306.15 152.291L308.547 151.606L310.945 150.978L313.4 150.407L315.798 149.893L318.253 149.436L320.708 149.037L323.22 148.694L325.675 148.409L328.187 148.123L330.699 147.952L333.268 147.724L335.78 147.552L338.349 147.438L340.918 147.324L345.999 147.153" stroke="#999999" stroke-opacity="0.62" stroke-width="0.799269" stroke-miterlimit="10"/>
<path d="M345.999 335.266L342.003 333.953L340.005 333.268L338.064 332.583L336.123 331.784L334.239 330.984L333.268 330.585L332.355 330.128L331.441 329.671L330.528 329.157L329.614 328.701L328.758 328.187L326.988 327.045L325.275 325.903L323.563 324.761L321.907 323.505L320.251 322.192L318.596 320.822L316.94 319.395L315.342 317.911L313.686 316.426L312.088 314.885L311.345 314.085L310.603 313.286L309.861 312.43L309.176 311.631L308.491 310.774L307.863 309.975L307.235 309.061L306.607 308.205L306.093 307.349L305.579 306.435L305.122 305.522L304.666 304.608L304.323 303.638L303.981 302.724L303.752 301.754L303.524 300.783L303.353 299.813L303.238 298.785L303.181 297.815V296.787V295.759L303.296 294.732L303.41 293.704L303.638 292.676L303.809 291.649L304.038 290.621L304.38 289.536L304.666 288.509L305.008 287.481L305.351 286.454L305.75 285.426L306.15 284.398L306.607 283.371L307.063 282.4L307.977 280.402L308.947 278.461L309.975 276.577L311.003 274.693L312.03 272.923L313.115 271.096L314.2 269.383L315.342 267.614L319.795 260.706L320.879 258.936L322.021 257.166L323.106 255.339L324.134 253.512L325.104 251.685L325.618 250.772L326.018 249.801L326.474 248.831L326.874 247.917L327.274 246.947L327.616 245.976L328.016 244.949L328.301 243.921L328.587 242.893L328.872 241.923L329.1 240.838L329.329 239.811L329.5 238.726L329.614 237.641L329.671 236.556L329.786 235.415V234.33V233.188L329.728 232.046L329.671 230.961L329.5 229.82L329.386 228.735L329.158 227.65L328.986 226.565L328.701 225.538L328.358 224.453L328.016 223.483L327.616 222.512L327.217 221.599L326.76 220.685L326.246 219.772L325.675 218.972L325.104 218.173L324.476 217.488L323.791 216.803L323.106 216.175L322.364 215.604L321.565 215.033L320.765 214.576L319.909 214.063L319.053 213.606L318.139 213.206L317.226 212.864L316.255 212.464L315.285 212.122L314.257 211.779L313.229 211.494L312.202 211.208L310.032 210.58L307.806 210.009L305.579 209.381L303.296 208.753L302.097 208.354L300.955 208.011L299.756 207.611L298.614 207.212L297.472 206.755L296.33 206.298L295.246 205.842L294.161 205.328L293.133 204.814L292.106 204.243L291.078 203.672L290.165 203.101L289.308 202.473L288.452 201.845L287.71 201.16L286.968 200.475L286.625 200.132L286.34 199.79L286.054 199.39L285.769 198.991L285.54 198.591L285.312 198.249L285.084 197.849L284.912 197.449L284.741 197.05L284.57 196.593L284.456 196.193L284.341 195.737L284.284 195.337L284.227 194.88V194.423L284.17 193.967L284.227 193.51V193.053L284.284 192.539L284.399 192.083L284.456 191.626L284.57 191.112L284.855 190.142L285.198 189.171L285.654 188.201L286.111 187.173L286.625 186.202L287.253 185.232L287.881 184.261L288.566 183.291L289.251 182.377L290.05 181.464L290.793 180.55L291.649 179.694L292.448 178.838L293.305 178.038L294.161 177.239L295.074 176.497L295.931 175.812L296.844 175.127L297.758 174.499L298.614 173.871L299.585 173.3L300.498 172.786L301.412 172.272L302.382 171.758L303.296 171.359L304.266 170.902L305.237 170.502L306.207 170.103L307.178 169.76L308.148 169.418L309.176 169.075L311.174 168.504L313.172 167.99L315.17 167.534L317.226 167.077L319.224 166.677L321.279 166.278L325.39 165.593L329.5 164.908L333.611 164.28L337.721 163.594L345.999 162.396" stroke="#999999" stroke-opacity="0.62" stroke-width="0.799269" stroke-miterlimit="10"/>
<path d="M346 323.962L343.203 322.421L341.833 321.678L340.405 320.936L339.035 320.137L337.722 319.281L336.352 318.424L335.039 317.568L333.783 316.597L332.527 315.627L331.328 314.599L330.757 314.085L330.186 313.514L329.615 312.944L329.044 312.373L328.53 311.745L328.017 311.117L327.503 310.546L326.989 309.861L326.532 309.233L326.076 308.548L325.619 307.92L325.219 307.177L324.82 306.492L324.42 305.807L324.077 305.065L323.735 304.38L323.449 303.638L323.164 302.896L322.936 302.153L322.707 301.411L322.536 300.612L322.365 299.927L322.193 299.128L322.136 298.385L322.022 297.586L321.965 296.844V296.045L321.908 295.245L321.965 294.503V293.704L322.022 292.905L322.136 292.105L322.308 290.564L322.593 288.966L322.936 287.367L323.335 285.826L323.735 284.227L324.249 282.628L324.762 281.03L325.276 279.488L325.847 277.947L326.989 274.864L328.188 271.838L329.501 268.87L330.814 265.901L332.127 262.989L333.554 260.135L334.982 257.28L336.466 254.483L337.95 251.685L339.549 248.945L341.09 246.205L342.689 243.521L344.345 240.838L346 238.155" stroke="#999999" stroke-opacity="0.62" stroke-width="0.799269" stroke-miterlimit="10"/>
<path d="M346 311.059L345.144 310.545L344.287 310.089L343.431 309.518L342.632 309.004L341.889 308.49L341.147 307.976L340.462 307.462L339.777 306.949L339.149 306.435L338.578 305.864L338.007 305.293L337.436 304.779L336.923 304.208L336.466 303.58L336.009 303.009L335.552 302.381L335.153 301.811L334.81 301.183L334.468 300.612L334.182 299.984L333.954 299.413L333.726 298.899L333.611 298.385L333.497 297.871L333.383 297.357L333.326 296.729L333.269 296.159L333.212 295.531V294.845L333.269 294.103L333.326 293.361L333.44 292.562L333.554 291.763L333.726 290.906L333.897 289.993L334.125 289.079L334.354 288.109L334.639 287.195L334.982 286.168L335.267 285.14L335.667 284.112L336.009 283.085L336.751 280.972L337.608 278.86L338.407 276.748L339.263 274.692L340.177 272.637L341.033 270.582L342.004 268.584L342.974 266.528L343.945 264.53L344.972 262.589L346 260.591" stroke="#999999" stroke-opacity="0.62" stroke-width="0.799269" stroke-miterlimit="10"/>
<path d="M345.999 173.471L343.201 173.756L340.347 173.985L338.92 174.099L337.492 174.327L336.008 174.498L334.524 174.727L332.982 175.012L331.441 175.298L329.842 175.64L328.244 176.04L326.588 176.439L324.875 176.953L324.019 177.239L323.163 177.524L322.249 177.81L321.393 178.152L319.566 178.837L317.739 179.579L315.912 180.379L314.085 181.235L312.315 182.091L311.459 182.548L310.603 183.005L309.803 183.462L309.004 183.975L308.262 184.432L307.52 184.946L306.835 185.403L306.207 185.917L305.579 186.373L305.008 186.887L304.494 187.344L303.98 187.858L303.523 188.371L303.181 188.828L302.838 189.285L302.553 189.799L302.382 190.255L302.21 190.712L302.153 191.226V191.683V191.911L302.21 192.139L302.325 192.539L302.496 192.996L302.781 193.452L303.124 193.852L303.523 194.252L303.98 194.651L304.494 195.108L305.008 195.508L305.579 195.907L306.207 196.307L306.892 196.65L307.634 197.049L308.376 197.449L309.118 197.848L309.918 198.191L310.717 198.591L311.573 198.99L313.286 199.732L315.056 200.475L318.595 202.016L320.308 202.815L321.164 203.215L321.964 203.615L322.763 204.071L323.562 204.471L325.047 205.27L326.474 206.127L327.844 206.983L329.214 207.839L330.47 208.696L331.783 209.495L332.982 210.351L334.238 211.151L335.494 211.95L336.693 212.749L337.949 213.491L339.205 214.176L340.518 214.804L341.831 215.489L343.201 216.06L344.572 216.631L345.999 217.202" stroke="#999999" stroke-opacity="0.62" stroke-width="0.799269" stroke-miterlimit="10"/>
<path d="M345.999 180.835L344.172 180.664L342.345 180.493L340.575 180.378H339.662H338.748L337.892 180.493H336.979L336.122 180.607L335.209 180.778L334.353 181.006L333.439 181.178L332.583 181.52L331.669 181.806L330.813 182.262L329.956 182.719L329.1 183.233L328.244 183.804L327.444 184.432L326.645 185.117L325.903 185.802L325.161 186.487L324.476 187.229L323.848 187.971L323.22 188.771L322.706 189.513L322.192 190.312L321.735 191.111L321.393 191.854L321.279 192.196L321.107 192.539L320.993 192.938L320.879 193.281V193.623L320.765 193.966V194.309V194.651V194.937L320.822 195.222L320.879 195.507L320.936 195.793L321.05 196.078L321.165 196.364L321.336 196.592L321.507 196.821L321.621 197.106L321.85 197.334L322.078 197.506L322.306 197.734L322.535 197.962L322.82 198.134L323.448 198.533L324.076 198.876L324.818 199.218L325.561 199.504L326.417 199.789L327.273 200.018L328.187 200.246L329.214 200.474L330.242 200.703L331.27 200.874L332.354 201.045L333.496 201.159L334.695 201.331L335.837 201.445L337.093 201.502L338.292 201.616L340.861 201.844L343.43 201.959L345.999 202.13" stroke="#999999" stroke-opacity="0.62" stroke-width="0.799269" stroke-miterlimit="10"/>
<path d="M283.942 1L284.627 4.76801L284.913 6.59491L285.198 8.47891L285.484 10.3629L285.712 12.2469L285.883 14.1309L285.998 16.0149L286.112 17.8989V19.7828L286.055 21.6668L285.941 23.5508L285.769 25.3777L285.541 27.2617L285.198 29.1457L284.913 31.0297L284.513 32.9137L284.057 34.7406L283.657 36.6246L283.143 38.5086L282.116 42.2195L281.031 45.9304L279.946 49.6413L278.861 53.3522L278.405 55.1791L277.891 57.006L277.434 58.89L277.034 60.7169L276.635 62.5438L276.292 64.3136L276.007 66.1976L275.721 67.9674L275.55 69.7943L275.436 71.6212L275.322 73.391V75.2179L275.379 77.0448L275.436 78.8146L275.493 82.4684L275.55 84.2382V86.0651L275.436 87.9491L275.379 88.8626L275.322 89.776L275.208 90.6895L275.093 91.66L274.922 92.5735L274.751 93.4869L274.522 94.4575L274.294 95.428L274.066 96.3986L273.723 97.312L273.381 98.2825L272.981 99.3102L272.581 100.224L272.125 101.251L271.554 102.222L271.04 103.249L270.412 104.22L269.784 105.248L269.042 106.275L268.357 107.303L267.672 108.273L266.986 109.187L266.644 109.644L266.358 110.1L266.016 110.557L265.788 110.957L265.502 111.356L265.331 111.699L265.102 112.098L264.931 112.441L264.817 112.726L264.703 113.012L264.646 113.297V113.526V113.697L264.76 113.925L264.817 114.04L264.988 114.154L265.217 114.268L265.445 114.325H265.73H266.016H266.416H266.815L267.215 114.211L267.614 114.154L268.071 114.04L268.585 113.925L269.042 113.754L269.556 113.583L270.126 113.412L270.64 113.183L271.725 112.726L272.867 112.213L274.009 111.585L275.093 111.014L276.178 110.329L277.149 109.644L277.662 109.301L278.119 108.901L278.576 108.559L278.976 108.159L279.375 107.76L279.718 107.417L280.06 107.017L280.346 106.618L280.631 106.218L280.917 105.876L281.373 105.076L281.83 104.277L282.686 102.679L283.543 101.023L284.399 99.3673L285.141 97.7116L285.883 95.9989L286.626 94.2862L287.368 92.5164L287.996 90.7466L288.681 88.9768L289.309 87.207L289.937 85.3801L290.508 83.5532L291.079 81.7263L291.593 79.8423L292.106 77.9583L292.62 76.1314L293.077 74.2474L293.534 72.3633L293.933 70.4794L294.39 68.5954L294.733 66.7685L295.075 64.8845L295.475 63.0005L295.76 61.1165L296.388 57.3485L296.902 53.6376L297.416 49.8697L297.873 46.1587L298.329 42.3907L298.729 38.6228L299.129 34.9119L299.471 31.1439L300.156 23.6079L300.841 16.072L302.04 1" stroke="#999999" stroke-opacity="0.62" stroke-width="0.799269" stroke-miterlimit="10"/>
<path d="M312.031 1L311.974 6.48074L311.859 11.9614L311.688 17.4992L311.517 22.9799L311.403 25.7203L311.231 28.4606L311.06 31.201L310.889 33.8842L310.661 36.6817L310.432 39.3649L310.09 42.0482L309.804 44.7886L309.405 47.4719L309.005 50.2122L308.548 52.8954L308.034 55.5787L307.406 58.262L306.778 61.0023L306.093 63.6856L305.351 66.3117L304.552 68.9379L304.038 70.3081L303.638 71.6212L303.125 72.9913L302.611 74.3045L302.097 75.6175L301.583 76.9306L300.441 79.5568L299.3 82.183L298.158 84.8091L297.644 86.1222L297.13 87.4353L296.616 88.7484L296.16 90.0615L295.76 91.3746L295.417 92.6877L295.075 94.0007L294.846 95.3138L294.618 96.6269L294.504 97.8829V98.568L294.447 99.196L294.504 99.824V100.509L294.561 101.137L294.618 101.822L294.789 103.078L295.075 104.391L295.36 105.704L295.703 107.017L296.102 108.33L296.502 109.644L296.959 110.957L297.929 113.64L298.843 116.38L299.3 117.75L299.756 119.121L300.613 121.918L301.069 123.288L301.526 124.658L301.983 125.972L302.497 127.228L302.782 127.856L303.067 128.426L303.353 129.054L303.695 129.625L304.038 130.196L304.381 130.71L304.723 131.224L305.123 131.738L305.522 132.251L305.979 132.651L306.436 133.108L306.893 133.507L307.406 133.907L307.92 134.307L308.434 134.649L309.005 134.992L309.576 135.277L310.147 135.62L310.718 135.905L311.346 136.134L311.974 136.419L312.602 136.647L313.23 136.819L313.915 137.047L314.6 137.218L315.285 137.39L316.655 137.675L318.082 137.903L319.567 138.075L321.051 138.189L322.592 138.303L324.077 138.36H325.618H327.16L328.701 138.303L330.243 138.246L331.727 138.132L333.268 138.018L334.753 137.903L336.237 137.732L337.664 137.561L339.092 137.333L340.462 137.161L341.889 136.933L343.259 136.705L346 136.248" stroke="#999999" stroke-opacity="0.62" stroke-width="0.799269" stroke-miterlimit="10"/>
<path d="M326.816 1L327.102 5.45311L327.444 9.90618L327.673 14.3021L327.73 16.5287L327.844 18.6981L327.901 20.9247V23.0941V25.2635L327.844 27.433L327.73 29.6024L327.616 31.7719L327.444 33.8842L327.216 35.9395L326.93 38.0519L326.645 40.1642L326.245 42.2195L325.789 44.2747L325.275 46.2729L324.704 48.3282L324.076 50.3264L323.448 52.3246L322.763 54.2656L322.021 56.2638L321.278 58.262L320.536 60.3173L318.938 64.3707L318.196 66.426L317.396 68.5383L316.654 70.6507L315.912 72.763L315.227 74.9896L314.542 77.159L313.914 79.4426L313.628 80.5844L313.343 81.7263L313.115 82.8681L312.829 84.0099L312.658 85.1517L312.487 86.2935L312.315 87.4353L312.201 88.5771L312.087 89.6619L312.03 90.8037V91.8884L312.087 92.9731L312.144 94.0578L312.258 95.1426L312.372 96.1702L312.601 97.2549L312.829 98.2255L313.115 99.2531L313.457 100.224L313.914 101.194L314.313 102.051L314.827 102.964L315.398 103.877L316.026 104.734L316.768 105.533L317.453 106.332L318.253 107.074L319.052 107.817L319.908 108.502L320.822 109.187L321.735 109.815L322.706 110.443L323.619 111.014L324.647 111.585L325.674 112.098L326.702 112.555L327.73 113.012L328.814 113.469L329.842 113.811L330.927 114.211L332.012 114.496L333.039 114.782L334.124 115.01L335.209 115.238L336.293 115.467L337.378 115.581L338.406 115.752L339.49 115.866L340.575 115.924L341.66 115.981L342.745 116.038H343.829H344.914H345.999" stroke="#999999" stroke-opacity="0.62" stroke-width="0.799269" stroke-miterlimit="10"/>
<path d="M346 18.0701L343.83 23.3224L341.661 28.5747L339.549 33.77L338.464 36.282L337.436 38.8511L336.409 41.363L335.324 43.875L334.353 46.387L333.326 48.8419L332.355 51.411L331.499 53.9801L331.042 55.2361L330.643 56.5492L330.243 57.9193L329.843 59.2895L329.501 60.6597L329.101 62.0299L328.816 63.4571L328.53 64.9415L328.245 66.3688L327.959 67.9102L327.731 69.4517L327.56 71.0502L327.388 72.6487L327.274 74.3044V75.9029V76.7022V77.5014L327.331 78.2436L327.388 79.0429L327.503 79.7851L327.56 80.4702L327.731 81.2694L327.902 81.8974L328.073 82.5825L328.302 83.2676L328.587 83.8956L328.873 84.4665L329.215 85.0945L329.615 85.6083L330.015 86.1221L330.414 86.5789L330.928 87.0356L331.442 87.4353L332.013 87.7778L332.641 88.0632L333.326 88.3487L334.011 88.577L334.696 88.7483L335.438 88.9196L336.18 88.9767L336.923 89.0338L337.608 89.0908L338.35 89.0338L339.092 88.9196L339.777 88.8054L340.462 88.6912L341.09 88.4628L341.661 88.1774L342.289 87.8349L342.86 87.5494L343.374 87.1498L343.83 86.693L344.344 86.2934L344.801 85.7796L345.201 85.2658L345.6 84.6949L346 84.124" stroke="#999999" stroke-opacity="0.62" stroke-width="0.799269" stroke-miterlimit="10"/>
</svg>
