<svg width="25" height="24" viewBox="0 0 25 24" fill="none" xmlns="http://www.w3.org/2000/svg">
<path fill-rule="evenodd" clip-rule="evenodd" d="M3.93555 11.5C3.93555 11.2239 4.1594 11 4.43555 11L20.4355 11C20.7117 11 20.9355 11.2239 20.9355 11.5C20.9355 11.7761 20.7117 12 20.4355 12L4.43555 12C4.1594 12 3.93555 11.7761 3.93555 11.5Z" fill="#333333"/>
<path fill-rule="evenodd" clip-rule="evenodd" d="M16.582 7.64645C16.7773 7.45118 17.0938 7.45118 17.2891 7.64645L21.1427 11.5L17.2891 15.3536C17.0938 15.5488 16.7773 15.5488 16.582 15.3536C16.3867 15.1583 16.3867 14.8417 16.582 14.6464L19.7284 11.5L16.582 8.35355C16.3867 8.15829 16.3867 7.84171 16.582 7.64645Z" fill="#333333"/>
</svg>
