<svg width="1440" height="2280" viewBox="0 0 1440 2280" fill="none" xmlns="http://www.w3.org/2000/svg">
<g opacity="0.04">
<path d="M-461.24 -12.0654H1900.99V2277.13H-461.24V-12.0654Z" stroke="#333333" stroke-width="4.42753" stroke-miterlimit="10"/>
<path d="M-461.24 607.68L-435.05 598.967L-408.469 589.876L-382.278 580.405L-369.378 575.481L-356.478 570.556L-343.578 565.253L-330.679 559.949L-317.779 554.267L-305.27 548.206L-292.761 542.145L-280.252 535.705L-268.134 528.886L-256.016 522.068L-243.898 514.87L-232.171 507.294L-220.444 499.717L-208.717 491.762L-197.771 483.428L-186.435 475.094L-175.49 466.76L-164.544 457.668L-153.99 448.577L-143.827 439.485L-133.663 430.015L-123.89 420.166L-114.118 410.316L-104.736 400.467L-95.3544 390.239L-86.7545 379.632L-78.1547 369.025L-69.5548 358.418L-61.7367 347.811L-53.5277 336.447L-46.1006 325.461L-38.2825 314.097L-31.2462 302.732L-24.2099 291.368L-17.1736 279.245L-10.5283 267.502L-4.27388 255.759L2.37156 243.636L8.23503 231.514L14.0986 219.392L20.3531 206.891L25.8257 194.39L31.6894 181.889L36.7711 169.388L42.2438 156.509L47.3254 144.008L57.8798 118.248L67.6524 92.4883L77.425 66.3498L86.4158 40.2116L105.179 -12.0654" stroke="#333333" stroke-width="2.21377" stroke-miterlimit="10"/>
<path d="M-461.24 766.026L-433.877 753.525L-406.514 740.645L-379.542 727.386L-365.86 720.947L-352.569 714.128L-339.279 707.309L-325.988 700.112L-313.088 692.914L-300.188 685.717L-287.679 677.762L-274.779 670.185L-262.661 662.23L-250.543 653.896L-238.425 645.562L-226.698 636.47L-214.971 627.758L-204.026 618.287L-193.08 608.817L-182.135 598.589L-171.972 588.361L-161.808 577.753L-151.645 566.768L-142.263 555.403L-132.49 543.66L-123.5 531.917L-114.509 520.173L-105.518 508.051L-96.5271 495.929L-87.9273 483.428L-53.5277 434.182L-44.9278 421.681L-36.328 409.559L-27.7281 397.815L-18.7373 386.072L-9.74651 374.329L-0.364753 362.964L8.62602 351.978L18.0076 340.992L27.7802 330.765L37.9438 320.915L43.0256 315.991L48.1072 311.066L53.58 306.52L58.6617 301.974L64.1343 297.429L69.6071 293.262L75.0797 289.095L80.9432 284.928L86.4158 281.14L92.6704 277.351L98.5339 273.563L104.398 270.154L110.652 266.744L116.906 263.335L123.161 259.926L129.415 256.895L136.061 253.865L142.706 251.213L155.997 245.152L169.678 239.848L183.751 234.924L198.214 229.62L213.069 225.074L228.314 220.529L243.95 215.983L259.586 211.437L275.613 206.891L292.031 202.724L308.449 198.557L325.258 194.39L342.067 190.602L358.876 187.193L375.685 184.162L383.894 183.026L392.103 181.889L400.703 180.753L408.912 179.616L416.73 178.859L424.939 178.48L433.148 178.101L440.966 177.722H448.784H456.993L464.42 178.101L471.847 178.859L479.274 179.616L486.702 180.374L493.738 181.51L500.774 183.026L507.81 184.541L514.456 186.814L521.101 189.087L527.355 191.739L534.001 194.39L539.864 197.421L545.728 200.83L551.201 204.618L556.673 208.785L562.146 212.952L566.837 217.877L571.528 222.802L576.218 228.105L580.518 233.787L584.818 239.848L588.727 246.288L592.637 252.349L596.546 258.789L604.363 271.669L612.182 284.549L616.482 290.989L620.781 297.05L625.472 303.111L630.163 308.793L635.245 314.096L640.327 319.021L643.063 321.673L645.799 323.946L648.926 326.219L652.054 328.113L655.181 330.007L658.308 331.901L661.826 333.416L664.954 335.31L668.863 336.447L672.381 337.962L676.29 339.099L679.808 340.235L683.717 340.992L688.017 341.75L691.926 342.129L695.835 342.887L699.744 343.266H703.653H707.562H711.471L715.771 342.887L719.289 342.508L723.198 342.129L727.107 341.371L730.626 340.614L734.535 339.856L738.053 338.72L741.18 337.204L744.698 335.689L747.825 334.174L750.952 332.659L753.689 330.765L756.816 328.492L759.161 326.598L761.507 324.325L764.243 321.673L766.198 319.021L768.543 316.748L770.498 313.718L772.061 310.687L774.016 308.036L775.58 305.005L777.143 301.596L778.707 298.186L779.88 294.777L781.052 291.367L782.225 287.579L783.398 284.17L784.961 276.594L786.134 269.017L787.307 261.062L787.697 253.107L788.088 244.773V236.439L787.697 228.105L787.307 219.771L786.525 211.058L785.743 203.103L784.57 194.769L783.007 186.814L781.443 178.859L780.27 170.904L778.707 163.327L777.143 155.751L775.97 148.175L774.798 140.977L773.625 134.158L772.843 126.961L772.452 120.142L772.061 113.702L772.452 107.262L772.843 103.853L773.625 100.822L774.016 98.1706L774.798 94.7611L775.97 92.1094L776.752 89.0791L777.925 86.0485L779.098 83.3967L780.27 80.3661L781.834 77.7144L785.352 72.411L789.261 67.1076L793.561 61.8042L798.252 56.8793L802.943 51.9548L808.415 47.0303L814.279 42.4844L820.143 37.9385L826.788 33.3928L833.042 28.8469L840.078 24.6799L846.724 20.5129L854.151 16.3459L861.578 12.1792L876.433 3.84513L892.069 -4.48891L907.705 -12.0654" stroke="#333333" stroke-width="2.21377" stroke-miterlimit="10"/>
<path d="M214.635 -12.0649L197.827 -0.321401L189.618 5.36092L181.8 11.4219L173.591 17.4831L165.772 23.1651L158.345 29.2263L151.309 35.2873L144.664 41.3485L138.018 47.4094L132.155 53.4706L126.291 59.5318L123.946 62.9411L121.209 65.9717L118.864 69.0023L116.91 72.0326L114.955 75.0632L113 78.0938L111.046 81.1244L109.482 84.5337L107.919 87.5643L106.746 90.9735L105.573 94.0041L104.791 97.4136L104.401 100.444L103.619 103.475L103.228 106.884V110.293L103.619 113.324V116.733L104.401 120.143L105.182 123.552L105.964 126.582L107.137 130.371L108.701 133.401L110.655 136.81L112.61 140.22L114.955 143.629L116.91 147.039L119.646 150.069L122.382 153.1L125.118 155.751L127.855 158.024L130.982 160.297L134.109 162.191L137.627 164.085L140.755 165.222L143.882 165.979L147.4 166.737H150.918H154.436H157.564L161.473 165.979L164.991 165.601L168.509 164.464L172.027 163.328L175.936 161.812L179.454 160.676L183.363 158.782L187.272 156.888L194.699 153.1L202.517 148.933L218.154 140.599L225.972 136.053L234.181 132.265L241.999 128.855L249.817 125.446L257.635 122.794L265.844 120.521L273.662 118.248L281.48 116.733L289.298 115.597L297.116 114.46L304.934 113.702L312.752 112.945H320.57L328.388 112.566L336.207 112.945L344.025 113.324L359.661 114.081L374.906 115.597L405.787 119.006L421.033 120.521L436.278 121.658L466.768 123.552L482.014 125.067L489.441 125.825L497.259 126.582L504.686 127.719L512.113 129.234L519.931 130.749L527.749 132.643L535.568 134.538L542.995 136.81L550.813 139.462L558.631 142.493L566.449 145.902L574.267 149.69L582.085 153.857L589.903 158.403L605.539 167.495L613.357 171.662L617.266 173.935L620.784 175.829L624.303 177.723L628.212 179.238L631.73 180.753L635.248 182.269L638.375 183.026L641.893 183.784L645.02 184.541L648.148 184.92H650.884L654.011 184.541L656.748 183.784L659.484 183.026L662.22 181.511L664.566 179.617L666.911 177.723L669.257 175.45L671.211 173.177L673.557 170.147L675.511 167.495L677.466 164.085L679.42 160.676L681.375 157.267L683.329 153.478L684.893 149.69L688.411 141.735L691.929 133.401L698.574 116.733L702.092 108.399L705.611 100.444L709.129 92.4888L713.038 84.9126L716.556 77.7149L720.856 70.8962L724.765 63.6986L729.065 57.2587L733.365 50.8189L737.665 44.7577L741.965 38.6968L746.265 32.6355L755.255 20.8923L764.246 9.52765L773.628 -1.45781L782.619 -12.0649" stroke="#333333" stroke-width="2.21377" stroke-miterlimit="10"/>
<path d="M-461.24 866.408L-428.405 859.968L-411.987 856.18L-395.569 852.771L-379.542 848.982L-363.515 844.815L-347.487 840.648L-331.851 836.103L-316.215 830.799L-308.397 828.526L-300.97 825.496L-293.152 822.465L-285.725 819.813L-278.297 816.404L-270.87 812.995L-263.834 809.585L-256.407 806.176L-249.371 802.388L-242.334 798.599L-235.298 794.432L-228.653 790.265L-222.007 786.098L-214.971 781.553L-208.717 776.628L-202.071 772.082L-195.817 767.157L-189.171 762.233L-182.917 756.93L-176.663 751.626L-170.799 746.322L-164.544 740.64L-158.681 735.337L-153.208 729.276L-147.345 723.594L-141.481 717.532L-136.009 711.472L-130.536 705.41L-119.981 692.909L-109.427 680.03L-99.2636 666.771L-89.491 653.512L-80.1093 639.875L-71.1185 625.859L-62.5186 611.842L-53.9186 597.447L-46.1007 583.052L-38.2826 568.657L-30.4645 554.262L-15.2192 525.093L-7.40112 511.077L0.0259948 496.682L7.8441 482.666L16.444 469.028L24.653 455.391L28.9529 448.572L33.6437 442.132L37.9437 435.692L42.6345 429.631L47.7163 423.191L52.4071 416.751L57.4889 411.069L62.9615 405.008L68.0433 399.326L73.9068 393.644L79.3796 387.961L85.243 382.658L91.4975 377.355L97.7519 372.43L104.006 367.126L110.261 362.202L116.906 357.656L123.943 353.11L130.588 348.564L137.624 344.397L144.66 340.23L152.088 335.684L159.515 332.275L166.942 328.487L174.369 324.699L182.187 321.289L189.614 317.88L197.823 314.85L205.641 312.198L213.459 309.167L221.669 306.516L229.877 304.243L238.086 301.97L246.295 299.697L254.895 297.803L263.104 295.909L271.704 294.393L280.304 292.878L288.904 291.363L297.113 290.226L306.104 289.469L314.704 288.711L323.303 287.954L331.903 287.575L340.894 287.196H349.494L358.094 287.575H367.085L375.685 288.332L384.285 289.09L392.884 289.848L401.875 290.984L410.475 292.121L419.075 293.636L427.675 295.151L436.275 296.666L444.484 298.939L452.693 300.833L461.293 303.106L469.502 305.758L477.711 308.41L485.528 311.061L493.347 314.092L501.556 317.501L508.983 320.911L516.801 324.32L524.228 328.108L531.655 332.275L539.082 336.442L546.119 340.609L553.155 345.155L559.8 350.08L566.446 354.625L572.7 359.929L578.954 364.854L585.209 370.536L591.073 376.218L596.936 381.9L602.409 387.961L607.882 394.022L612.963 400.084L617.654 406.902L622.345 413.342L627.036 420.54L631.336 427.358L635.245 434.556L639.154 441.753L642.672 448.951L645.799 456.527L649.317 464.103L652.054 472.059L654.79 479.635L657.526 487.59L659.872 495.545L661.826 503.501L663.781 511.835L665.344 519.79L666.908 528.124L668.081 536.458L668.862 544.413L669.644 552.747L670.035 561.081L670.426 569.036V577.37V585.704L670.035 594.038L669.644 601.993L668.862 609.948L667.69 618.282L666.517 625.859L664.953 633.814L663.39 641.769L661.435 649.346L659.481 656.922L657.135 664.498L654.79 672.075L652.054 679.651L649.317 686.848L645.799 694.425L642.672 701.243L639.545 708.441L636.027 715.639L632.508 722.836L628.208 729.655L624.299 736.852L620.39 743.671L616.09 750.489L611.791 757.308L602.409 770.946L593.027 783.826L582.864 797.084L572.7 810.343L562.146 822.844L551.2 835.723L540.255 848.224L528.919 861.105L517.583 873.605L494.91 898.607L472.238 923.231L449.175 947.854L426.502 972.098L403.439 996.342L380.766 1020.21L357.703 1043.69L335.031 1066.8L312.358 1089.15L289.686 1111.88L267.404 1133.47L256.068 1144.46L244.732 1155.07L233.786 1165.67L222.45 1175.9L211.896 1186.13L200.56 1196.36L178.669 1216.44L156.779 1236.51L145.833 1246.74L134.497 1256.97L123.161 1267.58L111.825 1278.18L100.097 1289.55L88.3703 1300.91L76.6431 1312.66L70.3887 1318.72L64.1342 1324.78L58.2707 1331.22L52.0163 1337.66L45.7618 1344.1L39.1164 1350.92L32.8619 1358.11L26.2166 1364.93L19.5712 1372.13L13.3167 1379.33L6.28045 1386.9L0.0259948 1394.1L-6.22846 1401.68L-8.96478 1405.47L-11.7011 1408.87L-14.0466 1412.66L-16.3919 1416.07L-18.7374 1419.48L-20.6919 1422.89L-22.2555 1425.92L-23.8192 1429.33L-24.9918 1432.36L-25.7737 1435.39L-26.5555 1438.04L-26.9463 1440.69V1443.35L-26.1645 1445.62L-25.3827 1447.89L-24.21 1449.79L-23.0373 1451.68L-21.0828 1453.58L-19.1282 1455.47L-16.7829 1456.61L-14.0466 1458.12L-10.9193 1459.26L-7.79211 1460.39L-4.66481 1461.53L-0.755831 1462.29L3.1533 1463.05L7.06228 1463.8L11.3622 1464.18L15.6622 1464.94H20.353L25.0438 1465.32L30.1256 1465.7H35.2074H40.2892L50.4526 1465.32L61.3979 1464.94L72.3433 1463.8L83.6794 1463.05L95.0156 1461.53L105.961 1460.39L116.515 1458.5L127.461 1456.98L137.624 1455.09L147.788 1453.2L157.56 1451.3L166.942 1449.41L176.715 1447.13L185.705 1444.86L194.696 1442.59L203.687 1440.32L212.287 1438.04L220.496 1435.77L229.096 1433.12L237.305 1430.85L245.123 1428.57L253.332 1425.92L268.577 1421L283.431 1416.45L298.286 1411.9L312.749 1407.74L326.822 1403.95L340.894 1400.54L347.539 1398.65L354.576 1397.51L361.612 1395.99L368.648 1394.86L375.685 1393.72L382.721 1392.96L389.757 1392.59L397.184 1391.83L404.221 1391.45H411.257H418.684L426.111 1391.83L433.538 1392.21L440.966 1392.96L448.393 1393.72L456.211 1394.48L464.029 1395.62L471.847 1396.75L487.483 1399.4L503.119 1402.81L519.537 1405.84L535.955 1409.25L551.982 1412.66L568.791 1416.07L585.6 1419.86L602.409 1422.89L619.218 1425.92L636.417 1428.57L644.626 1429.33L653.226 1430.47L661.826 1431.22L670.426 1431.98L679.026 1432.74L687.626 1433.12L696.226 1433.5H704.826L713.425 1433.12L722.025 1432.74L730.625 1431.98L739.225 1431.22L747.825 1430.09L756.425 1428.95L765.025 1427.82L773.234 1425.92L781.443 1424.41L790.043 1422.51L798.252 1420.24L806.07 1417.59L814.279 1415.31L822.488 1412.28L829.915 1409.25L837.733 1406.22L845.16 1402.81L852.978 1399.03L860.014 1395.24L867.442 1391.07L874.478 1386.9L881.514 1382.36L888.16 1377.81L894.805 1372.89L901.059 1367.96L907.314 1362.66L913.177 1356.98L919.041 1351.29L924.514 1345.23L929.986 1339.55L935.459 1333.11L940.54 1326.67L945.622 1320.23L950.313 1313.41L959.695 1300.15L978.068 1272.88L987.058 1259.24L996.44 1246.36L1001.13 1239.92L1006.21 1233.48L1010.9 1227.8L1015.98 1221.74L1021.07 1216.06L1026.54 1210.37L1032.4 1205.45L1037.88 1200.52L1044.13 1195.6L1049.99 1191.05L1055.86 1186.51L1062.5 1181.96L1075.01 1173.25L1087.91 1164.54L1101.2 1155.45L1107.85 1150.9L1114.49 1146.35L1121.14 1141.43L1127.78 1136.13L1134.04 1130.82L1140.68 1125.14L1146.94 1119.46L1153.58 1113.02L1159.84 1106.58L1165.7 1099.76L1171.96 1092.56L1177.82 1084.61L1183.29 1076.65L1188.76 1068.32L1193.85 1059.98L1196.19 1055.82L1198.15 1051.65L1200.49 1047.48L1202.06 1043.32L1204.01 1039.15L1205.57 1034.98L1207.14 1030.81L1208.31 1027.03L1209.48 1022.86L1210.26 1019.07L1210.66 1015.66L1211.05 1011.87V1008.46V1005.05V1001.65L1210.26 998.994L1209.09 995.964L1207.92 993.312L1206.36 990.66L1204.79 988.387L1202.45 986.114L1200.1 984.22L1197.36 982.326L1194.63 980.811L1191.5 979.674L1187.98 978.159L1184.46 977.023L1180.95 976.265L1177.04 975.507L1173.13 974.75L1168.83 974.371L1164.53 973.992L1159.84 973.613H1155.15H1150.46H1145.76L1135.99 973.992L1125.83 975.128L1116.06 976.265L1105.89 977.78L1096.12 979.674L1086.74 981.568L1077.75 983.841L1068.76 986.114L1060.16 988.387L1051.95 990.66L1044.13 993.312L1035.92 995.584L1028.1 998.236L1012.86 1002.78L1005.43 1005.05L997.613 1006.95L990.185 1008.84L982.758 1010.36L975.331 1011.87L967.513 1013.01L959.695 1013.77L951.877 1014.53H943.277L935.068 1014.15H930.768L926.468 1013.39H922.168L917.477 1012.25L908.486 1010.74L903.796 1009.98L899.496 1008.84L895.196 1007.71L890.896 1006.19L886.596 1004.68L882.296 1003.16L878.387 1001.27L874.478 999.373L870.96 997.479L867.442 995.206L864.314 993.312L861.187 991.039L858.451 988.387L856.105 985.357L854.151 982.705L852.196 980.053L850.633 977.023L849.46 973.613L848.678 970.204L848.287 966.794V963.385V959.597L848.678 955.809L849.46 952.399L850.242 948.611L851.414 944.823L852.587 940.656L854.151 936.868L856.105 932.701L858.06 928.913L860.405 925.124L862.751 920.957L865.487 917.169L868.223 913.381L870.96 909.593L874.087 905.805L877.214 902.016L880.732 898.607L883.86 895.198L887.378 891.789L890.896 888.379L894.805 884.97L898.323 881.939L902.232 878.909L906.141 876.257L910.05 873.984L913.959 871.332L917.868 869.059L921.777 866.787L925.686 864.892L929.595 863.377L933.895 861.483L937.804 859.968L942.104 858.831L946.013 857.695L949.922 856.558L954.222 855.801L958.131 854.664L966.34 853.528L974.549 852.391L983.149 852.013H991.358H999.567L1007.78 852.771L1016.38 853.528L1024.58 854.286L1041.39 856.558L1058.2 859.21L1074.23 861.862L1082.44 862.998L1090.65 864.135L1098.86 864.892L1106.67 865.65L1114.49 866.029L1122.31 866.408L1130.52 866.787L1138.34 867.165H1153.97L1169.22 866.787L1184.86 865.65L1200.49 864.514L1216.13 862.998L1231.76 861.105L1247.79 859.21L1263.82 856.938L1280.24 854.664L1297.04 852.013L1314.24 849.74L1331.84 847.467L1349.43 844.815L1358.81 843.3L1368.19 842.164L1377.57 841.406L1387.34 839.89L1406.5 837.997L1416.27 837.239L1425.65 836.481L1435.42 835.723L1444.42 835.345L1453.41 834.966H1462.4H1470.61H1474.52L1478.42 835.345H1482.33L1485.85 835.723L1489.37 836.103L1492.89 836.481L1496.02 837.239L1499.14 837.997L1502.27 838.375L1505.01 839.133L1507.35 839.89L1509.7 841.027L1512.04 841.785L1514 842.921L1515.95 844.057L1517.51 845.573L1519.08 846.709L1520.25 848.224L1521.42 849.74L1522.21 851.255L1523.38 852.771L1523.77 854.664L1524.16 856.18L1524.55 858.074V859.968V862.241V864.135L1524.16 866.408L1523.77 868.681L1522.99 870.575L1522.21 873.226L1521.03 875.499L1520.25 877.772L1519.08 880.424L1517.51 883.076L1516.34 885.728L1514.78 888.379L1512.82 891.031L1511.26 893.682L1509.31 896.713L1505.01 902.396L1500.31 908.457L1495.23 914.517L1489.76 920.957L1483.9 927.398L1478.03 933.838L1471.39 940.656L1464.74 947.475L1457.71 954.293L1450.28 961.491L1442.85 968.689L1435.03 975.886L1427.22 983.083L1419.01 990.66L1410.8 997.857L1393.6 1012.63L1376.4 1027.78L1359.2 1042.56L1341.61 1057.33L1324.8 1071.73L1316.2 1078.92L1307.99 1086.12L1299.78 1092.94L1291.57 1099.76L1283.75 1106.58L1276.33 1113.02L1268.9 1119.84L1261.47 1125.9L1254.83 1131.96L1248.18 1138.02L1241.93 1143.7L1235.67 1149.76L1229.42 1155.45L1223.95 1160.75L1218.08 1166.05L1212.61 1171.73L1201.66 1182.34L1180.95 1203.18L1170 1214.16L1164.53 1219.47L1159.06 1224.77L1153.58 1230.45L1147.72 1236.51L1141.86 1242.19L1135.6 1248.26L1129.35 1254.32L1122.7 1260.38L1116.06 1267.2L1109.02 1273.64L1101.59 1280.46L1094.95 1287.27L1088.3 1294.09L1085.18 1297.5L1082.05 1300.53L1079.31 1303.94L1076.58 1306.97L1074.23 1310.38L1072.28 1313.41L1070.32 1316.44L1068.76 1319.09L1067.58 1322.13L1066.8 1324.78V1327.05L1066.41 1329.7L1066.8 1331.97L1067.58 1334.25L1068.76 1336.14L1070.32 1338.04L1072.28 1339.93L1074.62 1341.44L1076.97 1342.96L1080.09 1344.85L1082.83 1345.99L1086.35 1347.51L1089.87 1348.64L1094.17 1349.78L1098.07 1350.92L1102.37 1352.05L1106.67 1352.81L1111.37 1353.57L1116.06 1354.7L1121.14 1355.46L1131.3 1357.36L1141.86 1358.49L1163.36 1361.52L1174.3 1363.04L1184.86 1364.55L1195.02 1366.45L1205.18 1368.34L1214.56 1370.23L1223.95 1372.51L1232.94 1374.78L1241.54 1377.43L1249.75 1379.71L1257.56 1382.74L1265.38 1385.39L1273.2 1388.42L1280.63 1391.45L1288.05 1394.86L1295.09 1398.27L1302.13 1401.68L1308.77 1405.47L1315.42 1408.87L1322.06 1413.04L1328.32 1416.83L1334.96 1421L1341.22 1425.16L1353.73 1433.88L1366.24 1442.97L1378.74 1452.44L1391.64 1462.29L1404.54 1472.52L1417.44 1483.5L1429.95 1494.11L1436.21 1500.17L1442.07 1505.85L1447.93 1511.53L1453.8 1517.59L1459.66 1523.66L1465.13 1529.72L1470.61 1536.16L1475.69 1542.6L1480.77 1549.04L1485.46 1555.48L1490.15 1562.3L1494.45 1569.11L1498.75 1575.93L1502.66 1583.13L1506.18 1590.33L1509.7 1597.53L1512.43 1604.72L1515.17 1612.3L1517.91 1619.88L1519.86 1627.45L1521.42 1635.03L1522.99 1642.98L1524.55 1650.94L1524.94 1658.89L1525.72 1666.85L1526.11 1674.8V1683.14L1525.72 1691.09L1525.33 1699.43L1524.55 1707.38L1523.38 1715.72L1522.21 1724.05L1520.64 1732.01L1519.08 1740.34L1516.73 1748.67L1514.78 1757.01L1512.04 1764.96L1509.31 1772.92L1506.57 1780.87L1503.05 1788.83L1499.92 1797.16L1496.41 1804.74L1492.5 1812.69L1488.2 1820.27L1484.29 1827.85L1479.99 1835.42L1475.3 1842.62L1470.61 1850.2L1465.52 1857.39L1460.83 1864.21L1455.36 1871.03L1449.89 1877.85L1444.42 1884.67L1438.55 1890.73L1432.69 1897.17L1426.82 1903.23L1420.57 1909.29L1414.32 1914.97L1408.06 1920.66L1401.42 1925.96L1394.77 1930.88L1388.13 1936.19L1381.48 1941.11L1374.44 1945.66L1367.41 1950.2L1360.37 1954.75L1353.34 1958.92L1346.3 1963.08L1339.26 1966.87L1331.84 1971.04L1324.8 1974.83L1317.37 1978.24L1309.94 1981.65L1302.52 1985.06L1288.05 1991.12L1273.59 1997.18L1259.13 2002.48L1244.66 2007.41L1230.59 2011.95L1223.56 2013.85L1216.13 2015.74L1209.09 2017.63L1201.66 2019.53L1194.63 2021.04L1187.2 2022.18L1180.16 2023.69L1172.74 2024.83L1165.31 2025.59L1157.88 2026.35L1150.46 2027.1L1143.03 2027.48L1135.21 2027.86L1127.78 2028.24H1119.57H1111.76L1103.94 2027.86L1095.73 2027.48L1087.52 2026.73L1079.31 2025.97L1071.1 2024.83L1062.5 2023.69L1053.9 2022.18L1044.91 2021.04L1035.92 2019.15L1026.93 2017.26L1017.55 2014.98L1008.17 2012.71L998.785 2010.44L989.013 2007.78L978.849 2004.75L969.077 2001.72L958.913 1998.31L948.359 1994.53L937.413 1990.74L926.859 1986.95L915.914 1982.78L904.577 1978.24L882.296 1969.52L871.351 1964.98L860.405 1960.43L849.851 1956.27L839.688 1952.1L829.524 1947.93L824.442 1946.04L819.751 1944.14L815.06 1942.25L810.76 1940.36L806.46 1938.84L802.161 1936.95L798.252 1935.81L794.343 1934.29L790.434 1932.78L786.915 1931.64L783.788 1930.51L780.27 1929.75L777.534 1928.61L774.797 1927.85L772.452 1927.48L770.107 1927.1L767.761 1926.34H766.197H764.634H763.07L762.288 1927.1L761.507 1927.48L761.116 1927.85L760.725 1928.99L761.116 1930.13L761.507 1930.88L761.897 1932.4L763.07 1934.29L764.243 1935.81L766.197 1938.08L767.761 1939.98L769.716 1942.25L772.061 1944.52L774.797 1947.17L777.143 1949.83L780.27 1952.48L783.397 1955.13L786.525 1958.16L790.043 1960.81L793.561 1963.84L797.47 1966.87L800.988 1969.9L808.806 1975.96L817.015 1982.4L826.006 1988.47L834.606 1994.53L843.206 2000.21L851.805 2005.51L860.405 2010.82L869.005 2015.74L877.605 2020.29L886.205 2024.45L894.414 2028.62L902.623 2032.03L910.832 2035.82L919.041 2038.85L927.641 2041.88L935.459 2044.53L943.668 2047.56L951.877 2049.83L959.695 2052.11L967.513 2054L975.331 2055.89L983.149 2057.79L990.967 2059.3L998.785 2060.82L1014.42 2063.47L1029.67 2066.12L1044.91 2068.02L1060.16 2069.91L1090.65 2073.32L1105.5 2075.21L1120.75 2077.49L1135.99 2079.76L1150.85 2082.41L1166.09 2085.44L1181.34 2088.85L1196.58 2092.26L1211.83 2096.43L1227.07 2100.59L1242.32 2104.76L1257.17 2109.31L1272.42 2114.23L1287.66 2119.16L1303.3 2124.46L1318.15 2130.14L1333.4 2135.83L1349.04 2141.89L1363.89 2147.95L1379.53 2154.01L1394.77 2160.45L1410.02 2167.27L1425.26 2173.71L1440.9 2180.53L1455.75 2187.34L1486.63 2201.74L1517.51 2216.51L1548.01 2231.29L1578.89 2246.44L1640.26 2277.12" stroke="#663333" stroke-width="4.42753" stroke-miterlimit="10"/>
<path d="M-461.24 967.18L-433.486 959.982L-405.341 952.785L-377.196 945.208L-363.515 941.421L-349.442 936.875L-335.76 932.708L-322.079 928.541L-308.397 923.616L-295.106 919.07L-281.425 914.146L-268.134 908.842L-254.843 903.16L-241.553 897.099L-228.653 891.038L-215.753 884.598L-202.853 877.779L-190.344 870.582L-177.835 863.384L-165.717 855.807L-153.599 847.474L-141.481 839.519L-130.145 830.806L-118.418 822.093L-107.082 813.001L-96.1363 803.531L-85.5819 793.681L-75.4185 783.832L-65.2549 773.983L-55.0915 763.376L-45.7097 752.77L-36.719 741.783L-27.7282 730.419L-19.1283 719.055L-10.5285 707.311L-2.71036 695.568L13.3167 672.081L29.7347 648.216L37.5527 636.851L46.1526 625.487L54.7525 614.501L63.7433 603.515L68.4341 598.212L73.1251 592.908L77.8159 587.605L82.8977 582.68L87.9793 577.755L93.4519 573.21L98.5337 568.664L104.397 564.118L109.87 559.572L115.733 555.405L121.597 551.238L127.461 547.45L133.715 543.662L139.97 539.874L146.224 536.464L152.869 533.055L159.515 529.646L166.16 526.994L172.805 523.963L179.451 521.312L186.487 518.66L193.523 516.008L200.95 514.114L207.987 511.841L215.414 510.326L222.45 508.432L229.877 506.917L237.305 505.78L244.732 504.644L252.55 503.507L259.977 502.75L267.404 501.992H275.222L282.649 501.613H290.467L298.286 501.992L306.104 502.371L313.531 503.129L321.349 504.265L329.167 505.401L336.985 506.917L344.803 508.053L352.621 509.947L360.439 511.841L368.257 514.493L375.685 516.766L383.112 519.418L390.93 522.448L398.357 525.479L405.393 528.509L412.82 531.919L419.857 535.707L426.502 539.495L433.147 543.283L439.402 547.45L445.656 551.617L451.52 556.163L457.383 560.709L462.465 565.255L467.547 570.179L472.629 575.104L476.929 580.029L480.838 585.332L484.747 590.256L488.265 595.56L491.001 600.863L493.347 606.546L495.692 612.228L497.256 617.91L498.819 623.593L499.601 629.275L499.992 635.336V641.018L499.601 647.079L499.21 653.14L498.037 658.823L496.865 665.262L495.301 671.323L493.347 677.385L491.392 683.824L488.656 689.886L485.919 695.947L482.792 702.386L479.274 708.448L475.756 714.887L472.238 721.327L467.938 727.388L463.638 733.829L459.338 740.268L454.647 746.708L449.565 752.77L444.484 759.209L439.402 765.27L433.929 771.71L428.456 777.771L422.984 783.832L411.257 796.333L399.139 808.455L387.021 820.578L374.121 831.942L361.221 843.307L348.321 854.671L335.421 865.657L322.913 876.264L310.013 886.492L297.504 896.341L285.386 905.812L272.877 914.903L261.15 923.616L249.032 932.329L237.305 941.041L225.577 948.997L213.85 957.331L202.514 965.286L179.842 980.817L157.56 996.349L135.279 1011.88L112.997 1027.41L102.052 1035.37L91.1066 1043.7L79.7704 1052.04L68.8251 1060.37L57.8797 1068.7L46.5436 1077.42L35.5982 1086.13L24.6529 1095.22L13.7077 1104.31L2.76226 1113.4L-8.18299 1122.87L-19.1283 1132.34L-29.6827 1141.81L-40.2371 1151.66L-50.7915 1161.13L-61.3459 1171.36L-71.9004 1181.21L-82.0638 1191.44L-92.2274 1201.67L-102.391 1212.27L-112.163 1222.5L-122.327 1233.11L-131.709 1244.1L-141.481 1254.7L-150.863 1265.69L-160.245 1276.67L-169.235 1287.66L-178.226 1299.02L-186.826 1310.01L-195.817 1321.75L-204.026 1333.12L-212.235 1344.86L-220.444 1356.6L-228.262 1368.35L-236.08 1380.47L-243.507 1392.21L-250.543 1404.34L-257.58 1416.84L-264.225 1428.96L-270.87 1441.84L-277.125 1454.34L-282.988 1466.84L-288.852 1479.72L-294.716 1492.98L-299.797 1505.86L-304.879 1519.12L-309.57 1532.38L-314.261 1546.39L-318.17 1559.65L-322.079 1573.29L-325.597 1587.3L-328.724 1600.94L-331.46 1614.96L-333.806 1628.97L-335.76 1643.37L-337.324 1657.39L-338.106 1671.78L-338.497 1685.8V1692.99V1699.81V1707.01L-338.106 1714.21L-337.715 1721.41L-336.933 1728.6L-336.151 1735.42L-335.369 1742.62L-334.197 1749.82L-333.415 1757.01L-331.851 1763.83L-330.288 1771.03L-328.724 1778.23L-326.77 1785.05L-324.815 1792.24L-322.861 1799.44L-320.515 1806.26L-318.17 1813.46L-315.433 1820.28L-312.697 1827.47L-309.57 1834.29L-306.443 1841.11L-303.315 1847.93L-299.797 1855.13L-295.888 1861.95L-292.37 1868.39L-288.07 1875.21L-283.77 1881.65L-279.47 1888.46L-275.17 1894.9L-270.479 1900.97L-265.789 1907.41L-260.707 1913.09L-255.625 1919.15L-250.543 1924.83L-245.462 1930.51L-239.989 1935.82L-234.516 1940.74L-229.044 1945.67L-223.18 1950.21L-217.707 1954.76L-211.453 1958.92L-205.589 1962.71L-199.726 1966.5L-193.471 1969.53L-186.826 1972.56L-180.962 1975.21L-174.317 1977.49L-168.063 1979.76L-161.417 1981.27L-154.772 1982.79L-148.127 1983.55L-141.481 1984.31H-134.836H-128.19L-121.154 1983.93L-114.509 1983.17L-107.473 1982.03L-100.436 1980.9L-93.7909 1979.38L-86.7546 1977.49L-79.7185 1975.59L-72.6822 1973.7L-65.6459 1971.43L-51.1823 1966.88L-37.1099 1961.58L-8.18299 1951.35L6.2804 1946.42L20.744 1941.5L28.1711 1939.6L35.2073 1937.33L42.6345 1935.82L49.6707 1933.92L57.0979 1932.03L64.1341 1930.89L71.5614 1929.38L78.5977 1928.24L86.0248 1927.48L93.0611 1926.72L100.488 1926.35L107.524 1925.97L114.952 1925.59L121.988 1925.97H129.024L136.451 1926.72L143.488 1927.48L150.915 1928.62L157.951 1930.13L164.987 1931.27L172.024 1933.54L179.06 1935.82L186.096 1938.09L193.523 1940.74L200.169 1943.77L207.205 1947.18L213.85 1950.59L220.496 1954.38L227.532 1958.17L234.177 1962.33L240.432 1966.88L247.077 1971.43L253.332 1975.97L259.195 1980.9L265.45 1985.82L271.313 1991.12L276.786 1996.81L282.259 2002.49L287.731 2007.79L292.813 2013.85L297.895 2019.91L302.586 2025.98L307.276 2032.04L311.576 2038.48L315.485 2044.92L319.394 2051.36L323.303 2057.8L326.431 2064.61L329.558 2071.05L332.294 2077.87L335.03 2084.31L336.985 2091.13L338.94 2097.95L340.503 2104.77L341.676 2111.59L342.849 2118.41L343.24 2125.23L343.63 2132.04V2138.86L343.24 2145.68L342.458 2152.12L341.676 2158.94L340.112 2165.76L338.549 2172.2L336.594 2179.02L334.64 2185.46L332.294 2192.28L329.558 2198.72L327.213 2205.16L324.085 2211.97L320.958 2218.41L317.831 2224.85L311.185 2238.11L303.758 2250.99L296.722 2264.25L289.295 2277.13" stroke="#663333" stroke-width="4.42753" stroke-miterlimit="10"/>
<path d="M-461.24 1056.2L-414.332 1047.86L-391.269 1043.7L-368.205 1039.15L-356.478 1036.5L-345.533 1034.23L-334.197 1031.57L-323.252 1028.92L-311.915 1025.89L-300.97 1022.86L-290.416 1019.83L-279.47 1016.42L-268.916 1012.63L-258.752 1009.22L-248.589 1005.06L-238.816 1001.27L-229.044 996.723L-219.271 992.177L-209.889 987.252L-200.508 982.328L-191.517 977.025L-182.917 971.721L-173.926 966.039L-165.326 959.977L-157.117 954.295L-148.517 947.856L-140.309 941.416L-132.49 934.597L-124.281 928.157L-116.463 920.959L-108.645 913.762L-100.827 906.565L-93.0091 898.988L-85.582 891.411L-77.7639 883.457L-70.3367 875.88L-62.5186 867.925L-55.0915 859.591L-39.4553 842.923L-24.2101 825.876L-8.57388 808.45L7.45317 791.025L23.4802 772.842L31.6892 763.75L40.2891 754.658L48.8889 745.188L57.4888 736.097L66.4796 727.005L75.4703 717.534L84.4611 708.064L93.8429 698.972L103.615 689.881L113.388 680.41L123.161 671.697L133.324 662.985L138.015 658.818L143.097 655.029L148.178 651.241L153.26 647.453L158.342 644.044L163.815 640.634L168.896 637.604L173.978 634.573L179.06 631.921L184.142 629.649L189.223 627.376L194.696 625.482L199.778 623.588L204.86 622.451L210.332 621.315L215.414 620.557L220.496 620.178H225.577L230.659 620.557L235.741 620.936L240.823 622.072L246.295 623.588L251.377 625.482L256.068 627.755L261.15 630.406L266.231 633.437L270.922 636.467L275.613 640.256L279.913 644.044L284.604 648.211L288.513 652.378L292.422 656.924L296.331 661.848L299.849 666.773L303.367 671.697L306.104 676.622L309.231 681.925L311.185 686.85L313.531 692.154L315.094 697.836L316.658 703.139L317.831 708.064L318.222 713.367L318.613 718.671L318.222 723.596L317.831 728.899L317.44 734.202L316.267 739.127L315.094 744.051L313.531 748.976L311.576 754.28L309.622 759.205L307.276 764.129L304.54 769.054L301.804 773.599L298.676 778.524L295.549 783.449L292.031 787.994L288.122 792.919L284.604 797.465L280.695 802.011L276.004 806.557L271.704 811.102L267.404 815.648L263.104 820.194L258.022 824.361L248.25 833.074L238.477 841.408L228.314 849.742L217.759 857.697L207.205 865.273L196.651 873.228L186.096 880.426L175.542 887.244L165.378 894.442L155.215 900.882L145.051 907.322L134.888 913.762L124.724 919.823L114.952 925.884L104.788 931.566L95.0155 937.249L85.2429 942.931L65.3069 953.917L46.1526 964.144L26.9984 974.752L-11.3103 994.829L-30.4645 1005.44L-49.6189 1015.66L-68.7731 1026.65L-87.5364 1037.64L-106.691 1049L-116.463 1055.06L-125.845 1061.12L-135.227 1067.18L-144.609 1073.62L-153.99 1079.68L-163.372 1086.5L-172.363 1093.32L-181.744 1100.14L-190.344 1106.96L-199.335 1114.54L-207.935 1121.73L-216.535 1129.31L-225.135 1136.89L-233.344 1144.46L-241.553 1152.42L-249.371 1160.75L-257.189 1169.08L-264.616 1177.8L-272.043 1186.13L-279.079 1195.22L-286.116 1203.94L-292.761 1213.03L-299.406 1222.5L-306.052 1231.59L-311.915 1241.06L-318.17 1250.91L-324.033 1260.38L-329.506 1270.23L-334.588 1280.46L-340.06 1290.31L-344.751 1300.53L-349.833 1310.76L-354.133 1320.99L-358.433 1331.22L-362.733 1341.45L-366.642 1352.05L-370.551 1362.66L-373.678 1373.27L-377.196 1383.87L-380.323 1394.48L-383.06 1405.09L-385.796 1416.07L-388.142 1426.68L-390.487 1437.29L-392.441 1448.27L-394.396 1458.88L-395.959 1469.87L-397.523 1480.47L-399.087 1491.46L-400.259 1502.44L-402.605 1524.42L-404.169 1546.39L-405.732 1568.36L-406.905 1590.33L-407.687 1612.68L-408.469 1635.03L-409.641 1679.35L-410.814 1724.43L-411.987 1746.78L-412.768 1769.13L-414.332 1791.48L-416.677 1814.21L-420.977 1858.91L-422.932 1881.26L-424.886 1903.61L-425.668 1914.6L-426.45 1925.58V1936.57L-426.841 1947.56V1958.54L-426.45 1969.15L-426.059 1980.13L-425.277 1991.12L-424.105 2001.73L-422.15 2012.33L-420.586 2022.94L-418.241 2033.55L-415.896 2044.15L-413.159 2054.76L-410.032 2064.99L-406.905 2075.22L-402.996 2085.82L-399.478 2096.05L-395.178 2106.28L-390.878 2116.51L-386.578 2126.74L-381.887 2136.96L-377.196 2147.19L-372.114 2157.04L-367.033 2167.27L-361.951 2177.5L-350.615 2197.58L-339.279 2217.65L-327.551 2237.35L-303.706 2277.13" stroke="#333333" stroke-width="2.21377" stroke-miterlimit="10"/>
<path d="M-192.296 2277.13L-215.359 2250.99L-226.695 2237.74L-237.25 2224.48L-242.722 2217.66L-247.804 2211.22L-252.886 2204.4L-257.577 2197.58L-262.267 2190.76L-266.958 2183.94L-271.258 2177.12L-275.167 2170.31L-279.076 2163.49L-282.594 2156.29L-286.113 2149.47L-289.24 2141.89L-291.976 2135.08L-294.713 2127.5L-296.667 2119.92L-299.012 2111.97L-300.967 2104.01L-302.921 2095.3L-304.485 2086.59L-305.267 2082.04L-306.049 2077.12L-307.221 2067.27L-308.394 2057.42L-309.567 2047.57L-309.958 2042.64V2037.72V2033.17V2028.63V2024.46L-309.567 2020.29L-309.176 2016.13L-308.394 2012.72L-307.612 2009.69L-306.83 2006.66L-306.049 2004.01L-304.485 2002.11L-302.921 2000.6L-301.358 1999.08L-299.403 1998.32L-297.449 1997.94H-295.103L-292.758 1998.32L-290.413 1998.7L-287.676 1999.84L-284.549 2000.97L-281.813 2002.87L-278.295 2004.38L-275.167 2006.66L-271.649 2008.93L-268.131 2011.58L-264.613 2013.85L-260.704 2016.88L-256.795 2019.92L-253.277 2022.95L-245.068 2029.76L-236.468 2036.2L-227.868 2043.4L-219.268 2050.22L-210.277 2056.66L-201.286 2063.48L-196.987 2066.13L-192.296 2069.16L-187.996 2071.81L-183.696 2074.47L-179.005 2076.74L-174.705 2079.01L-170.405 2080.9L-166.105 2082.42L-161.805 2083.94L-157.505 2085.07L-153.205 2086.21L-148.905 2087.34L-144.605 2088.1L-140.696 2088.48L-136.396 2088.86H-132.487H-128.187H-124.278L-119.979 2088.48H-116.069L-111.77 2087.72L-107.86 2086.97L-99.6515 2085.45L-91.4425 2083.18L-83.2335 2080.53L-75.0245 2077.87L-66.8156 2074.84L-58.6066 2071.43L-50.3977 2068.02L-41.7977 2064.24L-33.1978 2060.83L-24.5979 2056.66L-15.6071 2053.25L-7.00734 2049.46L2.37442 2046.05L11.3652 2042.64L20.7469 2039.61L30.1286 2036.58L39.5103 2033.93L48.8919 2031.28L58.2737 2029.39L68.0463 2027.49L77.037 2025.6L86.4186 2024.84L95.4096 2023.7L104.4 2023.32H108.7H113.391L117.691 2023.7L121.6 2024.08L125.9 2024.46L130.2 2025.22L134.109 2025.6L138.018 2026.36L141.927 2027.49L145.836 2028.63L149.745 2029.76L153.263 2031.28L156.781 2032.79L160.3 2034.31L163.818 2036.2L167.336 2038.48L170.463 2040.37L173.59 2042.64L176.717 2045.3L179.454 2047.95L182.19 2050.6L184.926 2053.63L187.663 2056.66L190.008 2060.07L192.354 2063.48L194.308 2066.89L196.654 2070.68L198.217 2074.47L200.172 2078.25L202.126 2082.42L203.299 2086.21L204.863 2090.38L206.426 2094.54L207.599 2098.71L208.772 2103.26L209.553 2107.42L210.726 2111.97L211.508 2116.13L211.899 2120.68L212.29 2125.23L212.681 2129.77V2134.32L213.072 2138.86V2143.41L212.681 2147.58L212.29 2152.12L211.899 2156.67L211.508 2160.84L210.726 2165.38L209.944 2169.55L208.772 2173.72L207.599 2177.88L206.426 2182.05L205.253 2185.84L203.69 2189.63L202.126 2193.41L200.172 2197.2L198.217 2200.99L194.308 2208.19L189.617 2215.39L184.926 2222.2L179.845 2228.64L174.372 2235.08L168.899 2241.14L162.645 2247.58L156.781 2253.65L150.527 2259.33L144.273 2265.39L131.373 2277.13" stroke="#333333" stroke-width="2.21377" stroke-miterlimit="10"/>
<path d="M-130.139 2277.13L-137.958 2265.01L-141.476 2258.95L-144.994 2252.51L-148.512 2246.07L-151.639 2239.63L-154.376 2232.81L-156.721 2226.37L-157.503 2222.58L-158.285 2219.17L-159.066 2215.76L-159.848 2211.97L-160.239 2208.56L-160.63 2204.4V2200.99V2197.2V2193.41V2189.62L-160.239 2185.83L-159.457 2182.05L-159.066 2178.64L-158.285 2174.85L-157.503 2171.44L-156.33 2168.03L-155.157 2164.24L-153.985 2161.21L-152.421 2157.8L-150.466 2154.77L-148.903 2151.74L-146.948 2149.09L-144.994 2146.44L-143.039 2143.78L-140.694 2141.51L-138.349 2138.86L-135.612 2136.97L-133.267 2135.07L-130.53 2133.18L-127.794 2131.28L-124.667 2129.77L-121.54 2128.25L-118.412 2126.74L-115.285 2125.6L-112.158 2124.47L-108.64 2123.71L-105.122 2122.57L-101.603 2121.81L-98.0853 2121.43L-94.1763 2120.68L-86.7491 2119.92L-78.9311 2119.54H-70.722L-62.5131 2119.92L-54.3041 2120.68L-45.7042 2121.43L-37.1044 2122.95L-28.5045 2124.47L-19.9046 2126.36L-11.3048 2128.63L-2.70486 2130.53L5.50408 2133.18L14.104 2135.83L21.9221 2138.86L26.2221 2140.38L29.7402 2141.89L33.2584 2143.78L36.3855 2145.68L39.5128 2147.19L42.2491 2149.47L44.5945 2151.36L46.5491 2153.63L48.5036 2155.91L49.6762 2158.56L50.4581 2161.21L50.8489 2164.24L51.2399 2166.89L50.8489 2169.92L50.4581 2173.33L49.6762 2176.36L48.8944 2179.77L47.3308 2182.8L46.1581 2186.59L44.5945 2190L41.0763 2197.2L37.5582 2204.4L34.431 2211.97L31.3037 2219.55L29.7402 2223.34L28.1766 2227.13L27.3947 2230.91L26.2221 2234.7L25.8311 2238.11L25.0493 2241.9V2245.69L24.6584 2249.1L25.0493 2256.29L25.4403 2263.49L26.2221 2270.31L27.0039 2277.13" stroke="#333333" stroke-width="2.21377" stroke-miterlimit="10"/>
<path d="M424.153 2277.12L435.88 2261.97L447.607 2246.82L453.08 2239.24L458.943 2231.67L464.025 2223.71L469.498 2216.13L474.188 2208.56L478.879 2200.98L483.57 2193.41L487.479 2185.83L491.388 2178.25L494.515 2170.3L497.643 2162.72L500.379 2155.14L502.724 2147.57L504.288 2139.99L504.679 2136.2L505.461 2132.04L505.852 2128.25V2124.46L506.243 2120.67V2116.88L505.852 2113.1V2109.31L505.07 2105.52L504.679 2101.35L503.897 2097.57L503.115 2093.78L501.161 2086.2L498.424 2078.62L495.297 2070.67L492.17 2063.09L488.261 2055.52L483.961 2047.94L479.27 2040.36L474.97 2032.79L469.889 2025.59L464.416 2018.01L458.943 2010.82L453.08 2003.24L447.216 1996.04L441.353 1988.84L428.844 1974.83L416.335 1961.19L403.826 1947.55L391.317 1934.67L378.808 1921.79L366.299 1909.67L359.654 1903.61L353.399 1897.93L346.754 1891.87L340.499 1886.56L333.854 1881.26L327.209 1875.96L320.172 1870.65L313.527 1865.73L306.491 1860.8L299.454 1855.88L292.418 1851.33L284.991 1846.79L277.564 1842.62L270.137 1838.45L262.319 1834.67L254.501 1830.88L246.291 1827.47L238.474 1824.06L229.874 1820.65L221.665 1817.62L213.456 1814.97L204.856 1811.94L196.256 1809.66L187.656 1807.39L179.056 1805.5L170.065 1803.6L161.075 1802.09L152.084 1800.95L143.093 1799.81L134.102 1798.68L125.111 1797.92L115.73 1797.54H106.739H97.7481L88.3665 1797.92L79.3757 1798.68L70.3848 1799.81L61.0032 1800.95L52.0124 1802.09L43.0217 1803.98L34.0309 1805.88L25.04 1808.53L16.0492 1811.18L7.05845 1814.21L-1.93232 1817.24L-10.5322 1821.03L-19.132 1824.82L-28.1228 1828.98L-44.9317 1837.32L-53.1408 1841.86L-61.7405 1845.65L-66.0405 1847.17L-69.9496 1849.06L-73.8586 1850.58L-78.1586 1851.71L-82.0676 1852.85L-85.9767 1853.99L-89.8857 1854.74L-93.7946 1855.12L-98.0946 1855.5H-102.004L-105.913 1855.12L-109.822 1854.36L-113.34 1853.61L-117.249 1852.47L-121.158 1850.58L-125.067 1849.06L-128.585 1847.17L-132.103 1844.89L-135.621 1842.24L-139.139 1839.97L-143.049 1836.94L-146.176 1833.91L-149.303 1830.88L-152.821 1827.47L-155.948 1824.06L-159.076 1820.27L-162.203 1816.48L-164.939 1812.69L-167.676 1808.53L-170.412 1804.36L-172.757 1800.57L-175.494 1796.4L-177.448 1791.86L-179.793 1787.69L-181.748 1783.15L-183.703 1778.98L-185.657 1774.81L-187.221 1770.27L-188.784 1765.72L-190.348 1761.55L-191.521 1757.01L-192.693 1752.46L-193.866 1747.92L-194.648 1743.37L-195.821 1739.2L-196.212 1734.66L-196.993 1730.11L-197.384 1725.94L-197.775 1721.4V1716.85V1712.31V1708.14L-197.384 1703.97V1699.81L-196.602 1695.64L-196.212 1691.47L-195.43 1687.31L-194.648 1683.52L-193.475 1679.35L-192.302 1675.56L-191.13 1671.77L-189.957 1667.99L-188.002 1664.2L-186.439 1660.79L-184.875 1657.38L-182.921 1653.97L-180.966 1650.56L-178.621 1647.53L-176.275 1644.5L-173.93 1641.47L-171.194 1638.44L-168.457 1635.41L-165.721 1632.76L-162.985 1630.1L-159.857 1627.45L-157.121 1624.8L-150.476 1619.88L-143.83 1615.33L-136.403 1611.16L-128.976 1607L-120.767 1603.21L-112.949 1599.8L-104.349 1596.39L-95.7493 1593.74L-86.7584 1591.09L-77.7676 1588.43L-68.386 1586.16L-58.6134 1583.89L-49.2316 1581.99L-39.459 1580.48L-29.2956 1578.58L-19.523 1577.45L-9.35943 1576.31L0.41316 1575.18L10.5766 1574.42L20.7402 1573.66L30.9036 1573.28L41.067 1572.52L50.8396 1572.14H60.6122L70.3848 1571.77H80.1574H89.93H99.3118L117.684 1572.14L135.666 1572.9L153.647 1573.66L171.238 1574.42L188.438 1575.55L205.638 1576.69L239.255 1578.96L256.064 1580.1L272.873 1580.86L290.073 1581.24L306.882 1581.62H324.081H341.281H358.481L375.681 1581.24L393.271 1580.48L410.862 1579.34L428.453 1578.21L446.043 1577.07L463.634 1575.93L481.225 1574.42L516.406 1571.01L551.978 1567.22L587.16 1563.05L622.732 1558.89L657.522 1554.34L692.313 1549.42L727.103 1544.87L761.503 1539.95L796.293 1534.64L830.693 1528.96L865.092 1522.9L882.292 1519.87L899.883 1516.46L917.082 1513.05L934.282 1509.26L951.873 1505.85L969.464 1501.68L1004.64 1493.73L1022.24 1489.94L1039.83 1486.53L1048.43 1485.02L1057.42 1483.5L1066.02 1482.37L1075.01 1481.61L1083.61 1480.47L1092.21 1479.71L1100.81 1479.33L1109.41 1478.96H1118.01L1126.61 1479.33L1134.82 1479.71L1143.42 1480.85L1151.62 1481.99L1159.83 1483.5L1168.04 1485.02L1176.25 1486.91L1184.46 1489.18L1192.67 1491.46L1200.88 1494.11L1209.09 1497.14L1216.91 1500.17L1225.11 1503.58L1233.32 1506.99L1241.14 1510.78L1248.96 1514.19L1257.17 1518.35L1265.38 1522.52L1273.2 1526.69L1289.22 1535.4L1305.25 1544.87L1321.28 1553.96L1337.3 1563.81L1345.12 1568.74L1353.33 1573.66L1360.76 1578.58L1367.79 1584.27L1374.83 1589.57L1377.96 1592.6L1381.09 1595.25L1384.21 1598.28L1386.95 1601.31L1390.08 1604.34L1392.42 1607.38L1395.16 1610.41L1397.11 1613.81L1399.46 1617.22L1401.41 1620.63L1402.98 1624.04L1404.54 1627.45L1406.1 1631.24L1407.28 1635.03L1408.45 1638.82L1408.84 1642.6L1410.01 1646.39L1410.4 1650.18L1410.79 1654.35V1658.52V1662.3V1666.85L1410.4 1671.02L1410.01 1675.18L1409.62 1679.35L1408.84 1683.52L1408.06 1687.68L1407.28 1692.23L1404.93 1700.56L1402.19 1709.28L1399.07 1717.99L1395.55 1726.7L1391.25 1735.42L1386.95 1744.13L1382.26 1752.84L1377.18 1761.17L1372.09 1769.51L1366.23 1777.46L1360.37 1785.42L1354.5 1793L1348.25 1800.57L1341.99 1807.77L1335.35 1814.59L1328.7 1821.03L1322.06 1827.47L1315.02 1833.53L1307.99 1839.21L1300.95 1844.89L1293.91 1849.82L1286.49 1854.74L1279.06 1859.67L1271.24 1863.83L1263.81 1868L1256 1871.79L1248.18 1875.2L1240.36 1878.61L1232.54 1881.64L1224.33 1884.29L1216.12 1886.94L1207.91 1889.22L1199.71 1891.49L1191.5 1893.38L1182.9 1894.9L1174.69 1896.03L1166.09 1897.17L1157.49 1898.31L1148.89 1898.69L1140.29 1899.44H1131.69H1123.09H1114.1L1105.5 1898.69L1096.51 1898.31L1087.91 1897.17L1078.92 1896.03L1070.32 1894.9L1061.33 1893.38L1052.73 1891.49L1043.74 1889.97L1035.14 1887.7L1026.14 1885.43L1017.15 1882.78L1008.55 1880.12L999.954 1877.47L990.963 1874.44L982.363 1871.03L973.764 1868L965.164 1864.21L956.173 1860.42L947.964 1856.64L939.364 1852.47L930.764 1848.3L922.555 1843.76L913.955 1839.21L905.746 1834.29L889.328 1824.82L873.301 1814.97L865.092 1810.42L856.883 1805.5L849.065 1801.33L840.856 1797.16L833.038 1793L824.829 1789.21L817.011 1785.8L809.193 1782.77L800.984 1780.12L793.166 1777.84L789.257 1777.09L785.348 1776.33L781.048 1775.57L777.139 1775.19L773.23 1774.81H769.321H765.412H761.503H757.203L753.294 1775.19L749.385 1775.95L745.476 1776.71L741.176 1777.84L737.267 1778.6L733.358 1780.12L729.449 1781.25L725.539 1783.15L721.63 1784.66L717.721 1786.56L713.812 1788.45L709.904 1790.34L705.994 1792.62L702.085 1794.89L698.567 1797.54L695.049 1800.19L691.14 1802.84L687.622 1805.5L684.104 1808.53L680.586 1811.56L677.067 1814.97L673.549 1818L670.422 1821.41L664.168 1828.6L657.913 1836.18L652.441 1843.76L646.968 1852.09L641.886 1860.42L639.541 1864.59L637.195 1869.14L632.895 1878.23L628.986 1887.32L625.859 1896.79L622.732 1906.26L621.559 1911.19L620.387 1915.73L619.605 1920.66L618.432 1925.58L618.041 1930.13L617.259 1935.05L616.868 1939.6L616.478 1944.52V1949.07V1953.61V1958.16L616.868 1962.71L617.259 1966.87L618.041 1971.42L618.432 1975.59L619.605 1979.75L620.777 1983.92L621.95 1987.71L623.514 1991.5L624.686 1995.28L626.641 1999.07L628.595 2002.48L630.55 2005.89L632.895 2009.3L635.632 2012.33L637.977 2015.36L641.104 2018.01L644.232 2020.66L647.359 2023.32L650.877 2025.59L654.004 2027.86L657.913 2030.14L661.431 2032.03L665.341 2033.92L673.549 2037.71L689.967 2044.91L698.176 2048.32L706.385 2052.11L714.594 2056.65L722.021 2061.2L729.449 2065.74L736.485 2070.67L743.13 2076.35L749.776 2081.65L756.421 2087.72L762.675 2093.4L788.475 2116.88L794.73 2122.57L801.375 2128.25L808.02 2133.55L814.666 2138.86L821.702 2144.16L828.738 2149.46L835.774 2154.39L843.202 2158.93L850.238 2163.86L858.056 2168.4L865.092 2172.95L872.91 2177.12L888.156 2185.45L903.792 2193.78L919.428 2201.36L935.455 2208.94L951.873 2216.51L967.9 2223.33L1000.34 2237.35L1032.79 2250.61L1097.29 2277.12" stroke="#663333" stroke-width="4.42753" stroke-miterlimit="10"/>
<path d="M1251.31 2277.13L1228.64 2267.28L1205.96 2257.81L1194.63 2253.27L1182.9 2248.72L1171.96 2244.55L1160.62 2240.39L1149.28 2236.6L1137.95 2232.81L1127 2229.78L1115.67 2226.75L1104.33 2223.34L1092.99 2219.93L1087.52 2218.41L1081.66 2216.52L1076.18 2214.25L1070.32 2211.97L1064.85 2209.32L1058.98 2206.67L1053.12 2204.02L1047.26 2200.61L1041.39 2196.82L1035.53 2193.03L1029.67 2188.87L1023.8 2184.32L1018.33 2179.78L1012.86 2175.23L1007.39 2170.3L1002.3 2165.38L997.613 2160.46L992.922 2155.91L989.013 2151.36L987.45 2149.09L985.495 2146.82L984.322 2144.54L982.759 2142.65L981.195 2140.76L980.022 2138.48L978.85 2136.97L978.068 2135.07L977.286 2133.56L976.895 2131.67L976.504 2130.15L976.113 2129.01V2127.88L976.504 2126.74V2125.6L977.286 2124.47L977.677 2124.09L978.85 2123.33L979.631 2122.57L980.804 2121.82L981.977 2121.44L983.541 2121.06H984.713L986.668 2120.68H988.231H990.186H992.531L994.486 2121.06H996.831L999.176 2121.44L1001.91 2121.82L1004.26 2122.57L1010.12 2123.71L1015.99 2124.85L1022.24 2126.74L1028.89 2128.63L1035.92 2130.53L1042.96 2133.18L1050.39 2135.45L1058.2 2138.1L1066.02 2140.76L1073.84 2143.41L1082.05 2146.44L1098.86 2152.88L1132.08 2165.76L1148.5 2172.2L1156.32 2175.23L1164.14 2178.26L1171.96 2181.67L1179.38 2184.32L1186.81 2187.35L1194.24 2190.38L1201.27 2193.03L1208.31 2196.06L1214.96 2198.72L1221.6 2201.37L1228.25 2204.02L1234.89 2206.67L1247.4 2211.6L1259.52 2216.52L1271.25 2221.44L1282.97 2225.99L1293.92 2230.54L1304.47 2234.7L1315.03 2238.87L1325.19 2243.04L1334.96 2247.2L1344.74 2250.99L1354.51 2254.78L1363.5 2258.95L1372.88 2262.74L1390.86 2269.93L1408.84 2277.13" stroke="#333333" stroke-width="2.21377" stroke-miterlimit="10"/>
<path d="M1016.77 -12.0649L1002.7 -2.2156L988.624 8.01263L981.978 12.9372L975.333 18.2406L968.688 23.544L962.042 28.8474L956.179 34.1508L949.924 39.8332L944.061 45.1366L938.197 51.1978L933.116 57.2587L928.034 62.9411L923.343 69.3809L919.043 75.8207L914.743 82.2608L911.225 89.0796L907.707 96.2769L904.579 103.096L901.843 110.672L899.107 117.869L896.761 125.446L894.807 133.401L892.852 140.977L891.289 148.933L889.725 156.888L888.552 164.843L887.38 173.177L886.598 181.511L885.816 189.466L885.034 198.179L883.862 214.847L882.689 231.894L881.125 265.987L880.344 283.034L879.171 299.702L877.607 316.749L876.044 333.038L874.089 349.327L871.744 365.616L869.398 381.905L866.662 397.816L863.535 413.726L860.407 429.636L856.889 445.168L853.371 461.078L849.462 476.61L845.162 492.141L841.253 507.673L836.562 523.204L831.871 538.357L827.181 553.889L822.099 569.42L817.017 584.952L811.544 600.104L806.072 615.636L800.208 631.167L794.345 646.32L788.09 661.473L781.445 676.625L774.799 691.399L767.372 706.552L760.336 720.947L752.127 735.342L744.309 749.737L735.709 763.754L726.718 777.391L722.418 784.209L717.727 791.028L712.646 797.847L707.955 804.287L702.873 810.727L697.791 817.167L692.319 823.607L686.846 829.668L681.373 835.729L675.901 841.79L664.173 853.912L652.447 865.276L640.328 876.641L627.819 888.006L602.802 909.977L577.784 931.949L565.666 942.934L553.548 954.299L541.821 965.285L530.484 977.028L525.012 982.71L519.93 988.771L514.458 994.453L509.376 1000.89L504.685 1006.95L499.603 1013.39L490.221 1025.9L481.23 1038.4L472.24 1051.28L455.04 1077.41L446.049 1090.67L437.058 1103.55L427.286 1116.43L422.595 1122.87L417.513 1129.31L412.431 1135.75L407.35 1142.19L401.877 1148.25L396.404 1154.31L390.541 1160.38L384.287 1166.44L378.032 1172.5L371.778 1178.18L365.132 1183.86L358.487 1189.54L351.06 1195.23L343.632 1200.53L336.205 1205.83L327.996 1211.14L319.396 1216.44L310.797 1221.37L301.806 1225.91L292.815 1230.84L283.433 1235.38L274.052 1239.55L265.061 1244.09L255.679 1248.26L247.079 1252.05L238.479 1256.22L229.879 1260L225.97 1261.9L222.061 1263.41L218.543 1265.31L215.025 1267.2L211.507 1269.1L207.989 1270.99L205.252 1272.51L202.125 1274.02L199.389 1275.92L197.044 1277.43L194.698 1279.32L192.744 1280.84L190.789 1282.35L189.225 1283.87L188.053 1285.39L186.88 1286.9L186.098 1288.42L185.316 1289.93V1291.45V1292.96L185.707 1294.48L186.098 1295.61L186.88 1297.13L188.053 1298.64L189.225 1299.78L190.398 1300.92L192.353 1302.43L193.916 1303.57L196.262 1304.7L198.607 1306.22L200.953 1307.36L203.689 1308.49L206.816 1309.63L209.552 1310.77L212.68 1312.28L216.198 1313.04L220.107 1314.18L223.625 1315.31L227.534 1316.45L231.443 1317.58L235.743 1318.72L240.043 1319.48L244.734 1320.62L249.034 1321.75L258.415 1323.65L268.188 1325.54L278.742 1327.06L289.297 1328.95L300.242 1330.46L311.578 1331.98L322.915 1333.49L334.251 1335.01L345.978 1336.53L369.432 1339.18L392.495 1341.45L404.223 1342.59L415.559 1343.72L426.504 1344.48L437.449 1345.24L448.004 1346.38L458.167 1347.13L467.94 1347.89L477.713 1348.65L487.094 1349.03L496.476 1349.41L505.467 1349.78L514.067 1350.16L522.667 1350.54H531.266H539.084H547.293H555.112L562.93 1350.16L570.748 1349.41L578.175 1349.03L585.602 1348.27L593.029 1347.51L600.456 1346.38L607.884 1345.24L614.92 1343.72L622.347 1342.21L629.774 1340.69L637.201 1338.8L644.628 1336.53L652.056 1334.63L659.483 1331.98L666.91 1329.71L674.728 1327.06L682.155 1324.4L697.401 1318.34L712.646 1312.28L728.282 1305.84L743.918 1299.02L759.945 1292.2L775.972 1285.01L792.39 1277.81L809.199 1270.99L826.008 1263.79L842.817 1256.59L851.026 1252.81L859.235 1249.02L867.444 1244.85L875.262 1240.68L882.689 1236.52L890.507 1232.35L897.543 1227.43L904.579 1222.88L911.225 1217.58L917.87 1212.27L923.734 1206.59L929.597 1200.91L932.334 1197.88L934.679 1194.85L937.415 1191.44L939.37 1188.41L941.715 1185L943.67 1181.59L946.015 1178.18L947.579 1174.39L949.533 1170.6L951.097 1166.82L952.661 1163.03L953.833 1158.86L955.006 1154.69L956.179 1150.53L956.961 1146.36L957.742 1141.81L958.133 1137.27L958.524 1132.72L958.915 1128.18V1124.01L958.524 1119.46L958.133 1115.3L957.351 1111.51L956.179 1107.34L955.006 1103.93L953.051 1100.9L952.27 1099.39L951.097 1097.87L950.315 1096.73L948.752 1095.22L946.406 1093.32L943.279 1091.43L940.152 1089.92L936.634 1088.78L933.116 1088.02L928.816 1087.26L924.907 1086.88L920.607 1086.51L915.916 1086.13H911.225L906.534 1086.51H901.843L892.07 1087.26L881.516 1087.64L871.353 1088.02H861.189H850.635L840.862 1087.64L830.699 1086.88L820.926 1085.75L811.153 1084.61L801.381 1083.1L791.999 1081.2L782.618 1079.31L774.018 1077.04L765.418 1074.38L757.209 1071.35L749 1067.94L741.182 1064.53L737.664 1062.64L734.145 1060.75L730.627 1058.85L727.5 1056.58L723.982 1054.31L720.855 1052.41L718.118 1049.76L715.382 1047.49L712.255 1044.84L709.909 1042.56L707.173 1039.91L704.828 1037.26L702.482 1034.23L700.528 1031.2L698.573 1028.55L697.01 1025.52L695.446 1022.11L693.882 1019.08L692.319 1015.67L691.537 1012.26L690.364 1008.85L689.582 1005.44L688.801 1002.03L688.019 998.242V994.453L687.628 990.665V986.877V983.089V978.922L688.019 975.134V971.345L688.801 967.178L690.364 959.224L692.319 950.51L694.273 942.555L697.401 934.221L700.528 925.887L704.046 917.553L707.955 909.219L711.864 901.265L716.555 892.93L721.636 884.975L726.718 877.399L732.191 869.823L738.054 862.246L743.918 855.427L750.173 848.609L756.818 842.169L763.072 836.108L769.718 830.425L776.754 825.122L783.79 820.198L790.827 815.651L797.863 811.484L805.29 807.317L812.717 803.908L820.144 800.499L827.962 797.847L835.39 794.817L843.598 792.543L851.416 790.271L859.625 788.376L867.835 786.483L876.044 784.589L884.253 783.452L892.852 782.316L901.061 781.179L909.661 780.042L918.261 779.285L935.852 777.77L953.442 776.633L971.033 775.876L989.015 775.118L1025.37 773.224L1043.74 772.088L1061.72 770.951L1079.31 769.436L1096.9 767.542L1105.5 766.406L1114.1 765.269L1122.7 763.754L1131.3 762.239L1139.51 760.723L1147.72 758.829L1155.54 756.935L1163.75 754.662L1171.57 752.389L1178.99 749.737L1186.81 747.085L1193.85 744.434L1201.28 741.024L1208.31 737.615L1214.96 734.206L1221.6 730.417L1227.86 726.25L1234.11 721.705L1239.97 717.538L1245.84 712.234L1251.31 707.31L1256.78 702.006L1261.87 696.324L1266.56 690.263L1271.25 684.202L1275.94 677.762L1280.24 671.322L1284.54 664.503L1288.45 657.685L1292.36 650.487L1295.87 643.29L1299.39 636.092L1302.91 628.137L1306.43 620.561L1309.16 612.984L1312.29 605.029L1315.42 596.695L1318.16 588.74L1320.89 580.406L1323.24 572.072L1327.93 555.404L1332.62 538.357L1336.92 521.31L1340.83 504.264L1344.74 487.596L1348.65 470.549L1352.16 453.881L1355.68 437.213L1358.81 420.924L1362.33 404.256L1365.06 388.345L1367.8 372.056L1370.54 355.767L1372.88 339.857L1374.84 323.946L1376.79 308.036L1378.35 292.126L1379.92 276.215L1381.09 260.305L1381.87 244.395L1382.26 228.863V212.953V197.043L1381.87 181.132L1381.09 165.222L1379.92 149.311L1378.35 133.401L1376.4 117.112L1372.88 84.9126L1370.93 68.6234L1369.36 52.7131L1367.41 36.4239L1366.63 20.1348L1365.85 4.22423L1365.46 -4.10952V-12.0649" stroke="#333333" stroke-width="2.21377" stroke-miterlimit="10"/>
<path d="M380.376 1246.75L392.103 1237.28L404.221 1227.43L416.73 1218.34L428.848 1209.24L435.493 1204.7L441.748 1200.53L454.648 1192.2L467.938 1183.86L474.193 1179.7L480.838 1175.53L487.093 1170.98L493.347 1166.44L499.211 1161.89L505.074 1156.59L510.547 1151.29L513.283 1148.63L515.629 1145.6L518.365 1142.57L520.71 1139.16L523.056 1136.13L525.01 1132.72L527.356 1129.31L529.31 1125.53L531.265 1121.74L532.828 1117.57L534.392 1113.78L536.347 1109.62L537.519 1105.07L539.083 1100.9L541.428 1091.81L543.774 1082.34L545.728 1073.25L547.683 1063.78L549.637 1055.07L551.201 1046.35L552.374 1042.19L553.547 1038.02L554.328 1034.23L555.501 1030.44L556.674 1027.03L557.846 1023.62L559.019 1020.59L560.583 1017.56L561.755 1014.91L563.319 1012.64L564.883 1010.74L566.446 1008.85L568.401 1007.34L570.355 1006.2L572.31 1005.44L574.655 1005.06L577.001 1004.68L579.346 1005.06L582.473 1005.82L584.819 1006.58L587.946 1007.71L591.073 1009.23L593.81 1011.12L597.328 1012.64L600.455 1014.91L603.582 1017.18L607.491 1019.84L610.618 1022.11L617.655 1027.79L625.082 1033.47L639.936 1045.22L647.363 1050.9L654.399 1056.2L661.827 1061.51L668.472 1066.43L675.118 1070.98L681.763 1075.9L687.627 1080.45L693.49 1085.37L696.226 1087.64L698.962 1090.3L701.308 1092.95L703.653 1095.6L705.608 1098.25L707.953 1101.28L709.517 1104.31L711.472 1107.34L713.035 1110.75L714.599 1114.16L715.771 1117.57L716.944 1120.98L718.117 1124.77L718.508 1128.56L719.29 1132.72L719.681 1136.51V1140.68V1144.85V1148.63L719.29 1152.8L718.508 1156.97L718.117 1161.14L717.335 1164.92L716.162 1168.71L714.599 1172.12L713.035 1175.91L711.472 1179.32L709.517 1182.73L707.562 1185.76L705.217 1188.41L702.872 1191.06L700.135 1193.33L697.399 1195.99L694.272 1197.88L691.145 1199.77L688.017 1201.67L684.499 1203.56L680.981 1205.08L673.554 1208.11L666.127 1210.38L658.309 1213.03L642.282 1217.96L634.464 1220.61L626.645 1223.26L619.218 1226.67L611.791 1229.7L604.364 1233.49L596.937 1237.28L589.901 1240.69L582.864 1244.85L569.182 1252.43L555.892 1260.39L542.601 1267.96L535.956 1271.37L529.31 1274.78L523.056 1278.19L516.02 1281.22L509.765 1283.87L503.12 1286.14L496.475 1288.42L489.438 1290.31L482.793 1291.83L475.756 1293.34L468.329 1294.48L460.902 1295.24L453.084 1295.99L444.875 1296.37L436.275 1296.75H427.284H417.903H408.13L397.967 1296.37L393.276 1295.99L388.194 1295.62L383.894 1295.24L379.594 1294.48L375.294 1293.34L371.776 1292.21L368.649 1291.07L367.085 1290.69L365.913 1289.55L364.349 1288.8L363.567 1288.04L362.394 1286.9L362.004 1285.77L361.222 1285.01L360.831 1283.87L360.44 1282.74V1281.22V1280.08V1278.57L360.831 1277.43L361.222 1275.54L362.004 1274.02L362.394 1272.51L364.349 1269.1L366.304 1265.69L368.649 1262.28L371.385 1258.49L374.122 1254.7L380.376 1246.75Z" stroke="#333333" stroke-width="2.21377" stroke-miterlimit="10"/>
<path d="M1096.13 -12.0649L1079.71 9.14904L1063.68 31.1205L1055.86 41.7274L1048.04 52.7131L1040.62 63.6986L1033.58 75.0632L1026.55 86.4279L1019.9 98.1711L1013.25 109.536L1007.39 121.658L1001.92 133.78L996.836 145.902L992.145 158.403L987.846 171.283L983.937 183.784L980.419 197.043L977.291 209.922L974.555 223.181L971.819 236.061L969.864 249.319L967.519 262.578L965.955 275.458L964.782 288.716L963.219 301.596L962.437 314.476L961.264 326.977L959.701 352.737L958.919 365.616L957.746 378.117L956.573 390.997L955.401 403.877L953.446 416.378L951.492 429.636L948.755 442.516L947.192 448.956L945.628 455.396L943.673 462.215L942.11 468.655L939.765 475.473L937.419 482.292L935.465 489.111L932.728 495.551L929.992 502.369L926.865 509.188L923.737 516.007L920.219 523.204L916.701 530.023L913.183 537.221L904.974 551.237L896.765 565.253L888.556 579.269L884.647 586.088L880.738 592.907L876.829 599.725L873.311 606.165L869.793 612.605L866.665 619.045L863.538 625.106L860.802 631.167L858.456 636.85L856.893 642.532L855.329 647.835L854.938 650.487L854.547 653.139L854.156 655.791V658.063V660.336V662.988V664.882L854.547 667.155L854.938 669.428L855.72 671.322L856.502 673.216L857.675 675.11L858.456 677.004L860.02 678.898L861.584 680.414L863.147 681.929L864.711 683.444L866.665 684.959L868.62 686.475L870.965 687.611L873.311 689.126L875.656 690.263L878.002 691.021L880.738 692.157L883.474 693.293L886.211 694.051L892.074 695.566L898.72 697.082L905.756 698.218L912.401 698.976L919.828 699.733L927.647 700.112H935.465H943.283L951.882 699.733L960.091 699.355L968.691 698.597L976.9 697.839L985.5 696.703L994.1 695.188L1002.7 694.051L1011.3 692.157L1019.51 690.263L1027.72 688.369L1035.93 686.096L1044.14 684.202L1051.56 681.55L1058.99 678.898L1066.42 676.247L1073.45 673.216L1080.49 670.564L1087.14 667.155L1093.78 663.746L1100.04 660.715L1106.68 656.927L1112.54 653.517L1118.41 649.351L1124.27 645.941L1129.74 641.774L1135.22 637.607L1140.3 633.44L1145.77 628.895L1150.46 624.349L1155.54 619.803L1160.23 615.257L1164.53 610.711L1168.83 605.787L1173.13 600.862L1177.43 595.558L1181.73 590.634L1185.64 585.331L1189.55 580.027L1193.07 574.724L1196.98 569.42L1204.02 558.434L1210.27 547.07L1216.92 535.327L1222.78 523.583L1228.64 511.461L1234.12 499.339L1238.81 486.838L1243.5 474.337L1247.8 461.457L1251.71 448.577L1255.22 435.319L1257.96 422.439L1261.09 408.801L1263.04 395.543L1265 382.284L1266.17 368.647L1266.95 355.009L1267.34 341.751V328.113L1266.56 314.476L1266.17 307.657L1265.39 300.838L1265 294.02L1263.82 287.201L1261.87 273.564L1259.52 260.305L1256.79 247.046L1250.53 220.15L1247.41 206.892L1244.28 193.633L1241.93 180.753L1239.2 167.495L1238.41 161.055L1237.63 154.615L1236.85 148.175L1236.46 141.356L1236.07 134.916L1235.68 128.477V122.037L1236.07 115.597L1236.46 109.157L1237.24 103.096L1238.02 96.2769L1239.2 90.216L1240.76 83.7761L1242.71 77.336L1244.28 71.2751L1246.62 64.8353L1255.61 39.4543L1259.91 26.5746L1261.87 20.1348L1263.43 13.6947L1265 7.25483L1266.56 0.815006L1266.95 -5.62482L1267.73 -12.0649" stroke="#333333" stroke-width="2.21377" stroke-miterlimit="10"/>
<path d="M1156.32 -12.0649L1146.93 24.3018L1142.24 42.4849L1137.16 60.6682L1132.08 79.2302L1126.61 97.4136L1120.35 115.597L1114.1 133.78L1107.45 151.963L1100.42 170.147L1093.77 187.951L1086.74 206.134L1080.48 223.939L1076.96 232.651L1074.23 241.743L1071.49 250.456L1068.75 259.547L1066.41 268.26L1064.06 276.973L1062.11 285.686L1060.54 294.399L1057.03 311.824L1053.9 329.629L1050.77 347.054L1049.21 356.146L1046.86 365.238L1044.52 374.329L1042.17 383.421L1039.44 392.891L1035.92 402.74L1032.4 412.211L1030.05 417.135L1028.1 422.06L1025.75 426.985L1023.41 431.909L1021.06 437.213L1018.33 442.138L1012.46 452.365L1006.6 462.972L1001.13 473.201L998.391 478.504L995.654 483.428L993.309 488.353L991.355 493.278L989.009 497.824L987.837 502.748L986.273 507.294L985.491 511.461L985.1 515.628L984.709 517.901L985.1 519.795V521.689L985.491 523.962L985.882 525.477L986.273 527.371L987.055 529.265L988.227 530.781L989.009 532.675L990.182 534.19L991.355 535.706L992.918 537.221L994.482 538.357L996.436 539.872L998.391 541.009L1000.35 542.145L1002.69 543.282L1004.65 544.418L1009.34 546.312L1014.42 547.449L1019.89 548.585L1024.97 549.343L1030.05 549.722L1032.79 549.343H1035.53L1037.87 548.964L1040.22 548.585L1042.95 547.828L1044.91 547.449L1047.25 546.691L1049.6 545.933L1053.9 543.661L1057.81 541.388L1061.72 538.357L1065.24 535.327L1068.36 531.917L1071.88 528.129L1075.01 523.962L1077.74 519.795L1080.87 515.628L1083.61 511.082L1086.34 506.915L1091.43 497.445L1096.12 487.974L1101.2 478.883L1105.5 469.791L1110.19 460.699L1114.49 451.608L1118.4 442.516L1122.31 433.803L1126.22 424.712L1129.73 415.999L1133.25 406.907L1136.38 398.195L1139.51 389.103L1142.24 380.39L1144.98 371.677L1147.33 362.586L1149.67 353.494L1151.63 344.781L1153.58 335.69L1154.75 326.977L1156.32 317.885L1157.49 308.794L1158.27 299.323L1158.66 290.232L1159.05 281.14V271.67L1159.44 262.199L1159.05 252.729V233.788L1158.27 214.847L1157.49 195.527L1156.71 176.586L1156.32 157.267V147.796L1156.71 138.326L1157.1 128.855L1157.49 119.385L1159.05 100.444L1160.62 81.503L1162.57 62.9411L1165.31 44.0002L1168.04 25.0593L1170.78 6.49733L1173.52 -12.0649" stroke="#333333" stroke-width="2.21377" stroke-miterlimit="10"/>
<path d="M281.482 1730.49L256.855 1731.63L232.619 1732.39L220.501 1732.76H207.992L184.147 1732.39L172.029 1732.01H159.911L147.793 1732.39L136.066 1732.76L129.811 1733.14L123.948 1733.52L117.693 1734.28L111.439 1735.04L105.184 1736.17L98.9299 1737.31L92.6754 1738.83L86.4208 1739.96L80.1664 1741.86L73.9119 1743.75L67.6575 1746.02L61.0122 1748.3L48.1123 1753.22L35.6034 1758.52L22.7036 1763.83L16.4492 1766.1L10.1947 1767.99L3.94024 1769.89L-1.92338 1771.4L-8.17783 1772.92L-14.0414 1774.06L-19.9049 1774.43H-22.6412H-25.3775L-28.1139 1774.06H-30.8503L-33.5866 1773.3L-36.323 1772.92L-38.6683 1772.16L-41.4046 1771.02L-44.1409 1769.89L-46.4864 1769.13L-48.8319 1767.62L-51.1772 1766.1L-53.9135 1764.21L-56.259 1762.31L-58.2135 1760.42L-60.5589 1758.15L-62.5134 1755.87L-64.4679 1753.22L-66.4226 1750.95L-68.3771 1748.3L-71.8952 1742.61L-75.0223 1736.93L-77.7587 1730.87L-78.9315 1727.84L-79.7133 1724.81L-80.495 1721.78L-81.2768 1718.75L-82.0586 1715.72L-82.4496 1712.69L-82.8405 1709.66V1706.63V1703.6V1700.94L-82.4496 1698.29L-82.0586 1695.64L-81.2768 1692.99L-80.495 1690.34L-79.7133 1688.06L-78.5405 1685.41L-76.9768 1683.52L-75.8042 1680.87L-74.2405 1678.97L-72.677 1676.7L-70.7224 1674.81L-68.7679 1672.91L-66.8134 1671.02L-64.8589 1669.12L-60.1681 1665.71L-55.0863 1662.3L-49.6137 1659.27L-43.7501 1656.24L-37.4956 1653.97L-31.2412 1651.32L-24.5957 1649.05L-17.9504 1646.77L-10.5233 1644.88L-3.48703 1642.98L3.54925 1641.47L10.9765 1639.95L25.8308 1637.3L40.2943 1635.03L54.7577 1633.14L68.8303 1631.62L82.9028 1630.1L96.1934 1629.35L109.875 1628.59L123.166 1628.21L136.066 1627.83H148.575L161.474 1628.21L173.593 1628.59L185.71 1629.35L197.828 1630.48L209.947 1631.24L221.674 1632.38L233.401 1633.89L245.128 1635.41L256.464 1636.54L279.527 1639.95L302.2 1643.74L324.872 1647.15L347.545 1650.94L370.608 1654.35L394.062 1657.76L405.789 1658.9L417.516 1660.41L429.634 1661.93L441.362 1663.06L453.48 1663.82L465.598 1664.96L477.716 1665.71L489.834 1666.47L502.342 1667.23L514.461 1667.61L526.579 1667.99H539.088H551.596H564.105L576.614 1667.61L588.732 1667.23L601.241 1666.85L613.75 1666.09L626.259 1664.96L638.377 1663.82L650.886 1662.3L663.395 1661.17L675.513 1659.27L688.022 1657.38L700.14 1655.49L711.867 1653.21L724.376 1650.56L736.103 1647.91L748.221 1644.88L759.948 1641.85L771.675 1638.44L783.793 1635.03L807.248 1627.83L830.702 1620.26L853.765 1612.68L877.219 1605.1L900.283 1597.53L923.346 1590.33L935.073 1587.3L947.191 1583.89L958.527 1581.24L970.254 1578.21L982.372 1575.55L994.1 1573.28L1006.22 1571.01L1018.34 1569.11L1030.06 1567.98L1042.18 1566.84L1054.3 1565.71L1066.81 1565.33L1078.93 1565.71L1091.04 1566.08L1097.3 1566.46L1103.55 1567.22L1109.42 1567.98L1115.67 1568.74L1121.93 1569.49L1127.79 1570.63L1134.04 1571.77L1139.91 1573.28L1146.16 1574.8L1152.02 1576.69L1158.28 1578.21L1164.53 1580.48L1170.4 1582.37L1176.65 1585.03L1182.52 1587.3L1188.38 1590.33L1194.63 1592.98L1200.5 1596.01L1206.36 1599.42L1212.61 1602.83L1218.48 1606.24L1224.34 1610.03L1229.81 1613.82L1235.29 1618.36L1240.76 1622.15L1245.84 1626.7L1250.92 1631.24L1255.61 1635.41L1260.3 1639.95L1264.6 1644.88L1268.51 1649.42L1272.42 1654.35L1275.55 1659.65L1279.07 1664.58L1281.41 1669.5L1284.15 1674.81L1285.71 1680.11L1287.67 1685.03L1288.45 1690.34L1289.23 1695.64V1700.94V1706.25L1288.45 1711.55L1286.89 1716.85L1285.32 1721.78L1283.37 1727.08L1280.63 1732.39L1277.9 1737.31L1274.77 1742.61L1270.86 1747.54L1267.34 1752.08L1263.04 1757.01L1258.35 1761.93L1253.66 1766.48L1248.97 1771.02L1243.5 1775.19L1238.41 1779.36L1232.55 1783.53L1226.69 1787.69L1220.82 1791.1L1214.57 1794.89L1208.31 1798.3L1202.06 1801.71L1195.81 1804.36L1189.16 1807.39L1182.91 1810.04L1176.26 1812.32L1169.62 1814.59L1162.97 1816.1L1156.72 1818L1150.07 1819.13L1143.82 1820.27L1137.17 1821.03L1131.31 1821.41L1125.05 1821.79H1118.8L1112.93 1821.41L1106.68 1821.03L1100.82 1820.27L1094.95 1819.51L1089.48 1818L1083.62 1816.86L1078.14 1814.97L1072.28 1813.45L1066.81 1811.18L1061.34 1809.29L1055.86 1807.01L1050.39 1804.36L1044.92 1802.09L1039.84 1799.06L1029.28 1793.37L1018.73 1787.31L1008.17 1780.5L997.618 1774.06L987.454 1766.86L966.345 1752.46L955.791 1745.27L945.237 1738.07L934.291 1731.25L923.346 1724.81L912.401 1718.37L901.065 1712.31L895.201 1709.66L889.337 1707L883.474 1704.35L878.001 1702.08L871.747 1699.81L865.492 1697.53L859.238 1695.64L853.374 1694.12L846.729 1692.61L840.474 1691.09L834.22 1689.96L827.574 1688.82L821.32 1688.06L814.675 1687.31L808.42 1686.93L801.775 1686.55H795.13H788.484H782.23L775.584 1686.93L769.33 1687.69L762.685 1688.44L756.43 1689.2L750.176 1689.96L743.921 1691.47L737.667 1692.61L731.412 1694.12L725.549 1696.02L719.685 1697.91L713.822 1699.81L708.349 1702.08L702.485 1704.35L697.404 1707L691.931 1709.66L686.849 1712.69L681.767 1715.72L677.077 1719.13L672.386 1722.16L668.086 1725.95L663.786 1729.73L659.486 1733.52L655.186 1737.31L651.668 1741.48L647.759 1745.64L644.241 1750.19L640.722 1754.36L636.813 1758.9L633.686 1763.83L627.041 1773.3L620.786 1783.15L614.141 1793.37L608.277 1803.98L602.023 1814.59L595.768 1825.2L589.123 1836.18L582.478 1846.79L575.442 1857.77L567.624 1868.38L563.714 1873.68L559.805 1878.99L555.505 1884.29L551.596 1889.22L546.905 1893.76L542.606 1898.31L537.915 1902.47L532.833 1905.88L530.488 1907.4L528.142 1909.29L525.797 1910.43L523.06 1911.57L520.715 1912.7L517.979 1913.46L515.633 1914.22L512.897 1914.98L510.161 1915.35H507.424L504.688 1915.73L501.952 1915.35H499.215L496.479 1914.98L493.743 1914.22L491.006 1913.46L488.27 1912.7L485.534 1911.94L482.797 1910.81L480.061 1909.67L474.588 1906.64L469.116 1903.61L463.643 1900.2L458.561 1896.03L453.089 1891.49L448.007 1886.94L443.316 1881.64L438.234 1876.72L433.934 1871.03L429.634 1865.35L425.335 1859.67L421.426 1853.61L417.907 1847.55L414.389 1841.48L411.262 1835.42L408.135 1828.98L405.398 1822.92L402.662 1816.86L397.971 1804.74L392.889 1792.62L390.544 1787.31L388.199 1781.63L385.853 1776.33L383.117 1771.02L380.381 1766.1L377.644 1761.55L374.517 1757.01L370.999 1753.22L367.481 1749.43L363.572 1746.02L361.617 1744.51L359.663 1742.99L357.317 1741.86L354.581 1740.34L352.626 1739.2L349.89 1738.45L344.808 1736.55L339.336 1734.66L333.472 1733.9L327.609 1732.76L321.354 1732.01L315.1 1731.25L308.454 1730.87L301.809 1730.49H295.163H281.482Z" stroke="#333333" stroke-width="2.21377" stroke-miterlimit="10"/>
<path d="M490.222 1809.29L486.704 1804.36L482.794 1799.44L478.885 1794.89L476.54 1792.62L474.585 1790.35L472.24 1788.45L469.895 1786.56L467.549 1785.05L464.813 1783.15L462.077 1782.01L459.34 1780.5L453.868 1778.23L448.395 1775.57L445.659 1774.44L442.922 1772.92L440.186 1771.03L437.841 1769.13L435.495 1766.86L433.541 1764.59L431.586 1761.56L430.022 1758.53L428.459 1755.12L427.286 1751.33L426.113 1747.54L425.332 1743.75L424.941 1739.97L424.55 1736.18V1732.39L424.941 1728.6V1725.19L425.722 1722.16L426.895 1719.13L428.459 1716.86L428.85 1715.72L429.632 1714.96L430.804 1713.83L431.586 1713.07L432.759 1712.69L433.541 1711.93H434.713H436.277H437.45H438.622L441.75 1712.31L444.877 1713.45L448.004 1714.21L451.522 1714.96L455.04 1715.34L458.558 1715.72H462.077H465.595L469.113 1715.34L472.631 1714.96L476.54 1714.21L483.576 1712.69L491.003 1711.18L498.04 1708.9L504.685 1707.39L511.331 1705.49L514.458 1704.74L517.585 1703.98L520.712 1703.6L523.448 1702.84L526.185 1702.46H528.921H531.267L533.612 1702.84L535.957 1703.6L537.912 1704.36L539.866 1705.49L541.43 1706.63L542.994 1708.14L544.166 1710.42L545.339 1712.69L546.121 1714.96L546.903 1717.62L547.685 1720.65L548.076 1723.68L548.466 1726.71L548.857 1730.12V1733.53V1740.34L548.466 1747.16L548.076 1753.6L546.903 1759.66L546.121 1765.35L544.557 1771.03L543.385 1776.33L541.43 1782.01L539.476 1787.7L536.739 1793L534.394 1799.44L531.267 1805.5L529.312 1808.91L527.748 1811.94L525.794 1814.97L523.839 1817.24L521.885 1819.9L519.93 1821.79L517.585 1823.31L516.412 1824.06L515.239 1824.44L514.067 1824.82H512.894H512.112H510.94L509.376 1824.44L508.203 1824.06L505.858 1822.93L503.122 1821.03L500.776 1819.14L498.04 1816.87L495.694 1814.59L490.222 1809.29Z" stroke="#333333" stroke-width="2.21377" stroke-miterlimit="10"/>
<path d="M541.044 2277.12L550.034 2261.97L554.334 2254.01L558.243 2246.06L560.198 2241.89L562.152 2237.72L563.716 2233.18L565.28 2228.63L566.843 2224.09L568.407 2219.16L569.58 2214.24L570.752 2209.31L571.534 2204.01L572.707 2198.71L573.098 2193.02L573.488 2187.34L574.27 2181.66L574.661 2175.98L575.052 2163.85V2151.73V2139.99V2128.25L574.661 2116.88V2111.58V2106.27V2100.97V2096.05V2091.12V2086.58L575.052 2082.41L575.443 2078.24L575.834 2074.45L576.225 2071.04L577.007 2068.01L577.398 2065.36L578.57 2062.71L579.352 2060.82L580.916 2059.3L582.088 2057.79L582.87 2057.41H583.652L584.434 2057.03L585.607 2056.65L587.17 2057.03L589.516 2057.41L591.861 2058.54L594.207 2060.06L596.943 2061.57L599.679 2063.47L602.416 2066.12L605.543 2068.77L608.67 2071.42L612.188 2074.45L615.315 2078.24L619.224 2081.65L622.742 2085.44L626.261 2089.61L630.17 2093.77L633.688 2097.94L641.897 2107.03L649.715 2116.12L657.924 2125.22L666.524 2134.69L674.733 2143.4L683.333 2152.11L691.542 2160.45L699.751 2168.4L707.568 2175.6L716.168 2182.8L723.987 2189.61L732.196 2196.05L740.014 2202.12L747.832 2207.8L756.041 2213.48L763.859 2218.78L771.677 2223.71L779.886 2228.25L787.704 2232.8L795.522 2237.34L803.34 2241.51L811.158 2245.68L818.976 2249.47L834.612 2257.04L849.857 2263.86L865.494 2270.68L880.739 2277.12" stroke="#333333" stroke-width="2.21377" stroke-miterlimit="10"/>
<path d="M1829.84 2277.13L1819.29 2263.5L1813.82 2256.3L1807.95 2249.48L1802.48 2243.04L1796.62 2236.98L1790.36 2230.92L1784.5 2225.23L1780.98 2222.58L1777.85 2220.31L1774.33 2217.66L1770.82 2215.39L1767.3 2213.49L1763.78 2211.22L1760.26 2209.32L1756.35 2207.43L1752.44 2205.54L1748.53 2204.02L1740.33 2200.99L1732.51 2198.72L1723.91 2196.07L1715.31 2194.17L1706.71 2192.28L1697.72 2191.14L1689.12 2189.63L1671.53 2186.97L1653.94 2184.7L1636.74 2182.05L1619.93 2179.4L1611.72 2177.88L1603.12 2176.37L1594.91 2174.47L1586.7 2172.58L1578.49 2170.68L1570.67 2168.41L1562.07 2165.76L1554.26 2163.49L1546.05 2160.46L1537.84 2157.43L1529.24 2154.4L1521.03 2150.99L1512.43 2146.82L1503.83 2143.03L1495.23 2138.49L1486.63 2133.94L1478.42 2129.01L1469.82 2124.09L1462 2118.79L1458.09 2115.76L1454.57 2113.1L1450.67 2110.07L1447.15 2107.42L1444.02 2104.39L1440.89 2101.36L1437.77 2098.33L1435.03 2095.3L1432.68 2092.27L1430.34 2089.24L1428.38 2085.83L1426.43 2082.8L1424.87 2079.39L1423.69 2075.98L1422.52 2072.95L1421.74 2069.54L1421.35 2066.13V2062.72V2059.31L1422.13 2055.9L1422.52 2052.11L1423.69 2048.71L1424.48 2045.3L1426.04 2041.89L1427.6 2038.48L1429.17 2034.69L1431.51 2031.28L1433.47 2027.49L1435.81 2024.08L1438.16 2020.29L1440.89 2016.51L1443.63 2013.1L1449.49 2005.9L1455.36 1998.32L1462 1991.13L1475.29 1976.35L1488.58 1961.96L1495.23 1954.76L1501.48 1947.56L1507.35 1940.36L1513.21 1933.17L1518.68 1926.35L1524.16 1919.15L1528.85 1911.95L1533.93 1905.13L1538.23 1897.94L1542.92 1891.12L1551.91 1877.1L1560.51 1863.46L1568.72 1849.07L1577.32 1835.05L1585.92 1820.66L1595.3 1806.64L1604.68 1791.87L1613.67 1777.09L1617.97 1769.52L1622.27 1761.94L1626.18 1754.36L1630.09 1746.79L1633.61 1739.21L1636.74 1731.26L1639.86 1723.68L1642.6 1715.73L1644.55 1707.77L1646.51 1699.81L1648.07 1691.86L1648.85 1683.9L1649.25 1675.57L1649.64 1667.24L1649.25 1658.9L1648.46 1650.95L1647.29 1642.61L1646.12 1634.28L1644.55 1625.95L1642.6 1617.61L1640.25 1609.28L1637.91 1600.94L1635.17 1592.61L1632.05 1584.65L1628.92 1576.32L1625.4 1567.99L1621.88 1559.65L1617.97 1551.7L1614.06 1543.74L1610.15 1535.79L1605.85 1527.83L1601.95 1519.88L1597.25 1512.3L1592.95 1504.72L1588.65 1497.15L1583.96 1489.57L1579.27 1482.37L1574.19 1474.8L1569.11 1467.98L1564.03 1461.16L1558.95 1453.96L1553.47 1447.14L1548 1440.7L1542.53 1434.26L1536.66 1427.82L1530.8 1421.76L1524.94 1415.7L1518.68 1410.02L1512.04 1404.34L1505.78 1398.65L1498.75 1393.73L1492.1 1388.43L1484.67 1383.5L1477.25 1378.96L1469.82 1374.41L1462 1370.24L1453.79 1366.08L1445.97 1362.29L1436.98 1358.88L1428.78 1355.47L1411.18 1348.65L1393.98 1342.21L1385.78 1338.8L1377.57 1335.01L1369.75 1330.85L1361.93 1327.06L1358.41 1324.79L1354.89 1322.51L1351.38 1320.24L1348.25 1317.97L1345.12 1314.94L1342.39 1312.66L1339.65 1309.63L1336.52 1306.6L1334.18 1303.57L1331.83 1300.16L1329.88 1297.13L1327.92 1293.34L1325.97 1289.93L1324.4 1285.77L1323.23 1282.36L1322.06 1278.19L1320.89 1274.02L1319.71 1269.86L1318.93 1265.31L1318.54 1261.14L1318.15 1256.98L1317.76 1252.43V1248.26V1243.72V1239.17L1318.15 1235.01L1318.54 1230.46L1318.93 1226.29L1319.71 1222.13L1320.49 1217.96L1321.67 1213.79L1322.45 1209.62L1324.79 1201.67L1327.53 1193.34L1330.66 1185.76L1334.57 1178.18L1338.48 1170.99L1342.78 1163.79L1347.86 1156.59L1352.94 1149.77L1358.02 1142.95L1363.89 1136.51L1369.75 1130.07L1376 1124.01L1382.65 1117.57L1389.29 1111.89L1396.33 1106.21L1403.37 1100.53L1410.79 1094.84L1418.22 1089.54L1426.04 1084.24L1433.47 1079.31L1441.28 1074.39L1449.49 1069.46L1457.7 1064.54L1465.52 1059.99L1481.94 1051.28L1498.36 1042.94L1514.77 1034.99L1530.8 1027.41L1547.22 1020.59L1563.25 1013.78L1579.66 1007.72L1595.69 1002.03L1612.11 996.729L1628.14 991.805L1644.55 987.259L1660.97 983.092L1677.78 979.304L1694.2 975.895L1711.01 972.864L1727.82 970.212L1745.02 967.939L1761.83 966.045L1779.03 964.151L1796.22 963.014L1813.82 961.499L1831.02 960.363L1848.61 959.605L1866.2 958.847L1900.99 957.711" stroke="#333333" stroke-width="2.21377" stroke-miterlimit="10"/>
<path d="M1476.08 -12.0649L1480.77 12.9372L1482.73 25.0593L1484.68 37.5604L1486.64 50.0614L1488.2 62.5622L1489.37 75.0632L1490.15 87.5643L1490.94 100.065V112.566L1490.55 125.067L1489.76 137.568L1488.59 149.69L1487.03 162.191L1484.68 174.692L1482.73 187.193L1479.99 199.694L1476.86 211.816L1474.13 224.317L1470.61 236.818L1463.57 261.441L1456.15 286.065L1448.72 310.688L1441.29 335.311L1438.16 347.433L1434.65 359.555L1431.52 372.056L1428.78 384.179L1426.05 396.301L1423.7 408.044L1421.75 420.545L1419.79 432.288L1418.62 444.41L1417.84 456.533L1417.06 468.276V480.398L1417.45 492.52L1417.84 504.264L1418.23 528.508L1418.62 540.251V552.373L1417.84 564.874L1417.45 570.936L1417.06 576.997L1416.27 583.058L1415.49 589.498L1414.32 595.559L1413.15 601.62L1411.58 608.06L1410.02 614.499L1408.46 620.94L1406.11 627.001L1403.77 633.44L1401.03 640.259L1398.29 646.32L1395.17 653.139L1391.26 659.579L1387.74 666.398L1383.44 672.837L1379.14 679.656L1374.06 686.475L1369.37 693.294L1364.67 699.733L1359.98 705.795L1357.64 708.825L1355.68 711.856L1353.34 714.886L1351.77 717.538L1349.82 720.19L1348.65 722.463L1347.08 725.114L1345.91 727.387L1345.13 729.281L1344.35 731.175L1343.96 733.07V734.585V735.721L1344.74 737.237L1345.13 737.994L1346.3 738.752L1347.87 739.509L1349.43 739.888H1351.38H1353.34H1356.07H1358.81L1361.55 739.131L1364.28 738.752L1367.41 737.994L1370.93 737.237L1374.06 736.1L1377.57 734.964L1381.48 733.827L1385 732.312L1392.43 729.281L1400.25 725.872L1408.07 721.705L1415.49 717.917L1422.92 713.371L1429.56 708.825L1433.08 706.552L1436.21 703.9L1439.34 701.628L1442.07 698.976L1444.81 696.324L1447.16 694.051L1449.5 691.399L1451.46 688.748L1453.41 686.096L1455.36 683.823L1458.49 678.52L1461.62 673.216L1467.48 662.609L1473.35 651.624L1479.21 640.638L1484.29 629.652L1489.37 618.288L1494.45 606.923L1499.54 595.18L1503.84 583.436L1508.53 571.693L1512.83 559.95L1517.13 547.828L1521.04 535.706L1524.95 523.583L1528.46 511.082L1531.98 498.581L1535.5 486.459L1538.63 473.958L1541.75 461.457L1544.49 448.956L1547.62 436.455L1549.96 424.333L1552.31 411.832L1555.04 399.331L1557 386.83L1561.3 361.828L1564.82 337.205L1568.34 312.203L1571.46 287.58L1574.59 262.578L1577.33 237.576L1580.06 212.953L1582.41 187.951L1587.1 137.947L1591.79 87.9432L1600 -12.0649" stroke="#333333" stroke-width="2.21377" stroke-miterlimit="10"/>
</g>
</svg>
