<svg width="1440" height="157" viewBox="0 0 1440 157" fill="none" xmlns="http://www.w3.org/2000/svg">
<path d="M6.03711 154H-20.8574V40.5449H-59.5059V18.0332H44.6855V40.5449H6.03711V154ZM198.108 154H171.114V95.7285H114.038V154H87.1431V18.0332H114.038V73.3164H171.114V18.0332H198.108V154ZM341.071 131.986V154H253.515V18.0332H341.071V40.0469H280.21V74.9102H337.386V95.5293H280.21V131.986H341.071ZM735.879 86V22.8277H749.147V31.1352H749.625C750.183 29.8203 751.079 28.4457 752.315 27.0113C753.59 25.577 755.243 24.3816 757.275 23.4254C759.347 22.4293 761.857 21.9312 764.806 21.9312C765.642 21.9312 766.439 21.9711 767.196 22.0508C767.953 22.0906 768.631 22.1703 769.228 22.2898V34.0039C768.67 33.8844 767.874 33.7848 766.838 33.7051C765.802 33.6254 764.726 33.5855 763.61 33.5855C760.024 33.5855 757.195 34.243 755.124 35.5578C753.091 36.8727 751.617 38.6855 750.701 40.9965C749.824 43.2676 749.386 45.8176 749.386 48.6465V86H735.879ZM817.772 21.9312C820.601 21.9312 823.191 22.3695 825.542 23.2461C827.893 24.0828 829.944 25.2582 831.698 26.7723C833.451 28.2465 834.825 29.9398 835.821 31.8523H836.3V0.116796H849.627V86H836.658V76.3777H836.18C835.383 77.9715 834.367 79.4258 833.132 80.7406C831.897 82.0555 830.502 83.1711 828.948 84.0875C827.394 84.9641 825.681 85.6414 823.809 86.1195C821.936 86.5977 819.924 86.8367 817.772 86.8367C812.513 86.8367 808.05 85.6215 804.385 83.191C800.719 80.7207 797.93 77.2543 796.018 72.7918C794.105 68.3293 793.149 63.1098 793.149 57.1332V51.6348C793.149 45.7379 794.125 40.5781 796.077 36.1555C798.069 31.693 800.898 28.2066 804.564 25.6965C808.23 23.1863 812.632 21.9312 817.772 21.9312ZM821.179 32.9281C818.43 32.9281 815.939 33.6453 813.708 35.0797C811.517 36.4742 809.803 38.5859 808.568 41.4148C807.333 44.2437 806.716 47.8098 806.716 52.1129V56.7746C806.716 61.0379 807.333 64.584 808.568 67.4129C809.843 70.2418 811.577 72.3734 813.768 73.8078C815.999 75.2023 818.529 75.8996 821.358 75.8996C824.426 75.8996 827.096 75.1625 829.367 73.6883C831.638 72.2141 833.371 70.0625 834.566 67.2336C835.802 64.4047 836.419 60.9383 836.419 56.8344V52.1129C836.419 48.1684 835.802 44.7617 834.566 41.893C833.331 39.0242 831.578 36.8129 829.307 35.259C827.036 33.7051 824.327 32.9281 821.179 32.9281ZM950.371 79.6914C950.371 71.8555 952.33 65.4805 956.248 60.5664C960.232 55.6523 965.445 52.0664 971.886 49.8086C978.394 47.5508 985.334 46.4219 992.705 46.4219C1001.14 46.4219 1008.34 47.75 1014.32 50.4062C1020.36 53.0625 1025.01 56.8145 1028.27 61.6621C1031.52 66.4434 1033.15 72.1211 1033.15 78.6953H1009.94C1009.74 76.4375 1009.04 74.2461 1007.85 72.1211C1006.65 69.9961 1004.79 68.2363 1002.27 66.8418C999.81 65.3809 996.457 64.6504 992.207 64.6504C987.093 64.6504 983.009 65.7793 979.955 68.0371C976.9 70.2949 975.373 73.3496 975.373 77.2012C975.373 79.791 976.203 81.916 977.863 83.5762C979.523 85.1699 981.714 86.4648 984.437 87.4609C987.16 88.457 990.115 89.2871 993.302 89.9512C996.49 90.5488 999.611 91.1133 1002.67 91.6445C1009.17 92.7734 1014.95 94.4004 1020 96.5254C1025.11 98.6504 1029.1 101.705 1031.95 105.689C1034.87 109.607 1036.33 114.82 1036.33 121.328C1036.33 128.566 1034.54 134.775 1030.95 139.955C1027.37 145.068 1022.19 149.02 1015.42 151.809C1008.71 154.531 1000.67 155.893 991.31 155.893C982.279 155.893 974.543 154.564 968.101 151.908C961.66 149.252 956.746 145.566 953.359 140.852C949.972 136.137 948.279 130.625 948.279 124.316H973.679C974.078 126.906 975.041 129.197 976.568 131.189C978.162 133.182 980.32 134.742 983.043 135.871C985.832 136.934 989.086 137.465 992.804 137.465C996.921 137.465 1000.31 136.9 1002.96 135.771C1005.69 134.576 1007.68 133.016 1008.94 131.09C1010.27 129.098 1010.93 126.973 1010.93 124.715C1010.93 121.262 1009.67 118.672 1007.15 116.945C1004.69 115.219 1001.47 113.891 997.486 112.961C993.502 112.031 989.252 111.135 984.736 110.271C978.427 108.943 972.65 107.15 967.404 104.893C962.224 102.635 958.074 99.5137 954.953 95.5293C951.898 91.4785 950.371 86.1992 950.371 79.6914ZM1090.94 48.3145V23.0137H1116.44V48.3145H1136.96V68.6348H1116.44V120.73C1116.44 125.977 1117.64 129.596 1120.03 131.588C1122.42 133.514 1126.34 134.477 1131.78 134.477C1132.91 134.477 1133.97 134.477 1134.97 134.477C1135.97 134.41 1136.76 134.344 1137.36 134.277V153.701C1136.37 153.9 1134.77 154.1 1132.58 154.299C1130.46 154.498 1128.06 154.598 1125.41 154.598C1116.64 154.598 1109.7 153.568 1104.59 151.51C1099.54 149.385 1095.92 146.098 1093.73 141.648C1091.54 137.133 1090.45 131.289 1090.45 124.117V68.6348H1075.5V48.3145H1090.94ZM1277.34 48.3145V154H1251.74V138.561H1250.54C1249.48 141.283 1247.65 143.973 1245.06 146.629C1242.47 149.219 1239.12 151.377 1235 153.104C1230.89 154.764 1225.9 155.594 1220.06 155.594C1212.82 155.594 1206.48 154.199 1201.04 151.41C1195.66 148.621 1191.44 144.471 1188.39 138.959C1185.4 133.381 1183.9 126.441 1183.9 118.141V48.3145H1210.1V111.168C1210.1 117.012 1211.06 121.561 1212.99 124.814C1214.98 128.002 1217.5 130.227 1220.56 131.488C1223.61 132.75 1226.87 133.381 1230.32 133.381C1234.31 133.381 1237.82 132.551 1240.88 130.891C1244 129.164 1246.46 126.641 1248.25 123.32C1250.11 120 1251.04 115.85 1251.04 110.869V48.3145H1277.34ZM1366.21 46.9199C1370.99 46.9199 1375.34 47.6504 1379.26 49.1113C1383.25 50.5059 1386.67 52.4648 1389.52 54.9883C1392.44 57.5117 1394.7 60.4336 1396.29 63.7539H1397.29V10.8613H1423.59V154H1397.79V137.664H1396.69C1395.5 140.387 1393.9 142.844 1391.91 145.035C1389.92 147.16 1387.63 148.986 1385.04 150.514C1382.45 152.041 1379.56 153.203 1376.37 154C1373.25 154.863 1369.86 155.295 1366.21 155.295C1357.65 155.295 1350.34 153.27 1344.3 149.219C1338.32 145.168 1333.74 139.424 1330.55 131.986C1327.36 124.549 1325.77 115.717 1325.77 105.49V96.625C1325.77 86.5312 1327.4 77.7656 1330.65 70.3281C1333.91 62.8906 1338.55 57.1465 1344.6 53.0957C1350.64 48.9785 1357.84 46.9199 1366.21 46.9199ZM1374.58 67.9375C1370.4 67.9375 1366.64 69.0332 1363.32 71.2246C1360 73.3496 1357.38 76.6035 1355.45 80.9863C1353.59 85.3691 1352.67 90.8809 1352.67 97.5215V104.793C1352.67 111.367 1353.63 116.879 1355.55 121.328C1357.48 125.711 1360.1 128.998 1363.42 131.189C1366.74 133.314 1370.53 134.377 1374.78 134.377C1379.43 134.377 1383.44 133.248 1386.83 130.99C1390.22 128.732 1392.84 125.412 1394.7 121.029C1396.56 116.646 1397.49 111.268 1397.49 104.893V97.5215C1397.49 91.3457 1396.53 86.0664 1394.6 81.6836C1392.74 77.2344 1390.08 73.8477 1386.63 71.5234C1383.25 69.1328 1379.23 67.9375 1374.58 67.9375ZM1477.6 154V48.3145H1503.8V154H1477.6ZM1475.81 22.1172C1475.81 18 1477.27 14.6797 1480.19 12.1562C1483.11 9.56641 1486.6 8.27148 1490.65 8.27148C1494.77 8.27148 1498.25 9.56641 1501.11 12.1562C1504.03 14.6797 1505.49 18 1505.49 22.1172C1505.49 26.168 1504.03 29.4883 1501.11 32.0781C1498.25 34.6016 1494.77 35.8633 1490.65 35.8633C1486.6 35.8633 1483.11 34.6016 1480.19 32.0781C1477.27 29.4883 1475.81 26.168 1475.81 22.1172ZM1601.64 46.4219C1612 46.4219 1620.76 48.6133 1627.93 52.9961C1635.17 57.3125 1640.65 63.2891 1644.37 70.9258C1648.09 78.4961 1649.95 87.1621 1649.95 96.9238V104.693C1649.95 114.92 1648.09 123.885 1644.37 131.588C1640.65 139.291 1635.17 145.268 1627.93 149.518C1620.76 153.768 1612 155.893 1601.64 155.893C1591.28 155.893 1582.48 153.768 1575.24 149.518C1568 145.268 1562.52 139.291 1558.8 131.588C1555.09 123.885 1553.23 114.953 1553.23 104.793V97.0234C1553.23 87.2617 1555.09 78.5957 1558.8 71.0254C1562.59 63.3887 1568.07 57.3789 1575.24 52.9961C1582.48 48.6133 1591.28 46.4219 1601.64 46.4219ZM1601.64 66.7422C1596.59 66.7422 1592.44 68.0703 1589.19 70.7266C1585.93 73.3828 1583.54 77.002 1582.01 81.584C1580.49 86.0996 1579.72 91.2129 1579.72 96.9238V105.092C1579.72 110.67 1580.45 115.75 1581.91 120.332C1583.44 124.914 1585.83 128.6 1589.09 131.389C1592.34 134.111 1596.52 135.473 1601.64 135.473C1606.75 135.473 1610.9 134.111 1614.09 131.389C1617.28 128.6 1619.63 124.914 1621.16 120.332C1622.69 115.75 1623.45 110.67 1623.45 105.092V96.9238C1623.45 91.2129 1622.69 86.0664 1621.16 81.4844C1619.63 76.9023 1617.24 73.3164 1613.99 70.7266C1610.8 68.0703 1606.68 66.7422 1601.64 66.7422Z" fill="#EBEBEB"/>
<path d="M479.576 58.5742H454.076V57.2793C454.076 51.502 455.172 46.123 457.363 41.1426C459.555 36.0957 462.709 31.6465 466.826 27.7949C471.01 23.9434 475.99 20.9219 481.768 18.7305C487.611 16.5391 494.152 15.4434 501.391 15.4434C510.555 15.4434 518.557 17.0703 525.396 20.3242C532.236 23.5781 537.549 28.0605 541.334 33.7715C545.119 39.4824 547.012 46.0566 547.012 53.4941C547.012 58.7402 546.082 63.5879 544.223 68.0371C542.43 72.4863 539.773 77.002 536.254 81.584C532.734 86.166 528.352 91.2461 523.105 96.8242L492.426 131.289V132.086H549.402V154H455.769V137.266L505.176 83.6758C508.164 80.5547 510.787 77.5332 513.045 74.6113C515.303 71.623 517.062 68.6348 518.324 65.6465C519.652 62.5918 520.316 59.3711 520.316 55.9844C520.316 52.1328 519.453 48.7793 517.727 45.9238C516 43.0684 513.609 40.877 510.555 39.3496C507.566 37.7559 504.113 36.959 500.195 36.959C496.012 36.959 492.359 37.8887 489.238 39.748C486.184 41.6074 483.793 44.0645 482.066 47.1191C480.406 50.1074 479.576 53.4277 479.576 57.0801C479.576 57.3457 479.576 57.6113 479.576 57.877C479.576 58.1426 479.576 58.375 479.576 58.5742ZM626.823 94.334V73.6152H640.768C645.084 73.6152 648.87 72.8184 652.123 71.2246C655.377 69.5645 657.901 67.2734 659.694 64.3516C661.553 61.4297 662.45 58.1094 662.383 54.3906C662.383 49.1445 660.424 44.8281 656.506 41.4414C652.655 37.9883 647.541 36.2617 641.166 36.2617C637.713 36.2617 634.659 36.8262 632.002 37.9551C629.412 39.0176 627.254 40.4785 625.528 42.3379C623.801 44.1309 622.473 46.1562 621.543 48.4141C620.614 50.6055 620.082 52.7969 619.95 54.9883H594.848C594.981 49.543 596.11 44.4297 598.235 39.6484C600.36 34.8672 603.414 30.6836 607.399 27.0977C611.383 23.4453 616.264 20.5898 622.041 18.5312C627.819 16.4727 634.493 15.4434 642.063 15.4434C651.094 15.4434 659.096 16.9707 666.069 20.0254C673.041 23.0137 678.553 27.1641 682.604 32.4766C686.655 37.7891 688.746 43.8984 688.879 50.8047C689.012 57.1797 687.75 62.625 685.094 67.1406C682.438 71.6562 679.151 75.1758 675.233 77.6992C671.381 80.1562 667.729 81.6504 664.276 82.1816V83.1777C668.459 83.4434 672.776 84.8047 677.225 87.2617C681.674 89.6523 685.426 93.2051 688.481 97.9199C691.602 102.635 693.196 108.645 693.262 115.949C693.328 122.059 692 127.637 689.278 132.684C686.621 137.664 682.87 141.947 678.022 145.533C673.241 149.119 667.662 151.875 661.287 153.801C654.979 155.727 648.205 156.689 640.967 156.689C630.077 156.689 621.045 154.83 613.873 151.111C606.768 147.393 601.422 142.445 597.836 136.27C594.317 130.094 592.457 123.387 592.258 116.148H617.061C617.459 119.801 618.655 123.088 620.647 126.01C622.705 128.932 625.495 131.256 629.014 132.982C632.534 134.709 636.75 135.572 641.664 135.572C646.911 135.572 651.36 134.676 655.012 132.883C658.731 131.023 661.553 128.533 663.479 125.412C665.471 122.225 666.434 118.639 666.368 114.654C666.301 110.736 665.305 107.25 663.379 104.195C661.453 101.141 658.631 98.75 654.912 97.0234C651.26 95.2305 646.778 94.334 641.465 94.334H626.823Z" fill="#7F3434" fill-opacity="0.3"/>
</svg>
