<svg width="173" height="68" viewBox="0 0 173 68" fill="none" xmlns="http://www.w3.org/2000/svg">
<path d="M0.331543 9.05615H53.49V62.2147H0.331543V9.05615Z" stroke="white" stroke-width="0.246308" stroke-miterlimit="10"/>
<path d="M0.331543 17.1579L0.665819 17.1139L0.991296 17.0524L1.15843 17.026L1.31677 16.9908L1.48391 16.9468L1.65105 16.9116L1.80939 16.8676L1.95893 16.8148L2.11727 16.7621L2.26682 16.7005L2.42516 16.6301L2.56591 16.5597L2.71545 16.4806L2.8562 16.3926L2.99694 16.2958L3.1289 16.1991L3.26085 16.0935L3.3928 15.9792L3.50716 15.8648L3.63031 15.7417L3.74467 15.6185L3.85902 15.4866L3.97338 15.3546L4.07894 15.2226L4.1757 15.0731L4.27247 14.9324L4.36044 14.7828L4.4484 14.6333L4.53637 14.4837L4.60674 14.3342L4.67712 14.1758L4.74749 14.0175L4.80907 13.8592L4.86185 13.7008L4.91463 13.5425L4.95861 13.3753L4.9938 13.217L5.03778 13.0587L5.06417 12.8915L5.09056 12.7244L5.10816 12.566L5.12575 12.3989L5.14334 12.2406L5.15214 12.0734V11.9063V11.7392V11.572V11.4049L5.13455 11.0706L5.10816 10.7363L5.07297 10.4021L5.02899 10.0678L4.985 9.7247L4.87944 9.05615" stroke="white" stroke-width="0.123154" stroke-miterlimit="10"/>
<path d="M0.331543 14.3518L0.454696 14.3342L0.57785 14.3078L0.692208 14.2814L0.797767 14.2638L0.885737 14.2374L0.973702 14.2198L1.04408 14.1934L1.10565 14.1758L1.15843 14.1582L1.20242 14.1407L1.27279 14.1055L1.31677 14.0791L1.35196 14.0527L1.39594 14.0263L1.43993 13.9999L1.48391 13.9559L1.5279 13.9207L1.58068 13.868L1.62466 13.824L1.67744 13.7712L1.73022 13.7096L1.7742 13.6568L1.82698 13.5953L1.91495 13.4633L2.00292 13.3226L2.08209 13.173L2.15246 13.0235L2.17885 12.9531L2.21404 12.8739L2.25802 12.7332L2.27561 12.6628L2.29321 12.5836L2.3108 12.5045L2.3284 12.4253L2.33719 12.3461L2.35479 12.2582L2.36358 12.1614L2.37238 12.0646V11.9679V11.8711V11.7655V11.66V11.5456V11.4313L2.36358 11.3081L2.35479 11.1938L2.34599 11.0618L2.33719 10.9387L2.3196 10.7979L2.30201 10.666L2.28441 10.5252L2.26682 10.3845L2.24923 10.2437L2.23163 10.0942L2.22284 10.015L2.20524 9.93582L2.19644 9.88305L2.18765 9.83907L2.17885 9.78628L2.16126 9.7335L2.15246 9.66313L2.13487 9.60155L2.11727 9.53118L2.09968 9.45201L2.07329 9.36404L2.0557 9.26728L2.02931 9.16172L1.99412 9.05615" stroke="white" stroke-width="0.123154" stroke-miterlimit="10"/>
<path d="M0.331543 21.0637L0.859344 20.9141L1.39594 20.7558L1.65105 20.6766L1.91495 20.5974L2.17006 20.5095L2.43396 20.4215L2.68027 20.3335L2.92657 20.2368L3.17288 20.1312L3.41039 20.0256L3.6479 19.9201L3.88541 19.7969L4.10533 19.6738L4.32525 19.5506L4.53637 19.4099L4.73869 19.2691L4.94102 19.1108L5.03778 19.0316L5.12575 18.9524L5.22251 18.8645L5.31048 18.7853L5.39845 18.6974L5.48641 18.6006L5.57438 18.5038L5.65355 18.4159L5.81189 18.2135L5.96144 18.0112L6.11098 17.8001L6.24293 17.5802L6.37488 17.3602L6.49803 17.1315L6.62119 16.894L6.73555 16.6565L6.83231 16.4102L6.93787 16.1639L7.03463 15.9088L7.1314 15.6537L7.21937 15.3898L7.30733 15.1347L7.3865 14.8708L7.46567 14.6069L7.54484 14.343L7.68559 13.8064L7.81754 13.2874L7.87912 13.0235L7.94949 12.7596L8.01987 12.5045L8.09904 12.2582L8.187 12.0118L8.22219 11.8887L8.27497 11.7655L8.31896 11.6512L8.38053 11.5368L8.43331 11.4225L8.49489 11.3081L8.55646 11.2026L8.61804 11.0882L8.68842 10.9826L8.75879 10.8771L8.83796 10.7803L8.91713 10.6748L8.9963 10.578L9.08427 10.4812L9.2602 10.2877L9.44493 10.103L9.63846 9.91823L9.83199 9.7423L10.0343 9.56636L10.2454 9.39923L10.6677 9.05615" stroke="white" stroke-width="0.123154" stroke-miterlimit="10"/>
<path d="M0.331543 23.4476L0.920924 23.2452L1.5191 23.0341L2.10848 22.8142L2.39877 22.6998L2.68906 22.5855L2.97935 22.4623L3.26964 22.3392L3.55994 22.2072L3.84143 22.0665L4.12293 21.9257L4.40442 21.7762L4.67712 21.6179L4.94981 21.4595L5.22251 21.2924L5.48641 21.1164L5.75032 20.9405L6.01422 20.7558L6.26053 20.5622L6.51563 20.3687L6.76194 20.1752L7.00824 19.9641L7.24576 19.753L7.47447 19.5418L7.70319 19.3219L7.9231 19.0932L8.14302 18.8645L8.35414 18.6358L8.56526 18.3983L8.75879 18.152L8.95232 17.9056L9.14585 17.6593L9.32178 17.413L9.50651 17.1491L9.67365 16.894L9.84958 16.6301L10.0079 16.3662L10.1663 16.1023L10.3246 15.8208L10.4741 15.5481L10.6149 15.2754L10.7644 14.9939L10.8964 14.7124L11.0283 14.4309L11.1691 14.1407L11.2922 13.8504L11.4242 13.5601L11.5386 13.2698L11.6617 12.9707L11.7761 12.6804L12.0136 12.0822L12.2335 11.484L12.4534 10.8771L12.6557 10.2701L13.078 9.05615" stroke="white" stroke-width="0.123154" stroke-miterlimit="10"/>
<path d="M0.331543 27.1246L0.947313 26.8343L1.56308 26.5352L2.17006 26.2273L2.47794 26.0778L2.77703 25.9194L3.07612 25.7611L3.3752 25.594L3.6655 25.4268L3.95579 25.2597L4.23728 25.075L4.52757 24.899L4.80027 24.7143L5.07297 24.5208L5.34567 24.3272L5.60957 24.1161L5.87347 23.9138L6.11978 23.6939L6.36609 23.474L6.61239 23.2364L6.84111 22.9989L7.06982 22.7526L7.29854 22.4975L7.50966 22.2336L7.72957 21.9609L7.9319 21.6882L8.13422 21.4155L8.33655 21.134L8.53887 20.8525L8.7324 20.5622L9.50651 19.4187L9.70004 19.1284L9.89356 18.8469L10.0871 18.5742L10.2894 18.3015L10.4917 18.0288L10.7029 17.7649L10.9052 17.5098L11.1163 17.2547L11.3362 17.0172L11.5649 16.7885L11.6793 16.6741L11.7937 16.5597L11.9168 16.4542L12.0312 16.3486L12.1543 16.2431L12.2775 16.1463L12.4006 16.0495L12.5326 15.9528L12.6557 15.8648L12.7965 15.7768L12.9284 15.6889L13.0604 15.6097L13.2011 15.5305L13.3419 15.4514L13.4826 15.3722L13.6234 15.3018L13.7729 15.2314L13.9225 15.1699L14.2215 15.0291L14.5294 14.906L14.8461 14.7916L15.1716 14.6685L15.5059 14.5629L15.8489 14.4573L16.2008 14.3518L16.5527 14.2462L16.9133 14.1407L17.2828 14.0439L17.6523 13.9471L18.0305 13.8504L18.4088 13.7624L18.787 13.6832L19.1653 13.6128L19.35 13.5865L19.5348 13.5601L19.7283 13.5337L19.913 13.5073L20.0889 13.4897L20.2737 13.4809L20.4584 13.4721L20.6343 13.4633H20.8103H20.995L21.1621 13.4721L21.3293 13.4897L21.4964 13.5073L21.6636 13.5249L21.8219 13.5513L21.9802 13.5865L22.1386 13.6216L22.2881 13.6744L22.4377 13.7272L22.5784 13.7888L22.728 13.8504L22.8599 13.9207L22.9919 13.9999L23.115 14.0879L23.2382 14.1846L23.3613 14.2814L23.4669 14.3958L23.5724 14.5101L23.678 14.6333L23.7748 14.7652L23.8715 14.906L23.9595 15.0555L24.0475 15.1963L24.1354 15.3458L24.3114 15.6449L24.4873 15.944L24.5841 16.0935L24.6808 16.2343L24.7864 16.375L24.892 16.507L25.0063 16.6301L25.1207 16.7445L25.1822 16.8061L25.2438 16.8588L25.3142 16.9116L25.3846 16.9556L25.4549 16.9996L25.5253 17.0436L25.6045 17.0788L25.6749 17.1227L25.7628 17.1491L25.842 17.1843L25.93 17.2107L26.0091 17.2371L26.0971 17.2547L26.1939 17.2723L26.2818 17.2811L26.3698 17.2987L26.4578 17.3075H26.5457H26.6337H26.7217L26.8184 17.2987L26.8976 17.2899L26.9856 17.2811L27.0735 17.2635L27.1527 17.2459L27.2407 17.2283L27.3198 17.2019L27.3902 17.1667L27.4694 17.1315L27.5398 17.0963L27.6101 17.0612L27.6717 17.0172L27.7421 16.9644L27.7949 16.9204L27.8476 16.8676L27.9092 16.8061L27.9532 16.7445L28.006 16.6917L28.05 16.6213L28.0852 16.551L28.1291 16.4894L28.1643 16.419L28.1995 16.3398L28.2347 16.2607L28.2611 16.1815L28.2875 16.1023L28.3139 16.0144L28.3403 15.9352L28.3755 15.7592L28.4018 15.5833L28.4282 15.3986L28.437 15.2138L28.4458 15.0203V14.8268L28.437 14.6333L28.4282 14.4397L28.4106 14.2374L28.393 14.0527L28.3667 13.8592L28.3315 13.6744L28.2963 13.4897L28.2699 13.305L28.2347 13.129L28.1995 12.9531L28.1731 12.7772L28.1467 12.61L28.1203 12.4517L28.1028 12.2845L28.094 12.1262L28.0852 11.9767L28.094 11.8271L28.1028 11.7479L28.1203 11.6776L28.1291 11.616L28.1467 11.5368L28.1731 11.4752L28.1907 11.4049L28.2171 11.3345L28.2435 11.2729L28.2699 11.2026L28.3051 11.141L28.3842 11.0178L28.4722 10.8947L28.569 10.7715L28.6745 10.6572L28.7801 10.5428L28.9033 10.4284L29.0352 10.3229L29.1672 10.2173L29.3167 10.1118L29.4574 10.0062L29.6158 9.90943L29.7653 9.81267L29.9325 9.71591L30.0996 9.61915L30.4339 9.42562L30.7857 9.23209L31.1376 9.05615" stroke="white" stroke-width="0.123154" stroke-miterlimit="10"/>
<path d="M15.5413 9.05615L15.163 9.32885L14.9783 9.46081L14.8024 9.60155L14.6177 9.7423L14.4417 9.87425L14.2746 10.015L14.1162 10.1557L13.9667 10.2965L13.8172 10.4372L13.6852 10.578L13.5532 10.7187L13.5005 10.7979L13.4389 10.8683L13.3861 10.9387L13.3421 11.009L13.2981 11.0794L13.2542 11.1498L13.2102 11.2201L13.175 11.2993L13.1398 11.3697L13.1134 11.4489L13.087 11.5192L13.0694 11.5984L13.0606 11.6688L13.043 11.7392L13.0342 11.8183V11.8975L13.043 11.9679V12.047L13.0606 12.1262L13.0782 12.2054L13.0958 12.2758L13.1222 12.3637L13.1574 12.4341L13.2014 12.5133L13.2454 12.5924L13.2981 12.6716L13.3421 12.7508L13.4037 12.8211L13.4653 12.8915L13.5269 12.9531L13.5884 13.0059L13.6588 13.0587L13.7292 13.1026L13.8084 13.1466L13.8787 13.173L13.9491 13.1906L14.0283 13.2082H14.1074H14.1866H14.257L14.345 13.1906L14.4241 13.1818L14.5033 13.1554L14.5825 13.129L14.6704 13.0938L14.7496 13.0675L14.8376 13.0235L14.9255 12.9795L15.0927 12.8915L15.2686 12.7948L15.6205 12.6012L15.7964 12.4957L15.9811 12.4077L16.1571 12.3285L16.333 12.2494L16.5089 12.1878L16.6937 12.135L16.8696 12.0822L17.0455 12.047L17.2215 12.0206L17.3974 11.9943L17.5733 11.9767L17.7493 11.9591H17.9252L18.1011 11.9503L18.2771 11.9591L18.453 11.9679L18.8049 11.9855L19.148 12.0206L19.8429 12.0998L20.186 12.135L20.529 12.1614L21.2152 12.2054L21.5583 12.2406L21.7254 12.2582L21.9013 12.2758L22.0685 12.3021L22.2356 12.3373L22.4115 12.3725L22.5875 12.4165L22.7634 12.4605L22.9305 12.5133L23.1065 12.5748L23.2824 12.6452L23.4583 12.7244L23.6343 12.8124L23.8102 12.9091L23.9861 13.0147L24.338 13.2258L24.5139 13.3226L24.6019 13.3753L24.6811 13.4193L24.7603 13.4633L24.8482 13.4985L24.9274 13.5337L25.0066 13.5689L25.0769 13.5865L25.1561 13.6041L25.2265 13.6216L25.2969 13.6304H25.3584L25.4288 13.6216L25.4904 13.6041L25.552 13.5865L25.6135 13.5513L25.6663 13.5073L25.7191 13.4633L25.7719 13.4105L25.8159 13.3577L25.8686 13.2874L25.9126 13.2258L25.9566 13.1466L26.0006 13.0675L26.0446 12.9883L26.0886 12.9003L26.1237 12.8124L26.2029 12.6276L26.2821 12.4341L26.4316 12.047L26.5108 11.8535L26.59 11.6688L26.6691 11.484L26.7571 11.3081L26.8363 11.141L26.933 10.9826L27.021 10.8155L27.1178 10.666L27.2145 10.5164L27.3113 10.3757L27.4081 10.2349L27.5048 10.0942L27.7071 9.82147L27.9095 9.55756L28.1206 9.30247L28.3229 9.05615" stroke="white" stroke-width="0.123154" stroke-miterlimit="10"/>
<path d="M0.331543 29.4553L1.07047 29.3057L1.43993 29.2178L1.80939 29.1386L2.17006 29.0506L2.53072 28.9539L2.89139 28.8571L3.24325 28.7516L3.59512 28.6284L3.77106 28.5756L3.93819 28.5053L4.11413 28.4349L4.28127 28.3733L4.4484 28.2941L4.61554 28.215L4.77388 28.1358L4.94102 28.0566L5.09936 27.9687L5.2577 27.8807L5.41604 27.7839L5.56559 27.6872L5.71513 27.5904L5.87347 27.4848L6.01422 27.3705L6.16376 27.2649L6.30451 27.1506L6.45405 27.0362L6.5948 26.9131L6.73555 26.7899L6.8675 26.6667L7.00824 26.5348L7.1402 26.4116L7.26335 26.2709L7.3953 26.1389L7.52725 25.9982L7.6504 25.8574L7.77356 25.7167L8.01107 25.4264L8.24858 25.1273L8.47729 24.8194L8.69721 24.5115L8.90833 24.1949L9.11066 23.8694L9.30419 23.5439L9.49772 23.2096L9.67365 22.8754L9.84958 22.5411L10.0255 22.2068L10.3686 21.5295L10.5445 21.204L10.7117 20.8697L10.8876 20.5442L11.0811 20.2275L11.2659 19.9109L11.3626 19.7525L11.4682 19.603L11.5649 19.4534L11.6705 19.3127L11.7849 19.1631L11.8904 19.0136L12.0048 18.8817L12.1279 18.7409L12.2423 18.609L12.3742 18.477L12.4974 18.3451L12.6293 18.2219L12.7701 18.0987L12.9108 17.9844L13.0516 17.8612L13.1923 17.7469L13.3419 17.6413L13.5002 17.5358L13.6498 17.4302L13.8081 17.3334L13.9664 17.2367L14.1336 17.1311L14.3007 17.0519L14.4679 16.964L14.635 16.876L14.8109 16.7968L14.9781 16.7177L15.1628 16.6473L15.3387 16.5857L15.5147 16.5153L15.6994 16.4538L15.8841 16.401L16.0689 16.3482L16.2536 16.2954L16.4471 16.2514L16.6318 16.2075L16.8254 16.1723L17.0189 16.1371L17.2124 16.1019L17.3972 16.0755L17.5995 16.0579L17.793 16.0403L17.9865 16.0227L18.1801 16.0139L18.3824 16.0051H18.5759L18.7694 16.0139H18.9718L19.1653 16.0315L19.3588 16.0491L19.5523 16.0667L19.7547 16.0931L19.9482 16.1195L20.1417 16.1547L20.3353 16.1899L20.5288 16.225L20.7135 16.2778L20.8982 16.3218L21.0918 16.3746L21.2765 16.4362L21.4612 16.4977L21.6372 16.5593L21.8131 16.6297L21.9978 16.7089L22.165 16.788L22.3409 16.8672L22.508 16.9552L22.6752 17.0519L22.8423 17.1487L23.0007 17.2455L23.159 17.351L23.3085 17.4654L23.4581 17.5709L23.5988 17.6941L23.7396 17.8085L23.8803 17.9404L24.0123 18.0724L24.1442 18.2043L24.2674 18.3451L24.3905 18.4858L24.5049 18.6265L24.6105 18.7849L24.716 18.9344L24.8216 19.1016L24.9183 19.2599L25.0063 19.427L25.0943 19.5942L25.1734 19.7613L25.2438 19.9373L25.323 20.1132L25.3846 20.2979L25.4461 20.4739L25.5077 20.6586L25.5605 20.8433L25.6045 21.028L25.6485 21.2216L25.6837 21.4063L25.7188 21.5998L25.7452 21.7934L25.7628 21.9781L25.7804 22.1716L25.7892 22.3652L25.798 22.5499V22.7434V22.9369L25.7892 23.1305L25.7804 23.3152L25.7628 23.4999L25.7364 23.6935L25.71 23.8694L25.6749 24.0541L25.6397 24.2388L25.5957 24.4148L25.5517 24.5907L25.4989 24.7666L25.4461 24.9426L25.3846 25.1185L25.323 25.2857L25.2438 25.4616L25.1734 25.6199L25.1031 25.7871L25.0239 25.9542L24.9447 26.1213L24.848 26.2797L24.76 26.4468L24.672 26.6052L24.5753 26.7635L24.4785 26.9218L24.2674 27.2385L24.0563 27.5376L23.8276 27.8455L23.5988 28.1534L23.3613 28.4437L23.115 28.7428L22.8687 29.0331L22.6136 29.3321L22.3585 29.6224L21.8483 30.203L21.3381 30.7748L20.8191 31.3466L20.3089 31.9096L19.7899 32.4726L19.2797 33.0268L18.7606 33.5722L18.2504 34.1088L17.7402 34.6278L17.23 35.1556L16.7286 35.657L16.4735 35.9121L16.2184 36.1584L15.9721 36.4047L15.717 36.6422L15.4795 36.8797L15.2244 37.1172L14.7318 37.5835L14.2391 38.0497L13.9928 38.2872L13.7377 38.5247L13.4826 38.771L13.2275 39.0173L12.9636 39.2812L12.6997 39.5451L12.4358 39.8178L12.2951 39.9586L12.1543 40.0993L12.0224 40.2489L11.8816 40.3984L11.7409 40.548L11.5913 40.7063L11.4506 40.8734L11.301 41.0318L11.1515 41.1989L11.0107 41.366L10.8524 41.542L10.7117 41.7091L10.5709 41.885L10.5093 41.973L10.4478 42.0522L10.395 42.1402L10.3422 42.2193L10.2894 42.2985L10.2454 42.3777L10.2102 42.448L10.1751 42.5272L10.1487 42.5976L10.1311 42.6679L10.1135 42.7295L10.1047 42.7911V42.8527L10.1223 42.9055L10.1399 42.9582L10.1663 43.0022L10.1927 43.0462L10.2366 43.0902L10.2806 43.1342L10.3334 43.1606L10.395 43.1958L10.4654 43.2221L10.5357 43.2485L10.6061 43.2749L10.6941 43.2925L10.782 43.3101L10.87 43.3277L10.9668 43.3365L11.0635 43.3541H11.1691L11.2746 43.3629L11.389 43.3717H11.5034H11.6177L11.8464 43.3629L12.0927 43.3541L12.3391 43.3277L12.5942 43.3101L12.8493 43.2749L13.0956 43.2485L13.3331 43.2045L13.5794 43.1694L13.8081 43.1254L14.0368 43.0814L14.2567 43.0374L14.4679 42.9934L14.6878 42.9406L14.8901 42.8879L15.0924 42.8351L15.2947 42.7823L15.4883 42.7295L15.673 42.6768L15.8665 42.6152L16.0513 42.5624L16.2272 42.5096L16.4119 42.448L16.755 42.3337L17.0893 42.2281L17.4235 42.1226L17.749 42.0258L18.0657 41.9378L18.3824 41.8587L18.5319 41.8147L18.6903 41.7883L18.8486 41.7531L19.007 41.7267L19.1653 41.7003L19.3236 41.6827L19.482 41.6739L19.6491 41.6563L19.8075 41.6475H19.9658H20.1329L20.3001 41.6563L20.4672 41.6651L20.6343 41.6827L20.8015 41.7003L20.9774 41.7179L21.1534 41.7443L21.3293 41.7707L21.6812 41.8323L22.033 41.9114L22.4025 41.9818L22.7719 42.061L23.1326 42.1402L23.5109 42.2193L23.8891 42.3073L24.2674 42.3777L24.6456 42.448L25.0327 42.5096L25.2174 42.5272L25.411 42.5536L25.6045 42.5712L25.798 42.5888L25.9915 42.6064L26.1851 42.6152L26.3786 42.624H26.5721L26.7657 42.6152L26.9592 42.6064L27.1527 42.5888L27.3462 42.5712L27.5398 42.5448L27.7333 42.5184L27.9268 42.492L28.1115 42.448L28.2963 42.4128L28.4898 42.3689L28.6745 42.3161L28.8505 42.2545L29.0352 42.2017L29.2199 42.1313L29.3871 42.061L29.563 41.9906L29.7301 41.9114L29.9061 41.8235L30.0644 41.7355L30.2316 41.6387L30.3899 41.542L30.5482 41.4364L30.6978 41.3309L30.8473 41.2165L30.9881 41.1021L31.1288 40.979L31.2608 40.847L31.3927 40.7151L31.5159 40.5743L31.639 40.4424L31.7622 40.2928L31.8765 40.1433L31.9909 39.9938L32.0965 39.8354L32.3076 39.5275L32.721 38.8942L32.9233 38.5775L33.1345 38.2784L33.24 38.1289L33.3544 37.9793L33.4599 37.8474L33.5743 37.7066L33.6887 37.5747L33.8118 37.4427L33.9438 37.3284L34.0669 37.214L34.2077 37.0996L34.3396 36.9941L34.4716 36.8885L34.6211 36.7829L34.9026 36.5806L35.1929 36.3783L35.492 36.1672L35.6415 36.0616L35.7911 35.9561L35.9406 35.8417L36.0902 35.7186L36.2309 35.5954L36.3805 35.4634L36.5212 35.3315L36.6707 35.182L36.8115 35.0324L36.9434 34.8741L37.0842 34.7069L37.2161 34.5222L37.3393 34.3375L37.4625 34.1439L37.5768 33.9504L37.6296 33.8537L37.6736 33.7569L37.7263 33.6601L37.7615 33.5634L37.8055 33.4666L37.8407 33.3698L37.8759 33.2731L37.9023 33.1851L37.9287 33.0883L37.9463 33.0004L37.9551 32.9212L37.9639 32.8332V32.7541V32.6749V32.5957L37.9463 32.5341L37.9199 32.4638L37.8935 32.4022L37.8583 32.3406L37.8231 32.2878L37.7703 32.2351L37.7176 32.1911L37.656 32.1471L37.5944 32.1119L37.524 32.0855L37.4449 32.0503L37.3657 32.0239L37.2865 32.0063L37.1985 31.9887L37.1106 31.9712L37.0138 31.9624L36.9171 31.9536L36.8115 31.9448H36.7059H36.6004H36.4948L36.2749 31.9536L36.0462 31.98L35.8263 32.0063L35.5975 32.0415L35.3776 32.0855L35.1665 32.1295L34.9642 32.1823L34.7619 32.2351L34.5683 32.2878L34.3836 32.3406L34.2077 32.4022L34.0229 32.455L33.847 32.5166L33.5039 32.6221L33.3368 32.6749L33.1609 32.7189L32.9937 32.7629L32.8266 32.798L32.6595 32.8332L32.4835 32.8596L32.3076 32.8772L32.1316 32.8948H31.9381L31.7534 32.886H31.6566L31.5599 32.8684H31.4631L31.3575 32.842L31.1552 32.8068L31.0497 32.7892L30.9529 32.7629L30.8561 32.7365L30.7594 32.7013L30.6626 32.6661L30.5658 32.6309L30.4779 32.5869L30.3899 32.5429L30.3107 32.499L30.2316 32.4462L30.1612 32.4022L30.0908 32.3494L30.0292 32.2878L29.9765 32.2175L29.9325 32.1559L29.8885 32.0943L29.8533 32.0239L29.8269 31.9448L29.8093 31.8656L29.8005 31.7864V31.7073V31.6193L29.8093 31.5313L29.8269 31.4521L29.8445 31.3642L29.8709 31.2762L29.8973 31.1794L29.9325 31.0915L29.9765 30.9947L30.0204 30.9068L30.0732 30.8188L30.126 30.722L30.1876 30.6341L30.2491 30.5461L30.3107 30.4581L30.3811 30.3702L30.4515 30.2822L30.5306 30.203L30.601 30.1238L30.6802 30.0447L30.7594 29.9655L30.8473 29.8863L30.9265 29.816L31.0145 29.7456L31.1024 29.684L31.1904 29.6312L31.2784 29.5696L31.3663 29.5169L31.4543 29.4641L31.5423 29.4201L31.6302 29.3849L31.727 29.3409L31.815 29.3057L31.9117 29.2794L31.9997 29.253L32.0877 29.2266L32.1844 29.209L32.2724 29.1826L32.4571 29.1562L32.6419 29.1298L32.8354 29.121H33.0201H33.2048L33.3896 29.1386L33.5831 29.1562L33.7678 29.1738L34.1461 29.2266L34.5243 29.2882L34.885 29.3497L35.0697 29.3761L35.2545 29.4025L35.4392 29.4201L35.6151 29.4377L35.7911 29.4465L35.967 29.4553L36.1517 29.4641L36.3277 29.4729H36.6795L37.0226 29.4641L37.3745 29.4377L37.7263 29.4113L38.0782 29.3761L38.4301 29.3321L38.7908 29.2882L39.1514 29.2354L39.5209 29.1826L39.8991 29.121L40.2862 29.0682L40.682 29.0155L41.0779 28.9539L41.289 28.9187L41.5001 28.8923L41.7113 28.8747L41.9312 28.8395L42.3622 28.7955L42.5821 28.778L42.7933 28.7604L43.0132 28.7428L43.2155 28.734L43.4178 28.7252H43.6201H43.8049H43.8928L43.9808 28.734H44.0688L44.1479 28.7428L44.2271 28.7516L44.3063 28.7604L44.3767 28.778L44.447 28.7955L44.5174 28.8043L44.579 28.8219L44.6318 28.8395L44.6845 28.8659L44.7373 28.8835L44.7813 28.9099L44.8253 28.9363L44.8605 28.9715L44.8957 28.9979L44.9221 29.0331L44.9484 29.0682L44.966 29.1034L44.9924 29.1386L45.0012 29.1826L45.01 29.2178L45.0188 29.2618V29.3057V29.3585V29.4025L45.01 29.4553L45.0012 29.5081L44.9836 29.5521L44.966 29.6136L44.9397 29.6664L44.9221 29.7192L44.8957 29.7808L44.8605 29.8423L44.8341 29.9039L44.7989 29.9655L44.7549 30.0271L44.7197 30.0887L44.6758 30.159L44.579 30.291L44.4734 30.4317L44.3591 30.5725L44.2359 30.722L44.104 30.8716L43.972 31.0211L43.8225 31.1794L43.6729 31.3378L43.5146 31.4961L43.3474 31.6633L43.1803 31.8304L43.0044 31.9976L42.8284 32.1647L42.6437 32.3406L42.459 32.5077L42.0719 32.8508L41.6849 33.2027L41.2978 33.5458L40.902 33.8888L40.5237 34.2231L40.3302 34.3903L40.1454 34.5574L39.9607 34.7157L39.776 34.8741L39.6001 35.0324L39.4329 35.182L39.2658 35.3403L39.0986 35.481L38.9491 35.6218L38.7995 35.7625L38.6588 35.8945L38.5181 36.0352L38.3773 36.1672L38.2542 36.2903L38.1222 36.4135L37.9991 36.5454L37.7527 36.7918L37.2865 37.2756L37.0402 37.5307L36.9171 37.6538L36.7939 37.777L36.6707 37.9089L36.5388 38.0497L36.4068 38.1816L36.2661 38.3224L36.1253 38.4631L35.9758 38.6039L35.8263 38.7622L35.6679 38.9118L35.5008 39.0701L35.3512 39.2284L35.2017 39.3868L35.1313 39.4659L35.0609 39.5363L34.9994 39.6155L34.9378 39.6859L34.885 39.765L34.841 39.8354L34.797 39.9058L34.7619 39.9674L34.7355 40.0377L34.7179 40.0993V40.1521L34.7091 40.2137L34.7179 40.2665L34.7355 40.3192L34.7619 40.3632L34.797 40.4072L34.841 40.4512L34.8938 40.4864L34.9466 40.5215L35.017 40.5655L35.0785 40.5919L35.1577 40.6271L35.2369 40.6535L35.3336 40.6799L35.4216 40.7063L35.5184 40.7327L35.6151 40.7503L35.7207 40.7679L35.8263 40.7943L35.9406 40.8118L36.1693 40.8558L36.4068 40.8822L36.8907 40.9526L37.137 40.9878L37.3745 41.023L37.6032 41.067L37.8319 41.1109L38.043 41.1549L38.2542 41.2077L38.4565 41.2605L38.65 41.3221L38.8347 41.3748L39.0107 41.4452L39.1866 41.5068L39.3625 41.5772L39.5297 41.6475L39.6968 41.7267L39.8552 41.8059L40.0135 41.885L40.163 41.973L40.3126 42.0522L40.4621 42.1489L40.6029 42.2369L40.7524 42.3337L40.8932 42.4304L41.1747 42.6328L41.4562 42.8439L41.7377 43.0638L42.0279 43.2925L42.3182 43.53L42.6085 43.7851L42.89 44.0314L43.0308 44.1722L43.1627 44.3041L43.2947 44.4361L43.4266 44.5768L43.5586 44.7176L43.6817 44.8583L43.8049 45.0079L43.9192 45.1574L44.0336 45.307L44.1392 45.4565L44.2447 45.6149L44.3415 45.7732L44.4382 45.9315L44.5262 46.0987L44.6054 46.2658L44.6845 46.4329L44.7461 46.6001L44.8077 46.776L44.8693 46.952L44.9133 47.1279L44.9484 47.3038L44.9836 47.4886L45.0188 47.6733L45.0276 47.858L45.0452 48.0427L45.054 48.2275V48.421L45.0452 48.6057L45.0364 48.7993L45.0188 48.984L44.9924 49.1775L44.966 49.371L44.9309 49.5558L44.8957 49.7493L44.8429 49.9428L44.7989 50.1364L44.7373 50.3211L44.6758 50.5058L44.6142 50.6906L44.535 50.8753L44.4646 51.0688L44.3855 51.2447L44.2975 51.4295L44.2007 51.6054L44.1128 51.7813L44.016 51.9573L43.9104 52.1244L43.8049 52.3003L43.6905 52.4675L43.585 52.6258L43.4618 52.7842L43.3387 52.9425L43.2155 53.1008L43.0835 53.2416L42.9516 53.3911L42.8196 53.5319L42.6789 53.6726L42.5382 53.8046L42.3974 53.9365L42.2479 54.0597L42.0983 54.174L41.9488 54.2972L41.7992 54.4116L41.6409 54.5171L41.4825 54.6227L41.3242 54.7282L41.1659 54.825L41.0075 54.9218L40.8492 55.0097L40.682 55.1065L40.5237 55.1945L40.3566 55.2736L40.1894 55.3528L40.0223 55.432L39.6968 55.5727L39.3713 55.7135L39.0459 55.8366L38.7204 55.951L38.4037 56.0565L38.2454 56.1005L38.0782 56.1445L37.9199 56.1885L37.7527 56.2325L37.5944 56.2677L37.4273 56.2941L37.2689 56.3292L37.1018 56.3556L36.9346 56.3732L36.7675 56.3908L36.6004 56.4084L36.4332 56.4172L36.2573 56.426L36.0902 56.4348H35.9054H35.7295L35.5536 56.426L35.3688 56.4172L35.1841 56.3996L34.9994 56.382L34.8146 56.3556L34.6211 56.3292L34.4276 56.2941L34.2253 56.2677L34.0229 56.2237L33.8206 56.1797L33.6095 56.1269L33.3984 56.0741L33.1873 56.0214L32.9673 55.9598L32.7386 55.8894L32.5187 55.819L32.29 55.7399L32.0525 55.6519L31.8062 55.5639L31.5687 55.476L31.3223 55.3792L31.0672 55.2736L30.5658 55.0713L30.3195 54.9658L30.0732 54.8602L29.8357 54.7634L29.607 54.6667L29.3783 54.5699L29.2639 54.5259L29.1584 54.4819L29.0528 54.4379L28.956 54.394L28.8593 54.3588L28.7625 54.3148L28.6745 54.2884L28.5866 54.2532L28.4986 54.218L28.4194 54.1916L28.3491 54.1653L28.2699 54.1477L28.2083 54.1213L28.1467 54.1037L28.094 54.0949L28.0412 54.0861L27.9884 54.0685H27.9532H27.918H27.8828L27.8652 54.0861L27.8476 54.0949L27.8389 54.1037L27.8301 54.1301L27.8389 54.1564L27.8476 54.174L27.8564 54.2092L27.8828 54.2532L27.9092 54.2884L27.9532 54.3412L27.9884 54.3852L28.0324 54.4379L28.0852 54.4907L28.1467 54.5523L28.1995 54.6139L28.2699 54.6755L28.3403 54.737L28.4106 54.8074L28.4898 54.869L28.569 54.9394L28.6569 55.0097L28.7361 55.0801L28.9121 55.2209L29.0968 55.3704L29.2991 55.5111L29.4926 55.6519L29.6862 55.7838L29.8797 55.907L30.0732 56.0302L30.2667 56.1445L30.4603 56.2501L30.6538 56.3468L30.8385 56.4436L31.0233 56.5228L31.208 56.6107L31.3927 56.6811L31.5863 56.7515L31.7622 56.8131L31.9469 56.8834L32.1316 56.9362L32.3076 56.989L32.4835 57.033L32.6595 57.077L32.8354 57.1209L33.0113 57.1561L33.1873 57.1913L33.5391 57.2529L33.8822 57.3145L34.2253 57.3584L34.5683 57.4024L35.2545 57.4816L35.5887 57.5256L35.9318 57.5784L36.2749 57.6312L36.6092 57.6927L36.9522 57.7631L37.2953 57.8423L37.6384 57.9215L37.9815 58.0182L38.3245 58.115L38.6676 58.2117L39.0019 58.3173L39.3449 58.4316L39.688 58.546L40.0399 58.6692L40.3742 58.8011L40.7172 58.9331L41.0691 59.0738L41.4034 59.2146L41.7552 59.3553L42.0983 59.5048L42.4414 59.6632L42.7845 59.8127L43.1363 59.9711L43.4706 60.1294L44.1655 60.4637L44.8605 60.8068L45.5466 61.1498L46.2416 61.5017L47.6226 62.2142" stroke="#B79090" stroke-width="0.246308" stroke-miterlimit="10"/>
<path d="M0.331543 31.7955L0.956108 31.6284L1.58947 31.4613L2.22284 31.2853L2.53072 31.1974L2.8474 31.0918L3.15529 30.995L3.46317 30.8983L3.77106 30.7839L4.07014 30.6784L4.37803 30.564L4.67712 30.4408L4.9762 30.3089L5.27529 30.1681L5.56558 30.0274L5.85587 29.8778L6.14617 29.7195L6.42766 29.5524L6.70916 29.3852L6.98186 29.2093L7.25455 29.0158L7.52725 28.831L7.78236 28.6287L8.04626 28.4264L8.30136 28.2153L8.54767 27.9954L8.78518 27.7666L9.01389 27.5379L9.24261 27.3092L9.47132 27.0629L9.68244 26.8166L9.88477 26.5615L10.0871 26.2976L10.2806 26.0337L10.4741 25.761L10.6501 25.4883L11.0107 24.9429L11.3802 24.3887L11.5561 24.1248L11.7497 23.8609L11.9432 23.6058L12.1455 23.3507L12.2511 23.2275L12.3566 23.1044L12.4622 22.9812L12.5766 22.8669L12.6909 22.7525L12.8141 22.647L12.9284 22.5414L13.0604 22.4358L13.1835 22.3303L13.3155 22.2335L13.4474 22.1367L13.5794 22.0488L13.7201 21.9608L13.8609 21.8728L14.0016 21.7937L14.1512 21.7145L14.3007 21.6353L14.4503 21.5738L14.5998 21.5034L14.7493 21.4418L14.9077 21.3802L15.066 21.3186L15.2332 21.2747L15.3915 21.2219L15.5586 21.1867L15.717 21.1427L15.8841 21.1075L16.0513 21.0811L16.2184 21.0548L16.3943 21.0284L16.5615 21.0108L16.7286 20.9932H16.9045L17.0717 20.9844H17.2476L17.4235 20.9932L17.5995 21.002L17.7666 21.0196L17.9426 21.046L18.1185 21.0723L18.2944 21.1075L18.4704 21.1339L18.6463 21.1779L18.8222 21.2219L18.9982 21.2835L19.1653 21.3362L19.3324 21.3978L19.5084 21.4682L19.6755 21.5386L19.8338 21.6089L20.001 21.6881L20.1593 21.7761L20.3089 21.864L20.4584 21.952L20.5992 22.0488L20.7399 22.1455L20.8719 22.2511L21.0038 22.3567L21.1182 22.4622L21.2325 22.5766L21.3469 22.6909L21.4436 22.8053L21.5316 22.9284L21.6196 23.0428L21.6987 23.166L21.7603 23.2891L21.8131 23.4211L21.8659 23.553L21.9011 23.685L21.9363 23.8169L21.9538 23.9489L21.9626 24.0896V24.2216L21.9538 24.3623L21.9451 24.5031L21.9187 24.635L21.8923 24.7846L21.8571 24.9253L21.8131 25.066L21.7691 25.2156L21.7075 25.3563L21.646 25.4971L21.5756 25.6466L21.4964 25.7874L21.4172 25.9369L21.3381 26.0865L21.2413 26.2272L21.1446 26.3768L21.0478 26.5263L20.9422 26.6758L20.8279 26.8166L20.7135 26.9661L20.5992 27.1069L20.476 27.2564L20.3528 27.3972L20.2297 27.5379L19.9658 27.8282L19.6931 28.1097L19.4204 28.3912L19.1301 28.6551L18.8398 28.919L18.5495 29.1829L18.2592 29.438L17.9777 29.6843L17.6874 29.9218L17.406 30.1505L17.1333 30.3705L16.8518 30.5816L16.5879 30.7839L16.3152 30.9862L16.0513 31.1885L15.7874 31.3733L15.5235 31.5668L15.2684 31.7516L14.7581 32.1122L14.2567 32.4729L13.7553 32.8335L13.2539 33.1942L13.0076 33.3789L12.7613 33.5725L12.5062 33.766L12.2599 33.9595L12.0136 34.153L11.7585 34.3554L11.5122 34.5577L11.2659 34.7688L11.0195 34.9799L10.7732 35.1911L10.5269 35.411L10.2806 35.6309L10.0431 35.8508L9.8056 36.0795L9.56809 36.2994L9.33057 36.5369L9.09306 36.7657L8.86435 37.0032L8.63563 37.2407L8.40692 37.487L8.187 37.7245L7.95829 37.9708L7.74717 38.2259L7.52725 38.4722L7.31613 38.7273L7.10501 38.9824L6.90268 39.2375L6.70036 39.5014L6.50683 39.7565L6.30451 40.0292L6.11978 40.2931L5.93505 40.5658L5.75031 40.8385L5.57438 41.1112L5.39845 41.3927L5.23131 41.6654L5.07297 41.9469L4.91463 42.2372L4.76508 42.5187L4.61554 42.8178L4.47479 43.1081L4.34284 43.3984L4.21089 43.6975L4.07894 44.0054L3.96458 44.3044L3.85023 44.6123L3.74467 44.9202L3.6391 45.2457L3.55114 45.5536L3.46317 45.8703L3.384 46.1957L3.31363 46.5124L3.25205 46.8379L3.19927 47.1634L3.15529 47.4977L3.1201 47.8231L3.10251 48.1574L3.09371 48.4829V48.65V48.8084V48.9755L3.10251 49.1426L3.1113 49.3098L3.1289 49.4769L3.14649 49.6352L3.16408 49.8024L3.19047 49.9695L3.20807 50.1367L3.24325 50.295L3.27844 50.4621L3.31363 50.6293L3.35761 50.7876L3.4016 50.9548L3.44558 51.1219L3.49836 51.2802L3.55114 51.4474L3.61271 51.6057L3.67429 51.7729L3.74467 51.9312L3.81504 52.0895L3.88541 52.2479L3.96458 52.415L4.05255 52.5734L4.13172 52.7229L4.22848 52.8812L4.32525 53.0308L4.42201 53.1891L4.51877 53.3387L4.62434 53.4794L4.7299 53.629L4.84426 53.7609L4.95861 53.9017L5.07297 54.0336L5.18733 54.1656L5.31048 54.2887L5.43363 54.4031L5.55679 54.5174L5.68874 54.623L5.81189 54.7285L5.95264 54.8253L6.08459 54.9133L6.21654 55.0012L6.35729 55.0716L6.50683 55.142L6.63878 55.2036L6.78833 55.2563L6.92907 55.3091L7.07862 55.3443L7.22816 55.3795L7.3777 55.3971L7.52725 55.4147H7.67679H7.82634L7.98468 55.4059L8.13422 55.3883L8.29256 55.3619L8.4509 55.3355L8.60045 55.3003L8.75879 55.2563L8.91713 55.2124L9.07547 55.1684L9.23381 55.1156L9.55929 55.01L9.87597 54.8869L10.5269 54.6494L10.8524 54.535L11.1779 54.4207L11.345 54.3767L11.5034 54.3239L11.6705 54.2887L11.8288 54.2447L11.996 54.2007L12.1543 54.1744L12.3215 54.1392L12.4798 54.1128L12.6469 54.0952L12.8053 54.0776L12.9724 54.0688L13.1308 54.06L13.2979 54.0512L13.4562 54.06H13.6146L13.7817 54.0776L13.9401 54.0952L14.1072 54.1216L14.2655 54.1568L14.4239 54.1832L14.5822 54.2359L14.7406 54.2887L14.8989 54.3415L15.066 54.4031L15.2156 54.4734L15.3739 54.5526L15.5235 54.6318L15.673 54.7197L15.8313 54.8077L15.9809 54.9045L16.1216 55.01L16.2712 55.1156L16.4119 55.2212L16.5439 55.3355L16.6846 55.4499L16.8166 55.573L16.9397 55.705L17.0629 55.8369L17.186 55.9601L17.3004 56.1008L17.4148 56.2416L17.5203 56.3823L17.6259 56.5231L17.7226 56.6726L17.8106 56.8222L17.8986 56.9717L17.9865 57.1213L18.0569 57.2796L18.1273 57.4291L18.1889 57.5875L18.2504 57.737L18.2944 57.8954L18.3384 58.0537L18.3736 58.212L18.4 58.3704L18.4264 58.5287L18.4352 58.6871L18.444 58.8454V59.0037L18.4352 59.1621L18.4176 59.3116L18.4 59.47L18.3648 59.6283L18.3296 59.7778L18.2856 59.9362L18.2416 60.0857L18.1889 60.2441L18.1273 60.3936L18.0745 60.5432L18.0041 60.7015L17.9338 60.851L17.8634 61.0006L17.7138 61.3085L17.5467 61.6076L17.3884 61.9155L17.2212 62.2145" stroke="#B79090" stroke-width="0.246308" stroke-miterlimit="10"/>
<path d="M0.331543 33.8626L1.38715 33.669L1.90615 33.5723L2.42516 33.4667L2.68906 33.4051L2.93537 33.3524L3.19047 33.2908L3.43678 33.2292L3.69189 33.1588L3.93819 33.0884L4.1757 33.0181L4.42201 32.9389L4.65953 32.8509L4.88824 32.7718L5.11695 32.675L5.33687 32.587L5.55679 32.4815L5.7767 32.3759L5.98783 32.2616L6.19895 32.1472L6.40127 32.0241L6.5948 31.9009L6.79712 31.7689L6.99065 31.6282L7.17538 31.4962L7.36891 31.3467L7.55364 31.1972L7.72957 31.0388L7.9143 30.8893L8.09024 30.7221L8.26617 30.555L8.44211 30.3879L8.61804 30.2119L8.78518 30.036L8.96111 29.8513L9.12825 29.6753L9.30419 29.4906L9.47132 29.2971L9.82319 28.91L10.1663 28.5142L10.5181 28.1095L10.8788 27.7049L11.2395 27.2826L11.4242 27.0715L11.6177 26.8604L11.8112 26.6405L12.0048 26.4293L12.2071 26.2182L12.4094 25.9983L12.6117 25.7784L12.8229 25.5673L13.0428 25.3561L13.2627 25.1362L13.4826 24.9339L13.7113 24.7316L13.8169 24.6348L13.9313 24.5468L14.0456 24.4589L14.16 24.3709L14.2743 24.2917L14.3975 24.2126L14.5118 24.1422L14.6262 24.0718L14.7406 24.0102L14.8549 23.9575L14.9693 23.9047L15.0924 23.8607L15.2068 23.8167L15.3211 23.7903L15.4443 23.7639L15.5586 23.7463L15.673 23.7375H15.7874L15.9017 23.7463L16.0161 23.7551L16.1304 23.7815L16.2536 23.8167L16.3679 23.8607L16.4735 23.9135L16.5879 23.9751L16.7022 24.0454L16.8078 24.1158L16.9133 24.2038L17.0101 24.2917L17.1157 24.3885L17.2036 24.4853L17.2916 24.5908L17.3796 24.7052L17.4587 24.8195L17.5379 24.9339L17.5995 25.0483L17.6699 25.1714L17.7138 25.2858L17.7666 25.4089L17.8018 25.5409L17.837 25.664L17.8634 25.7784L17.8722 25.9015L17.881 26.0247L17.8722 26.1391L17.8634 26.2622L17.8546 26.3854L17.8282 26.4997L17.8018 26.6141L17.7666 26.7284L17.7226 26.8516L17.6787 26.9659L17.6259 27.0803L17.5643 27.1947L17.5027 27.3002L17.4323 27.4146L17.362 27.5289L17.2828 27.6345L17.1948 27.7489L17.1157 27.8544L17.0277 27.96L16.9221 28.0655L16.8254 28.1711L16.7286 28.2766L16.6318 28.3822L16.5175 28.479L16.2976 28.6813L16.0777 28.8748L15.8489 29.0684L15.6114 29.2531L15.3739 29.429L15.1364 29.6138L14.8989 29.7809L14.6614 29.9392L14.4327 30.1064L14.204 30.2559L13.9752 30.4054L13.7465 30.555L13.5178 30.6957L13.2979 30.8365L13.0692 30.9684L12.8493 31.1004L12.6293 31.2323L12.1807 31.4875L11.7497 31.725L11.3186 31.9713L10.4566 32.4375L10.0255 32.6838L9.59448 32.9213L9.16344 33.1764L8.7412 33.4315L8.31016 33.6954L8.09024 33.8362L7.87912 33.9769L7.668 34.1177L7.45688 34.2672L7.24576 34.408L7.03463 34.5663L6.83231 34.7246L6.62119 34.883L6.42766 35.0413L6.22534 35.2172L6.03181 35.3844L5.83828 35.5603L5.64476 35.7363L5.46003 35.9122L5.27529 36.0969L5.09936 36.2904L4.92343 36.484L4.75629 36.6863L4.58915 36.8798L4.43081 37.091L4.27247 37.2933L4.12293 37.5044L3.97338 37.7243L3.82384 37.9354L3.69189 38.1554L3.55114 38.3841L3.41919 38.604L3.29603 38.8327L3.18168 39.0702L3.05852 39.2989L2.95296 39.5364L2.8386 39.774L2.74184 40.0115L2.64508 40.249L2.54831 40.4865L2.46035 40.7328L2.37238 40.9791L2.30201 41.2254L2.22284 41.4717L2.15246 41.718L2.09088 41.9643L2.02931 42.2194L1.97653 42.4657L1.92375 42.712L1.87976 42.9672L1.83578 43.2135L1.80059 43.4686L1.76541 43.7149L1.73022 43.97L1.70383 44.2251L1.65105 44.7353L1.61586 45.2455L1.58068 45.7557L1.55428 46.2659L1.53669 46.7849L1.5191 47.3039L1.49271 48.3331L1.46632 49.38L1.43993 49.899L1.42234 50.418L1.38715 50.937L1.33437 51.4648L1.2376 52.5028L1.19362 53.0218L1.14964 53.5408L1.13204 53.7959L1.11445 54.051V54.3061L1.10565 54.5612V54.8163L1.11445 55.0626L1.12325 55.3177L1.14084 55.5728L1.16723 55.8191L1.21121 56.0655L1.2464 56.3118L1.29918 56.5581L1.35196 56.8044L1.41354 57.0507L1.48391 57.2882L1.55428 57.5257L1.64225 57.772L1.72142 58.0095L1.81819 58.247L1.91495 58.4846L2.01171 58.7221L2.11727 58.9596L2.22284 59.1971L2.33719 59.4258L2.45155 59.6633L2.56591 59.9008L2.82101 60.367L3.07611 60.8333L3.34002 61.2907L3.87662 62.2143" stroke="white" stroke-width="0.123154" stroke-miterlimit="10"/>
<path d="M0.331543 35.6311L0.780174 35.3672L1.00009 35.2352L1.22001 35.1121L1.43993 34.9889L1.65105 34.8746L1.85337 34.7602L1.95893 34.7162L2.0557 34.6634L2.15246 34.6107L2.24923 34.5667L2.33719 34.5227L2.42516 34.4875L2.51313 34.4435L2.5923 34.4083L2.68027 34.3819L2.75943 34.3468L2.82981 34.3204L2.90018 34.3028L2.97056 34.2852L3.03213 34.2676L3.09371 34.2588L3.15529 34.25H3.20807H3.26085L3.30483 34.2588L3.34881 34.2676L3.384 34.2852L3.41039 34.3028L3.44558 34.3292L3.46317 34.3556L3.48956 34.3995L3.49836 34.4347L3.50715 34.4787V34.5315V34.5843V34.6458V34.7074L3.48956 34.769L3.47197 34.8482L3.45437 34.9185L3.43678 34.9977L3.41039 35.0769L3.384 35.1561L3.35761 35.244L3.32242 35.332L3.28724 35.42L3.25205 35.5167L3.20807 35.6135L3.1289 35.807L3.04093 36.0005L2.94417 36.2117L2.8474 36.414L2.64508 36.8362L2.53952 37.0386L2.44275 37.2409L2.34599 37.4344L2.24923 37.6279L2.16126 37.8215L2.0645 38.015L1.97653 38.1909L1.89736 38.3669L1.80939 38.5516L1.73022 38.7187L1.65105 38.8947L1.57188 39.0618L1.49271 39.2201L1.41354 39.3873L1.264 39.704L1.12325 40.0118L0.982501 40.3109L0.850549 40.6012L0.718597 40.8915L0.586648 41.173L0.331543 41.7448" stroke="white" stroke-width="0.123154" stroke-miterlimit="10"/>
<path d="M6.38365 62.2146L5.86465 61.6076L5.60954 61.2998L5.37203 60.9919L5.24887 60.8335L5.13452 60.684L5.02016 60.5256L4.9146 60.3673L4.80904 60.209L4.70348 60.0506L4.60672 59.8923L4.51875 59.734L4.43078 59.5756L4.35161 59.4085L4.27244 59.2501L4.20207 59.0742L4.14049 58.9158L4.07891 58.7399L4.03493 58.564L3.98215 58.3792L3.93816 58.1945L3.89418 57.9922L3.85899 57.7899L3.8414 57.6843L3.82381 57.57L3.79742 57.3412L3.77103 57.1125L3.74464 56.8838L3.73584 56.7695V56.6551V56.5495V56.444V56.3472L3.74464 56.2504L3.75343 56.1537L3.77103 56.0745L3.78862 56.0041L3.80622 55.9338L3.82381 55.8722L3.85899 55.8282L3.89418 55.793L3.92937 55.7578L3.97335 55.7402L4.01733 55.7314H4.07012L4.1229 55.7402L4.17568 55.749L4.23725 55.7754L4.30763 55.8018L4.3692 55.8458L4.44837 55.881L4.51875 55.9338L4.59792 55.9865L4.67709 56.0481L4.75626 56.1009L4.84423 56.1713L4.93219 56.2417L5.01136 56.312L5.19609 56.4704L5.38962 56.6199L5.58315 56.787L5.77668 56.9454L5.979 57.0949L6.18133 57.2533L6.27809 57.3149L6.38365 57.3852L6.48042 57.4468L6.57718 57.5084L6.68274 57.5612L6.7795 57.6139L6.87626 57.6579L6.97303 57.6931L7.06979 57.7283L7.16656 57.7547L7.26332 57.7811L7.36009 57.8075L7.45685 57.8251L7.54482 57.8339L7.64158 57.8427H7.72955H7.82631H7.91428L8.01104 57.8339H8.09901L8.19577 57.8163L8.28374 57.7987L8.46847 57.7635L8.6532 57.7107L8.83793 57.6491L9.02266 57.5876L9.20739 57.5172L9.39212 57.438L9.57685 57.3588L9.77038 57.2709L9.96391 57.1917L10.1574 57.0949L10.3598 57.0158L10.5533 56.9278L10.7644 56.8486L10.9667 56.7695L11.1779 56.6991L11.389 56.6287L11.6001 56.5671L11.8112 56.5056L12.0223 56.4616L12.2423 56.4176L12.4446 56.3736L12.6557 56.356L12.858 56.3296L13.0604 56.3208H13.1571H13.2627L13.3594 56.3296L13.4474 56.3384L13.5442 56.3472L13.6409 56.3648L13.7289 56.3736L13.8169 56.3912L13.9048 56.4176L13.9928 56.444L14.0808 56.4704L14.1599 56.5056L14.2391 56.5407L14.3183 56.5759L14.3975 56.6199L14.4766 56.6727L14.547 56.7167L14.6174 56.7695L14.6877 56.831L14.7493 56.8926L14.8109 56.9542L14.8725 57.0246L14.9341 57.0949L14.9868 57.1741L15.0396 57.2533L15.0836 57.3324L15.1364 57.4204L15.1716 57.5084L15.2155 57.5963L15.2595 57.6931L15.2859 57.7811L15.3211 57.8778L15.3563 57.9746L15.3827 58.0714L15.4091 58.1769L15.4267 58.2737L15.4531 58.3792L15.4707 58.476L15.4794 58.5816L15.4882 58.6871L15.497 58.7927V58.8983L15.5058 59.0038V59.1094L15.497 59.2061L15.4882 59.3117L15.4794 59.4173L15.4707 59.514L15.4531 59.6196L15.4355 59.7164L15.4091 59.8131L15.3827 59.9099L15.3563 60.0066L15.3299 60.0946L15.2947 60.1826L15.2595 60.2706L15.2155 60.3585L15.1716 60.4465L15.0836 60.6136L14.978 60.7808L14.8725 60.9391L14.7581 61.0886L14.635 61.2382L14.5118 61.3789L14.3711 61.5285L14.2391 61.6692L14.0984 61.8012L13.9576 61.9419L13.6673 62.2146" stroke="white" stroke-width="0.123154" stroke-miterlimit="10"/>
<path d="M7.78252 62.2141L7.60659 61.9326L7.52741 61.7919L7.44824 61.6423L7.36907 61.4928L7.2987 61.3433L7.23712 61.1849L7.18434 61.0354L7.16675 60.9474L7.14916 60.8682L7.13156 60.7891L7.11397 60.7011L7.10517 60.6219L7.09637 60.5252V60.446V60.358V60.2701V60.1821L7.10517 60.0941L7.12277 60.0062L7.13156 59.927L7.14916 59.839L7.16675 59.7598L7.19314 59.6807L7.21953 59.5927L7.24592 59.5223L7.28111 59.4432L7.32509 59.3728L7.36028 59.3024L7.40426 59.2408L7.44824 59.1793L7.49223 59.1177L7.54501 59.0649L7.59779 59.0033L7.65937 58.9593L7.71214 58.9154L7.77372 58.8714L7.8353 58.8274L7.90567 58.7922L7.97605 58.757L8.04642 58.7218L8.11679 58.6954L8.18717 58.669L8.26634 58.6515L8.34551 58.6251L8.42468 58.6075L8.50385 58.5987L8.59182 58.5811L8.75896 58.5635L8.93489 58.5547H9.11962L9.30435 58.5635L9.48908 58.5811L9.68261 58.5987L9.87613 58.6339L10.0697 58.669L10.2632 58.713L10.4567 58.7658L10.6502 58.8098L10.835 58.8714L11.0285 58.933L11.2044 59.0033L11.3012 59.0385L11.3804 59.0737L11.4595 59.1177L11.5299 59.1617L11.6003 59.1969L11.6619 59.2496L11.7146 59.2936L11.7586 59.3464L11.8026 59.3992L11.829 59.4608L11.8466 59.5223L11.8554 59.5927L11.8642 59.6543L11.8554 59.7247L11.8466 59.8038L11.829 59.8742L11.8114 59.9534L11.7762 60.0237L11.7498 60.1117L11.7146 60.1909L11.6355 60.358L11.5563 60.5252L11.4859 60.7011L11.4156 60.877L11.3804 60.965L11.3452 61.053L11.3276 61.1409L11.3012 61.2289L11.2924 61.3081L11.2748 61.396V61.484L11.266 61.5632L11.2748 61.7303L11.2836 61.8974L11.3012 62.0558L11.3188 62.2141" stroke="white" stroke-width="0.123154" stroke-miterlimit="10"/>
<path d="M20.256 62.2143L20.5199 61.8625L20.7838 61.5106L20.907 61.3347L21.0389 61.1587L21.1533 60.974L21.2764 60.7981L21.382 60.6221L21.4875 60.4462L21.5931 60.2703L21.6811 60.0943L21.769 59.9184L21.8394 59.7337L21.9098 59.5577L21.9714 59.3818L22.0241 59.2059L22.0593 59.0299L22.0681 58.942L22.0857 58.8452L22.0945 58.7572V58.6693L22.1033 58.5813V58.4933L22.0945 58.4054V58.3174L22.0769 58.2294L22.0681 58.1327L22.0505 58.0447L22.0329 57.9567L21.9889 57.7808L21.9274 57.6049L21.857 57.4201L21.7866 57.2442L21.6987 57.0683L21.6019 56.8923L21.4963 56.7164L21.3996 56.5405L21.2852 56.3733L21.1621 56.1974L21.0389 56.0303L20.907 55.8543L20.775 55.6872L20.6431 55.52L20.3616 55.1946L20.0801 54.8779L19.7986 54.5612L19.5171 54.2621L19.2356 53.963L18.9541 53.6815L18.8045 53.5408L18.6638 53.4088L18.5143 53.2681L18.3735 53.1449L18.224 53.0218L18.0744 52.8986L17.9161 52.7755L17.7665 52.6611L17.6082 52.5468L17.4498 52.4324L17.2915 52.3269L17.1244 52.2213L16.9572 52.1245L16.7901 52.0278L16.6142 51.9398L16.4382 51.8518L16.2535 51.7727L16.0776 51.6935L15.884 51.6143L15.6993 51.5439L15.5146 51.4824L15.321 51.412L15.1275 51.3592L14.934 51.3064L14.7405 51.2624L14.5381 51.2185L14.3358 51.1833L14.1335 51.1569L13.9312 51.1305L13.7288 51.1041L13.5265 51.0865L13.3154 51.0777H13.1131H12.9107L12.6996 51.0865L12.4973 51.1041L12.295 51.1305L12.0839 51.1569L11.8815 51.1833L11.6792 51.2273L11.4769 51.2712L11.2746 51.3328L11.0722 51.3944L10.8699 51.4648L10.6676 51.5351L10.4741 51.6231L10.2805 51.7111L10.0782 51.8078L9.69995 52.0014L9.51522 52.1069L9.32169 52.1949L9.22493 52.2301L9.13696 52.2741L9.04899 52.3093L8.95223 52.3356L8.86426 52.362L8.77629 52.3884L8.68833 52.406L8.60036 52.4148L8.5036 52.4236H8.41563L8.32766 52.4148L8.2397 52.3972L8.16053 52.3796L8.07256 52.3532L7.98459 52.3093L7.89662 52.2741L7.81745 52.2301L7.73828 52.1773L7.65911 52.1157L7.57994 52.0629L7.49197 51.9926L7.4216 51.9222L7.35123 51.8518L7.27206 51.7727L7.20168 51.6935L7.13131 51.6055L7.06094 51.5175L6.99936 51.4296L6.93778 51.3328L6.8762 51.2361L6.82343 51.1481L6.76185 51.0513L6.71786 50.9458L6.66508 50.849L6.6211 50.7434L6.57712 50.6467L6.53313 50.5499L6.49795 50.4444L6.46276 50.3388L6.42757 50.242L6.40118 50.1365L6.37479 50.0309L6.3484 49.9253L6.33081 49.8198L6.30442 49.723L6.29562 49.6175L6.27803 49.5119L6.26923 49.4151L6.26044 49.3096V49.204V49.0984V49.0017L6.26923 48.9049V48.8082L6.28683 48.7114L6.29562 48.6146L6.31322 48.5179L6.33081 48.4299L6.3572 48.3331L6.38359 48.2452L6.40998 48.1572L6.43637 48.0692L6.48035 47.9813L6.51554 47.9021L6.55073 47.8229L6.59471 47.7438L6.6387 47.6646L6.69147 47.5942L6.74426 47.5238L6.79703 47.4535L6.85861 47.3831L6.92019 47.3127L6.98177 47.2511L7.04334 47.1896L7.11372 47.128L7.17529 47.0664L7.32484 46.9521L7.47438 46.8465L7.64152 46.7497L7.80866 46.653L7.99339 46.565L8.16932 46.4858L8.36285 46.4067L8.55637 46.3451L8.7587 46.2835L8.96103 46.2219L9.17215 46.1692L9.39206 46.1164L9.60319 46.0724L9.8231 46.0372L10.0518 45.9932L10.2717 45.9668L10.5004 45.9404L10.7204 45.914L10.9491 45.8964L11.1778 45.8789L11.4065 45.8701L11.6352 45.8525L11.8551 45.8437H12.0751L12.295 45.8349H12.5149H12.7348H12.9459L13.3594 45.8437L13.764 45.8613L14.1687 45.8789L14.5645 45.8964L14.9516 45.9228L15.3386 45.9492L16.0952 46.002L16.4734 46.0284L16.8517 46.046L17.2387 46.0548L17.617 46.0636H18.004H18.3911H18.7782L19.1652 46.0548L19.5611 46.0372L19.9569 46.0108L20.3528 45.9844L20.7486 45.958L21.1445 45.9316L21.5403 45.8964L22.332 45.8173L23.1325 45.7293L23.9242 45.6326L24.7247 45.5358L25.5076 45.4302L26.2905 45.3159L27.0734 45.2103L27.8476 45.096L28.6305 44.9728L29.4046 44.8408L30.1787 44.7001L30.5657 44.6297L30.9616 44.5506L31.3486 44.4714L31.7357 44.3834L32.1316 44.3042L32.5274 44.2075L33.3191 44.0228L33.715 43.9348L34.1108 43.8556L34.3043 43.8204L34.5067 43.7852L34.7002 43.7589L34.9025 43.7413L35.096 43.7149L35.2896 43.6973L35.4831 43.6885L35.6766 43.6797H35.8702L36.0637 43.6885L36.2484 43.6973L36.4419 43.7237L36.6267 43.7501L36.8114 43.7852L36.9961 43.8204L37.1809 43.8644L37.3656 43.9172L37.5503 43.97L37.7351 44.0316L37.9198 44.1019L38.0957 44.1723L38.2805 44.2515L38.4652 44.3306L38.6411 44.4186L38.8171 44.4978L39.0018 44.5945L39.1865 44.6913L39.3624 44.7881L39.7231 44.9904L40.0838 45.2103L40.4444 45.4214L40.8051 45.6501L40.981 45.7645L41.1658 45.8789L41.3329 45.9932L41.4912 46.1252L41.6496 46.2483L41.72 46.3187L41.7903 46.3803L41.8607 46.4506L41.9223 46.521L41.9927 46.5914L42.0454 46.6618L42.107 46.7321L42.151 46.8113L42.2038 46.8905L42.2478 46.9696L42.283 47.0488L42.3181 47.128L42.3533 47.216L42.3797 47.3039L42.4061 47.3919L42.4149 47.4799L42.4413 47.5678L42.4501 47.6558L42.4589 47.7526V47.8493V47.9373V48.0428L42.4501 48.1396L42.4413 48.2364L42.4325 48.3331L42.4149 48.4299L42.3973 48.5267L42.3797 48.6322L42.3269 48.8258L42.2654 49.0281L42.195 49.2304L42.1158 49.4327L42.0191 49.635L41.9223 49.8374L41.8167 50.0397L41.7024 50.2332L41.588 50.4268L41.4561 50.6115L41.3241 50.7962L41.1922 50.9722L41.0514 51.1481L40.9107 51.3152L40.7611 51.4736L40.6116 51.6231L40.462 51.7727L40.3037 51.9134L40.1454 52.0454L39.987 52.1773L39.8287 52.2917L39.6615 52.406L39.4944 52.5204L39.3185 52.6171L39.1513 52.7139L38.9754 52.8019L38.7995 52.881L38.6235 52.9602L38.4476 53.0306L38.2629 53.0922L38.0781 53.1537L37.8934 53.2065L37.7087 53.2593L37.5239 53.3033L37.3304 53.3385L37.1457 53.3649L36.9522 53.3912L36.7586 53.4176L36.5651 53.4264L36.3716 53.444H36.178H35.9845H35.7822L35.5887 53.4264L35.3863 53.4176L35.1928 53.3912L34.9905 53.3649L34.797 53.3385L34.5946 53.3033L34.4011 53.2593L34.1988 53.2241L34.0053 53.1713L33.8029 53.1186L33.6006 53.057L33.4071 52.9954L33.2135 52.9338L33.0112 52.8635L32.8177 52.7843L32.6242 52.7139L32.4306 52.6259L32.2283 52.538L32.0436 52.45L31.8501 52.3532L31.6565 52.2565L31.4718 52.1509L31.2783 52.0454L31.0935 51.931L30.7241 51.7111L30.3634 51.4824L30.1787 51.3768L29.994 51.2624L29.818 51.1657L29.6333 51.0689L29.4574 50.9722L29.2726 50.8842L29.0967 50.805L28.9208 50.7346L28.736 50.6731L28.5601 50.6203L28.4721 50.6027L28.3842 50.5851L28.2874 50.5675L28.1994 50.5587L28.1115 50.5499H28.0235H27.9355H27.8476H27.7508L27.6628 50.5587L27.5749 50.5763L27.4869 50.5939L27.3901 50.6203L27.3022 50.6379L27.2142 50.6731L27.1262 50.6995L27.0383 50.7434L26.9503 50.7786L26.8623 50.8226L26.7744 50.8666L26.6864 50.9106L26.5984 50.9634L26.5105 51.0161L26.4313 51.0777L26.3521 51.1393L26.2641 51.2009L26.185 51.2624L26.1058 51.3328L26.0266 51.4032L25.9475 51.4824L25.8683 51.5527L25.7979 51.6319L25.6572 51.799L25.5164 51.975L25.3933 52.1509L25.2701 52.3444L25.1558 52.538L25.103 52.6347L25.0502 52.7403L24.9534 52.9514L24.8655 53.1625L24.7951 53.3825L24.7247 53.6024L24.6983 53.7167L24.6719 53.8223L24.6543 53.9366L24.628 54.051L24.6192 54.1566L24.6016 54.2709L24.5928 54.3765L24.584 54.4908V54.5964V54.702V54.8075L24.5928 54.9131L24.6016 55.0098L24.6192 55.1154L24.628 55.2122L24.6543 55.3089L24.6807 55.4057L24.7071 55.4937L24.7423 55.5816L24.7687 55.6696L24.8127 55.7576L24.8567 55.8367L24.9007 55.9159L24.9534 55.9951L25.015 56.0655L25.0678 56.1358L25.1382 56.1974L25.2085 56.259L25.2789 56.3206L25.3581 56.3733L25.4285 56.4261L25.5164 56.4789L25.5956 56.5229L25.6836 56.5669L25.8683 56.6548L26.2378 56.822L26.4225 56.9011L26.6072 56.9891L26.792 57.0947L26.9591 57.2002L27.1262 57.3058L27.2846 57.4201L27.4341 57.5521L27.5837 57.6752L27.7332 57.816L27.8739 57.9479L28.4545 58.4933L28.5953 58.6253L28.7448 58.7572L28.8944 58.8804L29.0439 59.0036L29.2023 59.1267L29.3606 59.2499L29.5189 59.3642L29.6861 59.4698L29.8444 59.5841L30.0203 59.6897L30.1787 59.7952L30.3546 59.892L30.6977 60.0855L31.0496 60.2791L31.4014 60.455L31.7621 60.6309L32.1316 60.8069L32.4922 60.9652L33.2223 61.2907L33.9525 61.5986L35.4039 62.2143" stroke="#B79090" stroke-width="0.246308" stroke-miterlimit="10"/>
<path d="M38.8701 62.2146L38.3599 61.9859L37.8497 61.7659L37.5946 61.6604L37.3307 61.5548L37.0844 61.4581L36.8293 61.3613L36.5742 61.2733L36.3191 61.1854L36.0728 61.115L35.8177 61.0446L35.5626 60.9654L35.3075 60.8863L35.1843 60.8511L35.0524 60.8071L34.9292 60.7543L34.7972 60.7015L34.6741 60.64L34.5422 60.5784L34.4102 60.5168L34.2782 60.4376L34.1463 60.3497L34.0143 60.2617L33.8824 60.1649L33.7504 60.0594L33.6273 59.9538L33.5041 59.8483L33.381 59.7339L33.2666 59.6195L33.1611 59.5052L33.0555 59.3996L32.9675 59.2941L32.9324 59.2413L32.8884 59.1885L32.862 59.1357L32.8268 59.0917L32.7916 59.0478L32.7652 58.995L32.7388 58.9598L32.7212 58.9158L32.7036 58.8806L32.6948 58.8366L32.686 58.8015L32.6772 58.7751V58.7487L32.686 58.7223V58.6959L32.7036 58.6695L32.7124 58.6607L32.7388 58.6431L32.7564 58.6255L32.7828 58.6079L32.8092 58.5991L32.8444 58.5903H32.8708L32.9148 58.5815H32.9499H32.9939H33.0467L33.0907 58.5903H33.1435L33.1962 58.5991L33.2578 58.6079L33.3106 58.6255L33.4426 58.6519L33.5745 58.6783L33.7153 58.7223L33.8648 58.7663L34.0231 58.8103L34.1815 58.8718L34.3486 58.9246L34.5246 58.9862L34.7005 59.0478L34.8764 59.1093L35.0612 59.1797L35.4394 59.3293L36.1871 59.6283L36.5566 59.7779L36.7325 59.8483L36.9085 59.9186L37.0844 59.9978L37.2515 60.0594L37.4187 60.1298L37.5858 60.2001L37.7442 60.2617L37.9025 60.3321L38.052 60.3937L38.2016 60.4552L38.3511 60.5168L38.5007 60.5784L38.7822 60.6927L39.0549 60.8071L39.3188 60.9215L39.5827 61.027L39.829 61.1326L40.0665 61.2293L40.304 61.3261L40.5327 61.4229L40.7526 61.5196L40.9725 61.6076L41.1925 61.6956L41.3948 61.7923L41.6059 61.8803L42.0106 62.0474L42.4152 62.2146" stroke="white" stroke-width="0.123154" stroke-miterlimit="10"/>
<path d="M33.5918 9.05615L33.2751 9.28487L32.9585 9.52238L32.8089 9.63674L32.6594 9.75989L32.5098 9.88305L32.3603 10.0062L32.2283 10.1294L32.0876 10.2613L31.9556 10.3845L31.8237 10.5252L31.7093 10.666L31.595 10.7979L31.4894 10.9474L31.3926 11.097L31.2959 11.2465L31.2167 11.4049L31.1375 11.572L31.0672 11.7304L31.0056 11.9063L30.944 12.0734L30.8912 12.2494L30.8473 12.4341L30.8033 12.61L30.7681 12.7948L30.7329 12.9795L30.7065 13.1642L30.6801 13.3577L30.6625 13.5513L30.6449 13.736L30.6273 13.9383L30.6009 14.3254L30.5746 14.7212L30.5394 15.5129L30.5218 15.9088L30.4954 16.2958L30.4602 16.6917L30.425 17.07L30.381 17.4482L30.3282 17.8265L30.2755 18.2047L30.2139 18.5742L30.1435 18.9437L30.0731 19.3131L29.994 19.6738L29.9148 20.0432L29.8268 20.4039L29.7301 20.7646L29.6421 21.1252L29.5365 21.4859L29.431 21.8378L29.3254 22.1984L29.2111 22.5591L29.0967 22.9198L28.9736 23.2716L28.8504 23.6323L28.7184 23.993L28.5865 24.3448L28.4458 24.6967L28.2962 25.0486L28.1467 25.3916L27.9795 25.7435L27.8212 26.0778L27.6365 26.4121L27.4605 26.7463L27.267 27.0718L27.0647 27.3885L26.9679 27.5468L26.8623 27.7052L26.748 27.8635L26.6424 28.0131L26.5281 28.1626L26.4137 28.3122L26.2906 28.4617L26.1674 28.6024L26.0442 28.7432L25.9211 28.8839L25.6572 29.1654L25.3933 29.4293L25.1206 29.6932L24.8391 29.9571L24.2761 30.4673L23.7131 30.9776L23.4404 31.2327L23.1677 31.4966L22.9038 31.7517L22.6487 32.0244L22.5256 32.1563L22.4112 32.2971L22.2881 32.429L22.1737 32.5785L22.0681 32.7193L21.9538 32.8688L21.7427 33.1591L21.5403 33.4494L21.338 33.7485L20.951 34.3555L20.7486 34.6634L20.5463 34.9625L20.3264 35.2615L20.2208 35.4111L20.1065 35.5606L19.9921 35.7102L19.8778 35.8597L19.7546 36.0005L19.6314 36.1412L19.4995 36.282L19.3588 36.4227L19.218 36.5635L19.0773 36.6954L18.9277 36.8274L18.7782 36.9593L18.611 37.0913L18.4439 37.2144L18.2768 37.3376L18.092 37.4607L17.8985 37.5839L17.705 37.6982L17.5026 37.8038L17.3003 37.9182L17.0892 38.0237L16.8781 38.1205L16.6758 38.226L16.4646 38.3228L16.2711 38.4108L16.0776 38.5075L15.884 38.5955L15.7961 38.6395L15.7081 38.6747L15.6289 38.7187L15.5498 38.7626L15.4706 38.8066L15.3914 38.8506L15.3299 38.8858L15.2595 38.921L15.1979 38.965L15.1451 39.0001L15.0923 39.0441L15.0484 39.0793L15.0044 39.1145L14.9692 39.1497L14.9428 39.1849L14.9164 39.2201L14.8988 39.2553L14.8812 39.2904V39.3256V39.3608L14.89 39.396L14.8988 39.4224L14.9164 39.4576L14.9428 39.4928L14.9692 39.5192L14.9956 39.5455L15.0396 39.5807L15.0748 39.6071L15.1275 39.6335L15.1803 39.6687L15.2331 39.6951L15.2947 39.7215L15.365 39.7479L15.4266 39.7743L15.497 39.8094L15.5762 39.827L15.6641 39.8534L15.7433 39.8798L15.8313 39.9062L15.9192 39.9326L16.016 39.959L16.1128 39.9766L16.2183 40.003L16.3151 40.0294L16.5262 40.0733L16.7461 40.1173L16.9836 40.1525L17.2212 40.1965L17.4675 40.2317L17.7226 40.2669L17.9777 40.3021L18.2328 40.3373L18.4967 40.3724L19.0245 40.434L19.5435 40.4868L19.8074 40.5132L20.0625 40.5396L20.3088 40.5572L20.5551 40.5748L20.7926 40.6012L21.0213 40.6187L21.2412 40.6363L21.4612 40.6539L21.6723 40.6627L21.8834 40.6715L22.0857 40.6803L22.2793 40.6891L22.4728 40.6979H22.6663H22.8422H23.027H23.2029L23.3788 40.6891L23.5548 40.6715L23.7219 40.6627L23.8891 40.6451L24.0562 40.6275L24.2233 40.6012L24.3905 40.5748L24.5488 40.5396L24.7159 40.5044L24.8831 40.4692L25.0502 40.4252L25.2174 40.3724L25.3845 40.3285L25.5516 40.2669L25.7188 40.2141L25.8947 40.1525L26.0618 40.0909L26.4049 39.9502L26.748 39.8094L27.0999 39.6599L27.4517 39.5016L27.8124 39.3432L28.1731 39.1761L28.5425 39.009L28.9208 38.8506L29.299 38.6835L29.6773 38.5163L29.862 38.4284L30.0468 38.3404L30.2315 38.2436L30.4074 38.1469L30.5746 38.0501L30.7505 37.9533L30.9088 37.839L31.0672 37.7334L31.2167 37.6103L31.3663 37.4871L31.4982 37.3552L31.6302 37.2232L31.6917 37.1528L31.7445 37.0825L31.8061 37.0033L31.8501 36.9329L31.9029 36.8538L31.9468 36.7746L31.9996 36.6954L32.0348 36.6074L32.0788 36.5195L32.114 36.4315L32.1492 36.3435L32.1756 36.2468L32.2019 36.15L32.2283 36.0533L32.2459 35.9565L32.2635 35.8509L32.2723 35.7454L32.2811 35.6398L32.2899 35.5342V35.4375L32.2811 35.3319L32.2723 35.2352L32.2547 35.1472L32.2283 35.0504L32.2019 34.9713L32.158 34.9009L32.1404 34.8657L32.114 34.8305L32.0964 34.8041L32.0612 34.7689L32.0084 34.7249L31.938 34.681L31.8677 34.6458L31.7885 34.6194L31.7093 34.6018L31.6126 34.5842L31.5246 34.5754L31.4278 34.5666L31.3223 34.5578H31.2167L31.1112 34.5666H31.0056L30.7857 34.5842L30.5482 34.593L30.3194 34.6018H30.0907H29.8532L29.6333 34.593L29.4046 34.5754L29.1847 34.549L28.9648 34.5226L28.7448 34.4874L28.5337 34.4435L28.3226 34.3995L28.1291 34.3467L27.9355 34.2851L27.7508 34.2147L27.5661 34.1356L27.3901 34.0564L27.311 34.0124L27.2318 33.9684L27.1526 33.9244L27.0823 33.8717L27.0031 33.8189L26.9327 33.7749L26.8711 33.7133L26.8096 33.6606L26.7392 33.599L26.6864 33.5462L26.6248 33.4846L26.572 33.423L26.5193 33.3527L26.4753 33.2823L26.4313 33.2207L26.3961 33.1503L26.3609 33.0712L26.3257 33.0008L26.2906 32.9216L26.273 32.8425L26.2466 32.7633L26.229 32.6841L26.2114 32.6049L26.1938 32.517V32.429L26.185 32.341V32.2531V32.1651V32.0683L26.1938 31.9804V31.8924L26.2114 31.7956L26.2466 31.6109L26.2906 31.4086L26.3345 31.2239L26.4049 31.0303L26.4753 30.8368L26.5545 30.6433L26.6424 30.4497L26.7304 30.265L26.836 30.0715L26.9503 29.8868L27.0647 29.7108L27.1878 29.5349L27.3198 29.359L27.4517 29.2006L27.5925 29.0423L27.742 28.8927L27.8828 28.752L28.0323 28.62L28.1906 28.4969L28.349 28.3825L28.5073 28.277L28.6657 28.1802L28.8328 28.0834L28.9999 28.0043L29.1671 27.9251L29.343 27.8635L29.5102 27.7932L29.6949 27.7404L29.8708 27.6876L30.0555 27.6436L30.2403 27.5996L30.425 27.5556L30.6097 27.5292L30.8033 27.5029L30.988 27.4765L31.1815 27.4501L31.3751 27.4325L31.7709 27.3973L32.1668 27.3709L32.5626 27.3533L32.9673 27.3357L33.7854 27.2917L34.1988 27.2653L34.6034 27.239L34.9993 27.2038L35.3951 27.1598L35.5887 27.1334L35.7822 27.107L35.9757 27.0718L36.1693 27.0366L36.354 27.0014L36.5387 26.9575L36.7147 26.9135L36.8994 26.8607L37.0753 26.8079L37.2425 26.7463L37.4184 26.6848L37.5767 26.6232L37.7439 26.544L37.9022 26.4648L38.0518 26.3857L38.2013 26.2977L38.3421 26.2009L38.4828 26.0954L38.6147 25.9986L38.7467 25.8755L38.8699 25.7611L38.993 25.638L39.1074 25.506L39.2129 25.3653L39.3185 25.2245L39.424 25.075L39.5208 24.9254L39.6176 24.7671L39.7055 24.6087L39.7935 24.4416L39.8727 24.2745L39.9518 24.1073L40.031 23.9226L40.1102 23.7467L40.1718 23.5707L40.2421 23.386L40.3125 23.1925L40.3741 23.0077L40.4357 22.8142L40.4884 22.6207L40.594 22.2336L40.6996 21.8378L40.7963 21.4419L40.8843 21.0461L40.9723 20.659L41.0602 20.2632L41.1394 19.8761L41.2186 19.489L41.2889 19.1108L41.3681 18.7237L41.4297 18.3543L41.4913 17.976L41.5528 17.5978L41.6056 17.2283L41.6496 16.8588L41.6936 16.4894L41.7288 16.1199L41.764 15.7504L41.7904 15.381L41.8079 15.0115L41.8167 14.6509V14.2814V13.9119L41.8079 13.5425L41.7904 13.173L41.764 12.8036L41.7288 12.4341L41.6848 12.0558L41.6056 11.3081L41.5616 10.9299L41.5265 10.5604L41.4825 10.1821L41.4649 9.80388L41.4473 9.43441L41.4385 9.24089V9.05615" stroke="white" stroke-width="0.123154" stroke-miterlimit="10"/>
<path d="M19.271 38.2876L19.5349 38.0677L19.8076 37.839L20.0891 37.6278L20.3618 37.4167L20.5113 37.3112L20.652 37.2144L20.9423 37.0209L21.2414 36.8273L21.3822 36.7306L21.5317 36.6338L21.6725 36.5283L21.8132 36.4227L21.9452 36.3171L22.0771 36.194L22.2003 36.0708L22.2618 36.0093L22.3146 35.9389L22.3762 35.8685L22.429 35.7893L22.4818 35.719L22.5257 35.6398L22.5785 35.5606L22.6225 35.4727L22.6665 35.3847L22.7017 35.2879L22.7369 35.2L22.7808 35.1032L22.8072 34.9976L22.8424 34.9009L22.8952 34.6897L22.948 34.4698L22.992 34.2587L23.036 34.0388L23.0799 33.8365L23.1151 33.6341L23.1415 33.5374L23.1679 33.4406L23.1855 33.3526L23.2119 33.2647L23.2383 33.1855L23.2647 33.1063L23.2911 33.036L23.3262 32.9656L23.3526 32.904L23.3878 32.8512L23.423 32.8073L23.4582 32.7633L23.5022 32.7281L23.5462 32.7017L23.5901 32.6841L23.6429 32.6753L23.6957 32.6665L23.7485 32.6753L23.8189 32.6929L23.8716 32.7105L23.942 32.7369L24.0124 32.7721L24.074 32.816L24.1531 32.8512L24.2235 32.904L24.2939 32.9568L24.3818 33.0184L24.4522 33.0712L24.6106 33.2031L24.7777 33.335L25.112 33.6077L25.2791 33.7397L25.4374 33.8629L25.6046 33.986L25.7541 34.1004L25.9037 34.2059L26.0532 34.3203L26.1852 34.4258L26.3171 34.5402L26.3787 34.593L26.4403 34.6546L26.4931 34.7161L26.5458 34.7777L26.5898 34.8393L26.6426 34.9097L26.6778 34.98L26.7218 35.0504L26.757 35.1296L26.7921 35.2088L26.8185 35.2879L26.8449 35.3671L26.8713 35.4551L26.8801 35.543L26.8977 35.6398L26.9065 35.7278V35.8245V35.9213V36.0093L26.8977 36.106L26.8801 36.2028L26.8713 36.2995L26.8537 36.3875L26.8273 36.4755L26.7921 36.5546L26.757 36.6426L26.7218 36.7218L26.6778 36.801L26.6338 36.8713L26.581 36.9329L26.5282 36.9945L26.4667 37.0473L26.4051 37.1088L26.3347 37.1528L26.2643 37.1968L26.194 37.2408L26.1148 37.2848L26.0356 37.32L25.8685 37.3903L25.7014 37.4431L25.5254 37.5047L25.1648 37.6191L24.9888 37.6806L24.8129 37.7422L24.6457 37.8214L24.4786 37.8918L24.3115 37.9797L24.1443 38.0677L23.986 38.1468L23.8277 38.2436L23.5198 38.4195L23.2207 38.6043L22.9216 38.7802L22.772 38.8594L22.6225 38.9386L22.4818 39.0177L22.3234 39.0881L22.1827 39.1497L22.0331 39.2025L21.8836 39.2552L21.7252 39.2992L21.5757 39.3344L21.4174 39.3696L21.2502 39.396L21.0831 39.4136L20.9071 39.4312L20.7224 39.44L20.5289 39.4488H20.3266H20.1154H19.8955L19.6668 39.44L19.5613 39.4312L19.4469 39.4224L19.3501 39.4136L19.2534 39.396L19.1566 39.3696L19.0774 39.3432L19.0071 39.3168L18.9719 39.308L18.9455 39.2816L18.9103 39.264L18.8927 39.2464L18.8663 39.22L18.8575 39.1937L18.8399 39.1761L18.8311 39.1497L18.8223 39.1233V39.0881V39.0617V39.0265L18.8311 39.0001L18.8399 38.9561L18.8575 38.921L18.8663 38.8858L18.9103 38.8066L18.9543 38.7274L19.0071 38.6483L19.0686 38.5603L19.1302 38.4723L19.271 38.2876Z" stroke="white" stroke-width="0.123154" stroke-miterlimit="10"/>
<path d="M35.3778 9.05615L35.0083 9.54877L34.6477 10.059L34.4717 10.3053L34.2958 10.5604L34.1287 10.8155L33.9703 11.0794L33.812 11.3433L33.6624 11.616L33.5129 11.8799L33.3809 12.1614L33.2578 12.4429L33.1434 12.7244L33.0379 13.0147L32.9411 13.3138L32.8531 13.6041L32.774 13.9119L32.7036 14.211L32.642 14.5189L32.5804 14.818L32.5364 15.1259L32.4837 15.4338L32.4485 15.7329L32.4221 16.0407L32.3869 16.3398L32.3693 16.6389L32.3429 16.9292L32.3077 17.5274L32.2901 17.8265L32.2637 18.1168L32.2374 18.4159L32.211 18.7149L32.167 19.0052L32.123 19.3131L32.0614 19.6122L32.0262 19.7618L31.9911 19.9113L31.9471 20.0696L31.9119 20.2192L31.8591 20.3775L31.8063 20.5359L31.7623 20.6942L31.7008 20.8437L31.6392 21.0021L31.5688 21.1604L31.4984 21.3188L31.4193 21.4859L31.3401 21.6442L31.2609 21.8114L31.0762 22.1369L30.8915 22.4623L30.7067 22.7878L30.6188 22.9462L30.5308 23.1045L30.4428 23.2628L30.3637 23.4124L30.2845 23.5619L30.2141 23.7115L30.1437 23.8522L30.0822 23.993L30.0294 24.1249L29.9942 24.2569L29.959 24.38L29.9502 24.4416L29.9414 24.5032L29.9326 24.5648V24.6175V24.6703V24.7319V24.7759L29.9414 24.8287L29.9502 24.8814L29.9678 24.9254L29.9854 24.9694L30.0118 25.0134L30.0294 25.0574L30.0646 25.1014L30.0998 25.1365L30.1349 25.1717L30.1701 25.2069L30.2141 25.2421L30.2581 25.2773L30.3109 25.3037L30.3637 25.3389L30.4164 25.3653L30.4692 25.3828L30.5308 25.4092L30.5924 25.4356L30.6539 25.4532L30.7859 25.4884L30.9354 25.5236L31.0938 25.55L31.2433 25.5676L31.4105 25.5852L31.5864 25.594H31.7623H31.9383L32.1318 25.5852L32.3165 25.5764L32.5101 25.5588L32.6948 25.5412L32.8883 25.5148L33.0818 25.4796L33.2754 25.4532L33.4689 25.4092L33.6536 25.3653L33.8384 25.3213L34.0231 25.2685L34.2078 25.2245L34.375 25.1629L34.5421 25.1014L34.7092 25.0398L34.8676 24.9694L35.0259 24.9078L35.1755 24.8287L35.325 24.7495L35.4657 24.6791L35.6153 24.5911L35.7472 24.512L35.8792 24.4152L36.0111 24.336L36.1343 24.2393L36.2575 24.1425L36.3718 24.0457L36.495 23.9402L36.6005 23.8346L36.7149 23.7291L36.8204 23.6235L36.9172 23.5179L37.014 23.4036L37.1107 23.2892L37.2075 23.1661L37.3043 23.0517L37.3922 22.9286L37.4802 22.8054L37.5594 22.6823L37.6473 22.5591L37.8057 22.304L37.9464 22.0401L38.096 21.7674L38.2279 21.4947L38.3599 21.2132L38.483 20.9317L38.5886 20.6414L38.6941 20.3511L38.7909 20.052L38.8789 19.753L38.958 19.4451L39.0196 19.146L39.09 18.8293L39.134 18.5214L39.178 18.2135L39.2043 17.8968L39.2219 17.5802L39.2307 17.2723V16.9556L39.2131 16.6389L39.2043 16.4806L39.1868 16.3222L39.178 16.1639L39.1516 16.0056L39.1076 15.6889L39.0548 15.381L38.9932 15.0731L38.8525 14.4485L38.7821 14.1407L38.7117 13.8328L38.659 13.5337L38.5974 13.2258L38.5798 13.0762L38.5622 12.9267L38.5446 12.7772L38.5358 12.6188L38.527 12.4693L38.5182 12.3197V12.1702L38.527 12.0206L38.5358 11.8711L38.5534 11.7304L38.571 11.572L38.5974 11.4313L38.6326 11.2817L38.6765 11.1322L38.7117 10.9914L38.7645 10.8419L38.9668 10.2525L39.0636 9.95342L39.1076 9.80388L39.1428 9.65433L39.178 9.50479L39.2131 9.35524L39.2219 9.2057L39.2395 9.05615" stroke="white" stroke-width="0.123154" stroke-miterlimit="10"/>
<path d="M36.7323 9.05615L36.5212 9.90064L36.4156 10.3229L36.3013 10.7451L36.1869 11.1762L36.0637 11.5984L35.923 12.0206L35.7823 12.4429L35.6327 12.8651L35.4744 13.2874L35.3248 13.7008L35.1665 14.1231L35.0257 14.5365L34.9466 14.7388L34.885 14.95L34.8234 15.1523L34.7618 15.3634L34.7091 15.5657L34.6563 15.768L34.6123 15.9704L34.5771 16.1727L34.4979 16.5773L34.4276 16.9908L34.3572 17.3954L34.322 17.6066L34.2692 17.8177L34.2164 18.0288L34.1637 18.2399L34.1021 18.4598L34.0229 18.6886L33.9437 18.9085L33.891 19.0228L33.847 19.1372L33.7942 19.2515L33.7414 19.3659L33.6886 19.489L33.6271 19.6034L33.4951 19.8409L33.3632 20.0872L33.24 20.3247L33.1784 20.4479L33.1169 20.5622L33.0641 20.6766L33.0201 20.791L32.9673 20.8965L32.9409 21.0109L32.9057 21.1164L32.8881 21.2132L32.8793 21.31L32.8705 21.3628L32.8793 21.4067V21.4507L32.8881 21.5035L32.8969 21.5387L32.9057 21.5827L32.9233 21.6266L32.9497 21.6618L32.9673 21.7058L32.9937 21.741L33.0201 21.7762L33.0553 21.8114L33.0905 21.8378L33.1344 21.873L33.1784 21.8994L33.2224 21.9257L33.2752 21.9521L33.3192 21.9785L33.4247 22.0225L33.5391 22.0489L33.6622 22.0753L33.7766 22.0929L33.891 22.1017L33.9525 22.0929H34.0141L34.0669 22.0841L34.1197 22.0753L34.1813 22.0577L34.2252 22.0489L34.278 22.0313L34.3308 22.0137L34.4276 21.9609L34.5155 21.9081L34.6035 21.8378L34.6827 21.7674L34.753 21.6882L34.8322 21.6003L34.9026 21.5035L34.9642 21.4067L35.0345 21.31L35.0961 21.2044L35.1577 21.1076L35.272 20.8877L35.3776 20.6678L35.492 20.4567L35.5887 20.2456L35.6943 20.0344L35.7911 19.8233L35.879 19.6122L35.967 19.4099L36.0549 19.1988L36.1341 18.9964L36.2133 18.7853L36.2837 18.583L36.354 18.3719L36.4156 18.1695L36.4772 17.9672L36.53 17.7561L36.5828 17.545L36.6267 17.3427L36.6707 17.1315L36.6971 16.9292L36.7323 16.7181L36.7587 16.507L36.7763 16.287L36.7851 16.0759L36.7939 15.8648V15.6449L36.8027 15.425L36.7939 15.2051V14.7652L36.7763 14.3254L36.7587 13.8768L36.7411 13.4369L36.7323 12.9883V12.7684L36.7411 12.5484L36.7499 12.3285L36.7587 12.1086L36.7939 11.6688L36.8291 11.2289L36.873 10.7979L36.9346 10.3581L36.9962 9.91823L37.0578 9.4872L37.1194 9.05615" stroke="white" stroke-width="0.123154" stroke-miterlimit="10"/>
<path d="M17.0453 49.5207L16.4911 49.5471L15.9457 49.5647L15.673 49.5734H15.3916L14.855 49.5647L14.5823 49.5558H14.3096L14.0369 49.5647L13.773 49.5734L13.6322 49.5822L13.5003 49.591L13.3595 49.6086L13.2188 49.6262L13.078 49.6526L12.9373 49.679L12.7965 49.7142L12.6558 49.7406L12.515 49.7846L12.3743 49.8285L12.2335 49.8813L12.084 49.9341L11.7937 50.0485L11.5122 50.1716L11.2219 50.2948L11.0812 50.3476L10.9404 50.3915L10.7997 50.4355L10.6677 50.4707L10.527 50.5059L10.395 50.5323L10.2631 50.5411H10.2015H10.1399L10.0783 50.5323H10.0168L9.95519 50.5147L9.89361 50.5059L9.84083 50.4883L9.77925 50.4619L9.71768 50.4355L9.6649 50.4179L9.61211 50.3827L9.55934 50.3476L9.49776 50.3036L9.44498 50.2596L9.401 50.2156L9.34821 50.1628L9.30423 50.11L9.26025 50.0485L9.21626 49.9957L9.17228 49.9341L9.09311 49.8022L9.02274 49.6702L8.96116 49.5295L8.93477 49.4591L8.91717 49.3887L8.89958 49.3183L8.88199 49.248L8.8644 49.1776L8.8556 49.1072L8.8468 49.0368V48.9665V48.8961V48.8345L8.8556 48.7729L8.8644 48.7114L8.88199 48.6498L8.89958 48.5882L8.91717 48.5354L8.94357 48.4739L8.97875 48.4299L9.00514 48.3683L9.04033 48.3243L9.07551 48.2715L9.1195 48.2276L9.16348 48.1836L9.20747 48.1396L9.25145 48.0956L9.35701 48.0164L9.47137 47.9373L9.59452 47.8669L9.72647 47.7965L9.86722 47.7437L10.008 47.6821L10.1575 47.6294L10.3071 47.5766L10.4742 47.5326L10.6325 47.4886L10.7909 47.4534L10.958 47.4183L11.2923 47.3567L11.6178 47.3039L11.9432 47.2599L12.2599 47.2247L12.5766 47.1895L12.8757 47.1719L13.1836 47.1544L13.4827 47.1456L13.773 47.1368H14.0545L14.3447 47.1456L14.6174 47.1544L14.8901 47.1719L15.1628 47.1983L15.4355 47.2159L15.6994 47.2423L15.9633 47.2775L16.2272 47.3127L16.4823 47.3391L17.0014 47.4183L17.5116 47.5062L18.0218 47.5854L18.532 47.6734L19.051 47.7525L19.5788 47.8317L19.8427 47.8581L20.1066 47.8933L20.3793 47.9285L20.6432 47.9549L20.9159 47.9724L21.1886 47.9988L21.4613 48.0164L21.734 48.034L22.0155 48.0516L22.2882 48.0604L22.5609 48.0692H22.8424H23.1239H23.4054L23.6868 48.0604L23.9595 48.0516L24.241 48.0428L24.5225 48.0252L24.804 47.9988L25.0767 47.9724L25.3582 47.9373L25.6397 47.9109L25.9124 47.8669L26.1939 47.8229L26.4666 47.7789L26.7305 47.7261L27.012 47.6646L27.2759 47.603L27.5486 47.5326L27.8125 47.4622L28.0764 47.3831L28.3491 47.3039L28.8769 47.1368L29.4047 46.9608L29.9237 46.7849L30.4515 46.609L30.9705 46.433L31.4895 46.2659L31.7534 46.1955L32.0261 46.1163L32.2812 46.0548L32.5451 45.9844L32.8178 45.9228L33.0817 45.87L33.3544 45.8172L33.6271 45.7733L33.891 45.7469L34.1637 45.7205L34.4364 45.6941L34.7179 45.6853L34.9906 45.6941L35.2633 45.7029L35.4041 45.7117L35.5448 45.7293L35.6768 45.7469L35.8175 45.7645L35.9583 45.7821L36.0902 45.8085L36.231 45.8348L36.3629 45.87L36.5037 45.9052L36.6356 45.9492L36.7763 45.9844L36.9171 46.0372L37.049 46.0812L37.1898 46.1427L37.3217 46.1955L37.4537 46.2659L37.5944 46.3275L37.7264 46.3978L37.8583 46.477L37.9991 46.5562L38.131 46.6353L38.263 46.7233L38.3861 46.8113L38.5093 46.9168L38.6325 47.0048L38.7468 47.1104L38.8612 47.2159L38.9667 47.3127L39.0723 47.4183L39.1691 47.5326L39.257 47.6382L39.345 47.7525L39.4154 47.8757L39.4945 47.99L39.5473 48.1044L39.6089 48.2276L39.6441 48.3507L39.6881 48.4651L39.7057 48.5882L39.7232 48.7114V48.8345V48.9577L39.7057 49.0808L39.6705 49.204L39.6353 49.3183L39.5913 49.4415L39.5297 49.5647L39.4681 49.679L39.3978 49.8022L39.3098 49.9165L39.2306 50.0221L39.1339 50.1364L39.0283 50.2508L38.9227 50.3564L38.8172 50.4619L38.694 50.5587L38.5797 50.6554L38.4477 50.7522L38.3158 50.849L38.1838 50.9281L38.0431 51.0161L37.9023 51.0953L37.7616 51.1744L37.6208 51.236L37.4713 51.3064L37.3305 51.368L37.181 51.4207L37.0315 51.4735L36.8819 51.5087L36.7412 51.5527L36.5916 51.5791L36.4509 51.6055L36.3013 51.6231L36.1694 51.6319L36.0286 51.6407H35.8879L35.7559 51.6319L35.6152 51.6231L35.4832 51.6055L35.3513 51.5879L35.2281 51.5527L35.0962 51.5263L34.973 51.4823L34.8411 51.4471L34.7179 51.3944L34.5948 51.3504L34.4716 51.2976L34.3485 51.236L34.2253 51.1832L34.1109 51.1129L33.8734 50.9809L33.6359 50.8402L33.3984 50.6818L33.1609 50.5323L32.9322 50.3651L32.4572 50.0309L32.2197 49.8637L31.9821 49.6966L31.7358 49.5383L31.4895 49.3887L31.2432 49.2392L30.9881 49.0984L30.8562 49.0368L30.7242 48.9753L30.5923 48.9137L30.4691 48.8609L30.3284 48.8081L30.1876 48.7553L30.0469 48.7114L29.9149 48.6762L29.7654 48.641L29.6246 48.6058L29.4839 48.5794L29.3343 48.553L29.1936 48.5354L29.044 48.5178L28.9033 48.509L28.7538 48.5002H28.6042H28.4547H28.3139L28.1644 48.509L28.0236 48.5266L27.8741 48.5442L27.7333 48.5618L27.5926 48.5794L27.4518 48.6146L27.3111 48.641L27.1703 48.6762L27.0384 48.7202L26.9064 48.7642L26.7745 48.8081L26.6513 48.8609L26.5194 48.9137L26.405 48.9753L26.2819 49.0368L26.1675 49.1072L26.0532 49.1776L25.9476 49.2568L25.842 49.3271L25.7453 49.4151L25.6485 49.5031L25.5518 49.591L25.455 49.679L25.3758 49.7758L25.2878 49.8725L25.2087 49.9781L25.1295 50.0749L25.0415 50.1804L24.9712 50.2948L24.8216 50.5147L24.6809 50.7434L24.5313 50.9809L24.3994 51.2272L24.2586 51.4735L24.1179 51.7198L23.9683 51.9749L23.8188 52.2213L23.6605 52.4764L23.4845 52.7227L23.3966 52.8458L23.3086 52.969L23.2118 53.0921L23.1239 53.2065L23.0183 53.312L22.9215 53.4176L22.816 53.5144L22.7016 53.5935L22.6488 53.6287L22.5961 53.6727L22.5433 53.6991L22.4817 53.7255L22.4289 53.7519L22.3673 53.7695L22.3146 53.7871L22.253 53.8047L22.1914 53.8135H22.1298L22.0683 53.8223L22.0067 53.8135H21.9451L21.8835 53.8047L21.8219 53.7871L21.7604 53.7695L21.6988 53.7519L21.6372 53.7343L21.5756 53.7079L21.5141 53.6815L21.3909 53.6111L21.2678 53.5408L21.1446 53.4616L21.0302 53.3648L20.9071 53.2593L20.7927 53.1537L20.6872 53.0305L20.5728 52.9162L20.4761 52.7842L20.3793 52.6523L20.2825 52.5203L20.1946 52.3796L20.1154 52.2388L20.0362 52.0981L19.9658 51.9573L19.8955 51.8078L19.8339 51.6671L19.7723 51.5263L19.6668 51.2448L19.5524 50.9633L19.4996 50.8402L19.4468 50.7082L19.3941 50.5851L19.3325 50.4619L19.2709 50.3476L19.2093 50.242L19.139 50.1364L19.0598 50.0485L18.9806 49.9605L18.8926 49.8813L18.8487 49.8461L18.8047 49.811L18.7519 49.7846L18.6903 49.7494L18.6463 49.723L18.5848 49.7054L18.4704 49.6614L18.3472 49.6174L18.2153 49.5998L18.0833 49.5734L17.9426 49.5558L17.8019 49.5383L17.6523 49.5295L17.5028 49.5207H17.3532H17.0453Z" stroke="white" stroke-width="0.123154" stroke-miterlimit="10"/>
<path d="M21.7427 51.3508L21.6636 51.2364L21.5756 51.1221L21.4876 51.0165L21.4349 50.9637L21.3909 50.911L21.3381 50.867L21.2853 50.823L21.2325 50.7878L21.171 50.7438L21.1094 50.7174L21.0478 50.6822L20.9246 50.6295L20.8015 50.5679L20.7399 50.5415L20.6783 50.5063L20.6168 50.4623L20.564 50.4183L20.5112 50.3656L20.4672 50.3128L20.4232 50.2424L20.388 50.172L20.3529 50.0929L20.3265 50.0049L20.3001 49.9169L20.2825 49.829L20.2737 49.741L20.2649 49.653V49.5651L20.2737 49.4771V49.3979L20.2913 49.3275L20.3177 49.2572L20.3529 49.2044L20.3617 49.178L20.3793 49.1604L20.4056 49.134L20.4232 49.1164L20.4496 49.1076L20.4672 49.09H20.4936H20.5288H20.5552H20.5816L20.6519 49.0988L20.7223 49.1252L20.7927 49.1428L20.8719 49.1604L20.951 49.1692L21.0302 49.178H21.1094H21.1885L21.2677 49.1692L21.3469 49.1604L21.4349 49.1428L21.5932 49.1076L21.7603 49.0724L21.9187 49.0197L22.0682 48.9845L22.2178 48.9405L22.2881 48.9229L22.3585 48.9053L22.4289 48.8965L22.4905 48.8789L22.552 48.8701H22.6136H22.6664L22.7192 48.8789L22.772 48.8965L22.8159 48.9141L22.8599 48.9405L22.8951 48.9669L22.9303 49.0021L22.9567 49.0549L22.9831 49.1076L23.0007 49.1604L23.0183 49.222L23.0359 49.2924L23.0447 49.3627L23.0534 49.4331L23.0622 49.5123V49.5915V49.7498L23.0534 49.9081L23.0447 50.0577L23.0183 50.1984L23.0007 50.3304L22.9655 50.4623L22.9391 50.5855L22.8951 50.7174L22.8511 50.8494L22.7896 50.9725L22.7368 51.1221L22.6664 51.2628L22.6224 51.342L22.5872 51.4124L22.5432 51.4827L22.4993 51.5355L22.4553 51.5971L22.4113 51.6411L22.3585 51.6763L22.3321 51.6939L22.3057 51.7027L22.2793 51.7115H22.253H22.2354H22.209L22.1738 51.7027L22.1474 51.6939L22.0946 51.6675L22.033 51.6235L21.9802 51.5795L21.9187 51.5267L21.8659 51.4739L21.7427 51.3508Z" stroke="white" stroke-width="0.123154" stroke-miterlimit="10"/>
<path d="M22.8864 62.2144L23.0887 61.8625L23.1854 61.6778L23.2734 61.4931L23.3174 61.3963L23.3614 61.2996L23.3966 61.194L23.4317 61.0884L23.4669 60.9829L23.5021 60.8685L23.5285 60.7541L23.5549 60.6398L23.5725 60.5166L23.5989 60.3935L23.6077 60.2615L23.6165 60.1296L23.6341 59.9976L23.6429 59.8657L23.6517 59.5842V59.3027V59.03V58.7573L23.6429 58.4934V58.3702V58.2471V58.1239V58.0096V57.8952V57.7897L23.6517 57.6929L23.6605 57.5961L23.6693 57.5082L23.6781 57.429L23.6956 57.3586L23.7044 57.297L23.7308 57.2355L23.7484 57.1915L23.7836 57.1563L23.81 57.1211L23.8276 57.1123H23.8452L23.8628 57.1035L23.8892 57.0947L23.9244 57.1035L23.9771 57.1123L24.0299 57.1387L24.0827 57.1739L24.1443 57.2091L24.2059 57.2531L24.2674 57.3146L24.3378 57.3762L24.4082 57.4378L24.4874 57.5082L24.5577 57.5961L24.6457 57.6753L24.7249 57.7633L24.804 57.86L24.892 57.9568L24.9712 58.0536L25.1559 58.2647L25.3318 58.4758L25.5166 58.6869L25.7101 58.9068L25.8948 59.1092L26.0884 59.3115L26.2731 59.505L26.4578 59.6898L26.6337 59.8569L26.8273 60.024L27.0032 60.1824L27.1879 60.3319L27.3639 60.4727L27.5398 60.6046L27.7245 60.7366L27.9005 60.8597L28.0764 60.9741L28.2611 61.0796L28.4371 61.1852L28.613 61.2907L28.7889 61.3875L28.9649 61.4843L29.1408 61.5722L29.4927 61.7482L29.8357 61.9065L30.1876 62.0649L30.5307 62.2144" stroke="white" stroke-width="0.123154" stroke-miterlimit="10"/>
<path d="M51.8892 62.2144L51.6517 61.8977L51.5286 61.7306L51.3966 61.5722L51.2735 61.4227L51.1415 61.2819L51.0008 61.1412L50.8688 61.0092L50.7896 60.9476L50.7193 60.8949L50.6401 60.8333L50.5609 60.7805L50.4818 60.7365L50.4026 60.6838L50.3234 60.6398L50.2354 60.5958L50.1475 60.5518L50.0595 60.5166L49.8748 60.4462L49.6988 60.3935L49.5053 60.3319L49.3118 60.2879L49.1183 60.2439L48.9159 60.2175L48.7224 60.1823L48.3266 60.1208L47.9307 60.068L47.5437 60.0064L47.1654 59.9448L46.9807 59.9096L46.7871 59.8744L46.6024 59.8305L46.4177 59.7865L46.2329 59.7425L46.057 59.6897L45.8635 59.6281L45.6876 59.5754L45.5028 59.505L45.3181 59.4346L45.1246 59.3643L44.9398 59.2851L44.7463 59.1883L44.5528 59.1003L44.3592 58.9948L44.1657 58.8892L43.981 58.7749L43.7875 58.6605L43.6115 58.5374L43.5236 58.467L43.4444 58.4054L43.3564 58.335L43.2773 58.2735L43.2069 58.2031L43.1365 58.1327L43.0661 58.0623L43.0046 57.992L42.9518 57.9216L42.899 57.8512L42.855 57.772L42.811 57.7017L42.7758 57.6225L42.7494 57.5433L42.7231 57.473L42.7055 57.3938L42.6967 57.3146V57.2354V57.1563L42.7143 57.0771L42.7231 56.9891L42.7494 56.91L42.767 56.8308L42.8022 56.7516L42.8374 56.6724L42.8726 56.5845L42.9254 56.5053L42.9694 56.4173L43.0221 56.3382L43.0749 56.2502L43.1365 56.1623L43.1981 56.0831L43.33 55.9159L43.462 55.74L43.6115 55.5729L43.9106 55.2298L44.2097 54.8955L44.3592 54.7284L44.5 54.5612L44.6319 54.3941L44.7639 54.227L44.887 54.0686L45.0102 53.9015L45.1158 53.7344L45.2301 53.576L45.3269 53.4089L45.4324 53.2505L45.6348 52.9251L45.8283 52.6084L46.013 52.2741L46.2066 51.9486L46.4001 51.6143L46.6112 51.2889L46.8223 50.9458L47.0246 50.6027L47.1214 50.4268L47.2182 50.2509L47.3061 50.0749L47.3941 49.899L47.4733 49.7231L47.5437 49.5383L47.614 49.3624L47.6756 49.1777L47.7196 48.9929L47.7636 48.8082L47.7988 48.6235L47.8164 48.4387L47.8252 48.2452L47.8339 48.0517L47.8252 47.8582L47.8076 47.6734L47.7812 47.4799L47.7548 47.2864L47.7196 47.0928L47.6756 46.8993L47.6228 46.7058L47.57 46.5123L47.5085 46.3187L47.4381 46.134L47.3677 45.9405L47.2886 45.7469L47.2094 45.5534L47.1214 45.3687L47.0334 45.1839L46.9455 44.9992L46.8487 44.8145L46.7608 44.6298L46.6552 44.4538L46.5584 44.2779L46.4617 44.102L46.3561 43.926L46.2505 43.7589L46.1362 43.583L46.0218 43.4246L45.9075 43.2663L45.7931 43.0991L45.67 42.9408L45.5468 42.7912L45.4236 42.6417L45.2917 42.4922L45.1597 42.3514L45.0278 42.2107L44.887 42.0787L44.7375 41.9468L44.5968 41.8148L44.4384 41.7005L44.2889 41.5773L44.1217 41.4629L43.9546 41.3574L43.7875 41.2518L43.6115 41.1551L43.4268 41.0583L43.2509 40.9703L43.0485 40.8912L42.8638 40.812L42.468 40.6536L42.0809 40.5041L41.8962 40.4249L41.7114 40.337L41.5355 40.2402L41.3596 40.1522L41.2804 40.0995L41.2012 40.0467L41.1221 39.9939L41.0517 39.9411L40.9813 39.8707L40.9197 39.818L40.8582 39.7476L40.7878 39.6772L40.735 39.6068L40.6822 39.5277L40.6382 39.4573L40.5943 39.3693L40.5503 39.2902L40.5151 39.1934L40.4887 39.1142L40.4623 39.0175L40.4359 38.9207L40.4095 38.8239L40.3919 38.7184L40.3831 38.6216L40.3743 38.5248L40.3655 38.4193V38.3225V38.217V38.1114L40.3743 38.0146L40.3831 37.9091L40.3919 37.8123L40.4095 37.7156L40.4271 37.6188L40.4535 37.522L40.4711 37.4253L40.5239 37.2405L40.5855 37.047L40.6558 36.8711L40.7438 36.6951L40.8318 36.528L40.9285 36.3609L41.0429 36.1937L41.1572 36.0354L41.2716 35.877L41.4036 35.7275L41.5355 35.5779L41.6763 35.4372L41.8258 35.2877L41.9753 35.1557L42.1337 35.0237L42.292 34.8918L42.4592 34.7599L42.6263 34.6367L42.8022 34.5136L42.9694 34.3992L43.1453 34.2848L43.33 34.1705L43.5148 34.0561L43.6907 33.9506L44.0602 33.7482L44.4296 33.5547L44.7991 33.37L45.1597 33.194L45.5292 33.0357L45.8899 32.8774L46.2593 32.7366L46.62 32.6047L46.9895 32.4815L47.3501 32.3672L47.7196 32.2616L48.089 32.1648L48.4673 32.0769L48.8368 31.9977L49.215 31.9273L49.5933 31.8657L49.9803 31.813L50.3586 31.769L50.7457 31.725L51.1327 31.6986L51.5286 31.6634L51.9156 31.637L52.3115 31.6194L52.7073 31.6018L53.4902 31.5754" stroke="white" stroke-width="0.123154" stroke-miterlimit="10"/>
<path d="M53.49 60.5608L52.8743 60.3584L52.5664 60.2529L52.2673 60.1473L51.9682 60.0242L51.6779 59.901L51.5284 59.8394L51.3876 59.7691L51.2469 59.6987L51.1061 59.6195L50.9654 59.5491L50.8334 59.47L50.5607 59.294L50.2968 59.1181L50.0329 58.9422L49.7778 58.7486L49.5227 58.5463L49.2676 58.3352L49.0125 58.1153L48.7662 57.8866L48.5111 57.6578L48.2648 57.4203L48.1504 57.2972L48.0361 57.174L47.9217 57.0421L47.8162 56.9189L47.7106 56.787L47.6138 56.6638L47.5171 56.5231L47.4203 56.3911L47.3411 56.2592L47.262 56.1184L47.1916 55.9777L47.1212 55.8369L47.0684 55.6874L47.0157 55.5466L46.9805 55.3971L46.9453 55.2475L46.9189 55.098L46.9013 54.9397L46.8925 54.7901V54.6318V54.4734L46.9101 54.3151L46.9277 54.1567L46.9629 53.9984L46.9893 53.8401L47.0244 53.6817L47.0772 53.5146L47.1212 53.3563L47.174 53.1979L47.2268 53.0396L47.2884 52.8812L47.3499 52.7229L47.4203 52.5645L47.4907 52.415L47.6314 52.1071L47.781 51.808L47.9393 51.5177L48.0976 51.2275L48.256 50.9547L48.4231 50.6733L48.5903 50.4094L48.7662 50.1367L49.4523 49.0722L49.6195 48.7996L49.7954 48.5269L49.9626 48.2454L50.1209 47.9639L50.2704 47.6824L50.3496 47.5416L50.4112 47.3921L50.4816 47.2425L50.5431 47.1018L50.6047 46.9523L50.6575 46.8027L50.7191 46.6444L50.763 46.486L50.807 46.3277L50.851 46.1781L50.8862 46.011L50.9214 45.8527L50.9478 45.6855L50.9654 45.5184L50.9742 45.3512L50.9918 45.1753V45.0082V44.8322L50.983 44.6563L50.9742 44.4892L50.9478 44.3132L50.9302 44.1461L50.895 43.979L50.8686 43.8118L50.8246 43.6535L50.7718 43.4863L50.7191 43.3368L50.6575 43.1873L50.5959 43.0465L50.5255 42.9058L50.4464 42.765L50.3584 42.6419L50.2704 42.5187L50.1737 42.4131L50.0681 42.3076L49.9626 42.2108L49.8482 42.1229L49.725 42.0349L49.6019 41.9645L49.4699 41.8853L49.338 41.815L49.1972 41.7534L49.0565 41.7006L48.9069 41.639L48.7574 41.5863L48.5991 41.5335L48.4407 41.4895L48.2824 41.4455L47.9481 41.3487L47.605 41.2608L47.262 41.164L46.9101 41.0673L46.7254 41.0057L46.5494 40.9529L46.3647 40.8913L46.1888 40.8297L46.0128 40.7594L45.8369 40.689L45.6698 40.6186L45.5026 40.5394L45.3443 40.4603L45.1859 40.3723L45.0276 40.2843L44.8868 40.1964L44.7549 40.0996L44.6229 40.0028L44.5086 39.8973L44.3942 39.7917L44.3415 39.7389L44.2975 39.6862L44.2535 39.6246L44.2095 39.563L44.1743 39.5014L44.1391 39.4487L44.1039 39.3871L44.0776 39.3255L44.0512 39.2639L44.0248 39.1935L44.0072 39.132L43.9896 39.0616L43.9808 39L43.972 38.9296V38.8593L43.9632 38.7889L43.972 38.7185V38.6482L43.9808 38.569L43.9984 38.4986L44.0072 38.4282L44.0248 38.3491L44.0688 38.1995L44.1215 38.05L44.1919 37.9004L44.2623 37.7421L44.3415 37.5926L44.4382 37.443L44.535 37.2935L44.6405 37.1439L44.7461 37.0032L44.8693 36.8624L44.9836 36.7217L45.1156 36.5897L45.2387 36.4578L45.3707 36.3346L45.5026 36.2115L45.6434 36.0971L45.7753 35.9915L45.9161 35.886L46.0568 35.7892L46.1888 35.6925L46.3383 35.6045L46.4791 35.5253L46.6198 35.4462L46.7693 35.367L46.9101 35.3054L47.0596 35.235L47.2092 35.1735L47.3587 35.1119L47.5083 35.0591L47.6578 35.0063L47.8162 34.9535L48.124 34.8656L48.4319 34.7864L48.7398 34.716L49.0565 34.6457L49.3644 34.5841L49.6811 34.5225L50.3144 34.4169L50.9478 34.3114L51.5811 34.2146L52.2145 34.1091L53.49 33.9243" stroke="white" stroke-width="0.123154" stroke-miterlimit="10"/>
<path d="M53.4901 58.8189L53.0591 58.5814L52.8479 58.467L52.628 58.3526L52.4169 58.2295L52.2146 58.0975L52.0035 57.9656L51.8011 57.8336L51.6076 57.6841L51.4141 57.5346L51.2293 57.3762L51.1414 57.297L51.0534 57.2091L50.9654 57.1211L50.8775 57.0331L50.7983 56.9364L50.7191 56.8396L50.64 56.7516L50.5608 56.6461L50.4904 56.5493L50.42 56.4438L50.3497 56.347L50.2881 56.2326L50.2265 56.1271L50.1649 56.0215L50.1122 55.9072L50.0594 55.8016L50.0154 55.6872L49.9714 55.5729L49.9362 55.4585L49.901 55.3442L49.8747 55.221L49.8483 55.1155L49.8219 54.9923L49.8131 54.8779L49.7955 54.7548L49.7867 54.6404V54.5173L49.7779 54.3941L49.7867 54.2798V54.1566L49.7955 54.0335L49.8131 53.9103L49.8395 53.6728L49.8834 53.4265L49.9362 53.1802L49.9978 52.9427L50.0594 52.6964L50.1386 52.4501L50.2177 52.2037L50.2969 51.9662L50.3849 51.7287L50.5608 51.2537L50.7455 50.7875L50.9479 50.33L51.1502 49.8726L51.3525 49.424L51.5724 48.9842L51.7923 48.5443L52.021 48.1133L52.2498 47.6822L52.4961 47.26L52.7336 46.8378L52.9799 46.4243L53.235 46.0109L53.4901 45.5974" stroke="white" stroke-width="0.123154" stroke-miterlimit="10"/>
<path d="M53.4901 56.831L53.3581 56.7518L53.2262 56.6814L53.0942 56.5935L52.9711 56.5143L52.8567 56.4351L52.7423 56.3559L52.6368 56.2768L52.5312 56.1976L52.4345 56.1184L52.3465 56.0305L52.2585 55.9425L52.1705 55.8633L52.0914 55.7754L52.021 55.6786L51.9506 55.5906L51.8803 55.4939L51.8187 55.4059L51.7659 55.3091L51.7131 55.2212L51.6691 55.1244L51.634 55.0364L51.5988 54.9573L51.5812 54.8781L51.5636 54.7989L51.546 54.7198L51.5372 54.623L51.5284 54.535L51.5196 54.4383V54.3327L51.5284 54.2184L51.5372 54.104L51.5548 53.9808L51.5724 53.8577L51.5988 53.7257L51.6252 53.585L51.6603 53.4442L51.6955 53.2947L51.7395 53.1539L51.7923 52.9956L51.8363 52.8373L51.8979 52.6789L51.9506 52.5206L52.065 52.1951L52.1969 51.8696L52.3201 51.5442L52.452 51.2275L52.5928 50.9108L52.7247 50.5941L52.8743 50.2862L53.0238 49.9695L53.1734 49.6616L53.3317 49.3626L53.4901 49.0547" stroke="white" stroke-width="0.123154" stroke-miterlimit="10"/>
<path d="M53.4901 35.6309L53.059 35.6748L52.6192 35.71L52.3993 35.7276L52.1794 35.7628L51.9506 35.7892L51.7219 35.8244L51.4844 35.8684L51.2469 35.9124L51.0006 35.9651L50.7543 36.0267L50.4992 36.0883L50.2353 36.1675L50.1033 36.2114L49.9714 36.2554L49.8306 36.2994L49.6987 36.3522L49.4172 36.4578L49.1357 36.5721L48.8542 36.6953L48.5727 36.8272L48.3 36.9592L48.1681 37.0295L48.0361 37.0999L47.9129 37.1703L47.7898 37.2495L47.6754 37.3198L47.5611 37.399L47.4555 37.4694L47.3588 37.5485L47.262 37.6189L47.174 37.6981L47.0949 37.7685L47.0157 37.8476L46.9453 37.9268L46.8925 37.9972L46.8397 38.0676L46.7958 38.1467L46.7694 38.2171L46.743 38.2875L46.7342 38.3666V38.437V38.4722L46.743 38.5074L46.7606 38.569L46.787 38.6393L46.8309 38.7097L46.8837 38.7713L46.9453 38.8329L47.0157 38.8944L47.0949 38.9648L47.174 39.0264L47.262 39.088L47.3588 39.1495L47.4643 39.2023L47.5787 39.2639L47.693 39.3255L47.8074 39.3871L47.9305 39.4398L48.0537 39.5014L48.1856 39.563L48.4495 39.6774L48.7222 39.7917L49.2676 40.0292L49.5315 40.1524L49.6635 40.214L49.7866 40.2755L49.9098 40.3459L50.033 40.4075L50.2617 40.5306L50.4816 40.6626L50.6927 40.7945L50.9038 40.9265L51.0974 41.0584L51.2997 41.1816L51.4844 41.3135L51.6779 41.4367L51.8715 41.5598L52.0562 41.683L52.2497 41.7974L52.4433 41.9029L52.6456 41.9997L52.8479 42.1052L53.059 42.1932L53.2701 42.2812L53.4901 42.3691" stroke="white" stroke-width="0.123154" stroke-miterlimit="10"/>
<path d="M53.4901 36.7654L53.2086 36.7391L52.9271 36.7127L52.6544 36.6951H52.5136H52.3729L52.2409 36.7127H52.1002L51.9682 36.7302L51.8275 36.7566L51.6955 36.7918L51.5548 36.8182L51.4228 36.871L51.2821 36.915L51.1502 36.9854L51.0182 37.0557L50.8862 37.1349L50.7543 37.2229L50.6311 37.3196L50.508 37.4252L50.3936 37.5308L50.2793 37.6363L50.1737 37.7507L50.077 37.865L49.9802 37.9882L49.901 38.1025L49.8218 38.2257L49.7515 38.3489L49.6987 38.4632L49.6811 38.516L49.6547 38.5688L49.6371 38.6303L49.6195 38.6831V38.7359L49.6019 38.7887V38.8415V38.8942V38.9382L49.6107 38.9822L49.6195 39.0262L49.6283 39.0702L49.6459 39.1142L49.6635 39.1581L49.6899 39.1933L49.7163 39.2285L49.7339 39.2725L49.7691 39.3077L49.8043 39.3341L49.8394 39.3693L49.8746 39.4045L49.9186 39.4308L50.0154 39.4924L50.1121 39.5452L50.2265 39.598L50.3409 39.642L50.4728 39.6859L50.6048 39.7211L50.7455 39.7563L50.9038 39.7915L51.0622 39.8267L51.2205 39.8531L51.3877 39.8795L51.5636 39.8971L51.7483 39.9235L51.9243 39.9411L52.1178 39.9498L52.3025 39.9674L52.6984 40.0026L53.0942 40.0202L53.4901 40.0466" stroke="white" stroke-width="0.123154" stroke-miterlimit="10"/>
<path d="M43.9281 9.05615L44.0337 9.63674L44.0777 9.91823L44.1217 10.2085L44.1656 10.4988L44.2008 10.7891L44.2272 11.0794L44.2448 11.3697L44.2624 11.66V11.9503L44.2536 12.2406L44.236 12.5309L44.2096 12.8124L44.1744 13.1026L44.1217 13.3929L44.0777 13.6832L44.0161 13.9735L43.9457 14.255L43.8841 14.5453L43.805 14.8356L43.6466 15.4074L43.4795 15.9792L43.3124 16.551L43.1452 17.1227L43.0748 17.4042L42.9957 17.6857L42.9253 17.976L42.8637 18.2575L42.8021 18.539L42.7494 18.8117L42.7054 19.102L42.6614 19.3747L42.635 19.6562L42.6174 19.9377L42.5998 20.2104V20.4919L42.6086 20.7734L42.6174 21.0461L42.6262 21.6091L42.635 21.8818V22.1632L42.6174 22.4535L42.6086 22.5943L42.5998 22.735L42.5822 22.8758L42.5646 23.0253L42.5382 23.1661L42.5119 23.3068L42.4767 23.4564L42.4415 23.6059L42.4063 23.7555L42.3535 23.8962L42.3007 24.0457L42.2392 24.2041L42.1776 24.3448L42.1072 24.5032L42.0192 24.6527L41.9401 24.8111L41.8433 24.9606L41.7465 25.1189L41.6322 25.2773L41.5266 25.4356L41.4211 25.5852L41.3155 25.7259L41.2627 25.7963L41.2187 25.8667L41.166 25.937L41.1308 25.9986L41.0868 26.0602L41.0604 26.113L41.0252 26.1746L40.9988 26.2273L40.9812 26.2713L40.9636 26.3153L40.9548 26.3593V26.3945V26.4209L40.9724 26.456L40.9812 26.4736L41.0076 26.4912L41.0428 26.5088L41.078 26.5176H41.122H41.166H41.2275H41.2891L41.3507 26.5L41.4123 26.4912L41.4826 26.4736L41.5618 26.456L41.6322 26.4297L41.7114 26.4033L41.7993 26.3769L41.8785 26.3417L42.0456 26.2713L42.2216 26.1921L42.3975 26.0954L42.5646 26.0074L42.7318 25.9018L42.8813 25.7963L42.9605 25.7435L43.0309 25.6819L43.1012 25.6292L43.1628 25.5676L43.2244 25.506L43.2772 25.4532L43.3299 25.3916L43.3739 25.3301L43.4179 25.2685L43.4619 25.2157L43.5323 25.0926L43.6026 24.9694L43.7346 24.7231L43.8665 24.468L43.9985 24.2129L44.1129 23.9578L44.2272 23.6939L44.3416 23.43L44.4559 23.1573L44.5527 22.8846L44.6583 22.6119L44.755 22.3392L44.8518 22.0577L44.9397 21.7762L45.0277 21.4947L45.1069 21.2044L45.1861 20.9141L45.2652 20.6326L45.3356 20.3423L45.406 20.052L45.4675 19.7618L45.5379 19.4715L45.5907 19.19L45.6435 18.8997L45.7051 18.6094L45.749 18.3191L45.8458 17.7385L45.925 17.1667L46.0041 16.5861L46.0745 16.0144L46.1449 15.4338L46.2065 14.8532L46.268 14.2814L46.3208 13.7008L46.4264 12.5397L46.5319 11.3785L46.7167 9.05615" stroke="white" stroke-width="0.123154" stroke-miterlimit="10"/>
<path d="M48.2563 9.05615L48.2475 9.90064L48.2299 10.7451L48.2035 11.5984L48.1772 12.4429L48.1596 12.8651L48.1332 13.2874L48.1068 13.7096L48.0804 14.1231L48.0452 14.5541L48.01 14.9675L47.9572 15.381L47.9133 15.8032L47.8517 16.2167L47.7901 16.6389L47.7197 17.0524L47.6406 17.4658L47.5438 17.8793L47.447 18.3015L47.3415 18.7149L47.2271 19.1196L47.104 19.5242L47.0248 19.7354L46.9632 19.9377L46.884 20.1488L46.8049 20.3511L46.7257 20.5534L46.6465 20.7558L46.4706 21.1604L46.2947 21.5651L46.1187 21.9697L46.0396 22.172L45.9604 22.3744L45.8812 22.5767L45.8108 22.779L45.7493 22.9813L45.6965 23.1837L45.6437 23.386L45.6085 23.5883L45.5733 23.7906L45.5557 23.9842V24.0897L45.5469 24.1865L45.5557 24.2833V24.3888L45.5645 24.4856L45.5733 24.5911L45.5997 24.7847L45.6437 24.987L45.6877 25.1893L45.7405 25.3916L45.802 25.594L45.8636 25.7963L45.934 25.9986L46.0835 26.4121L46.2243 26.8343L46.2947 27.0454L46.365 27.2566L46.497 27.6876L46.5674 27.8987L46.6377 28.1098L46.7081 28.3122L46.7873 28.5057L46.8313 28.6024L46.8752 28.6904L46.9192 28.7872L46.972 28.8751L47.0248 28.9631L47.0776 29.0423L47.1303 29.1214L47.1919 29.2006L47.2535 29.2798L47.3239 29.3414L47.3943 29.4117L47.4646 29.4733L47.5438 29.5349L47.623 29.5965L47.7021 29.6492L47.7901 29.702L47.8781 29.746L47.966 29.7988L48.054 29.8428L48.1508 29.878L48.2475 29.922L48.3443 29.9571L48.4411 29.9835L48.5466 30.0187L48.6522 30.0451L48.7577 30.0715L48.9689 30.1155L49.1888 30.1507L49.4175 30.1771L49.6462 30.1946L49.8837 30.2122L50.1124 30.221H50.3499H50.5875L50.825 30.2122L51.0625 30.2034L51.2912 30.1858L51.5287 30.1683L51.7574 30.1507L51.9861 30.1243L52.206 30.0979L52.426 30.0627L52.6371 30.0363L52.857 30.0011L53.0681 29.9659L53.4904 29.8956" stroke="white" stroke-width="0.123154" stroke-miterlimit="10"/>
<path d="M50.5345 9.05615L50.5785 9.7423L50.6313 10.4284L50.6665 11.1058L50.6753 11.4489L50.6929 11.7831L50.7016 12.1262V12.4605V12.7948L50.6929 13.129L50.6753 13.4633L50.6577 13.7976L50.6313 14.1231L50.5961 14.4397L50.5521 14.7652L50.5081 15.0907L50.4465 15.4074L50.3762 15.7241L50.297 16.0319L50.209 16.3486L50.1123 16.6565L50.0155 16.9644L49.9099 17.2635L49.7956 17.5714L49.6812 17.8793L49.5669 18.1959L49.3206 18.8205L49.2062 19.1372L49.0831 19.4627L48.9687 19.7881L48.8543 20.1136L48.7488 20.4567L48.6432 20.791L48.5465 21.1428L48.5025 21.3188L48.4585 21.4947L48.4233 21.6706L48.3793 21.8466L48.3529 22.0225L48.3265 22.1984L48.3002 22.3744L48.2826 22.5503L48.265 22.7174L48.2562 22.8934V23.0605L48.265 23.2276L48.2738 23.3948L48.2914 23.5619L48.3089 23.7203L48.3441 23.8874L48.3793 24.037L48.4233 24.1953L48.4761 24.3448L48.5465 24.4944L48.608 24.6263L48.6872 24.7671L48.7752 24.9078L48.8719 25.0398L48.9863 25.1629L49.0918 25.2861L49.215 25.4004L49.3382 25.5148L49.4701 25.6204L49.6109 25.7259L49.7516 25.8227L49.9012 25.9194L50.0419 26.0074L50.2002 26.0954L50.3586 26.1746L50.5169 26.2449L50.6753 26.3153L50.8424 26.3857L51.0007 26.4384L51.1679 26.5L51.335 26.544L51.4934 26.588L51.6605 26.6232L51.8276 26.6584L51.9948 26.6936L52.1619 26.7111L52.3202 26.7375L52.4874 26.7551L52.6545 26.7639L52.8217 26.7727L52.9888 26.7815H53.1559H53.3231H53.4902" stroke="white" stroke-width="0.123154" stroke-miterlimit="10"/>
<path d="M53.4902 11.6863L53.1559 12.4956L52.8216 13.3049L52.4962 14.1054L52.329 14.4924L52.1707 14.8883L52.0123 15.2753L51.8452 15.6624L51.6957 16.0494L51.5373 16.4277L51.3878 16.8236L51.2558 17.2194L51.1854 17.4129L51.1239 17.6153L51.0623 17.8264L51.0007 18.0375L50.9479 18.2486L50.8864 18.4597L50.8424 18.6797L50.7984 18.9084L50.7544 19.1283L50.7104 19.3658L50.6752 19.6033L50.6488 19.8496L50.6225 20.0959L50.6049 20.351V20.5973V20.7205V20.8436L50.6137 20.958L50.6225 21.0812L50.64 21.1955L50.6488 21.3011L50.6752 21.4242L50.7016 21.521L50.728 21.6266L50.7632 21.7321L50.8072 21.8289L50.8512 21.9168L50.904 22.0136L50.9655 22.0928L51.0271 22.172L51.0887 22.2423L51.1678 22.3127L51.247 22.3743L51.335 22.4271L51.4318 22.471L51.5373 22.515L51.6429 22.5502L51.7484 22.5766L51.8628 22.603L51.9771 22.6118L52.0915 22.6206L52.1971 22.6294L52.3114 22.6206L52.4258 22.603L52.5313 22.5854L52.6369 22.5678L52.7337 22.5326L52.8216 22.4886L52.9184 22.4359L53.0064 22.3919L53.0855 22.3303L53.1559 22.2599L53.2351 22.1983L53.3054 22.1192L53.367 22.04L53.4286 21.952L53.4902 21.8641" stroke="white" stroke-width="0.123154" stroke-miterlimit="10"/>
<path d="M61.1251 11.2973V9.31763H72.2969V11.2973H67.7562V29.6816H65.6796V11.2973H61.1251ZM76.3243 9.31763H78.3731V17.8592H88.7282V9.31763H90.777V29.6816H88.7282V19.8527H78.3731V29.6816H76.3243V9.31763ZM96.881 9.31763H108.551V11.325H98.916V17.693H108.468V19.6865H98.916V27.6743H108.468V29.6816H96.881V9.31763Z" fill="white"/>
<path d="M123.002 15.6996H121.05C121.105 13.6876 121.774 12.0356 123.057 10.7435C124.349 9.45146 125.941 8.80542 127.833 8.80542C129.707 8.80542 131.22 9.40993 132.374 10.6189C133.537 11.8279 134.118 13.2538 134.118 14.8966C134.118 16.0503 133.841 17.1347 133.288 18.1499C132.734 19.1559 131.659 20.5218 130.062 22.2476L124.995 27.7158H134.395V29.6816H120.565L128.345 21.2785C129.924 19.5896 130.948 18.3391 131.419 17.5269C131.899 16.7055 132.139 15.8426 132.139 14.9382C132.139 13.7937 131.709 12.8108 130.851 11.9895C130.002 11.1588 128.959 10.7435 127.722 10.7435C126.421 10.7435 125.337 11.1773 124.469 12.0448C123.611 12.9124 123.122 14.1306 123.002 15.6996ZM140.333 14.0383H138.256C138.635 12.3586 139.359 11.0665 140.43 10.1621C141.5 9.25765 142.765 8.80542 144.223 8.80542C145.284 8.80542 146.272 9.04999 147.185 9.53913C148.108 10.019 148.819 10.6697 149.317 11.4911C149.825 12.3125 150.079 13.1708 150.079 14.066C150.079 15.8195 149.207 17.2085 147.462 18.2329C148.441 18.6298 149.244 19.2112 149.871 19.9772C150.757 21.057 151.2 22.2661 151.2 23.6043C151.2 24.7579 150.896 25.8608 150.286 26.9129C149.677 27.9558 148.847 28.7633 147.795 29.3355C146.742 29.9078 145.566 30.1939 144.264 30.1939C142.511 30.1939 141.048 29.6909 139.876 28.6849C138.704 27.6697 137.938 26.1838 137.578 24.2272H139.571C139.922 25.547 140.425 26.5022 141.08 27.0929C141.92 27.8404 142.991 28.2142 144.292 28.2142C145.769 28.2142 146.955 27.7712 147.85 26.8852C148.745 25.9992 149.193 24.961 149.193 23.7704C149.193 22.9767 148.967 22.2338 148.514 21.5416C148.071 20.8494 147.472 20.3279 146.715 19.9772C145.967 19.6265 144.804 19.4097 143.226 19.3266V17.4577C144.158 17.4577 145.007 17.2962 145.773 16.9732C146.539 16.6409 147.093 16.221 147.435 15.7134C147.785 15.2058 147.961 14.6521 147.961 14.0522C147.961 13.1662 147.605 12.4002 146.895 11.7541C146.193 11.1081 145.303 10.7851 144.223 10.7851C143.346 10.7851 142.589 11.0342 141.953 11.5326C141.316 12.0218 140.776 12.857 140.333 14.0383Z" fill="#7F3434"/>
<path d="M153.359 10.4057H154.508V11.6824C154.85 11.1792 155.211 10.8045 155.592 10.5583C155.972 10.3067 156.368 10.1809 156.78 10.1809C157.09 10.1809 157.422 10.2799 157.775 10.478L157.189 11.4254C156.954 11.3237 156.756 11.2729 156.595 11.2729C156.22 11.2729 155.859 11.4281 155.511 11.7386C155.163 12.0437 154.898 12.5201 154.716 13.1678C154.577 13.6656 154.508 14.6719 154.508 16.1868V19.1416H153.359V10.4057ZM167.451 7.03339V19.1416H166.343V17.6401C165.872 18.2129 165.342 18.6438 164.753 18.9328C164.17 19.2219 163.53 19.3664 162.834 19.3664C161.597 19.3664 160.54 18.9195 159.662 18.0255C158.79 17.1262 158.354 16.0343 158.354 14.7496C158.354 13.4916 158.795 12.4157 159.678 11.5218C160.562 10.6279 161.624 10.1809 162.866 10.1809C163.583 10.1809 164.231 10.3334 164.809 10.6386C165.393 10.9437 165.904 11.4013 166.343 12.0116V7.03339H167.451ZM162.954 11.2648C162.328 11.2648 161.75 11.4201 161.22 11.7305C160.69 12.0357 160.267 12.4666 159.951 13.0233C159.641 13.58 159.486 14.1688 159.486 14.7897C159.486 15.4053 159.644 15.9941 159.959 16.5562C160.275 17.1182 160.698 17.5571 161.228 17.873C161.763 18.1834 162.336 18.3387 162.946 18.3387C163.562 18.3387 164.145 18.1834 164.697 17.873C165.248 17.5625 165.671 17.1423 165.965 16.6124C166.265 16.0824 166.415 15.4856 166.415 14.8218C166.415 13.8101 166.08 12.9644 165.411 12.2846C164.748 11.6048 163.929 11.2648 162.954 11.2648Z" fill="white"/>
<path d="M61.042 57.785L62.7724 56.7467C63.9907 58.9894 65.3981 60.1107 66.9948 60.1107C67.6777 60.1107 68.3191 59.9538 68.919 59.64C69.5189 59.317 69.9758 58.8878 70.2895 58.3526C70.6033 57.8173 70.7602 57.2497 70.7602 56.6498C70.7602 55.9668 70.5295 55.2977 70.068 54.6425C69.4312 53.738 68.2684 52.649 66.5795 51.3754C64.8813 50.0925 63.8246 49.165 63.4093 48.5928C62.6894 47.633 62.3295 46.5947 62.3295 45.478C62.3295 44.592 62.5417 43.7844 62.9663 43.0553C63.3908 42.3262 63.9861 41.754 64.7521 41.3387C65.5273 40.9142 66.3672 40.7019 67.2716 40.7019C68.2315 40.7019 69.1267 40.9419 69.9573 41.4218C70.7971 41.8925 71.6831 42.7646 72.6153 44.0382L70.954 45.298C70.188 44.2828 69.5328 43.6137 68.9882 43.2907C68.453 42.9676 67.8669 42.8061 67.2301 42.8061C66.4087 42.8061 65.735 43.0553 65.2089 43.5537C64.6921 44.0521 64.4337 44.6658 64.4337 45.3949C64.4337 45.8379 64.526 46.2671 64.7106 46.6824C64.8951 47.0977 65.232 47.5499 65.7211 48.039C65.9888 48.2975 66.8656 48.9758 68.3514 50.0741C70.1142 51.3754 71.3232 52.5336 71.9785 53.5488C72.6337 54.564 72.9614 55.5838 72.9614 56.6083C72.9614 58.0849 72.3984 59.3678 71.2724 60.4568C70.1557 61.5458 68.7944 62.0903 67.1886 62.0903C65.9519 62.0903 64.8305 61.7627 63.8246 61.1074C62.8186 60.4429 61.8911 59.3355 61.042 57.785ZM78.0808 43.1938V41.2141H89.2526V43.1938H84.7119V61.5781H82.6353V43.1938H78.0808ZM95.078 41.2141H97.113V53.5073C97.113 54.9655 97.1407 55.8745 97.1961 56.2345C97.2976 57.0374 97.5329 57.7111 97.9021 58.2556C98.2713 58.7909 98.8388 59.2432 99.6049 59.6123C100.371 59.9723 101.142 60.1522 101.917 60.1522C102.59 60.1522 103.237 60.0092 103.855 59.7231C104.473 59.437 104.99 59.0401 105.405 58.5325C105.821 58.0249 106.125 57.4112 106.319 56.6913C106.457 56.1745 106.527 55.1131 106.527 53.5073V41.2141H108.562V53.5073C108.562 55.3254 108.382 56.7975 108.022 57.9234C107.671 59.0401 106.96 60.0138 105.89 60.8444C104.829 61.675 103.541 62.0903 102.027 62.0903C100.385 62.0903 98.9773 61.6981 97.8052 60.9136C96.6331 60.1292 95.8486 59.0909 95.4518 57.7988C95.2026 57.0051 95.078 55.5746 95.078 53.5073V41.2141ZM116.422 61.5781V41.2141H120.644C123.69 41.2141 125.9 41.4587 127.276 41.9478C129.251 42.64 130.792 43.8398 131.899 45.5472C133.016 47.2546 133.574 49.2896 133.574 51.6522C133.574 53.6919 133.131 55.4869 132.245 57.0374C131.369 58.5879 130.224 59.7323 128.812 60.4706C127.409 61.209 125.439 61.5781 122.901 61.5781H116.422ZM118.374 59.6539H120.727C123.542 59.6539 125.494 59.4785 126.583 59.1278C128.115 58.6294 129.32 57.7342 130.197 56.4421C131.073 55.1408 131.512 53.5534 131.512 51.6799C131.512 49.7141 131.036 48.0344 130.086 46.6408C129.135 45.2472 127.811 44.292 126.113 43.7752C124.839 43.3876 122.739 43.1938 119.814 43.1938H118.374V59.6539ZM140.064 41.2141H142.099V61.5781H140.064V41.2141ZM159.318 40.7019C162.401 40.7019 164.98 41.7309 167.057 43.789C169.133 45.8471 170.171 48.3805 170.171 51.3892C170.171 54.3702 169.133 56.899 167.057 58.9755C164.989 61.0521 162.465 62.0903 159.484 62.0903C156.466 62.0903 153.919 61.0567 151.842 58.9894C149.766 56.922 148.728 54.421 148.728 51.4861C148.728 49.5295 149.198 47.716 150.14 46.0456C151.09 44.3751 152.382 43.0692 154.016 42.1278C155.649 41.1772 157.417 40.7019 159.318 40.7019ZM159.415 42.6954C157.911 42.6954 156.485 43.0876 155.137 43.8721C153.79 44.6566 152.738 45.7133 151.981 47.0423C151.224 48.3713 150.846 49.8526 150.846 51.4861C150.846 53.9041 151.681 55.9484 153.351 57.6188C155.031 59.2801 157.052 60.1107 159.415 60.1107C160.993 60.1107 162.451 59.7277 163.79 58.9617C165.137 58.1957 166.185 57.1482 166.932 55.8192C167.689 54.4902 168.067 53.0135 168.067 51.3892C168.067 49.7741 167.689 48.3159 166.932 47.0146C166.185 45.7041 165.128 44.6566 163.762 43.8721C162.396 43.0876 160.947 42.6954 159.415 42.6954Z" fill="white"/>
</svg>
