<svg width="196" height="197" viewBox="0 0 196 197" fill="none" xmlns="http://www.w3.org/2000/svg">
<path d="M1 30.567L2.21992 30.4065L3.40773 30.1818L4.01769 30.0855L4.59555 29.957L5.20551 29.7965L5.81547 29.6681L6.39333 29.5076L6.93907 29.315L7.51693 29.1223L8.06269 28.8976L8.64055 28.6408L9.1542 28.384L9.69995 28.0951L10.2136 27.774L10.7272 27.4209L11.2088 27.0678L11.6903 26.6825L12.1719 26.2652L12.5892 25.8478L13.0387 25.3984L13.456 24.949L13.8734 24.4674L14.2907 23.9859L14.6759 23.5043L15.0291 22.9586L15.3822 22.4449L15.7032 21.8991L16.0243 21.3534L16.3453 20.8077L16.6021 20.2619L16.8589 19.684L17.1158 19.1062L17.3405 18.5283L17.5331 17.9505L17.7257 17.3726L17.8862 16.7626L18.0147 16.1848L18.1752 15.6069L18.2715 14.997L18.3678 14.387L18.432 13.8092L18.4962 13.1992L18.5604 12.6213L18.5925 12.0114V11.4014V10.7915V10.1815V9.57155L18.5283 8.35162L18.432 7.13171L18.3036 5.9118L18.1431 4.69186L17.9826 3.43984L17.5973 1" stroke="#CECECE" stroke-opacity="0.2" stroke-width="2.08869" stroke-miterlimit="10"/>
<path d="M1 20.3261L1.44944 20.2619L1.89888 20.1656L2.31623 20.0693L2.70146 20.0051L3.0225 19.9088L3.34353 19.8445L3.60036 19.7482L3.82508 19.684L4.01769 19.6198L4.17822 19.5556L4.43503 19.4272L4.59555 19.3309L4.72396 19.2346L4.88448 19.1383L5.04499 19.042L5.20551 18.8814L5.36603 18.7531L5.55865 18.5604L5.71916 18.3999L5.91178 18.2073L6.1044 17.9826L6.26491 17.7899L6.45753 17.5652L6.77856 17.0837L7.0996 16.57L7.38853 16.0243L7.64535 15.4785L7.74165 15.2217L7.87007 14.9328L8.03058 14.4191L8.09479 14.1623L8.159 13.8734L8.2232 13.5844L8.28741 13.2955L8.31951 13.0066L8.38372 12.6856L8.41583 12.3324L8.44793 11.9793V11.6262V11.273V10.8878V10.5025V10.0852V9.66786L8.41583 9.21842L8.38372 8.80106L8.35162 8.31953L8.31951 7.87009L8.2553 7.35643L8.19111 6.87488L8.1269 6.36124L8.06269 5.84758L7.99848 5.33394L7.93428 4.78817L7.90218 4.49925L7.83797 4.21031L7.80586 4.0177L7.77376 3.8572L7.74165 3.66457L7.67746 3.47195L7.64535 3.21512L7.58114 2.9904L7.51693 2.73357L7.45272 2.44466L7.35642 2.12363L7.29221 1.77049L7.19591 1.38525L7.06749 1" stroke="#CECECE" stroke-opacity="0.2" stroke-width="2.08869" stroke-miterlimit="10"/>
<path d="M1 44.8208L2.92618 44.275L4.88448 43.6972L5.81547 43.4083L6.77856 43.1193L7.70955 42.7983L8.67265 42.4773L9.57154 42.1562L10.4704 41.8031L11.3693 41.4179L12.2361 41.0326L13.1029 40.6474L13.9697 40.1979L14.7722 39.7485L15.5748 39.299L16.3453 38.7854L17.0837 38.2717L17.822 37.6939L18.1752 37.405L18.4962 37.116L18.8493 36.795L19.1704 36.5061L19.4914 36.1851L19.8124 35.8319L20.1335 35.4788L20.4224 35.1578L21.0002 34.4194L21.546 33.681L22.0918 32.9105L22.5733 32.1079L23.0548 31.3054L23.5043 30.4707L23.9537 29.6039L24.3711 28.7371L24.7242 27.8382L25.1094 26.9393L25.4626 26.0083L25.8157 25.0773L26.1368 24.1143L26.4578 23.1833L26.7467 22.2202L27.0356 21.2571L27.3246 20.294L27.8382 18.3357L28.3198 16.4416L28.5445 15.4785L28.8013 14.5154L29.0581 13.5844L29.3471 12.6856L29.6681 11.7867L29.7965 11.3372L29.9891 10.8878L30.1496 10.4704L30.3744 10.0531L30.567 9.63575L30.7917 9.21842L31.0164 8.83317L31.2412 8.41584L31.498 8.03059L31.7548 7.64535L32.0437 7.29224L32.3326 6.90699L32.6216 6.55385L32.9426 6.20072L33.5847 5.49444L34.2588 4.82028L34.9651 4.14612L35.6714 3.50406L36.4097 2.86199L37.1802 2.25204L38.7212 1" stroke="#CECECE" stroke-opacity="0.2" stroke-width="2.08869" stroke-miterlimit="10"/>
<path d="M1 53.5207L3.15092 52.7824L5.33392 52.0119L7.48483 51.2093L8.54423 50.792L9.60364 50.3746L10.663 49.9252L11.7224 49.4758L12.7819 48.9942L13.8092 48.4805L14.8365 47.9669L15.8638 47.4212L16.8589 46.8433L17.8541 46.2654L18.8493 45.6555L19.8124 45.0134L20.7755 44.3713L21.7386 43.6972L22.6375 42.9909L23.5685 42.2846L24.4674 41.5784L25.3663 40.8079L26.2331 40.0374L27.0677 39.267L27.9024 38.4644L28.705 37.6297L29.5076 36.795L30.2781 35.9603L31.0485 35.0935L31.7548 34.1947L32.4611 33.2958L33.1673 32.3969L33.8094 31.498L34.4836 30.5349L35.0935 29.6039L35.7356 28.6408L36.3134 27.6777L36.8913 26.7146L37.4692 25.6873L38.0149 24.6921L38.5286 23.6969L39.0743 22.6696L39.5559 21.6423L40.0374 20.615L40.5511 19.5556L41.0005 18.4962L41.4821 17.4368L41.8994 16.3774L42.3488 15.2859L42.7662 14.2265L43.633 12.0435L44.4355 9.86047L45.2381 7.64535L45.9765 5.43025L47.5174 1" stroke="#CECECE" stroke-opacity="0.2" stroke-width="2.08869" stroke-miterlimit="10"/>
<path d="M1 66.9398L3.24722 65.8804L5.49444 64.7889L7.70956 63.6653L8.83316 63.1196L9.92467 62.5417L11.0162 61.9639L12.1077 61.3539L13.1671 60.7439L14.2265 60.134L15.2538 59.4598L16.3132 58.8177L17.3084 58.1436L18.3036 57.4373L19.2988 56.731L20.2619 55.9606L21.225 55.2222L22.1239 54.4196L23.0228 53.6171L23.9216 52.7503L24.7563 51.8835L25.591 50.9846L26.4257 50.0536L27.1962 49.0905L27.9987 48.0953L28.7371 47.1001L29.4755 46.1049L30.2138 45.0776L30.9522 44.0503L31.6585 42.9909L34.4836 38.8175L35.1898 37.7581L35.8961 36.7308L36.6024 35.7356L37.3407 34.7404L38.0791 33.7452L38.8496 32.7821L39.588 31.8511L40.3584 30.9201L41.161 30.0533L41.9957 29.2187L42.413 28.8013L42.8304 28.384L43.2798 27.9987L43.6972 27.6135L44.1466 27.2283L44.5961 26.8751L45.0455 26.522L45.527 26.1689L45.9765 25.8478L46.4901 25.5268L46.9717 25.2058L47.4532 24.9168L47.9669 24.6279L48.4805 24.339L48.9942 24.05L49.5078 23.7932L50.0536 23.5364L50.5993 23.3117L51.6909 22.798L52.8145 22.3486L53.9702 21.9313L55.158 21.4818L56.3779 21.0966L57.6299 20.7113L58.9141 20.3261L60.1982 19.9409L61.5144 19.5556L62.8627 19.2025L64.2111 18.8494L65.5915 18.4962L66.9719 18.1752L68.3524 17.8863L69.7328 17.6294L70.407 17.5331L71.0812 17.4368L71.7874 17.3405L72.4616 17.2442L73.1036 17.18L73.7778 17.1479L74.452 17.1158L75.094 17.0837H75.7361H76.4103L77.0202 17.1158L77.6302 17.18L78.2401 17.2442L78.8501 17.3084L79.4279 17.4047L80.0058 17.5331L80.5837 17.6615L81.1294 17.8541L81.6752 18.0468L82.1888 18.2715L82.7346 18.4962L83.2161 18.7531L83.6977 19.042L84.1471 19.363L84.5966 19.7161L85.046 20.0693L85.4312 20.4866L85.8165 20.904L86.2017 21.3534L86.5548 21.8349L86.908 22.3486L87.229 22.8943L87.5501 23.408L87.8711 23.9537L88.5131 25.0453L89.1552 26.1368L89.5084 26.6825L89.8615 27.1962L90.2467 27.7098L90.632 28.1914L91.0493 28.6408L91.4666 29.0582L91.6914 29.2829L91.9161 29.4755L92.1729 29.6681L92.4297 29.8286L92.6866 29.9891L92.9434 30.1496L93.2323 30.2781L93.4891 30.4386L93.8102 30.5349L94.0991 30.6633L94.4201 30.7596L94.709 30.8559L95.0301 30.9201L95.3832 30.9843L95.7043 31.0164L96.0253 31.0806L96.3463 31.1128H96.6673H96.9884H97.3094L97.6625 31.0806L97.9515 31.0485L98.2725 31.0164L98.5935 30.9522L98.8825 30.888L99.2035 30.8238L99.4924 30.7275L99.7492 30.5991L100.038 30.4707L100.295 30.3423L100.552 30.2139L100.777 30.0533L101.033 29.8607L101.226 29.7002L101.419 29.5076L101.643 29.2829L101.804 29.0582L101.996 28.8655L102.157 28.6087L102.285 28.3519L102.446 28.1272L102.574 27.8703L102.703 27.5814L102.831 27.2925L102.927 27.0036L103.024 26.7146L103.12 26.3936L103.216 26.1046L103.345 25.4626L103.441 24.8205L103.537 24.1464L103.57 23.4722L103.602 22.7659V22.0597L103.57 21.3534L103.537 20.6471L103.473 19.9088L103.409 19.2346L103.313 18.5283L103.184 17.8541L103.056 17.18L102.96 16.5058L102.831 15.8638L102.703 15.2217L102.606 14.5796L102.51 13.9697L102.414 13.3918L102.35 12.7819L102.318 12.204L102.285 11.6582L102.318 11.1125L102.35 10.8236L102.414 10.5667L102.446 10.342L102.51 10.0531L102.606 9.82836L102.671 9.57155L102.767 9.31472L102.863 9.09L102.96 8.83317L103.088 8.60845L103.377 8.15901L103.698 7.70957L104.051 7.26013L104.436 6.84277L104.822 6.42544L105.271 6.00811L105.753 5.62286L106.234 5.23761L106.78 4.85239L107.293 4.46714L107.871 4.11401L108.417 3.76087L109.027 3.40773L109.637 3.05462L110.857 2.34835L112.141 1.64208L113.425 1" stroke="#CECECE" stroke-opacity="0.2" stroke-width="2.08869" stroke-miterlimit="10"/>
<path d="M56.5072 1L55.1268 1.99521L54.4526 2.47677L53.8105 2.9904L53.1364 3.50407L52.4943 3.98559L51.8843 4.49925L51.3065 5.01289L50.7607 5.52655L50.215 6.04019L49.7334 6.55385L49.2519 7.06752L49.0593 7.35643L48.8345 7.61326L48.6419 7.87009L48.4814 8.1269L48.3209 8.38373L48.1604 8.64056L47.9999 8.89739L47.8714 9.18631L47.743 9.44314L47.6467 9.73206L47.5504 9.98889L47.4862 10.2778L47.4541 10.5346L47.3899 10.7915L47.3578 11.0804V11.3693L47.3899 11.6262V11.9151L47.4541 12.204L47.5183 12.4929L47.5825 12.7498L47.6788 13.0708L47.8072 13.3276L47.9678 13.6165L48.1283 13.9055L48.3209 14.1944L48.4814 14.4833L48.7061 14.7402L48.9308 14.997L49.1556 15.2217L49.3803 15.4143L49.6371 15.6069L49.8939 15.7675L50.1829 15.928L50.4397 16.0243L50.6965 16.0885L50.9854 16.1527H51.2744H51.5633H51.8201L52.1412 16.0885L52.4301 16.0564L52.719 15.9601L53.0079 15.8638L53.329 15.7354L53.6179 15.639L53.9389 15.4785L54.26 15.318L54.8699 14.997L55.512 14.6438L56.7961 13.9376L57.4382 13.5523L58.1123 13.2313L58.7544 12.9424L59.3965 12.6535L60.0385 12.4287L60.7127 12.2361L61.3548 12.0435L61.9968 11.9151L62.6389 11.8188L63.281 11.7225L63.923 11.6582L64.5651 11.594H65.2071L65.8492 11.5619L66.4913 11.594L67.1333 11.6262L68.4174 11.6904L69.6695 11.8188L72.2056 12.1077L73.4576 12.2361L74.7097 12.3324L77.2137 12.4929L78.4657 12.6213L79.0757 12.6856L79.7178 12.7498L80.3277 12.8461L80.9377 12.9745L81.5797 13.1029L82.2218 13.2634L82.8639 13.4239L83.4738 13.6165L84.1159 13.8413L84.7579 14.0981L85.4 14.387L86.0421 14.7081L86.6841 15.0612L87.3262 15.4464L88.6103 16.2169L89.2524 16.57L89.5734 16.7627L89.8623 16.9232L90.1513 17.0837L90.4723 17.2121L90.7612 17.3405L91.0502 17.4689L91.307 17.5331L91.5959 17.5973L91.8527 17.6615L92.1096 17.6936H92.3343L92.5911 17.6615L92.8158 17.5973L93.0406 17.5331L93.2653 17.4047L93.4579 17.2442L93.6505 17.0837L93.8431 16.8911L94.0036 16.6985L94.1963 16.4416L94.3568 16.2169L94.5173 15.928L94.6778 15.639L94.8383 15.3501L94.9989 15.0291L95.1273 14.7081L95.4162 14.0339L95.7051 13.3276L96.2509 11.9151L96.5398 11.2088L96.8287 10.5346L97.1176 9.86047L97.4387 9.21842L97.7276 8.60845L98.0807 8.03059L98.4018 7.42063L98.7549 6.87488L99.108 6.32913L99.4612 5.81547L99.8143 5.30183L100.167 4.78817L100.906 3.79298L101.644 2.82988L102.415 1.89891L103.153 1" stroke="#CECECE" stroke-opacity="0.2" stroke-width="2.08869" stroke-miterlimit="10"/>
<path d="M1.00024 75.447L3.69691 74.9013L5.04523 74.5803L6.39357 74.2913L7.7098 73.9703L9.02603 73.6171L10.3423 73.264L11.6264 72.8788L12.9105 72.4293L13.5526 72.2367L14.1625 71.9799L14.8046 71.7231L15.4146 71.4983L16.0245 71.2094L16.6345 70.9205L17.2123 70.6316L17.8223 70.3426L18.4001 70.0216L18.978 69.7006L19.5559 69.3474L20.1016 68.9943L20.6474 68.6412L21.2252 68.2559L21.7389 67.8386L22.2846 67.4534L22.7983 67.036L23.344 66.6187L23.8577 66.1692L24.3713 65.7198L24.8529 65.2703L25.3665 64.7888L25.8481 64.3393L26.2975 63.8257L26.7791 63.3442L27.2606 62.8305L27.7101 62.3169L28.1595 61.8032L29.0263 60.7438L29.8931 59.6523L30.7277 58.5287L31.5303 57.4051L32.3008 56.2494L33.0392 55.0615L33.7454 53.8737L34.4517 52.6538L35.0938 51.4339L35.7358 50.214L36.3779 48.994L37.6299 46.5221L38.272 45.3343L38.8819 44.1144L39.524 42.9266L40.2303 41.7708L40.9044 40.6151L41.2576 40.0373L41.6428 39.4915L41.9959 38.9458L42.3812 38.4321L42.7985 37.8864L43.1838 37.3406L43.6011 36.8591L44.0505 36.3454L44.4679 35.8639L44.9494 35.3823L45.3989 34.9008L45.8804 34.4513L46.3941 34.0019L46.9077 33.5845L47.4214 33.1351L47.935 32.7178L48.4808 32.3325L49.0586 31.9473L49.6044 31.562L50.1822 31.2089L50.7601 30.8558L51.3701 30.4705L51.98 30.1816L52.59 29.8606L53.1999 29.5396L53.842 29.2506L54.452 28.9617L55.1261 28.7049L55.7682 28.4801L56.4103 28.2233L57.0844 27.9986L57.7586 27.806L58.4328 27.6133L59.1069 27.4207L59.8132 27.2602L60.4874 27.0997L61.1936 26.9713L61.8999 26.8429L62.6062 26.7145L63.2803 26.6182L64.0187 26.554L64.725 26.4897L65.4312 26.4255L66.1375 26.3934L66.8759 26.3613H67.5822L68.2884 26.3934H69.0268L69.7331 26.4576L70.4393 26.5219L71.1456 26.586L71.884 26.6824L72.5902 26.7787L73.2965 26.9071L74.0028 27.0355L74.709 27.1639L75.3832 27.3565L76.0574 27.517L76.7637 27.7097L77.4378 27.9344L78.112 28.1591L78.754 28.3838L79.3961 28.6406L80.0703 28.9296L80.6802 29.2185L81.3223 29.5074L81.9323 29.8285L82.5422 30.1816L83.1522 30.5347L83.73 30.8879L84.3079 31.2731L84.8536 31.6905L85.3994 32.0757L85.913 32.5251L86.4267 32.9425L86.9403 33.424L87.4219 33.9056L87.9034 34.3871L88.3529 34.9008L88.8023 35.4144L89.2197 35.9281L89.6049 36.5059L89.9901 37.0517L90.3754 37.6616L90.7285 38.2395L91.0495 38.8494L91.3706 39.4594L91.6595 40.0694L91.9163 40.7114L92.2053 41.3535L92.43 42.0277L92.6547 42.6697L92.8794 43.3439L93.072 44.0181L93.2326 44.6922L93.3931 45.3985L93.5215 46.0727L93.6499 46.7789L93.7462 47.4852L93.8104 48.1594L93.8746 48.8656L93.9067 49.5719L93.9388 50.2461V50.9523V51.6586L93.9067 52.3649L93.8746 53.0391L93.8104 53.7132L93.7141 54.4195L93.6178 55.0615L93.4894 55.7357L93.361 56.4099L93.2004 57.0519L93.0399 57.694L92.8473 58.336L92.6547 58.9781L92.43 59.6202L92.2053 60.2301L91.9163 60.8722L91.6595 61.4501L91.4027 62.06L91.1138 62.67L90.8248 63.2799L90.4717 63.8578L90.1507 64.4677L89.8296 65.0456L89.4765 65.6234L89.1234 66.2013L88.3529 67.357L87.5824 68.4485L86.7477 69.5722L85.913 70.6958L85.0462 71.7552L84.1474 72.8467L83.2485 73.9061L82.3175 74.9976L81.3865 76.057L79.5245 78.1758L77.6625 80.2625L75.7684 82.3492L73.9065 84.4038L72.0124 86.4584L70.1504 88.4809L68.2563 90.4713L66.3943 92.4296L64.5324 94.3237L62.6704 96.2499L60.8405 98.0797L59.9095 99.0107L58.9785 99.9096L58.0796 100.809L57.1486 101.675L56.2818 102.542L55.3509 103.409L53.5531 105.11L51.7553 106.812L50.8564 107.679L49.9254 108.545L48.9944 109.444L48.0634 110.343L47.1003 111.306L46.1373 112.269L45.1742 113.265L44.6605 113.778L44.1469 114.292L43.6653 114.838L43.1517 115.383L42.638 115.929L42.0923 116.507L41.5786 117.117L41.0329 117.695L40.4871 118.305L39.9734 118.915L39.3956 119.557L38.8819 120.167L38.3683 120.809L38.1436 121.13L37.9189 121.419L37.7262 121.74L37.5336 122.029L37.341 122.318L37.1805 122.607L37.0521 122.863L36.9236 123.152L36.8273 123.409L36.7631 123.666L36.6989 123.891L36.6668 124.115V124.34L36.731 124.533L36.7952 124.725L36.8916 124.886L36.9879 125.046L37.1484 125.207L37.3089 125.367L37.5015 125.464L37.7262 125.592L37.9831 125.688L38.2399 125.785L38.4967 125.881L38.8177 125.945L39.1388 126.009L39.4598 126.074L39.8129 126.106L40.1661 126.17H40.5513L40.9365 126.202L41.3539 126.234H41.7712H42.1886L43.0232 126.202L43.9221 126.17L44.821 126.074L45.752 126.009L46.683 125.881L47.5819 125.785L48.4487 125.624L49.3476 125.496L50.1822 125.335L51.0169 125.175L51.8195 125.014L52.59 124.854L53.3926 124.661L54.1309 124.469L54.8693 124.276L55.6077 124.083L56.3139 123.891L56.9881 123.698L57.6944 123.473L58.3685 123.281L59.0106 123.088L59.6848 122.863L60.9368 122.446L62.1567 122.061L63.3766 121.676L64.5645 121.322L65.7202 121.001L66.8759 120.712L67.4216 120.552L67.9995 120.456L68.5773 120.327L69.1552 120.231L69.7331 120.135L70.3109 120.07L70.8888 120.038L71.4987 119.974L72.0766 119.942H72.6544H73.2644L73.8744 119.974L74.4843 120.006L75.0943 120.07L75.7042 120.135L76.3463 120.199L76.9884 120.295L77.6304 120.391L78.9146 120.616L80.1987 120.905L81.547 121.162L82.8953 121.451L84.2116 121.74L85.592 122.029L86.9724 122.35L88.3529 122.607L89.7333 122.863L91.1458 123.088L91.82 123.152L92.5263 123.249L93.2326 123.313L93.9388 123.377L94.6451 123.441L95.3514 123.473L96.0576 123.505H96.7639L97.4702 123.473L98.1764 123.441L98.8827 123.377L99.589 123.313L100.295 123.216L101.002 123.12L101.708 123.024L102.382 122.863L103.056 122.735L103.762 122.574L104.437 122.382L105.079 122.157L105.753 121.964L106.427 121.708L107.037 121.451L107.679 121.194L108.289 120.905L108.931 120.584L109.509 120.263L110.119 119.91L110.697 119.557L111.275 119.172L111.82 118.786L112.366 118.369L112.88 117.952L113.393 117.502L113.875 117.021L114.356 116.539L114.806 116.025L115.255 115.544L115.705 114.998L116.122 114.452L116.539 113.907L116.925 113.329L117.695 112.205L119.204 109.894L119.942 108.738L120.713 107.646L121.098 107.101L121.515 106.555L121.901 106.073L122.318 105.56L122.735 105.078L123.185 104.597L123.666 104.179L124.116 103.762L124.629 103.345L125.111 102.959L125.593 102.574L126.138 102.189L127.166 101.451L128.225 100.712L129.316 99.9417L129.862 99.5565L130.408 99.1713L130.954 98.7539L131.499 98.3045L132.013 97.855L132.559 97.3734L133.073 96.8919L133.618 96.3462L134.132 95.8004L134.613 95.2225L135.127 94.6126L135.609 93.9384L136.058 93.2643L136.508 92.558L136.925 91.8518L137.118 91.4986L137.278 91.1455L137.471 90.7923L137.599 90.4392L137.76 90.0861L137.888 89.7329L138.016 89.3798L138.113 89.0587L138.209 88.7056L138.273 88.3846L138.305 88.0956L138.337 87.7746V87.4857V87.1968V86.9078L138.273 86.6831L138.177 86.4263L138.081 86.2016L137.952 85.9769L137.824 85.7842L137.631 85.5916L137.439 85.4311L137.214 85.2706L136.989 85.1422L136.732 85.0459L136.443 84.9175L136.154 84.8212L135.866 84.7569L135.544 84.6927L135.223 84.6285L134.87 84.5964L134.517 84.5643L134.132 84.5322H133.747H133.361H132.976L132.174 84.5643L131.339 84.6606L130.536 84.7569L129.702 84.8853L128.899 85.0459L128.129 85.2064L127.39 85.399L126.652 85.5916L125.946 85.7842L125.271 85.9769L124.629 86.2016L123.955 86.3942L123.313 86.6189L122.061 87.0041L121.451 87.1968L120.809 87.3573L120.199 87.5178L119.589 87.6462L118.979 87.7746L118.337 87.8709L117.695 87.9352L117.053 87.9993H116.347L115.673 87.9673H115.319L114.966 87.903H114.613L114.228 87.8067L113.49 87.6783L113.104 87.6141L112.751 87.5178L112.398 87.4215L112.045 87.2931L111.692 87.1647L111.339 87.0363L111.018 86.8758L110.697 86.7152L110.408 86.5547L110.119 86.3621L109.862 86.2016L109.605 86.009L109.38 85.7842L109.188 85.5274L109.027 85.3027L108.867 85.078L108.738 84.8212L108.642 84.5322L108.578 84.2433L108.546 83.9544V83.6654V83.3444L108.578 83.0234L108.642 82.7344L108.706 82.4134L108.803 82.0924L108.899 81.7392L109.027 81.4182L109.188 81.0651L109.348 80.744L109.541 80.423L109.734 80.0699L109.958 79.7489L110.183 79.4278L110.408 79.1068L110.665 78.7858L110.921 78.4647L111.21 78.1758L111.467 77.8869L111.756 77.598L112.045 77.309L112.366 77.0201L112.655 76.7632L112.976 76.5064L113.297 76.2817L113.618 76.0891L113.939 75.8644L114.26 75.6717L114.581 75.4791L114.902 75.3186L115.223 75.1902L115.576 75.0297L115.897 74.9013L116.25 74.8049L116.572 74.7086L116.893 74.6123L117.246 74.5481L117.567 74.4518L118.241 74.3555L118.915 74.2592L119.621 74.2271H120.295H120.97L121.644 74.2913L122.35 74.3555L123.024 74.4197L124.405 74.6123L125.785 74.8371L127.101 75.0618L127.776 75.1581L128.45 75.2544L129.124 75.3186L129.766 75.3828L130.408 75.4149L131.05 75.447L131.724 75.4791L132.366 75.5112H133.65L134.902 75.4791L136.187 75.3828L137.471 75.2865L138.755 75.1581L140.039 74.9976L141.355 74.8371L142.671 74.6445L144.02 74.4518L145.4 74.2271L146.813 74.0345L148.257 73.8419L149.702 73.6171L150.472 73.4888L151.243 73.3925L152.013 73.3282L152.816 73.1998L154.389 73.0393L155.192 72.9751L155.962 72.9109L156.765 72.8467L157.503 72.8146L158.241 72.7825H158.98H159.654H159.975L160.296 72.8146H160.617L160.906 72.8467L161.195 72.8788L161.484 72.9109L161.741 72.9751L161.997 73.0393L162.254 73.0714L162.479 73.1356L162.672 73.1998L162.864 73.2961L163.057 73.3603L163.217 73.4566L163.378 73.5529L163.506 73.6814L163.635 73.7777L163.731 73.9061L163.827 74.0345L163.892 74.1629L163.988 74.2913L164.02 74.4518L164.052 74.5803L164.084 74.7408V74.9013V75.0939V75.2544L164.052 75.447L164.02 75.6397L163.956 75.8002L163.892 76.0249L163.795 76.2175L163.731 76.4101L163.635 76.6349L163.506 76.8595L163.41 77.0843L163.282 77.309L163.121 77.5337L162.993 77.7584L162.832 78.0153L162.479 78.4968L162.094 79.0105L161.676 79.5241L161.227 80.0699L160.745 80.6157L160.264 81.1614L159.718 81.7392L159.172 82.3171L158.595 82.895L157.985 83.5049L157.375 84.1149L156.733 84.7249L156.09 85.3348L155.416 85.9769L154.742 86.5868L153.33 87.8389L151.917 89.123L150.505 90.375L149.06 91.627L147.679 92.8469L146.973 93.4569L146.299 94.0668L145.625 94.6447L144.951 95.2225L144.309 95.8004L143.699 96.3462L143.089 96.924L142.479 97.4377L141.933 97.9513L141.387 98.465L140.874 98.9465L140.36 99.4602L139.846 99.9417L139.397 100.391L138.915 100.841L138.466 101.322L137.567 102.221L135.866 103.987L134.967 104.918L134.517 105.367L134.068 105.817L133.618 106.298L133.137 106.812L132.655 107.293L132.142 107.807L131.628 108.321L131.082 108.834L130.536 109.412L129.959 109.958L129.349 110.536L128.803 111.114L128.257 111.691L128 111.98L127.743 112.237L127.519 112.526L127.294 112.783L127.101 113.072L126.941 113.329L126.78 113.586L126.652 113.81L126.556 114.067L126.491 114.292V114.484L126.459 114.709L126.491 114.902L126.556 115.094L126.652 115.255L126.78 115.415L126.941 115.576L127.133 115.704L127.326 115.833L127.583 115.993L127.808 116.09L128.097 116.218L128.385 116.314L128.739 116.411L129.06 116.507L129.413 116.603L129.766 116.667L130.151 116.732L130.536 116.828L130.954 116.892L131.788 117.053L132.655 117.149L134.421 117.406L135.32 117.534L136.187 117.663L137.021 117.823L137.856 117.984L138.626 118.144L139.397 118.337L140.135 118.529L140.842 118.754L141.516 118.947L142.158 119.204L142.8 119.428L143.442 119.685L144.052 119.942L144.662 120.231L145.24 120.52L145.817 120.809L146.363 121.13L146.909 121.419L147.455 121.772L147.968 122.093L148.514 122.446L149.028 122.799L150.055 123.538L151.082 124.308L152.11 125.111L153.169 125.945L154.229 126.812L155.288 127.743L156.315 128.642L156.829 129.156L157.31 129.637L157.792 130.119L158.274 130.632L158.755 131.146L159.205 131.66L159.654 132.205L160.071 132.751L160.489 133.297L160.874 133.843L161.259 134.42L161.612 134.998L161.965 135.576L162.286 136.186L162.575 136.796L162.864 137.406L163.089 138.016L163.314 138.658L163.538 139.3L163.699 139.942L163.827 140.584L163.956 141.258L164.084 141.933L164.116 142.607L164.18 143.281L164.213 143.955V144.661L164.18 145.336L164.148 146.042L164.084 146.716L163.988 147.422L163.892 148.129L163.763 148.803L163.635 149.509L163.442 150.215L163.282 150.922L163.057 151.596L162.832 152.27L162.607 152.944L162.319 153.618L162.062 154.324L161.773 154.966L161.452 155.641L161.099 156.283L160.778 156.925L160.424 157.567L160.039 158.177L159.654 158.819L159.237 159.429L158.851 160.007L158.402 160.585L157.952 161.162L157.503 161.74L157.021 162.254L156.54 162.8L156.058 163.313L155.545 163.827L155.031 164.309L154.517 164.79L153.972 165.239L153.426 165.657L152.88 166.106L152.334 166.524L151.757 166.909L151.179 167.294L150.601 167.679L150.023 168.032L149.445 168.386L148.867 168.707L148.257 169.06L147.679 169.381L147.07 169.67L146.46 169.959L145.85 170.248L144.662 170.761L143.474 171.275L142.286 171.724L141.098 172.142L139.943 172.527L139.365 172.687L138.755 172.848L138.177 173.008L137.567 173.169L136.989 173.297L136.379 173.394L135.801 173.522L135.191 173.618L134.581 173.683L133.971 173.747L133.361 173.811L132.752 173.843L132.109 173.875L131.499 173.907H130.825H130.183L129.541 173.875L128.867 173.843L128.193 173.779L127.519 173.715L126.845 173.618L126.138 173.522L125.432 173.394L124.694 173.297L123.955 173.137L123.217 172.976L122.446 172.784L121.676 172.591L120.905 172.399L120.103 172.174L119.268 171.917L118.466 171.66L117.631 171.371L116.764 171.05L115.865 170.729L114.998 170.408L114.1 170.055L113.169 169.67L111.339 168.931L110.44 168.546L109.541 168.161L108.674 167.808L107.839 167.455L107.005 167.101L106.587 166.941L106.202 166.78L105.817 166.62L105.464 166.459L105.111 166.331L104.758 166.17L104.437 166.074L104.116 165.946L103.794 165.817L103.506 165.721L103.249 165.625L102.96 165.561L102.735 165.464L102.51 165.4L102.318 165.368L102.125 165.336L101.932 165.272H101.804H101.676H101.547L101.483 165.336L101.419 165.368L101.387 165.4L101.355 165.496L101.387 165.593L101.419 165.657L101.451 165.785L101.547 165.946L101.644 166.074L101.804 166.267L101.932 166.427L102.093 166.62L102.286 166.813L102.51 167.037L102.703 167.262L102.96 167.487L103.217 167.711L103.473 167.968L103.762 168.193L104.051 168.45L104.372 168.707L104.661 168.963L105.303 169.477L105.977 170.023L106.716 170.537L107.422 171.05L108.128 171.532L108.835 171.981L109.541 172.431L110.247 172.848L110.953 173.233L111.66 173.586L112.334 173.939L113.008 174.228L113.682 174.549L114.356 174.806L115.063 175.063L115.705 175.288L116.379 175.545L117.053 175.737L117.695 175.93L118.337 176.09L118.979 176.251L119.621 176.411L120.263 176.54L120.905 176.668L122.19 176.893L123.442 177.118L124.694 177.278L125.946 177.439L128.45 177.728L129.67 177.888L130.922 178.081L132.174 178.273L133.394 178.498L134.646 178.755L135.898 179.044L137.15 179.333L138.402 179.686L139.654 180.039L140.906 180.392L142.126 180.777L143.378 181.195L144.63 181.612L145.914 182.062L147.134 182.543L148.386 183.025L149.67 183.538L150.89 184.052L152.174 184.566L153.426 185.111L154.678 185.689L155.93 186.235L157.214 186.813L158.434 187.391L160.97 188.611L163.506 189.863L166.01 191.115L168.547 192.399L173.587 194.999" stroke="#CECECE" stroke-opacity="0.2" stroke-width="4.17737" stroke-miterlimit="10"/>
<path d="M1.00024 83.987L3.27956 83.377L5.59099 82.7671L7.90242 82.125L9.02603 81.804L10.1817 81.4187L11.3053 81.0656L12.429 80.7125L13.5526 80.2951L14.6441 79.9099L15.7677 79.4925L16.8592 79.0431L17.9507 78.5615L19.0422 78.0479L20.1016 77.5342L21.161 76.9885L22.2204 76.4106L23.2477 75.8007L24.275 75.1907L25.2702 74.5486L26.2654 73.8424L27.2606 73.1682L28.1916 72.4299L29.1547 71.6914L30.0857 70.921L30.9846 70.1184L31.8514 69.2837L32.686 68.449L33.5207 67.6144L34.3554 66.7155L35.1259 65.8166L35.8642 64.8856L36.6026 63.9225L37.3089 62.9594L38.0152 61.9642L38.6572 60.969L39.9734 58.9786L41.3218 56.9561L41.9638 55.993L42.6701 55.0299L43.3764 54.0989L44.1147 53.168L44.5 52.7185L44.8852 52.2691L45.2705 51.8196L45.6878 51.4023L46.1051 50.9849L46.5546 50.5997L46.9719 50.2145L47.4535 49.8292L47.9029 49.444L48.3845 49.0909L48.866 48.7377L49.3476 48.4167L49.8612 48.0957L50.3749 47.7746L50.8885 47.4857L51.4343 47.1968L51.98 46.9079L52.5258 46.6831L53.0715 46.4263L53.6173 46.2016L54.1951 45.9769L54.773 45.7521L55.3829 45.5916L55.9608 45.399L56.5708 45.2706L57.1486 45.1101L57.7586 44.9817L58.3685 44.8854L58.9785 44.7891L59.6206 44.6927L60.2305 44.6285L60.8405 44.5643H61.4825L62.0925 44.5322H62.7346L63.3766 44.5643L64.0187 44.5964L64.6286 44.6606L65.2707 44.7569L65.9128 44.8533L66.5548 44.9817L67.1969 45.078L67.839 45.2385L68.481 45.399L69.1231 45.6237L69.733 45.8164L70.343 46.0411L70.9851 46.2979L71.595 46.5547L72.1729 46.8115L72.7828 47.1005L73.3607 47.4215L73.9065 47.7425L74.4522 48.0636L74.9659 48.4167L75.4795 48.7698L75.961 49.1551L76.4426 49.5403L76.8599 49.9256L77.2773 50.3429L77.6946 50.7602L78.0478 51.1776L78.3688 51.627L78.6898 52.0443L78.9787 52.4938L79.2035 52.9432L79.3961 53.4248L79.5887 53.9063L79.7171 54.3879L79.8455 54.8694L79.9097 55.351L79.9418 55.8646V56.3462L79.9097 56.8598L79.8776 57.3735L79.7813 57.855L79.685 58.4008L79.5566 58.9144L79.3961 59.4281L79.2356 59.9738L79.0108 60.4875L78.7861 61.0011L78.5293 61.5469L78.2404 62.0605L77.9514 62.6063L77.6625 63.152L77.3094 63.6657L76.9563 64.2115L76.6031 64.7572L76.2179 65.303L75.8005 65.8166L75.3832 66.3624L74.9659 66.876L74.5164 67.4218L74.067 67.9354L73.6175 68.449L72.6544 69.5085L71.6592 70.5357L70.664 71.5631L69.6046 72.5262L68.5452 73.4893L67.4858 74.4523L66.4264 75.3833L65.3991 76.2822L64.3397 77.149L63.3124 77.9837L62.3172 78.7863L61.2899 79.5568L60.3268 80.2951L59.3316 81.0335L58.3685 81.7718L57.4054 82.446L56.4424 83.1523L55.5114 83.8265L53.6494 85.1427L51.8195 86.4589L49.9896 87.7751L48.1597 89.0914L47.2609 89.7655L46.362 90.4718L45.431 91.1781L44.5321 91.8843L43.6332 92.5906L42.7022 93.329L41.8033 94.0673L40.9044 94.8378L40.0056 95.6083L39.1067 96.3788L38.2078 97.1813L37.3089 97.9839L36.4421 98.7865L35.5753 99.6212L34.7085 100.424L33.8417 101.291L32.975 102.125L32.1403 102.992L31.3056 103.859L30.4709 104.758L29.6683 105.624L28.8337 106.523L28.0632 107.454L27.2606 108.353L26.4901 109.284L25.7197 110.215L24.9813 111.146L24.2429 112.109L23.5366 113.04L22.7983 114.035L22.1241 114.999L21.4499 115.994L20.7758 116.989L20.1337 117.984L19.4916 119.011L18.8817 120.007L18.3038 121.034L17.726 122.093L17.1802 123.121L16.6345 124.212L16.1208 125.272L15.6393 126.331L15.1577 127.422L14.6762 128.546L14.2588 129.638L13.8415 130.761L13.4563 131.885L13.071 133.073L12.75 134.196L12.429 135.352L12.14 136.54L11.8832 137.696L11.6585 138.883L11.4659 140.071L11.3053 141.291L11.1769 142.479L11.1127 143.699L11.0806 144.887V145.497V146.074V146.684L11.1127 147.294L11.1448 147.904L11.209 148.514L11.2732 149.092L11.3375 149.702L11.4338 150.312L11.498 150.922L11.6264 151.5L11.7548 152.11L11.8832 152.72L12.0437 153.298L12.2042 153.908L12.3648 154.518L12.5574 155.095L12.75 155.705L12.9747 156.283L13.1994 156.893L13.4563 157.471L13.7131 158.049L13.9699 158.627L14.2588 159.237L14.5799 159.815L14.8688 160.36L15.2219 160.938L15.5751 161.484L15.9282 162.062L16.2813 162.608L16.6666 163.121L17.0518 163.667L17.4692 164.148L17.8865 164.662L18.3038 165.144L18.7212 165.625L19.1706 166.075L19.6201 166.492L20.0695 166.909L20.5511 167.295L21.0005 167.68L21.5141 168.033L21.9957 168.354L22.4772 168.675L22.9909 168.932L23.5366 169.189L24.0182 169.413L24.5639 169.606L25.0776 169.799L25.6234 169.927L26.1691 170.055L26.7148 170.12L27.2606 170.184H27.8064H28.3521L28.93 170.152L29.4757 170.088L30.0536 169.991L30.6314 169.895L31.1772 169.767L31.755 169.606L32.3329 169.446L32.9108 169.285L33.4886 169.092L34.6764 168.707L35.8321 168.258L38.2078 167.391L39.3956 166.974L40.5834 166.556L41.1934 166.396L41.7712 166.203L42.3812 166.075L42.959 165.914L43.569 165.754L44.1468 165.657L44.7568 165.529L45.3347 165.433L45.9446 165.368L46.5225 165.304L47.1324 165.272L47.7103 165.24L48.3203 165.208L48.8981 165.24H49.476L50.0859 165.304L50.6638 165.368L51.2737 165.465L51.8516 165.593L52.4295 165.689L53.0073 165.882L53.5852 166.075L54.163 166.267L54.773 166.492L55.3187 166.749L55.8966 167.038L56.4424 167.327L56.9881 167.648L57.566 167.969L58.1117 168.322L58.6254 168.707L59.1711 169.092L59.6848 169.478L60.1663 169.895L60.68 170.312L61.1615 170.762L61.611 171.243L62.0604 171.725L62.5098 172.174L62.9272 172.688L63.3445 173.202L63.7298 173.715L64.115 174.229L64.4681 174.775L64.7892 175.32L65.1102 175.866L65.4312 176.412L65.6881 176.99L65.9449 177.535L66.1696 178.113L66.3943 178.659L66.5548 179.237L66.7154 179.815L66.8438 180.393L66.9401 180.971L67.0364 181.548L67.0685 182.126L67.1006 182.704V183.282L67.0685 183.86L67.0043 184.406L66.9401 184.983L66.8117 185.561L66.6832 186.107L66.5227 186.685L66.3622 187.231L66.1696 187.809L65.9449 188.354L65.7523 188.9L65.4954 189.478L65.2386 190.024L64.9818 190.569L64.436 191.693L63.8261 192.784L63.2482 193.908L62.6383 195" stroke="#CECECE" stroke-opacity="0.2" stroke-width="4.17737" stroke-miterlimit="10"/>
<path d="M1.00024 91.5308L4.85262 90.8245L6.74671 90.4714L8.64079 90.0862L9.60388 89.8614L10.5028 89.6688L11.4338 89.4441L12.3326 89.2194L13.2636 88.9625L14.1625 88.7057L15.0293 88.4489L15.9282 88.16L16.795 87.839L17.6297 87.55L18.4643 87.1968L19.2669 86.8758L20.0695 86.4906L20.8721 86.1054L21.6426 85.688L22.413 85.2707L23.1514 84.8212L23.8577 84.3718L24.596 83.8902L25.3023 83.3766L25.9765 82.895L26.6827 82.3493L27.3569 81.8035L27.999 81.2257L28.6731 80.6799L29.3152 80.0699L29.9573 79.46L30.5993 78.8501L31.2414 78.208L31.8514 77.5659L32.4934 76.8918L33.1034 76.2497L33.7454 75.5755L34.3554 74.8693L35.6395 73.4567L36.8915 72.0121L38.1757 70.5353L39.4919 69.0586L40.8081 67.5177L41.4823 66.7472L42.1886 65.9767L42.8948 65.1741L43.6011 64.4037L44.3395 63.6332L45.0778 62.8306L45.8162 62.028L46.5867 61.2575L47.3893 60.4871L48.1918 59.6845L48.9944 58.9461L49.8291 58.2077L50.2143 57.8546L50.6317 57.5336L51.049 57.2125L51.4664 56.8915L51.8837 56.6026L52.3331 56.3137L52.7505 56.0568L53.1678 55.8L53.5852 55.5753L54.0025 55.3827L54.4198 55.19L54.8693 55.0295L55.2866 54.869L55.704 54.7727L56.1534 54.6764L56.5708 54.6122L56.9881 54.5801H57.4054L57.8228 54.6122L58.2401 54.6443L58.6575 54.7406L59.1069 54.869L59.5242 55.0295L59.9095 55.2222L60.3268 55.4469L60.7442 55.7037L61.1294 55.9605L61.5146 56.2815L61.8678 56.6026L62.253 56.9557L62.574 57.3088L62.8951 57.6941L63.2161 58.1114L63.505 58.5288L63.794 58.9461L64.0187 59.3634L64.2755 59.8129L64.436 60.2302L64.6286 60.6797L64.7571 61.1612L64.8855 61.6107L64.9818 62.028L65.0139 62.4774L65.046 62.9269L65.0139 63.3442L64.9818 63.7937L64.9497 64.2431L64.8534 64.6605L64.7571 65.0778L64.6286 65.4951L64.4681 65.9446L64.3076 66.3619L64.115 66.7793L63.8903 67.1966L63.6655 67.5818L63.4087 67.9992L63.1519 68.4165L62.863 68.8018L62.5419 69.2191L62.253 69.6043L61.932 69.9896L61.5467 70.3748L61.1936 70.7601L60.8405 71.1453L60.4873 71.5306L60.07 71.8837L59.2674 72.622L58.4648 73.3283L57.6302 74.0346L56.7634 74.7087L55.8966 75.3508L55.0298 76.025L54.163 76.6349L53.2962 77.2128L52.4616 77.8227L51.6269 78.3685L50.7922 78.9142L49.9575 79.46L49.1228 79.9736L48.3203 80.4873L47.4856 80.9688L46.683 81.4504L45.8804 81.9319L44.2432 82.863L42.6701 83.7297L41.0971 84.6286L37.9509 86.3301L36.3779 87.229L34.8048 88.0957L33.2318 89.0268L31.6908 89.9577L30.1178 90.9208L29.3152 91.4345L28.5447 91.9481L27.7743 92.4618L27.0038 93.0075L26.2333 93.5212L25.4628 94.0991L24.7245 94.6769L23.954 95.2548L23.2477 95.8326L22.5093 96.4747L21.8031 97.0846L21.0968 97.7267L20.3905 98.3688L19.7164 99.0108L19.0422 99.685L18.4001 100.391L17.7581 101.098L17.1481 101.836L16.5382 102.542L15.9603 103.313L15.3824 104.051L14.8367 104.821L14.2909 105.624L13.7452 106.395L13.2636 107.197L12.75 108.032L12.2684 108.834L11.819 109.669L11.4017 110.536L10.9522 111.371L10.567 112.237L10.1496 113.104L9.79651 113.971L9.44337 114.838L9.09023 115.704L8.76921 116.603L8.44817 117.502L8.19135 118.401L7.90242 119.3L7.64559 120.199L7.42087 121.098L7.19615 122.029L7.00353 122.928L6.81091 123.827L6.65039 124.758L6.48988 125.656L6.36147 126.587L6.23306 127.486L6.10464 128.417L6.00834 129.348L5.81571 131.21L5.6873 133.072L5.55889 134.934L5.46258 136.796L5.39837 138.69L5.33416 140.584L5.23786 144.34L5.14155 148.161L5.04523 150.055L4.98104 151.949L4.85262 153.843L4.66 155.769L4.30686 159.557L4.14635 161.451L3.98584 163.345L3.92163 164.277L3.85742 165.207V166.138L3.82532 167.069V168L3.85742 168.899L3.88953 169.83L3.95374 170.761L4.05004 171.66L4.21056 172.559L4.33897 173.458L4.53158 174.357L4.72421 175.256L4.94893 176.155L5.20576 177.021L5.46258 177.888L5.78362 178.787L6.07254 179.654L6.42567 180.521L6.7788 181.387L7.13194 182.254L7.51717 183.121L7.90242 183.988L8.31975 184.822L8.7371 185.689L9.15444 186.556L10.0854 188.258L11.0164 189.959L11.9795 191.628L13.9378 194.999" stroke="#CECECE" stroke-opacity="0.2" stroke-width="2.08869" stroke-miterlimit="10"/>
<path d="M1.00024 97.9835L2.6375 97.0204L3.44008 96.5389L4.24266 96.0895L5.04523 95.64L5.81571 95.2227L6.55408 94.8053L6.93932 94.6448L7.29246 94.4522L7.64559 94.2596L7.99873 94.0991L8.31975 93.9385L8.64079 93.8101L8.96182 93.6496L9.25075 93.5212L9.57179 93.4249L9.8607 93.2965L10.1175 93.2002L10.3744 93.136L10.6312 93.0718L10.8559 93.0075L11.0806 92.9754L11.3053 92.9434H11.498H11.6906L11.8511 92.9754L12.0116 93.0075L12.14 93.0718L12.2363 93.136L12.3648 93.2323L12.429 93.3286L12.5253 93.4891L12.5574 93.6175L12.5895 93.778V93.9706V94.1632V94.388V94.6127L12.5253 94.8374L12.4611 95.1263L12.3969 95.3832L12.3326 95.6721L12.2363 95.9611L12.14 96.25L12.0437 96.571L11.9153 96.892L11.7869 97.2131L11.6585 97.5662L11.498 97.9194L11.209 98.6256L10.888 99.3319L10.5349 100.102L10.1817 100.841L9.44337 102.382L9.05813 103.12L8.705 103.858L8.35186 104.565L7.99873 105.271L7.6777 105.977L7.32457 106.683L7.00353 107.326L6.7146 107.968L6.39357 108.642L6.10464 109.252L5.81571 109.894L5.52679 110.504L5.23786 111.082L4.94893 111.692L4.40318 112.847L3.88953 113.971L3.37588 115.062L2.89433 116.122L2.41278 117.181L1.93124 118.209L1.00024 120.295" stroke="#CECECE" stroke-opacity="0.2" stroke-width="2.08869" stroke-miterlimit="10"/>
<path d="M23.0877 194.999L21.1936 192.784L20.2627 191.661L19.3959 190.537L18.9464 189.959L18.5291 189.413L18.1117 188.836L17.7265 188.258L17.3413 187.68L16.956 187.102L16.6029 186.524L16.2819 185.946L15.9608 185.368L15.6719 184.758L15.383 184.181L15.1262 183.539L14.9014 182.961L14.6767 182.319L14.5162 181.677L14.3236 181.002L14.1631 180.328L14.0025 179.59L13.8741 178.851L13.8099 178.466L13.7457 178.049L13.6494 177.214L13.5531 176.38L13.4568 175.545L13.4247 175.128V174.71V174.325V173.94V173.587L13.4568 173.233L13.4889 172.88L13.5531 172.591L13.6173 172.335L13.6815 172.078L13.7457 171.853L13.8741 171.692L14.0025 171.564L14.131 171.436L14.2915 171.371L14.452 171.339H14.6446L14.8372 171.371L15.0298 171.404L15.2546 171.5L15.5114 171.596L15.7361 171.757L16.025 171.885L16.2819 172.078L16.5708 172.27L16.8597 172.495L17.1486 172.688L17.4697 172.945L17.7907 173.201L18.0796 173.458L18.7538 174.036L19.4601 174.582L20.1663 175.192L20.8726 175.77L21.611 176.315L22.3494 176.893L22.7025 177.118L23.0877 177.375L23.4409 177.599L23.794 177.824L24.1792 178.017L24.5324 178.209L24.8855 178.37L25.2386 178.498L25.5918 178.627L25.9449 178.723L26.298 178.819L26.6512 178.916L27.0043 178.98L27.3253 179.012L27.6785 179.044H27.9995H28.3526H28.6737L29.0268 179.012H29.3478L29.701 178.948L30.022 178.884L30.6962 178.755L31.3703 178.563L32.0445 178.338L32.7187 178.113L33.3928 177.856L34.067 177.567L34.7412 177.278L35.4474 176.957L36.1537 176.668L36.86 176.315L37.5984 176.026L38.3046 175.705L39.0751 175.416L39.8135 175.128L40.5839 174.871L41.3544 174.614L42.1249 174.389L42.8954 174.164L43.6658 174.004L44.4684 173.843L45.2068 173.683L45.9773 173.619L46.7156 173.522L47.454 173.49H47.8072H48.1924L48.5455 173.522L48.8665 173.554L49.2197 173.587L49.5728 173.651L49.8938 173.683L50.2149 173.747L50.5359 173.843L50.8569 173.94L51.178 174.036L51.4669 174.164L51.7558 174.293L52.0448 174.421L52.3337 174.582L52.6226 174.774L52.8794 174.935L53.1363 175.128L53.3931 175.352L53.6178 175.577L53.8425 175.802L54.0673 176.059L54.292 176.315L54.4846 176.604L54.6772 176.893L54.8377 177.182L55.0304 177.503L55.1588 177.824L55.3193 178.145L55.4798 178.498L55.5761 178.819L55.7045 179.173L55.8329 179.526L55.9292 179.879L56.0255 180.264L56.0898 180.617L56.1861 181.002L56.2503 181.356L56.2824 181.741L56.3145 182.126L56.3466 182.511V182.896L56.3787 183.282V183.667L56.3466 184.02L56.3145 184.405L56.2824 184.791L56.2503 185.144L56.1861 185.529L56.1219 185.882L56.0255 186.235L55.9292 186.588L55.8329 186.941L55.7366 187.262L55.6082 187.584L55.4798 187.905L55.3193 188.226L55.1588 188.547L54.8377 189.157L54.4525 189.767L54.0673 190.344L53.6499 190.89L53.2005 191.436L52.751 191.95L52.2374 192.495L51.7558 193.009L51.2422 193.49L50.7285 194.004L49.6691 194.999" stroke="#CECECE" stroke-opacity="0.2" stroke-width="2.08869" stroke-miterlimit="10"/>
<path d="M28.1922 194.999L27.5501 193.972L27.2612 193.459L26.9722 192.913L26.6833 192.367L26.4265 191.821L26.2018 191.243L26.0091 190.698L25.9449 190.377L25.8807 190.088L25.8165 189.799L25.7523 189.478L25.7202 189.189L25.6881 188.836V188.547V188.226V187.905V187.584L25.7202 187.263L25.7844 186.942L25.8165 186.653L25.8807 186.332L25.9449 186.043L26.0412 185.754L26.1376 185.433L26.2339 185.176L26.3623 184.887L26.5228 184.63L26.6512 184.373L26.8117 184.149L26.9722 183.924L27.1328 183.699L27.3254 183.507L27.518 183.282L27.7427 183.121L27.9353 182.961L28.1601 182.8L28.3848 182.64L28.6416 182.511L28.8984 182.383L29.1553 182.254L29.4121 182.158L29.6689 182.062L29.9578 181.998L30.2468 181.901L30.5357 181.837L30.8246 181.805L31.1456 181.741L31.7556 181.677L32.3977 181.645H33.0718L33.746 181.677L34.4202 181.741L35.1264 181.805L35.8327 181.933L36.539 182.062L37.2452 182.222L37.9515 182.415L38.6578 182.576L39.3319 182.8L40.0382 183.025L40.6803 183.282L41.0334 183.41L41.3223 183.539L41.6113 183.699L41.8681 183.86L42.1249 183.988L42.3496 184.181L42.5423 184.341L42.7028 184.534L42.8633 184.726L42.9596 184.951L43.0238 185.176L43.0559 185.433L43.088 185.657L43.0559 185.914L43.0238 186.203L42.9596 186.46L42.8954 186.749L42.767 187.006L42.6707 187.327L42.5423 187.616L42.2533 188.226L41.9644 188.836L41.7076 189.478L41.4507 190.12L41.3223 190.441L41.1939 190.762L41.1297 191.083L41.0334 191.404L41.0013 191.693L40.9371 192.014V192.335L40.905 192.624L40.9371 193.234L40.9692 193.844L41.0334 194.422L41.0976 194.999" stroke="#CECECE" stroke-opacity="0.2" stroke-width="2.08869" stroke-miterlimit="10"/>
<path d="M73.714 194.999L74.6771 193.715L75.6402 192.431L76.0896 191.789L76.5712 191.147L76.9885 190.473L77.438 189.831L77.8232 189.189L78.2085 188.546L78.5937 187.904L78.9147 187.262L79.2358 186.62L79.4926 185.946L79.7494 185.304L79.9741 184.662L80.1667 184.02L80.2952 183.378L80.3273 183.057L80.3915 182.704L80.4236 182.383V182.062L80.4557 181.741V181.42L80.4236 181.099V180.778L80.3594 180.456L80.3273 180.103L80.2631 179.782L80.1989 179.461L80.0383 178.819L79.8136 178.177L79.5568 177.503L79.3 176.861L78.9789 176.219L78.6258 175.577L78.2406 174.935L77.8874 174.293L77.4701 173.683L77.0206 173.041L76.5712 172.431L76.0896 171.789L75.6081 171.179L75.1266 170.569L74.0993 169.381L73.072 168.225L72.0447 167.069L71.0174 165.978L69.9901 164.886L68.9628 163.859L68.417 163.345L67.9034 162.864L67.3576 162.35L66.8439 161.901L66.2982 161.451L65.7524 161.002L65.1746 160.553L64.6288 160.135L64.051 159.718L63.4731 159.301L62.8953 158.915L62.2853 158.53L61.6753 158.177L61.0654 157.824L60.4233 157.503L59.7813 157.182L59.1071 156.893L58.465 156.604L57.7588 156.315L57.0846 156.058L56.4104 155.833L55.7042 155.577L54.9979 155.384L54.2916 155.191L53.5854 155.031L52.847 154.87L52.1086 154.742L51.3702 154.646L50.6319 154.549L49.8935 154.453L49.1551 154.389L48.3846 154.357H47.6463H46.9079L46.1374 154.389L45.3991 154.453L44.6607 154.549L43.8902 154.646L43.1518 154.742L42.4135 154.902L41.6751 155.063L40.9367 155.288L40.1983 155.512L39.46 155.769L38.7216 156.026L38.0153 156.347L37.3091 156.668L36.5707 157.021L35.1903 157.727L34.5161 158.113L33.8098 158.434L33.4567 158.562L33.1357 158.723L32.8146 158.851L32.4615 158.947L32.1405 159.044L31.8194 159.14L31.4984 159.204L31.1774 159.236L30.8242 159.268H30.5032L30.1822 159.236L29.8611 159.172L29.5722 159.108L29.2512 159.012L28.9302 158.851L28.6091 158.723L28.3202 158.562L28.0313 158.37L27.7423 158.145L27.4534 157.952L27.1324 157.695L26.8756 157.439L26.6187 157.182L26.3298 156.893L26.073 156.604L25.8161 156.283L25.5593 155.962L25.3346 155.641L25.1099 155.288L24.8851 154.934L24.6925 154.613L24.4678 154.26L24.3073 153.875L24.1147 153.522L23.9542 153.137L23.7936 152.784L23.6331 152.43L23.5047 152.045L23.3763 151.66L23.2479 151.307L23.1516 150.922L23.0553 150.536L22.959 150.151L22.8948 149.766L22.7985 149.413L22.7663 149.028L22.7021 148.642L22.67 148.289L22.6379 147.904V147.519V147.133V146.78L22.67 146.427V146.074L22.7342 145.721L22.7663 145.368L22.8306 145.015L22.8948 144.694L22.9911 144.34L23.0874 144.019L23.1837 143.698L23.28 143.377L23.4405 143.056L23.5689 142.767L23.6973 142.478L23.8578 142.19L24.0184 141.901L24.211 141.644L24.4036 141.387L24.5962 141.13L24.821 140.873L25.0457 140.616L25.2704 140.392L25.4951 140.167L25.7519 139.942L25.9767 139.718L26.5224 139.3L27.0682 138.915L27.6781 138.562L28.2881 138.209L28.9622 137.888L29.6043 137.599L30.3106 137.31L31.0168 137.085L31.7552 136.86L32.4936 136.636L33.2641 136.443L34.0666 136.25L34.8371 136.09L35.6397 135.962L36.4744 135.801L37.277 135.705L38.1116 135.608L38.9142 135.512L39.7489 135.448L40.5836 135.384L41.4183 135.352L42.2529 135.287L43.0555 135.255H43.8581L44.6607 135.223H45.4633H46.2658H47.0363L48.5452 135.255L50.0219 135.319L51.4986 135.384L52.9433 135.448L54.3558 135.544L55.7684 135.641L58.5292 135.833L59.9097 135.929L61.2901 135.994L62.7026 136.026L64.0831 136.058H65.4956H66.9082H68.3207L69.7332 136.026L71.1779 135.962L72.6225 135.865L74.0671 135.769L75.5118 135.673L76.9564 135.576L78.4011 135.448L81.2904 135.159L84.2117 134.838L87.101 134.485L90.0224 134.132L92.8796 133.746L95.7368 133.329L98.5939 132.944L101.419 132.527L104.276 132.077L107.101 131.595L109.926 131.082L111.339 130.825L112.784 130.536L114.196 130.247L115.609 129.926L117.053 129.637L118.498 129.284L121.387 128.61L122.832 128.289L124.276 128L124.983 127.872L125.721 127.743L126.427 127.647L127.166 127.583L127.872 127.486L128.578 127.422L129.285 127.39L129.991 127.358H130.697L131.403 127.39L132.078 127.422L132.784 127.518L133.458 127.615L134.132 127.743L134.806 127.872L135.48 128.032L136.155 128.225L136.829 128.417L137.503 128.642L138.177 128.899L138.819 129.156L139.493 129.445L140.168 129.734L140.81 130.055L141.452 130.343L142.126 130.697L142.8 131.05L143.442 131.403L144.758 132.141L146.074 132.944L147.391 133.714L148.707 134.549L149.349 134.966L150.023 135.384L150.633 135.801L151.211 136.283L151.789 136.732L152.046 136.989L152.302 137.214L152.559 137.47L152.784 137.727L153.041 137.984L153.233 138.241L153.458 138.498L153.619 138.787L153.811 139.076L153.972 139.364L154.1 139.653L154.229 139.942L154.357 140.263L154.453 140.584L154.55 140.905L154.582 141.226L154.678 141.547L154.71 141.868L154.742 142.222V142.575V142.896V143.281L154.71 143.634L154.678 143.987L154.646 144.34L154.582 144.694L154.518 145.047L154.453 145.432L154.261 146.138L154.036 146.877L153.779 147.615L153.49 148.353L153.137 149.092L152.784 149.83L152.399 150.568L151.981 151.275L151.564 151.981L151.083 152.655L150.601 153.329L150.119 153.971L149.606 154.613L149.092 155.223L148.546 155.801L148.001 156.347L147.455 156.893L146.877 157.406L146.299 157.888L145.721 158.37L145.143 158.787L144.534 159.204L143.924 159.622L143.282 159.975L142.672 160.328L142.029 160.649L141.387 160.938L140.745 161.227L140.103 161.484L139.429 161.708L138.755 161.933L138.081 162.126L137.407 162.318L136.732 162.479L136.026 162.607L135.352 162.703L134.646 162.8L133.939 162.896L133.233 162.928L132.527 162.992H131.821H131.114H130.376L129.67 162.928L128.931 162.896L128.225 162.8L127.487 162.703L126.78 162.607L126.042 162.479L125.336 162.318L124.597 162.19L123.891 161.997L123.153 161.805L122.414 161.58L121.708 161.355L121.002 161.13L120.264 160.874L119.557 160.585L118.851 160.328L118.145 160.007L117.406 159.686L116.732 159.365L116.026 159.012L115.32 158.658L114.646 158.273L113.939 157.888L113.265 157.471L111.917 156.668L110.601 155.833L109.926 155.448L109.252 155.031L108.61 154.678L107.936 154.325L107.294 153.971L106.62 153.65L105.978 153.361L105.336 153.105L104.661 152.88L104.019 152.687L103.698 152.623L103.377 152.559L103.024 152.495L102.703 152.463L102.382 152.43H102.061H101.74H101.419H101.066L100.745 152.463L100.424 152.527L100.103 152.591L99.7497 152.687L99.4286 152.751L99.1076 152.88L98.7866 152.976L98.4655 153.137L98.1445 153.265L97.8235 153.426L97.5024 153.586L97.1814 153.747L96.8604 153.939L96.5393 154.132L96.2504 154.357L95.9615 154.581L95.6405 154.806L95.3515 155.031L95.0626 155.288L94.7737 155.544L94.4847 155.833L94.1958 156.09L93.939 156.379L93.4253 156.989L92.9117 157.631L92.4623 158.273L92.0128 158.979L91.5955 159.686L91.4028 160.039L91.2102 160.424L90.8571 161.195L90.5361 161.965L90.2792 162.768L90.0224 163.57L89.9261 163.988L89.8298 164.373L89.7656 164.79L89.6693 165.207L89.6372 165.593L89.573 166.01L89.5409 166.395L89.5088 166.813V167.198V167.583V167.968L89.5409 168.354L89.573 168.707L89.6372 169.092L89.6693 169.445L89.7656 169.798L89.8619 170.151L89.9582 170.472L90.0866 170.793L90.1829 171.114L90.3434 171.436L90.504 171.724L90.6645 172.013L90.8571 172.302L91.0818 172.559L91.2744 172.816L91.5313 173.041L91.7881 173.265L92.0449 173.49L92.3338 173.683L92.5907 173.875L92.9117 174.068L93.2006 174.228L93.5217 174.389L94.1958 174.71L95.5442 175.32L96.2183 175.609L96.8925 175.93L97.5666 176.315L98.1766 176.7L98.7866 177.086L99.3644 177.503L99.9102 177.985L100.456 178.434L101.002 178.948L101.515 179.429L103.634 181.42L104.148 181.901L104.694 182.383L105.239 182.832L105.785 183.282L106.363 183.731L106.941 184.18L107.519 184.598L108.129 184.983L108.706 185.4L109.349 185.786L109.926 186.171L110.568 186.524L111.82 187.23L113.105 187.937L114.389 188.579L115.705 189.221L117.053 189.863L118.369 190.441L121.034 191.628L123.699 192.752L128.996 194.999" stroke="#CECECE" stroke-opacity="0.2" stroke-width="4.17737" stroke-miterlimit="10"/>
<path d="M141.644 195L139.782 194.165L137.92 193.363L136.989 192.977L136.026 192.592L135.127 192.239L134.196 191.886L133.265 191.565L132.334 191.244L131.436 190.987L130.505 190.73L129.574 190.441L128.643 190.152L128.193 190.024L127.712 189.863L127.262 189.671L126.781 189.478L126.331 189.253L125.85 189.029L125.368 188.804L124.886 188.515L124.405 188.194L123.923 187.873L123.442 187.52L122.96 187.135L122.511 186.749L122.061 186.364L121.612 185.947L121.195 185.529L120.809 185.112L120.424 184.727L120.103 184.342L119.975 184.149L119.814 183.956L119.718 183.764L119.589 183.603L119.461 183.443L119.365 183.25L119.268 183.122L119.204 182.961L119.14 182.833L119.108 182.672L119.076 182.544L119.044 182.447V182.351L119.076 182.255V182.159L119.14 182.062L119.172 182.03L119.268 181.966L119.333 181.902L119.429 181.838L119.525 181.805L119.654 181.773H119.75L119.91 181.741H120.039H120.199H120.392L120.553 181.773H120.745L120.938 181.805L121.162 181.838L121.355 181.902L121.837 181.998L122.318 182.094L122.832 182.255L123.378 182.415L123.955 182.576L124.533 182.801L125.143 182.993L125.785 183.218L126.427 183.443L127.069 183.667L127.744 183.924L129.124 184.47L131.853 185.561L133.201 186.107L133.843 186.364L134.485 186.621L135.127 186.91L135.737 187.135L136.347 187.391L136.957 187.648L137.535 187.873L138.113 188.13L138.659 188.354L139.204 188.579L139.75 188.804L140.296 189.029L141.323 189.446L142.318 189.863L143.282 190.281L144.245 190.666L145.144 191.051L146.01 191.404L146.877 191.757L147.712 192.111L148.514 192.464L149.317 192.785L150.12 193.106L150.858 193.459L151.628 193.78L153.105 194.39L154.582 195" stroke="#CECECE" stroke-opacity="0.2" stroke-width="2.08869" stroke-miterlimit="10"/>
<path d="M122.382 1L121.226 1.83469L120.071 2.70149L119.525 3.11882L118.979 3.56826L118.433 4.0177L117.888 4.46714L117.406 4.91659L116.892 5.39814L116.411 5.84758L115.929 6.36124L115.512 6.87488L115.095 7.35643L114.709 7.90218L114.356 8.44793L114.003 8.9937L113.714 9.57155L113.425 10.1815L113.169 10.7594L112.944 11.4014L112.719 12.0114L112.526 12.6535L112.366 13.3276L112.205 13.9697L112.077 14.6438L111.949 15.318L111.852 15.9922L111.756 16.6985L111.692 17.4047L111.628 18.0789L111.563 18.8172L111.467 20.2298L111.371 21.6744L111.242 24.5637L111.178 26.0083L111.082 27.4209L110.953 28.8655L110.825 30.246L110.664 31.6264L110.472 33.0068L110.279 34.3873L110.055 35.7356L109.798 37.0839L109.541 38.4323L109.252 39.7485L108.963 41.0968L108.642 42.413L108.289 43.7293L107.968 45.0455L107.583 46.3617L107.197 47.6459L106.812 48.9621L106.395 50.2783L105.977 51.5945L105.528 52.8787L105.079 54.1949L104.597 55.5111L104.115 56.7953L103.602 58.0794L103.056 59.3635L102.51 60.6155L101.9 61.8996L101.322 63.1196L100.648 64.3395L100.006 65.5594L99.3 66.7472L98.5616 67.9029L98.2085 68.4808L97.8232 69.0587L97.4059 69.6365L97.0206 70.1823L96.6033 70.728L96.186 71.2738L95.7365 71.8195L95.2871 72.3332L94.8376 72.8468L94.3882 73.3605L93.4251 74.3878L92.462 75.3508L91.4668 76.3139L90.4395 77.277L88.3849 79.139L86.3303 81.001L85.3351 81.932L84.3399 82.8951L83.3768 83.8261L82.4458 84.8213L81.9964 85.3028L81.579 85.8165L81.1296 86.298L80.7122 86.8438L80.327 87.3574L79.9097 87.9032L79.1392 88.9626L78.4008 90.022L77.6625 91.1135L76.2499 93.3286L75.5115 94.4522L74.7732 95.5437L73.9706 96.6352L73.5854 97.181L73.168 97.7267L72.7507 98.2725L72.3333 98.8183L71.8839 99.3319L71.4344 99.8455L70.9529 100.359L70.4393 100.873L69.9256 101.386L69.412 101.868L68.8662 102.35L68.3204 102.831L67.7105 103.313L67.1005 103.762L66.4906 104.212L65.8164 104.661L65.1101 105.11L64.4039 105.528L63.6655 105.913L62.9271 106.33L62.1566 106.716L61.3862 107.069L60.6478 107.454L59.8773 107.807L59.171 108.128L58.4648 108.481L57.7585 108.802L57.4375 108.963L57.1164 109.091L56.8275 109.252L56.5386 109.412L56.2497 109.573L55.9607 109.733L55.736 109.862L55.4792 109.99L55.2545 110.151L55.0618 110.279L54.8692 110.44L54.7087 110.568L54.5482 110.696L54.4198 110.825L54.3235 110.953L54.2272 111.082L54.163 111.21L54.0988 111.338V111.467V111.595L54.1309 111.724L54.163 111.82L54.2272 111.948L54.3235 112.077L54.4198 112.173L54.5161 112.269L54.6766 112.398L54.805 112.494L54.9976 112.59L55.1903 112.719L55.3829 112.815L55.6076 112.912L55.8644 113.008L56.0891 113.104L56.346 113.233L56.6349 113.297L56.9559 113.393L57.2449 113.489L57.5659 113.586L57.8869 113.682L58.2401 113.778L58.5932 113.843L58.9784 113.939L59.3316 114.035L60.102 114.196L60.9046 114.356L61.7714 114.485L62.6382 114.645L63.5371 114.774L64.4681 114.902L65.3991 115.03L66.33 115.159L67.2931 115.287L69.2193 115.512L71.1134 115.704L72.0765 115.801L73.0075 115.897L73.9064 115.961L74.8053 116.026L75.6721 116.122L76.5067 116.186L77.3093 116.25L78.1119 116.314L78.8824 116.347L79.6529 116.379L80.3912 116.411L81.0975 116.443L81.8038 116.475H82.51H83.1521H83.8263H84.4683L85.1104 116.443L85.7524 116.379L86.3624 116.347L86.9724 116.282L87.5823 116.218L88.1923 116.122L88.8022 116.026L89.3801 115.897L89.99 115.769L90.6 115.64L91.21 115.48L91.8199 115.287L92.4299 115.127L93.0399 114.902L93.6498 114.709L94.2919 114.485L94.9018 114.26L96.1539 113.746L97.4059 113.233L98.69 112.687L99.9741 112.109L101.29 111.531L102.607 110.921L103.955 110.311L105.335 109.733L106.716 109.123L108.096 108.513L108.77 108.192L109.445 107.871L110.119 107.518L110.761 107.165L111.371 106.812L112.013 106.459L112.591 106.041L113.169 105.656L113.714 105.207L114.26 104.757L114.742 104.276L115.223 103.794L115.448 103.537L115.64 103.281L115.865 102.992L116.026 102.735L116.218 102.446L116.379 102.157L116.571 101.868L116.7 101.547L116.86 101.226L116.989 100.905L117.117 100.584L117.214 100.231L117.31 99.8777L117.406 99.5245L117.47 99.1714L117.535 98.7861L117.567 98.4009L117.599 98.0157L117.631 97.6304V97.2773L117.599 96.8921L117.567 96.5389L117.502 96.2179L117.406 95.8648L117.31 95.5758L117.149 95.319L117.085 95.1906L116.989 95.0622L116.925 94.9659L116.796 94.8375L116.604 94.6769L116.347 94.5164L116.09 94.388L115.801 94.2917L115.512 94.2275L115.159 94.1633L114.838 94.1312L114.485 94.0991L114.1 94.067H113.714L113.329 94.0991H112.944L112.141 94.1633L111.274 94.1954L110.44 94.2275H109.605H108.738L107.936 94.1954L107.101 94.1312L106.298 94.0349L105.496 93.9386L104.693 93.8101L103.923 93.6497L103.152 93.4891L102.446 93.2965L101.74 93.0718L101.066 92.8149L100.391 92.526L99.7494 92.2371L99.4605 92.0766L99.1715 91.9161L98.8826 91.7555L98.6258 91.5629L98.3369 91.3703L98.0801 91.2098L97.8553 90.9851L97.6306 90.7925L97.3738 90.5677L97.1812 90.3751L96.9564 90.1504L96.7638 89.9257L96.5712 89.6689L96.4107 89.412L96.2502 89.1873L96.1218 88.9305L95.9933 88.6416L95.8649 88.3848L95.7365 88.0958L95.6723 87.8069L95.576 87.518L95.5118 87.229L95.4476 86.9401L95.3834 86.6191V86.298L95.3513 85.977V85.656V85.3349V84.9818L95.3834 84.6608V84.3397L95.4476 83.9866L95.576 83.3124L95.7365 82.574L95.897 81.8999L96.1539 81.1936L96.4107 80.4874L96.6996 79.7811L97.0206 79.0748L97.3417 78.4007L97.7269 77.6944L98.1442 77.0202L98.5616 76.3782L99.011 75.7361L99.4926 75.0941L99.9741 74.5162L100.488 73.9383L101.034 73.3926L101.547 72.8789L102.093 72.3974L102.671 71.9479L103.249 71.5306L103.827 71.1453L104.404 70.7922L105.014 70.4391L105.624 70.1501L106.234 69.8612L106.876 69.6365L107.486 69.3797L108.16 69.187L108.802 68.9944L109.477 68.8339L110.151 68.6734L110.825 68.5129L111.499 68.4166L112.205 68.3203L112.88 68.224L113.586 68.1276L114.292 68.0635L115.737 67.935L117.181 67.8387L118.626 67.7745L120.103 67.7103L123.088 67.5498L124.597 67.4535L126.074 67.3572L127.519 67.2288L128.963 67.0683L129.67 66.972L130.376 66.8756L131.082 66.7472L131.788 66.6188L132.463 66.4904L133.137 66.3299L133.779 66.1694L134.453 65.9767L135.095 65.7841L135.705 65.5594L136.347 65.3347L136.925 65.11L137.535 64.821L138.113 64.5321L138.658 64.2432L139.204 63.9221L139.718 63.569L140.231 63.1838L140.713 62.8306L141.195 62.3812L141.644 61.9639L142.093 61.5144L142.511 61.0329L142.896 60.5192L143.281 60.0056L143.666 59.4598L144.02 58.9141L144.373 58.3362L144.694 57.7583L145.015 57.1484L145.304 56.5384L145.593 55.9285L145.882 55.2543L146.171 54.6122L146.395 53.9702L146.652 53.296L146.909 52.5897L147.134 51.9156L147.358 51.2093L147.551 50.503L147.936 49.0905L148.321 47.6459L148.675 46.2012L148.996 44.7566L149.317 43.344L149.638 41.8994L149.927 40.4869L150.216 39.0743L150.472 37.6939L150.761 36.2814L150.986 34.933L151.211 33.5526L151.435 32.1722L151.628 30.8238L151.789 29.4755L151.949 28.1272L152.078 26.7788L152.206 25.4305L152.302 24.0822L152.366 22.7338L152.399 21.4176V20.0693V18.7209L152.366 17.3726L152.302 16.0243L152.206 14.6759L152.078 13.3276L151.917 11.9472L151.628 9.21842L151.468 7.83798L151.339 6.48966L151.179 5.10922L151.114 3.72879L151.05 2.38044L151.018 1.67419V1" stroke="#CECECE" stroke-opacity="0.2" stroke-width="2.08869" stroke-miterlimit="10"/>
<path d="M70.1185 107.679L71.0816 106.876L72.0767 106.042L73.104 105.271L74.0992 104.501L74.645 104.115L75.1586 103.762L76.2181 103.056L77.3096 102.35L77.8232 101.997L78.369 101.644L78.8826 101.258L79.3963 100.873L79.8778 100.488L80.3594 100.038L80.8088 99.5889L81.0335 99.3642L81.2261 99.1074L81.4509 98.8506L81.6435 98.5617L81.8361 98.3048L81.9966 98.0159L82.1892 97.7269L82.3498 97.4059L82.5103 97.0849L82.6387 96.7318L82.7671 96.4108L82.9276 96.0576L83.0239 95.6723L83.1523 95.3192L83.3449 94.5488L83.5376 93.7462L83.6981 92.9757L83.8586 92.1731L84.0191 91.4348L84.1475 90.6964L84.2438 90.3433L84.3402 89.9901L84.4044 89.6691L84.5007 89.348L84.597 89.0591L84.6933 88.7702L84.7896 88.5134L84.918 88.2565L85.0143 88.0318L85.1427 87.8392L85.2712 87.6787L85.3995 87.5182L85.5601 87.3897L85.7206 87.2934L85.8811 87.2293L86.0737 87.1971L86.2663 87.165L86.459 87.1971L86.7158 87.2613L86.9084 87.3256L87.1652 87.4219L87.4221 87.5503L87.6468 87.7108L87.9357 87.8392L88.1925 88.0318L88.4494 88.2244L88.7704 88.4491L89.0272 88.6418L89.6051 89.1233L90.215 89.6049L91.4349 90.6L92.0449 91.0816L92.6227 91.5311L93.2327 91.9805L93.7785 92.3979L94.3242 92.7831L94.87 93.2004L95.3515 93.5857L95.8331 94.003L96.0578 94.1956L96.2825 94.4203L96.4751 94.6451L96.6678 94.8698L96.8283 95.0945L97.0209 95.3513L97.1493 95.6082L97.3098 95.865L97.4382 96.1539L97.5666 96.4428L97.6629 96.7318L97.7593 97.0207L97.8556 97.3417L97.8877 97.6628L97.9519 98.0159L97.984 98.3369V98.6901V99.0432V99.3642L97.9519 99.7174L97.8877 100.071L97.8556 100.424L97.7914 100.745L97.695 101.066L97.5666 101.355L97.4382 101.676L97.3098 101.965L97.1493 102.254L96.9888 102.51L96.7962 102.735L96.6036 102.96L96.3788 103.152L96.1541 103.377L95.8973 103.538L95.6405 103.698L95.3836 103.859L95.0947 104.019L94.8058 104.148L94.1958 104.404L93.5859 104.597L92.9438 104.822L91.6276 105.239L90.9855 105.464L90.3434 105.689L89.7335 105.977L89.1235 106.234L88.5136 106.555L87.9036 106.876L87.3258 107.165L86.7479 107.518L85.6243 108.16L84.5328 108.835L83.4412 109.477L82.8955 109.766L82.3498 110.055L81.8361 110.344L81.2583 110.6L80.7446 110.825L80.1989 111.018L79.6531 111.21L79.0752 111.371L78.5295 111.499L77.9516 111.628L77.3417 111.724L76.7317 111.788L76.0896 111.852L75.4155 111.884L74.7092 111.917H73.9708H73.2004H72.3978L71.5631 111.884L71.1779 111.852L70.7605 111.82L70.4074 111.788L70.0542 111.724L69.7011 111.628L69.4122 111.531L69.1554 111.435L69.0269 111.403L68.9306 111.307L68.8022 111.242L68.738 111.178L68.6417 111.082L68.6096 110.986L68.5454 110.921L68.5133 110.825L68.4812 110.729V110.6V110.504V110.376L68.5133 110.279L68.5454 110.119L68.6096 109.99L68.6417 109.862L68.8022 109.573L68.9628 109.284L69.1554 108.995L69.3801 108.674L69.6048 108.353L70.1185 107.679Z" stroke="#CECECE" stroke-opacity="0.2" stroke-width="2.08869" stroke-miterlimit="10"/>
<path d="M128.899 1L127.551 2.79779L126.235 4.65978L125.593 5.55866L124.951 6.48966L124.341 7.42063L123.763 8.38373L123.185 9.34683L122.639 10.342L122.093 11.3051L121.612 12.3324L121.162 13.3597L120.745 14.387L120.36 15.4464L120.007 16.5379L119.686 17.5973L119.397 18.7209L119.14 19.8124L118.915 20.9361L118.691 22.0276L118.53 23.1512L118.337 24.2748L118.209 25.3663L118.113 26.4899L117.984 27.5814L117.92 28.6729L117.824 29.7323L117.695 31.9153L117.631 33.0068L117.535 34.0662L117.438 35.1578L117.342 36.2493L117.182 37.3087L117.021 38.4323L116.796 39.5238L116.668 40.0695L116.54 40.6153L116.379 41.1931L116.251 41.7389L116.058 42.3167L115.865 42.8946L115.705 43.4725L115.48 44.0182L115.255 44.5961L114.999 45.1739L114.742 45.7518L114.453 46.3617L114.164 46.9396L113.875 47.5495L113.201 48.7374L112.527 49.9252L111.853 51.113L111.532 51.6909L111.21 52.2687L110.889 52.8466L110.601 53.3923L110.312 53.9381L110.055 54.4838L109.798 54.9975L109.573 55.5111L109.381 55.9927L109.252 56.4742L109.124 56.9237L109.092 57.1484L109.06 57.3731L109.027 57.5978V57.7905V57.9831V58.2078V58.3683L109.06 58.5609L109.092 58.7536L109.156 58.9141L109.22 59.0746L109.316 59.2351L109.381 59.3956L109.509 59.5561L109.637 59.6845L109.766 59.8129L109.894 59.9414L110.055 60.0698L110.215 60.1982L110.408 60.2945L110.601 60.4229L110.793 60.5192L110.986 60.5834L111.21 60.6797L111.435 60.776L111.66 60.8403L112.141 60.9687L112.687 61.0971L113.265 61.1934L113.811 61.2576L114.421 61.3218L115.063 61.3539H115.705H116.347L117.053 61.3218L117.727 61.2897L118.434 61.2255L119.108 61.1613L119.814 61.065L120.52 60.9366L121.227 60.8403L121.933 60.6797L122.607 60.5192L123.281 60.3587L123.955 60.1661L124.63 60.0056L125.24 59.7809L125.85 59.5561L126.459 59.3314L127.037 59.0746L127.615 58.8499L128.161 58.5609L128.707 58.272L129.22 58.0152L129.766 57.6941L130.248 57.4052L130.729 57.0521L131.211 56.7632L131.66 56.41L132.11 56.0569L132.527 55.7037L132.976 55.3185L133.362 54.9333L133.779 54.548L134.164 54.1628L134.517 53.7776L134.87 53.3602L135.224 52.9429L135.577 52.4934L135.93 52.0761L136.251 51.6267L136.572 51.1772L136.861 50.7278L137.182 50.2783L137.76 49.3473L138.273 48.3842L138.819 47.389L139.301 46.3939L139.782 45.3665L140.232 44.3392L140.617 43.2798L141.002 42.2204L141.355 41.1289L141.676 40.0374L141.965 38.9138L142.19 37.8223L142.447 36.6666L142.607 35.543L142.768 34.4194L142.864 33.2637L142.928 32.1079L142.96 30.9843V29.8286L142.896 28.6729L142.864 28.0951L142.8 27.5172L142.768 26.9393L142.672 26.3615L142.511 25.2058L142.318 24.0822L142.094 22.9586L141.58 20.6792L141.323 19.5556L141.066 18.432L140.874 17.3405L140.649 16.2169L140.585 15.6711L140.521 15.1254L140.456 14.5796L140.424 14.0018L140.392 13.456L140.36 12.9103V12.3645L140.392 11.8188L140.424 11.273L140.489 10.7594L140.553 10.1815L140.649 9.66786L140.777 9.12211L140.938 8.57634L141.066 8.0627L141.259 7.51696L141.997 5.36603L142.351 4.27453L142.511 3.72879L142.639 3.18301L142.768 2.63727L142.896 2.09152L142.928 1.54577L142.993 1" stroke="#CECECE" stroke-opacity="0.2" stroke-width="2.08869" stroke-miterlimit="10"/>
<path d="M133.843 1L133.073 4.08192L132.687 5.62286L132.27 7.16382L131.853 8.73687L131.403 10.2778L130.89 11.8188L130.376 13.3597L129.83 14.9007L129.252 16.4416L128.707 17.9505L128.129 19.4914L127.615 21.0003L127.326 21.7387L127.101 22.5091L126.877 23.2475L126.652 24.018L126.459 24.7563L126.267 25.4947L126.106 26.2331L125.978 26.9715L125.689 28.4482L125.432 29.957L125.175 31.4338L125.047 32.2043L124.854 32.9747L124.662 33.7452L124.469 34.5157L124.244 35.3183L123.955 36.153L123.666 36.9555L123.474 37.3729L123.313 37.7902L123.121 38.2076L122.928 38.6249L122.735 39.0743L122.511 39.4917L122.029 40.3585L121.548 41.2573L121.098 42.1241L120.873 42.5736L120.649 42.9909L120.456 43.4083L120.296 43.8256L120.103 44.2108L120.007 44.6282L119.878 45.0134L119.814 45.3665L119.782 45.7197L119.75 45.9123L119.782 46.0728V46.2333L119.814 46.4259L119.846 46.5544L119.878 46.7149L119.942 46.8754L120.039 47.0038L120.103 47.1643L120.199 47.2927L120.296 47.4212L120.424 47.5496L120.552 47.6459L120.713 47.7743L120.873 47.8706L121.034 47.9669L121.227 48.0632L121.387 48.1595L121.772 48.32L122.19 48.4164L122.639 48.5127L123.056 48.5769L123.474 48.609L123.699 48.5769H123.923L124.116 48.5448L124.309 48.5127L124.533 48.4485L124.694 48.4164L124.886 48.3521L125.079 48.2879L125.432 48.0953L125.753 47.9027L126.074 47.6459L126.363 47.3891L126.62 47.1001L126.909 46.7791L127.166 46.4259L127.39 46.0728L127.647 45.7197L127.872 45.3345L128.097 44.9813L128.514 44.1787L128.899 43.3762L129.317 42.6057L129.67 41.8352L130.055 41.0647L130.408 40.2943L130.729 39.5238L131.05 38.7854L131.371 38.0149L131.66 37.2766L131.949 36.5061L132.206 35.7677L132.463 34.9972L132.687 34.2589L132.912 33.5205L133.105 32.75L133.297 31.9795L133.458 31.2412L133.618 30.4707L133.715 29.7323L133.843 28.9619L133.939 28.1914L134.004 27.3888L134.036 26.6183L134.068 25.8478V25.0453L134.1 24.2427L134.068 23.4401V21.835L134.004 20.2298L133.939 18.5925L133.875 16.9874L133.843 15.3501V14.5475L133.875 13.745L133.907 12.9424L133.939 12.1398L134.068 10.5346L134.196 8.92948L134.357 7.35643L134.582 5.75128L134.806 4.14612L135.031 2.57307L135.256 1" stroke="#CECECE" stroke-opacity="0.2" stroke-width="2.08869" stroke-miterlimit="10"/>
<path d="M61.997 148.674L59.9745 148.771L57.9841 148.835L56.9889 148.867H55.9616L54.0033 148.835L53.0081 148.803H52.0129L51.0178 148.835L50.0547 148.867L49.541 148.899L49.0595 148.931L48.5458 148.995L48.0322 149.059L47.5185 149.156L47.0049 149.252L46.4912 149.38L45.9776 149.477L45.4639 149.637L44.9503 149.798L44.4366 149.99L43.8909 150.183L42.8314 150.6L41.8041 151.05L40.7448 151.499L40.2311 151.692L39.7175 151.852L39.2038 152.013L38.7223 152.141L38.2086 152.27L37.727 152.366L37.2455 152.398H37.0208H36.7961L36.5713 152.366H36.3466L36.1219 152.302L35.8972 152.27L35.7046 152.206L35.4798 152.109L35.2551 152.013L35.0625 151.949L34.8699 151.82L34.6773 151.692L34.4525 151.531L34.2599 151.371L34.0994 151.21L33.9068 151.018L33.7463 150.825L33.5858 150.6L33.4252 150.408L33.2647 150.183L32.9758 149.701L32.719 149.22L32.4942 148.706L32.3979 148.449L32.3337 148.193L32.2695 147.936L32.2053 147.679L32.1411 147.422L32.109 147.165L32.0769 146.909V146.652V146.395V146.17L32.109 145.945L32.1411 145.721L32.2053 145.496L32.2695 145.271L32.3337 145.079L32.43 144.854L32.5585 144.693L32.6548 144.469L32.7832 144.308L32.9116 144.116L33.0721 143.955L33.2326 143.795L33.3931 143.634L33.5536 143.473L33.9389 143.185L34.3562 142.896L34.8057 142.639L35.2872 142.382L35.8009 142.189L36.3145 141.965L36.8603 141.772L37.406 141.579L38.016 141.419L38.5938 141.258L39.1717 141.13L39.7817 141.002L41.0016 140.777L42.1894 140.584L43.3772 140.424L44.5329 140.295L45.6886 140.167L46.7801 140.103L47.9037 140.038L48.9953 140.006L50.0547 139.974H51.082L52.1414 140.006L53.1366 140.038L54.1318 140.103L55.127 140.199L56.1222 140.263L57.0852 140.359L58.0483 140.488L59.0114 140.616L59.9424 140.713L61.8365 141.002L63.6985 141.323L65.5605 141.612L67.4224 141.933L69.3165 142.221L71.2427 142.51L72.2058 142.607L73.1689 142.735L74.1641 142.864L75.1272 142.96L76.1224 143.024L77.1176 143.12L78.1128 143.185L79.108 143.249L80.1353 143.313L81.1305 143.345L82.1257 143.377H83.153H84.1803H85.2076L86.2349 143.345L87.2301 143.313L88.2574 143.281L89.2847 143.217L90.312 143.12L91.3072 143.024L92.3345 142.896L93.3618 142.799L94.357 142.639L95.3843 142.478L96.3795 142.318L97.3426 142.125L98.3699 141.9L99.333 141.676L100.328 141.419L101.291 141.162L102.254 140.873L103.25 140.584L105.176 139.974L107.102 139.332L108.996 138.69L110.922 138.048L112.816 137.406L114.71 136.796L115.673 136.539L116.669 136.25L117.6 136.026L118.563 135.769L119.558 135.544L120.521 135.351L121.516 135.159L122.511 134.998L123.475 134.902L124.47 134.806L125.465 134.709L126.492 134.677L127.487 134.709L128.483 134.741L128.996 134.774L129.51 134.838L129.991 134.902L130.505 134.966L131.019 135.03L131.5 135.127L132.014 135.223L132.495 135.351L133.009 135.48L133.491 135.64L134.004 135.769L134.518 135.961L135 136.122L135.513 136.347L135.995 136.539L136.476 136.796L136.99 137.021L137.471 137.278L137.953 137.567L138.467 137.855L138.948 138.144L139.43 138.465L139.879 138.786L140.329 139.172L140.778 139.493L141.195 139.878L141.613 140.263L141.998 140.616L142.383 141.002L142.736 141.419L143.057 141.804L143.378 142.221L143.635 142.671L143.924 143.088L144.117 143.506L144.342 143.955L144.47 144.404L144.63 144.822L144.695 145.271L144.759 145.721V146.17V146.62L144.695 147.069L144.566 147.518L144.438 147.936L144.277 148.385L144.053 148.835L143.828 149.252L143.571 149.701L143.25 150.119L142.961 150.504L142.608 150.921L142.223 151.339L141.837 151.724L141.452 152.109L141.003 152.462L140.585 152.815L140.104 153.169L139.622 153.522L139.141 153.811L138.627 154.132L138.114 154.421L137.6 154.71L137.086 154.934L136.54 155.191L136.027 155.416L135.481 155.608L134.935 155.801L134.39 155.93L133.876 156.09L133.33 156.186L132.817 156.283L132.271 156.347L131.789 156.379L131.276 156.411H130.762L130.28 156.379L129.767 156.347L129.285 156.283L128.804 156.218L128.354 156.09L127.873 155.994L127.423 155.833L126.942 155.705L126.492 155.512L126.043 155.352L125.593 155.159L125.144 154.934L124.694 154.742L124.277 154.485L123.41 154.003L122.544 153.49L121.677 152.912L120.81 152.366L119.975 151.756L118.242 150.536L117.375 149.926L116.508 149.316L115.609 148.738L114.71 148.193L113.811 147.647L112.88 147.133L112.399 146.909L111.917 146.684L111.436 146.459L110.986 146.266L110.473 146.074L109.959 145.881L109.445 145.721L108.964 145.592L108.418 145.464L107.904 145.335L107.391 145.239L106.845 145.143L106.331 145.079L105.786 145.014L105.272 144.982L104.726 144.95H104.181H103.635H103.121L102.575 144.982L102.062 145.047L101.516 145.111L101.002 145.175L100.489 145.239L99.975 145.368L99.4614 145.464L98.9477 145.592L98.4662 145.753L97.9846 145.913L97.5031 146.074L97.0536 146.266L96.5721 146.459L96.1548 146.684L95.7053 146.909L95.288 147.165L94.8706 147.422L94.4854 147.711L94.1002 147.968L93.747 148.289L93.3939 148.61L93.0408 148.931L92.6876 149.252L92.3987 149.605L92.0776 149.958L91.7887 150.344L91.4998 150.697L91.1788 151.082L90.9219 151.499L90.3762 152.302L89.8625 153.137L89.3168 154.003L88.8352 154.902L88.3216 155.801L87.8079 156.7L87.2622 157.631L86.7164 158.53L86.1386 159.461L85.4965 160.36L85.1755 160.809L84.8544 161.259L84.5013 161.708L84.1803 162.125L83.795 162.511L83.4419 162.896L83.0567 163.249L82.6393 163.538L82.4467 163.666L82.2541 163.827L82.0615 163.923L81.8367 164.02L81.6441 164.116L81.4194 164.18L81.2268 164.244L81.0021 164.308L80.7774 164.341H80.5526L80.3279 164.373L80.1032 164.341H79.8785L79.6538 164.308L79.429 164.244L79.2043 164.18L78.9796 164.116L78.7548 164.052L78.5301 163.955L78.3054 163.859L77.856 163.602L77.4065 163.345L76.9571 163.056L76.5397 162.703L76.0903 162.318L75.6729 161.933L75.2877 161.483L74.8704 161.066L74.5172 160.584L74.1641 160.103L73.811 159.621L73.4899 159.108L73.201 158.594L72.9121 158.08L72.6553 157.567L72.3984 157.021L72.1737 156.507L71.949 155.994L71.5637 154.966L71.1464 153.939L70.9538 153.49L70.7612 153.008L70.5686 152.559L70.3438 152.109L70.1191 151.692L69.8944 151.307L69.6376 150.921L69.3486 150.6L69.0597 150.279L68.7387 149.99L68.5782 149.862L68.4176 149.734L68.225 149.637L68.0003 149.509L67.8398 149.413L67.6151 149.348L67.1977 149.188L66.7483 149.027L66.2667 148.963L65.7852 148.867L65.2715 148.803L64.7579 148.738L64.2121 148.706L63.6664 148.674H63.1206H61.997Z" stroke="#CECECE" stroke-opacity="0.2" stroke-width="2.08869" stroke-miterlimit="10"/>
<path d="M79.1395 155.352L78.8506 154.935L78.5296 154.517L78.2085 154.132L78.0159 153.939L77.8554 153.747L77.6628 153.586L77.4702 153.426L77.2776 153.297L77.0528 153.137L76.8281 153.041L76.6034 152.912L76.154 152.719L75.7045 152.495L75.4798 152.398L75.2551 152.27L75.0303 152.109L74.8377 151.949L74.6451 151.756L74.4846 151.564L74.3241 151.307L74.1957 151.05L74.0672 150.761L73.9709 150.44L73.8746 150.119L73.8104 149.798L73.7783 149.477L73.7462 149.156V148.835L73.7783 148.514V148.225L73.8425 147.968L73.9388 147.711L74.0672 147.519L74.0994 147.422L74.1636 147.358L74.2599 147.262L74.3241 147.198L74.4204 147.166L74.4846 147.101H74.5809H74.7093H74.8056H74.9019L75.1587 147.133L75.4156 147.23L75.6724 147.294L75.9613 147.358L76.2503 147.39L76.5392 147.422H76.8281H77.1171L77.406 147.39L77.6949 147.358L78.0159 147.294L78.5938 147.166L79.2037 147.037L79.7816 146.845L80.3274 146.716L80.8731 146.556L81.1299 146.491L81.3868 146.427L81.6436 146.395L81.8683 146.331L82.093 146.299H82.3177H82.5104L82.703 146.331L82.8956 146.395L83.0561 146.459L83.2166 146.556L83.345 146.652L83.4735 146.78L83.5698 146.973L83.6661 147.166L83.7303 147.358L83.7945 147.583L83.8587 147.84L83.8908 148.097L83.9229 148.353L83.955 148.642V148.931V149.509L83.9229 150.087L83.8908 150.633L83.7945 151.146L83.7303 151.628L83.6019 152.109L83.5056 152.559L83.345 153.041L83.1845 153.522L82.9598 153.971L82.7672 154.517L82.5104 155.031L82.3499 155.32L82.2214 155.577L82.0609 155.833L81.9004 156.026L81.7399 156.251L81.5794 156.411L81.3868 156.54L81.2904 156.604L81.1941 156.636L81.0978 156.668H81.0015H80.9373H80.841L80.7126 156.636L80.6163 156.604L80.4237 156.508L80.199 156.347L80.0063 156.187L79.7816 155.994L79.589 155.801L79.1395 155.352Z" stroke="#CECECE" stroke-opacity="0.2" stroke-width="2.08869" stroke-miterlimit="10"/>
<path d="M83.313 194.998L84.0513 193.714L84.4045 193.04L84.7255 192.366L84.886 192.013L85.0465 191.66L85.175 191.274L85.3034 190.889L85.4318 190.504L85.5602 190.087L85.6565 189.669L85.7528 189.252L85.817 188.803L85.9133 188.353L85.9454 187.872L85.9775 187.39L86.0418 186.908L86.0739 186.427L86.1059 185.4V184.372V183.377V182.382L86.0739 181.419V180.969V180.52V180.071V179.653V179.236V178.851L86.1059 178.497L86.1381 178.144L86.1702 177.823L86.2023 177.534L86.2665 177.278L86.2986 177.053L86.3949 176.828L86.4591 176.668L86.5875 176.539L86.6838 176.411L86.748 176.379H86.8122L86.8764 176.347L86.9727 176.314L87.1012 176.347L87.2938 176.379L87.4864 176.475L87.679 176.603L87.9037 176.732L88.1285 176.892L88.3532 177.117L88.61 177.342L88.8668 177.566L89.1558 177.823L89.4126 178.144L89.7336 178.433L90.0225 178.754L90.3115 179.107L90.6325 179.461L90.9214 179.814L91.5956 180.584L92.2377 181.355L92.9118 182.125L93.6181 182.928L94.2923 183.666L94.9985 184.404L95.6727 185.111L96.3469 185.785L96.9889 186.395L97.6952 187.005L98.3373 187.583L99.0114 188.128L99.6535 188.642L100.296 189.124L100.97 189.605L101.612 190.055L102.254 190.472L102.928 190.857L103.57 191.242L104.212 191.628L104.854 191.981L105.496 192.334L106.138 192.655L107.422 193.297L108.674 193.875L109.959 194.453L111.211 194.998" stroke="#CECECE" stroke-opacity="0.2" stroke-width="2.08869" stroke-miterlimit="10"/>
<path d="M189.157 195L188.29 193.844L187.84 193.234L187.359 192.656L186.909 192.111L186.428 191.597L185.914 191.083L185.433 190.602L185.144 190.377L184.887 190.184L184.598 189.96L184.309 189.767L184.02 189.606L183.731 189.414L183.442 189.253L183.121 189.093L182.8 188.932L182.479 188.804L181.805 188.547L181.163 188.354L180.457 188.13L179.75 187.969L179.044 187.809L178.306 187.712L177.6 187.584L176.155 187.359L174.71 187.167L173.298 186.942L171.917 186.717L171.243 186.589L170.537 186.46L169.863 186.3L169.189 186.139L168.514 185.979L167.872 185.786L167.166 185.561L166.524 185.369L165.85 185.112L165.176 184.855L164.469 184.598L163.795 184.309L163.089 183.956L162.383 183.635L161.676 183.25L160.97 182.865L160.296 182.447L159.59 182.03L158.948 181.581L158.627 181.324L158.338 181.099L158.017 180.842L157.728 180.618L157.471 180.361L157.214 180.104L156.957 179.847L156.733 179.59L156.54 179.333L156.347 179.077L156.187 178.788L156.026 178.531L155.898 178.242L155.802 177.953L155.705 177.696L155.641 177.407L155.609 177.118V176.829V176.54L155.673 176.252L155.705 175.931L155.802 175.642L155.866 175.353L155.994 175.064L156.123 174.775L156.251 174.454L156.444 174.165L156.604 173.844L156.797 173.555L156.989 173.234L157.214 172.913L157.439 172.624L157.92 172.014L158.402 171.372L158.948 170.762L160.039 169.51L161.131 168.29L161.676 167.68L162.19 167.07L162.672 166.46L163.153 165.85L163.603 165.272L164.052 164.662L164.437 164.052L164.855 163.475L165.208 162.865L165.593 162.287L166.331 161.099L167.038 159.943L167.712 158.723L168.418 157.535L169.124 156.315L169.895 155.128L170.665 153.876L171.404 152.624L171.757 151.982L172.11 151.34L172.431 150.697L172.752 150.055L173.041 149.413L173.298 148.739L173.555 148.097L173.779 147.423L173.94 146.749L174.1 146.075L174.229 145.4L174.293 144.726L174.325 144.02L174.357 143.314L174.325 142.607L174.261 141.933L174.165 141.227L174.068 140.521L173.94 139.814L173.779 139.108L173.587 138.402L173.394 137.696L173.169 136.989L172.912 136.315L172.656 135.609L172.367 134.903L172.078 134.196L171.757 133.522L171.436 132.848L171.115 132.174L170.762 131.5L170.441 130.826L170.055 130.184L169.702 129.541L169.349 128.899L168.964 128.257L168.579 127.647L168.161 127.005L167.744 126.427L167.327 125.85L166.909 125.24L166.46 124.662L166.01 124.116L165.561 123.57L165.079 123.025L164.598 122.511L164.116 121.997L163.603 121.516L163.057 121.034L162.543 120.553L161.965 120.135L161.42 119.686L160.81 119.269L160.2 118.883L159.59 118.498L158.948 118.145L158.273 117.792L157.631 117.471L156.893 117.182L156.219 116.893L154.774 116.315L153.362 115.769L152.688 115.48L152.013 115.159L151.371 114.806L150.729 114.485L150.44 114.293L150.151 114.1L149.862 113.907L149.606 113.715L149.349 113.458L149.124 113.265L148.899 113.008L148.643 112.752L148.45 112.495L148.257 112.206L148.097 111.949L147.936 111.628L147.776 111.339L147.647 110.986L147.551 110.697L147.455 110.344L147.358 109.991L147.262 109.638L147.198 109.252L147.166 108.899L147.134 108.546L147.102 108.161V107.808V107.422V107.037L147.134 106.684L147.166 106.299L147.198 105.946L147.262 105.593L147.326 105.239L147.423 104.886L147.487 104.533L147.679 103.859L147.904 103.153L148.161 102.511L148.482 101.869L148.803 101.259L149.156 100.649L149.574 100.039L149.991 99.4609L150.408 98.883L150.89 98.3373L151.371 97.7915L151.885 97.2778L152.431 96.7321L152.976 96.2506L153.554 95.769L154.132 95.2875L154.742 94.8059L155.352 94.3565L155.994 93.9071L156.604 93.4897L157.246 93.0723L157.92 92.655L158.594 92.2377L159.237 91.8525L160.585 91.114L161.933 90.4078L163.282 89.7336L164.598 89.0916L165.946 88.5137L167.262 87.9359L168.611 87.4222L169.927 86.9406L171.275 86.4912L172.591 86.0739L173.94 85.6886L175.288 85.3355L176.669 85.0145L178.017 84.7256L179.397 84.4687L180.778 84.244L182.19 84.0514L183.571 83.8908L184.983 83.7303L186.396 83.634L187.84 83.5056L189.253 83.4093L190.698 83.3451L192.142 83.2809L194.999 83.1846" stroke="#CECECE" stroke-opacity="0.2" stroke-width="2.08869" stroke-miterlimit="10"/>
<path d="M194.999 188.964L192.752 188.225L191.629 187.84L190.537 187.455L189.446 187.005L188.386 186.556L187.84 186.331L187.327 186.074L186.813 185.818L186.299 185.529L185.786 185.272L185.304 184.983L184.309 184.341L183.346 183.699L182.383 183.057L181.452 182.35L180.521 181.612L179.59 180.842L178.659 180.039L177.76 179.204L176.829 178.37L175.93 177.503L175.513 177.053L175.095 176.604L174.678 176.122L174.293 175.673L173.908 175.191L173.554 174.742L173.201 174.228L172.848 173.747L172.559 173.265L172.27 172.752L172.014 172.238L171.757 171.724L171.564 171.179L171.371 170.665L171.243 170.119L171.115 169.573L171.018 169.028L170.954 168.45L170.922 167.904V167.326V166.748L170.986 166.17L171.05 165.593L171.179 165.015L171.275 164.437L171.404 163.859L171.596 163.249L171.757 162.671L171.949 162.093L172.142 161.516L172.367 160.938L172.591 160.36L172.848 159.782L173.105 159.236L173.619 158.113L174.164 157.021L174.742 155.962L175.32 154.902L175.898 153.907L176.508 152.88L177.118 151.917L177.76 150.921L180.264 147.037L180.874 146.042L181.516 145.047L182.126 144.019L182.704 142.992L183.25 141.965L183.539 141.451L183.763 140.905L184.02 140.36L184.245 139.846L184.47 139.3L184.662 138.754L184.887 138.177L185.047 137.599L185.208 137.021L185.368 136.475L185.497 135.865L185.625 135.287L185.722 134.677L185.786 134.067L185.818 133.457L185.882 132.815V132.205V131.563L185.85 130.921L185.818 130.311L185.722 129.669L185.657 129.059L185.529 128.449L185.433 127.839L185.272 127.261L185.08 126.652L184.887 126.106L184.662 125.56L184.437 125.046L184.181 124.533L183.892 124.019L183.571 123.57L183.25 123.12L182.896 122.735L182.511 122.35L182.126 121.997L181.709 121.676L181.259 121.354L180.81 121.098L180.328 120.809L179.847 120.552L179.333 120.327L178.819 120.135L178.274 119.91L177.728 119.717L177.15 119.525L176.572 119.364L175.994 119.204L174.774 118.85L173.522 118.529L172.27 118.176L170.986 117.823L170.312 117.598L169.67 117.406L168.996 117.181L168.354 116.956L167.712 116.7L167.07 116.443L166.46 116.186L165.85 115.897L165.272 115.608L164.694 115.287L164.116 114.966L163.603 114.645L163.121 114.292L162.639 113.939L162.222 113.553L161.805 113.168L161.612 112.976L161.452 112.783L161.291 112.558L161.131 112.333L161.002 112.109L160.874 111.916L160.745 111.691L160.649 111.467L160.553 111.242L160.456 110.985L160.392 110.76L160.328 110.504L160.296 110.279L160.264 110.022V109.765L160.232 109.508L160.264 109.252V108.995L160.296 108.706L160.36 108.449L160.392 108.192L160.456 107.903L160.617 107.357L160.81 106.812L161.066 106.266L161.323 105.688L161.612 105.142L161.965 104.597L162.318 104.051L162.704 103.505L163.089 102.991L163.538 102.478L163.956 101.964L164.437 101.483L164.887 101.001L165.368 100.552L165.85 100.102L166.363 99.6849L166.845 99.2996L167.359 98.9144L167.872 98.5613L168.354 98.2081L168.9 97.8871L169.413 97.5982L169.927 97.3092L170.473 97.0203L170.986 96.7956L171.532 96.5388L172.078 96.3141L172.624 96.0893L173.169 95.8967L173.715 95.7041L174.293 95.5115L175.416 95.1904L176.54 94.9015L177.664 94.6447L178.819 94.3879L179.943 94.1631L181.099 93.9384L183.41 93.5532L185.722 93.1679L188.033 92.8148L190.344 92.4296L194.999 91.7554" stroke="#CECECE" stroke-opacity="0.2" stroke-width="2.08869" stroke-miterlimit="10"/>
<path d="M195 182.608L193.427 181.741L192.657 181.324L191.854 180.906L191.084 180.457L190.345 179.976L189.575 179.494L188.836 179.012L188.13 178.467L187.424 177.921L186.75 177.343L186.429 177.054L186.108 176.733L185.787 176.412L185.466 176.091L185.177 175.738L184.888 175.385L184.599 175.064L184.31 174.678L184.053 174.325L183.796 173.94L183.539 173.587L183.315 173.17L183.09 172.784L182.865 172.399L182.673 171.982L182.48 171.597L182.319 171.179L182.159 170.762L182.03 170.345L181.902 169.927L181.806 169.478L181.709 169.093L181.613 168.643L181.581 168.226L181.517 167.776L181.485 167.359V166.91L181.453 166.46L181.485 166.043V165.593L181.517 165.144L181.581 164.694L181.677 163.828L181.838 162.929L182.03 162.03L182.255 161.163L182.48 160.264L182.769 159.365L183.058 158.466L183.347 157.6L183.668 156.733L184.31 154.999L184.984 153.298L185.722 151.628L186.461 149.959L187.199 148.322L188.002 146.717L188.804 145.112L189.639 143.538L190.474 141.965L191.372 140.424L192.239 138.883L193.138 137.375L194.069 135.866L195 134.357" stroke="#CECECE" stroke-opacity="0.2" stroke-width="2.08869" stroke-miterlimit="10"/>
<path d="M195 175.352L194.519 175.063L194.037 174.807L193.556 174.486L193.106 174.197L192.689 173.908L192.272 173.619L191.886 173.33L191.501 173.041L191.148 172.752L190.827 172.431L190.506 172.11L190.185 171.821L189.896 171.5L189.639 171.147L189.382 170.826L189.126 170.473L188.901 170.152L188.708 169.798L188.516 169.477L188.355 169.124L188.227 168.803L188.098 168.514L188.034 168.225L187.97 167.936L187.906 167.648L187.874 167.294L187.841 166.973L187.809 166.62V166.235L187.841 165.818L187.874 165.4L187.938 164.951L188.002 164.501L188.098 164.02L188.195 163.506L188.323 162.993L188.451 162.447L188.612 161.933L188.805 161.355L188.965 160.777L189.19 160.2L189.382 159.622L189.8 158.434L190.281 157.246L190.731 156.058L191.212 154.903L191.726 153.747L192.207 152.591L192.753 151.468L193.299 150.312L193.845 149.188L194.423 148.097L195 146.973" stroke="#CECECE" stroke-opacity="0.2" stroke-width="2.08869" stroke-miterlimit="10"/>
<path d="M195 97.9834L193.426 98.1439L191.821 98.2724L191.019 98.3365L190.216 98.465L189.381 98.5613L188.547 98.6897L187.68 98.8502L186.813 99.0107L185.914 99.2033L185.015 99.428L184.084 99.6528L183.121 99.9417L182.64 100.102L182.158 100.263L181.645 100.423L181.163 100.616L180.136 101.001L179.109 101.418L178.081 101.868L177.054 102.349L176.059 102.831L175.577 103.088L175.096 103.345L174.646 103.601L174.197 103.89L173.779 104.147L173.362 104.436L172.977 104.693L172.624 104.982L172.271 105.239L171.95 105.528L171.661 105.784L171.372 106.073L171.115 106.362L170.922 106.619L170.73 106.876L170.569 107.165L170.473 107.422L170.376 107.679L170.344 107.967V108.224V108.353L170.376 108.481L170.441 108.706L170.537 108.963L170.697 109.219L170.89 109.444L171.115 109.669L171.372 109.894L171.661 110.151L171.95 110.375L172.271 110.6L172.624 110.825L173.009 111.017L173.426 111.242L173.844 111.467L174.261 111.691L174.71 111.884L175.16 112.109L175.641 112.334L176.604 112.751L177.6 113.168L179.59 114.035L180.553 114.484L181.035 114.709L181.484 114.934L181.934 115.191L182.383 115.415L183.218 115.865L184.02 116.346L184.791 116.828L185.561 117.309L186.268 117.791L187.006 118.24L187.68 118.722L188.386 119.171L189.093 119.621L189.767 120.07L190.473 120.488L191.179 120.873L191.918 121.226L192.656 121.611L193.426 121.932L194.197 122.253L195 122.574" stroke="#CECECE" stroke-opacity="0.2" stroke-width="2.08869" stroke-miterlimit="10"/>
<path d="M195 102.125L193.972 102.028L192.945 101.932L191.95 101.868H191.436H190.923L190.441 101.932H189.927L189.446 101.996L188.932 102.092L188.451 102.221L187.937 102.317L187.456 102.51L186.942 102.67L186.46 102.927L185.979 103.184L185.497 103.473L185.016 103.794L184.566 104.147L184.117 104.532L183.699 104.917L183.282 105.303L182.897 105.72L182.544 106.137L182.191 106.587L181.902 107.004L181.613 107.454L181.356 107.903L181.163 108.32L181.099 108.513L181.003 108.706L180.939 108.93L180.874 109.123V109.316L180.81 109.508V109.701V109.893V110.054L180.842 110.214L180.874 110.375L180.906 110.536L180.971 110.696L181.035 110.857L181.131 110.985L181.228 111.113L181.292 111.274L181.42 111.402L181.549 111.499L181.677 111.627L181.805 111.755L181.966 111.852L182.319 112.076L182.672 112.269L183.09 112.462L183.507 112.622L183.988 112.783L184.47 112.911L184.984 113.04L185.561 113.168L186.139 113.296L186.717 113.393L187.327 113.489L187.969 113.553L188.643 113.65L189.285 113.714L189.992 113.746L190.666 113.81L192.11 113.938L193.555 114.003L195 114.099" stroke="#CECECE" stroke-opacity="0.2" stroke-width="2.08869" stroke-miterlimit="10"/>
<path d="M160.104 1L160.49 3.11882L160.65 4.14612L160.811 5.20553L160.971 6.26494L161.099 7.32432L161.196 8.38373L161.26 9.44314L161.324 10.5025V11.5619L161.292 12.6213L161.228 13.6808L161.132 14.7081L161.003 15.7675L160.811 16.8268L160.65 17.8863L160.425 18.9457L160.168 19.973L159.944 21.0324L159.655 22.0918L159.077 24.1785L158.467 26.2652L157.857 28.3519L157.247 30.4386L156.99 31.4659L156.701 32.4932L156.445 33.5526L156.22 34.5799L155.995 35.6072L155.802 36.6024L155.642 37.6618L155.481 38.657L155.385 39.6843L155.321 40.7116L155.257 41.7068V42.7341L155.289 43.7614L155.321 44.7566L155.353 46.8112L155.385 47.8064V48.8337L155.321 49.8931L155.289 50.4067L155.257 50.9204L155.193 51.434L155.128 51.9798L155.032 52.4934L154.936 53.0071L154.807 53.5528L154.679 54.0986L154.55 54.6444L154.358 55.158L154.165 55.7037L153.94 56.2816L153.716 56.7953L153.459 57.3731L153.138 57.9189L152.849 58.4967L152.496 59.0425L152.143 59.6203L151.725 60.1982L151.34 60.776L150.955 61.3218L150.57 61.8355L150.377 62.0923L150.217 62.3491L150.024 62.6059L149.895 62.8306L149.735 63.0554L149.639 63.248L149.51 63.4727L149.414 63.6653L149.35 63.8258L149.286 63.9864L149.253 64.1469V64.2753V64.3716L149.318 64.5L149.35 64.5642L149.446 64.6284L149.574 64.6926L149.703 64.7247H149.863H150.024H150.249H150.473L150.698 64.6605L150.923 64.6284L151.18 64.5642L151.469 64.5L151.725 64.4037L152.014 64.3074L152.335 64.2111L152.624 64.0827L153.234 63.8258L153.876 63.5369L154.518 63.1838L155.128 62.8628L155.738 62.4775L156.284 62.0923L156.573 61.8996L156.83 61.6749L157.087 61.4823L157.311 61.2576L157.536 61.0329L157.729 60.8403L157.921 60.6155L158.082 60.3908L158.242 60.1661L158.403 59.9735L158.66 59.524L158.916 59.0746L159.398 58.1757L159.88 57.2447L160.361 56.3137L160.778 55.3827L161.196 54.4196L161.613 53.4565L162.03 52.4613L162.384 51.4661L162.769 50.4709L163.122 49.4758L163.475 48.4485L163.796 47.4212L164.117 46.3939L164.406 45.3344L164.695 44.275L164.984 43.2477L165.241 42.1883L165.498 41.1289L165.722 40.0695L165.979 39.0101L166.172 37.9828L166.364 36.9234L166.589 35.864L166.75 34.8046L167.103 32.6858L167.392 30.5991L167.681 28.4803L167.937 26.3936L168.194 24.2748L168.419 22.156L168.644 20.0693L168.836 17.9505L169.222 13.7129L169.607 9.47525L170.281 1" stroke="#CECECE" stroke-opacity="0.2" stroke-width="2.08869" stroke-miterlimit="10"/>
<path d="M175.899 1L175.867 4.08192L175.802 7.16382L175.706 10.2778L175.61 13.3597L175.545 14.9007L175.449 16.4416L175.353 17.9826L175.257 19.4914L175.128 21.0645L175 22.5733L174.807 24.0822L174.647 25.6231L174.422 27.132L174.197 28.6729L173.94 30.1818L173.651 31.6906L173.298 33.1995L172.945 34.7404L172.56 36.2493L172.143 37.726L171.693 39.2027L171.404 39.9732L171.179 40.7116L170.891 41.4821L170.602 42.2204L170.313 42.9588L170.024 43.6972L169.382 45.1739L168.74 46.6507L168.098 48.1274L167.809 48.8658L167.52 49.6042L167.231 50.3425L166.974 51.0809L166.749 51.8193L166.557 52.5577L166.364 53.296L166.236 54.0344L166.107 54.7728L166.043 55.479V55.8643L166.011 56.2174L166.043 56.5705V56.9558L166.075 57.3089L166.107 57.6941L166.203 58.4004L166.364 59.1388L166.525 59.8772L166.717 60.6155L166.942 61.3539L167.167 62.0923L167.423 62.8306L167.969 64.3395L168.483 65.8804L168.74 66.6509L168.996 67.4214L169.478 68.9944L169.735 69.7649L169.992 70.5354L170.248 71.2738L170.537 71.9801L170.698 72.3332L170.858 72.6542L171.019 73.0073L171.212 73.3284L171.404 73.6494L171.597 73.9384L171.789 74.2273L172.014 74.5162L172.239 74.8051L172.496 75.0298L172.753 75.2867L173.009 75.5114L173.298 75.7361L173.587 75.9608L173.876 76.1534L174.197 76.3461L174.518 76.5066L174.839 76.6992L175.16 76.8597L175.513 76.9881L175.867 77.1487L176.22 77.2771L176.573 77.3734L176.958 77.5018L177.343 77.5981L177.729 77.6944L178.499 77.8549L179.302 77.9833L180.136 78.0796L180.971 78.1439L181.838 78.2081L182.672 78.2402H183.539H184.406L185.273 78.2081L186.14 78.1759L186.974 78.1117L187.841 78.0475L188.676 77.9833L189.51 77.887L190.313 77.7907L191.116 77.6623L191.886 77.566L192.689 77.4376L193.459 77.3091L195 77.0524" stroke="#CECECE" stroke-opacity="0.2" stroke-width="2.08869" stroke-miterlimit="10"/>
<path d="M184.213 1L184.373 3.50406L184.566 6.00811L184.694 8.48004L184.726 9.73206L184.791 10.952L184.823 12.204V13.4239V14.6438L184.791 15.8638L184.726 17.0837L184.662 18.3036L184.566 19.4914L184.437 20.6471L184.277 21.835L184.116 23.0228L183.892 24.1785L183.635 25.3342L183.346 26.4578L183.025 27.6135L182.672 28.7371L182.319 29.8607L181.933 30.9522L181.516 32.0758L181.099 33.1995L180.681 34.3552L179.782 36.6345L179.365 37.7902L178.916 38.978L178.498 40.1658L178.081 41.3536L177.696 42.6057L177.31 43.8256L176.957 45.1097L176.797 45.7518L176.636 46.3939L176.508 47.0359L176.347 47.678L176.251 48.32L176.155 48.9621L176.058 49.6042L175.994 50.2462L175.93 50.8562L175.898 51.4982V52.1082L175.93 52.7181L175.962 53.3281L176.026 53.9381L176.091 54.5159L176.219 55.1259L176.347 55.6717L176.508 56.2495L176.701 56.7953L176.957 57.341L177.182 57.8226L177.471 58.3362L177.792 58.8499L178.145 59.3314L178.563 59.7809L178.948 60.2303L179.397 60.6476L179.847 61.065L180.328 61.4502L180.842 61.8355L181.355 62.1886L181.901 62.5417L182.415 62.8628L182.993 63.1838L183.571 63.4727L184.148 63.7295L184.726 63.9864L185.336 64.2432L185.914 64.4358L186.524 64.6605L187.134 64.821L187.712 64.9815L188.322 65.11L188.932 65.2384L189.542 65.3668L190.152 65.431L190.73 65.5273L191.34 65.5915L191.95 65.6236L192.559 65.6557L193.169 65.6878H193.779H194.389H194.999" stroke="#CECECE" stroke-opacity="0.2" stroke-width="2.08869" stroke-miterlimit="10"/>
<path d="M195 10.5986L193.78 13.5521L192.56 16.5056L191.372 19.427L190.762 20.8395L190.184 22.2842L189.607 23.6967L188.997 25.1092L188.451 26.5218L187.873 27.9022L187.327 29.3469L186.846 30.7915L186.589 31.4978L186.364 32.2361L186.139 33.0066L185.915 33.7771L185.722 34.5476L185.497 35.318L185.337 36.1206L185.176 36.9553L185.016 37.7579L184.855 38.6247L184.727 39.4915L184.631 40.3903L184.534 41.2892L184.47 42.2202V43.1191V43.5685V44.018L184.502 44.4353L184.534 44.8848L184.599 45.3021L184.631 45.6874L184.727 46.1368L184.823 46.4899L184.92 46.8752L185.048 47.2604L185.208 47.6135L185.369 47.9346L185.562 48.2877L185.786 48.5766L186.011 48.8656L186.236 49.1224L186.525 49.3792L186.814 49.6039L187.135 49.7966L187.488 49.9571L187.873 50.1176L188.258 50.246L188.644 50.3423L189.061 50.4386L189.478 50.4707L189.896 50.5028L190.281 50.5349L190.698 50.5028L191.115 50.4386L191.501 50.3744L191.886 50.3102L192.239 50.1818L192.56 50.0213L192.913 49.8287L193.234 49.6681L193.523 49.4434L193.78 49.1866L194.069 48.9619L194.326 48.673L194.55 48.384L194.775 48.063L195 47.742" stroke="#CECECE" stroke-opacity="0.2" stroke-width="2.08869" stroke-miterlimit="10"/>
</svg>
